<?xml version="1.0" encoding="utf-8"?>
<!-- Generator: Adobe Illustrator 22.0.1, SVG Export Plug-In . SVG Version: 6.00 Build 0)  -->
<svg version="1.1" id="logo" xmlns="http://www.w3.org/2000/svg" xmlns:xlink="http://www.w3.org/1999/xlink" x="0px" y="0px"
	 viewBox="0 0 237 35" style="enable-background:new 0 0 237 35;" xml:space="preserve">
<style type="text/css">
	.st0{fill:#FFFFFF;}
</style>
<path id="Rray_Studio" class="st0" d="M61.4,15.7h4.1c2.3,0,3.5-1.1,3.5-3.2c0-2-1.2-2.9-3.5-2.9h-4.1C61.4,9.6,61.4,15.7,61.4,15.7
	z M61.4,28.7h-5V5.7h9.8c5.2,0.1,7.8,2.1,7.9,5.9c-0.1,3-1.7,4.8-4.7,5.6v0.1c2.6,0.1,3.9,1.8,4.1,5.1c0.1,0.2,0.1,0.5,0.1,0.7
	c0.2,2.7,0.7,4.5,1.2,5.5h-5.3c-0.5-2-0.8-4.1-0.9-6.2c-0.2-2-0.9-3-2.1-3h-5.2V28.7L61.4,28.7z M82.2,12.7v3h0.1
	c0.9-2.2,2.7-3.3,5.5-3.1v4.2h-2.1c-0.9,0.1-1.7,0.5-2.4,1.1c-0.3,0.8-0.5,1.5-0.6,2.4v8.4H78V14.8c-0.1-0.9-0.1-1.6-0.1-2.1H82.2z
	 M93.9,23.7c0,1.2,0.9,2.2,2.1,2.2c0.1,0,0.2,0,0.2,0c1.9,0,2.8-1.6,2.7-4.7C95.6,21,93.9,21.8,93.9,23.7L93.9,23.7L93.9,23.7z
	 M90.1,17.3c0-1.6,0.8-3.1,2.2-4c1.5-0.7,3.1-1.1,4.7-1c4.5,0,6.7,2,6.7,5.9v8.7c0,0.2,0,0.3,0.1,0.5c0.1,0.4,0.1,0.8,0.1,1.2h-4.2
	c-0.2-0.7-0.2-1.4-0.2-2.1c-1,1.7-2.6,2.4-5,2.4c-3.4-0.2-5.1-1.7-5.2-4.6c0.1-2.2,1.4-4.2,3.5-5.1c2-0.7,4.1-0.9,6.2-0.9v-1.5
	c-0.1-1.2-1.1-2-2.2-2c-1.2,0.1-1.9,0.9-2.1,2.4L90.1,17.3L90.1,17.3z M118.7,12.7h4.7l-8.1,21.8h-4.7l2-5.8l-6.1-16h5.1l3.5,11l0,0
	L118.7,12.7z M146.7,12.3c-0.1-2.3-1.3-3.5-3.7-3.5c-2.4,0.2-3.6,1.2-3.7,3c-0.2,1.7,1.2,2.8,4.2,3.2c0.2,0,0.4,0.1,0.6,0.1
	c5.4,1.1,8,3.2,7.9,6.3c-0.1,4.8-3.3,7.3-9.8,7.4c-5.9,0-8.9-2.5-8.8-7.6h5c0,2.6,1.3,4,3.8,4.2c3-0.1,4.5-1.1,4.6-3
	c0-1.6-1.4-2.6-4.3-3.2c-0.3,0-0.6-0.1-0.9-0.2c-5-1.2-7.6-3.3-7.6-6.3c0.2-4.7,3.4-7.2,9.5-7.6c5,0.2,7.6,2.6,7.8,7.1L146.7,12.3
	L146.7,12.3z M157.1,12.7V9.6l4.8-1.7v4.8h3.5v3.2h-3.5v7.4c-0.2,2,0.5,2.8,1.9,2.6c0.5,0,1.1,0,1.6-0.1v2.9
	c-1.3,0.1-2.6,0.2-3.8,0.2c-3.1,0.2-4.6-1.6-4.5-5.2v-7.8h-3.2v-3.2L157.1,12.7L157.1,12.7z M178.2,26.7c-1.1,1.5-2.9,2.4-4.8,2.2
	c-2.9-0.2-4.7-1.4-5.3-3.3c-0.2-0.8-0.3-1.6-0.2-2.5V12.7h4.7v9.7c0.1,2.4,1,3.6,2.9,3.6c1.8-0.2,2.8-1.4,2.9-3.6v-9.7h4.8v13.1
	c0,0.5,0.1,0.9,0.1,1.4v1.5h-4.7L178.2,26.7z M194.6,25.9c2.1-0.2,3.2-1.9,3.3-5.2c-0.2-3.4-1.3-5.2-3.3-5.3c-2.4,0-3.6,1.8-3.5,5.3
	C191,24.2,192.2,25.9,194.6,25.9L194.6,25.9z M197.9,5.7h4.8v19.7c0,1.2,0,2.2,0.1,3.2h-4.8v-1.1c-0.1-0.4-0.1-0.7-0.1-1.1
	c-0.9,1.7-2.5,2.5-4.8,2.5c-4.3-0.2-6.6-2.9-6.9-8.2c0.3-5.4,2.8-8.2,7.4-8.4c1.7,0,3.3,0.9,4.3,2.2l0,0L197.9,5.7L197.9,5.7z
	 M210.9,12.7v16H206v-16L210.9,12.7L210.9,12.7z M211,5.7v4.1h-5.1V5.7L211,5.7L211,5.7z M222.1,28.9c-5.3-0.2-8.1-2.9-8.3-8.2
	c0.2-5.4,3-8.2,8.3-8.4c5.3,0.2,8.1,3.1,8.3,8.4C230.1,26,227.4,28.8,222.1,28.9L222.1,28.9z M222.1,25.9c2.3,0,3.5-1.7,3.5-5.2
	c0.1-3.6-1.1-5.3-3.5-5.3c-2.2,0-3.3,1.8-3.3,5.3C218.7,24.2,219.9,25.9,222.1,25.9L222.1,25.9z"/>
<path id="椭圆_1" class="st0" d="M15.9,22.1l-1.3,2.3H12l-1.3-2.3l1.3-2.3h2.6L15.9,22.1z M20.5,24.8l-1.3,2.3h-2.6l-1.3-2.3
	l1.3-2.3h2.6L20.5,24.8z M20.1,29.4l-1,1.7h-1.9l-1-1.7l1-1.7h1.9L20.1,29.4z M19.3,32.2l0.3-0.6h0.6l0.3,0.6l-0.3,0.6h-0.6
	L19.3,32.2z M15,26.2l-0.9,1.5h-1.7l-0.9-1.5l0.9-1.5h1.7L15,26.2z M11.8,25l-1,1.8h-2l-1-1.8l1-1.8h2L11.8,25z M13.1,28.8l-0.5,0.8
	h-1l-0.5-0.8l0.5-0.8h1L13.1,28.8z M13.4,30.3l-0.2,0.4h-0.4l-0.2-0.4l0.2-0.4h0.4L13.4,30.3z M11,29.9l-0.1,0.2h-0.3l-0.1-0.2
	l0.1-0.2h0.3L11,29.9z M47.3,21.1c-0.6,0.9-2,2.3-4.8,2.8c-1.4,0.2-2.8,0.2-4.2,0c-2-0.4-3.9-0.8-6-1.2c-1.8-0.5-3.6-0.7-5.5-0.7
	c-1.2,0-2.5-0.5-3.6,0.3c-7.3,5.1-2.5,4.3-4.3,4.8c-0.1,0-0.1,0-0.2,0c-0.1,0-0.1-0.1-0.1-0.1c-0.2-0.5-1.4-2.3-1-4.2
	c0.1-0.4,0.2-0.7,0.3-1h-1.5l-1.2-0.6c-1.2-0.6-2.4-1-3.7-1.3c-2.5-0.6-4.6-0.6-4.9-1.5c0-0.2,0-0.4,0.1-0.6c0.4-1,1.5-1.8,1.4-2.3
	c-0.1-0.4-0.6-0.6-1.5-0.9C5.8,14.2,4.9,14.1,4,14c4.7-2,9.7-4.4,9.4-6c-0.1-0.3-0.5-0.5-0.9-0.7c1.2-0.6,2.5-1.1,3.9-1.5
	c1.3-0.3,2.7-0.4,4-0.3c0.1-0.1,0.2-0.3,0.3-0.4c0-0.3-0.2-0.5-0.4-0.6c3.9-1.2,7.4-1.9,9.7-1.3c0.3,0.1,1.3,0.3,1.5,0
	c0.1-0.2-0.2-0.5-0.4-0.9c4.1,0.4,7,2.9,10.7,5.5c2.4,1.7,2.4,5.3,2.5,6.9c0.1,1.2,0.4,2.4,0.9,3.6c0.8,1.7,2.5,1.6,2.5,2.2
	C47.6,20.7,47.5,20.9,47.3,21.1z M40.5,7.9c-4.3-3-5.9-4-8.2-4.3c-0.2,0-0.2,0.4-0.4,0.4c-4.1,0.3-6.4-0.4-10.1,1
	c-0.2,0.1,0,0.4-0.1,0.7c-0.1,0.3-0.3,0.5-0.6,0.6c-1.1,0.6-3.3,0.2-4.3,0.3c-0.8,0.1-1.5,0.4-2.2,0.7c-0.1,0.2-0.1,0.4,0,0.6
	c0,0,0,0.1,0.1,0.1c0.2,0.4-0.4,1.3-1.4,2.3c-1.7,1.7-4.8,2-7.1,3.3c0.7-0.2,1.4-0.1,2.1,0.2c0.5,0.2,0.9,0.5,1.2,1
	c0.3,0.8-0.7,1.9-1.5,3c1.3,0.3,3.8,1.5,5.5,1.5c2.7,0,5.2-1.7,5.1-2.2c-0.1-0.2-0.5-0.3-1-0.3c1.2-0.7,2.4-1.4,3.5-2
	c-0.8,0-1.6,0.1-2.3,0.4c2.2-1.9,4.3-2.2,6-1.8c0.3-0.1,0.6,0,0.8,0.2c0,0,0,0,0,0c0.6,0.2,1.1,0.4,1.6,0.7
	c-0.1-0.2-0.2-0.5-0.3-0.7c-0.8-2.5-4.6-1.5-4.6-1.5c4.4-3.9,8.6-1,9.9,0.1c0.6-0.2,1.2-0.3,1.8-0.3c0.8,0,2.6,0.7,4.4,2
	c0.5,0.4,1.1,0.7,1.8,0.9c1,0.3,2.5,0.3,3.1-0.4C43.9,13.3,43.2,10.7,40.5,7.9L40.5,7.9z M42,17.4c-0.3-0.2-0.6-0.4-0.9-0.6
	c-0.7-0.4-1.6-0.6-2.4-0.6c-0.6-0.6-1.2-1.2-1.9-1.8c-1.3-1-2.4-1.5-3.1-1.5c-1.3,0-2.4,0.9-3.1,1.9c-0.8,1.4-1.2,2.6-0.7,3.4
	c0.4,0.7,1.5,0.9,1.6,1.6c0,0.3-0.1,0.6-0.3,0.9C31,21,30.9,21.2,31,21.4c0.1,0.4,0.5,0.5,0.9,0.4c2.8,0.6,7.4,1.4,9.2,0.7
	c0.5-0.1,0.9-0.4,1.2-0.7c0.3-0.4,1-0.7,1.2-1c0.3-0.4,0.4-1,0.4-1.5C43.9,18.8,43.2,18.3,42,17.4L42,17.4z M34.8,17.4
	c-0.8-0.3-1.2-0.9-1.1-1.4c0.2-0.5,1-0.7,1.7-0.4c0.8,0.3,1.3,1.9,1.3,1.9C36.1,17.6,35.4,17.5,34.8,17.4L34.8,17.4z M27.7,26.6
	c0.2,0.1,0.3,0.2,0.4,0.4c0.1,0.2,0.1,0.3,0.2,0.5c0,0.2,0,0.4,0,0.6c0,0.2,0,0.4,0,0.6c0,0.1-0.1,0.2-0.1,0.4
	c-0.1,0.1-0.1,0.2-0.2,0.2l-0.3,0.2c0.1,0,0.2,0.1,0.3,0.1c0.1,0.1,0.2,0.1,0.2,0.2c0.1,0.1,0.1,0.2,0.1,0.3c0,0.1,0,0.2,0,0.3
	l0,0.7l-1.4,0.3v-0.6c0-0.1,0-0.2-0.1-0.3c0-0.1-0.1-0.2-0.2-0.2C26.6,30,26.5,30,26.4,30h-1.6v1l-1.3,0.3v-4.8h3.5
	C27.2,26.4,27.5,26.5,27.7,26.6z M26.6,27.6c-0.1-0.1-0.2-0.1-0.4-0.1h-1.5v1.4h1.6c0.1,0,0.3,0,0.4-0.1c0.1,0,0.1-0.1,0.2-0.1
	c0.1-0.1,0.1-0.3,0.1-0.4c0-0.2,0-0.3-0.1-0.5C26.8,27.8,26.7,27.7,26.6,27.6L26.6,27.6z M30.2,28c0.1-0.1,0.2-0.1,0.2-0.2
	c0.1-0.1,0.2-0.1,0.3-0.1c0.1,0,0.2,0,0.3,0c0.1,0,0.2,0,0.3,0c0.1,0,0.2,0.1,0.3,0.1c0.1,0.1,0.2,0.2,0.3,0.3
	c0.1,0.1,0.1,0.3,0.1,0.4c0,0.2,0,0.3,0,0.5v0.2h-1.2c0-0.1,0-0.2,0-0.3c0-0.1,0-0.1-0.1-0.2c0,0-0.1-0.1-0.2-0.1
	c-0.1,0-0.1,0-0.2,0c-0.1,0-0.2,0.1-0.2,0.2c-0.1,0.1-0.1,0.2-0.1,0.4V31L29,31.3v-3.5h1.2L30.2,28z M33.1,29.5
	c0.1-0.1,0.2-0.2,0.3-0.3c0.2-0.1,0.3-0.1,0.5-0.1h0.9c0,0,0.1,0,0.3,0c0.1,0,0.2,0,0.3,0l0.1,0.1c0-0.1,0-0.2,0-0.2
	c0-0.1,0-0.1,0-0.2c0-0.1-0.1-0.1-0.1-0.1c-0.1,0-0.1-0.1-0.2-0.1c-0.1,0-0.1,0-0.2,0h-0.3c-0.1,0-0.1,0-0.2,0c0,0-0.1,0-0.1,0.1
	l-0.1,0.2h-1.2l0-0.3c0-0.1,0-0.2,0-0.3c0-0.1,0.1-0.1,0.1-0.2c0.1-0.1,0.2-0.1,0.2-0.2c0.1,0,0.2-0.1,0.3-0.1c0.1,0,0.2,0,0.4,0
	h1.4c0.1,0,0.3,0,0.4,0.1c0.1,0,0.3,0.1,0.4,0.2c0.1,0.1,0.2,0.3,0.2,0.4c0,0.2,0.1,0.4,0.1,0.6l0,1.9l-1.2,0.3V31
	c-0.1,0-0.1,0.1-0.2,0.1c-0.1,0-0.2,0.1-0.3,0.1c-0.1,0-0.3,0-0.5,0H34c-0.1,0-0.3,0-0.4,0c-0.1,0-0.3-0.1-0.3-0.2
	c-0.1-0.1-0.2-0.2-0.2-0.3c0-0.1-0.1-0.3-0.1-0.4c0-0.2,0-0.3,0-0.5C32.9,29.7,33,29.6,33.1,29.5z M34.2,30.2c0,0,0,0.1,0.1,0.1
	c0,0,0.1,0.1,0.1,0.1c0.1,0,0.1,0,0.2,0h0.2c0.1,0,0.2,0,0.4,0c0.1,0,0.1-0.1,0.2-0.1c0-0.1,0.1-0.2,0-0.3c0-0.1,0-0.1-0.1-0.2
	c0,0-0.1-0.1-0.1-0.1c-0.1,0-0.2,0-0.3,0h-0.3c-0.1,0-0.1,0-0.2,0c-0.1,0-0.1,0-0.2,0.1c0,0-0.1,0.1-0.1,0.1
	C34.1,30.1,34.2,30.2,34.2,30.2z M37.5,27.8h1.3l0.8,2l0.7-2h1.4l-1.3,3.5c-0.2,0.5-0.3,0.8-0.4,0.9c-0.1,0.1-0.1,0.2-0.2,0.3
	c-0.1,0.1-0.1,0.1-0.2,0.1c-0.1,0-0.2,0-0.3,0h-0.7v-0.9c0.1,0,0.1,0,0.2,0c0,0,0.1,0,0.1,0c0.1,0,0.1-0.1,0.1-0.2
	c0.1-0.1,0.1-0.2,0.1-0.3l0.1-0.2h-0.3L37.5,27.8z"/>
</svg>
