<?xml version="1.0" encoding="utf-8"?>
<!-- Generator: Adobe Illustrator 22.0.1, SVG Export Plug-In . SVG Version: 6.00 Build 0)  -->
<svg version="1.1" id="logo" xmlns="http://www.w3.org/2000/svg" xmlns:xlink="http://www.w3.org/1999/xlink" x="0px" y="0px"
	 viewBox="0 0 237 35" style="enable-background:new 0 0 237 35;" xml:space="preserve">
<style type="text/css">
	.st0{fill:#434B53;}
	.st1{fill:url(#SVGID_1_);}
	.st2{fill:url(#SVGID_2_);}
	.st3{fill:url(#SVGID_3_);}
	.st4{fill:url(#SVGID_4_);}
	.st5{fill:url(#SVGID_5_);}
	.st6{fill:url(#SVGID_6_);}
	.st7{fill:url(#SVGID_7_);}
	.st8{fill:url(#SVGID_8_);}
	.st9{fill:url(#SVGID_9_);}
	.st10{fill:url(#SVGID_10_);}
	.st11{fill:url(#SVGID_11_);}
	.st12{fill:url(#SVGID_12_);}
	.st13{fill:url(#SVGID_13_);}
</style>
<path id="Rray_Studio" class="st0" d="M61.4,15.7h4.1c2.3,0,3.5-1.1,3.5-3.2c0-2-1.2-2.9-3.5-2.9h-4.1V15.7z M61.4,28.7h-5v-23h9.8
	c5.2,0.1,7.8,2.1,7.9,5.9c-0.1,3-1.7,4.8-4.7,5.6v0.1c2.6,0.1,3.9,1.8,4.1,5.1c0.1,0.2,0.1,0.5,0.1,0.7c0.2,2.7,0.7,4.5,1.2,5.5
	h-5.3c-0.5-2-0.8-4.1-0.9-6.2c-0.2-2-0.9-3-2.1-3h-5.2v9.3H61.4z M82.2,12.7v3h0.1c0.9-2.2,2.7-3.3,5.5-3.1v4.2h-2.1
	c-0.9,0.1-1.7,0.5-2.4,1.1c-0.3,0.8-0.5,1.5-0.6,2.4v8.4H78V14.8c-0.1-0.9-0.1-1.6-0.1-2.1C77.9,12.7,82.2,12.7,82.2,12.7z
	 M93.9,23.7c0,1.2,0.9,2.2,2.1,2.2c0.1,0,0.2,0,0.2,0c1.9,0,2.8-1.6,2.7-4.7C95.6,21,93.9,21.8,93.9,23.7L93.9,23.7L93.9,23.7z
	 M90.1,17.3c0-1.6,0.8-3.1,2.2-4c1.5-0.7,3.1-1.1,4.7-1c4.5,0,6.7,2,6.7,5.9v8.7c0,0.2,0,0.3,0.1,0.5c0.1,0.4,0.1,0.8,0.1,1.2h-4.2
	c-0.2-0.7-0.2-1.4-0.2-2.1c-1,1.7-2.6,2.4-5,2.4c-3.4-0.2-5.1-1.7-5.2-4.6c0.1-2.2,1.4-4.2,3.5-5.1c2-0.7,4.1-0.9,6.2-0.9v-1.5
	c-0.1-1.2-1.1-2-2.2-2c-1.2,0.1-1.9,0.9-2.1,2.4L90.1,17.3L90.1,17.3z M118.7,12.7h4.7l-8.1,21.8h-4.7l2-5.8l-6.1-16h5.1l3.5,11l0,0
	L118.7,12.7z M146.7,12.3c-0.1-2.3-1.3-3.5-3.7-3.5c-2.4,0.2-3.6,1.2-3.7,3c-0.2,1.7,1.2,2.8,4.2,3.2c0.2,0,0.4,0.1,0.6,0.1
	c5.4,1.1,8,3.2,7.9,6.3c-0.1,4.8-3.3,7.3-9.8,7.4c-5.9,0-8.9-2.5-8.8-7.6h5c0,2.6,1.3,4,3.8,4.2c3-0.1,4.5-1.1,4.6-3
	c0-1.6-1.4-2.6-4.3-3.2c-0.3,0-0.6-0.1-0.9-0.2c-5-1.2-7.6-3.3-7.6-6.3c0.2-4.7,3.4-7.2,9.5-7.6c5,0.2,7.6,2.6,7.8,7.1L146.7,12.3
	L146.7,12.3z M157.1,12.7V9.6l4.8-1.7v4.8h3.5v3.2h-3.5v7.4c-0.2,2,0.5,2.8,1.9,2.6c0.5,0,1.1,0,1.6-0.1v2.9
	c-1.3,0.1-2.6,0.2-3.8,0.2c-3.1,0.2-4.6-1.6-4.5-5.2v-7.8h-3.2v-3.2L157.1,12.7L157.1,12.7z M178.2,26.7c-1.1,1.5-2.9,2.4-4.8,2.2
	c-2.9-0.2-4.7-1.4-5.3-3.3c-0.2-0.8-0.3-1.6-0.2-2.5V12.7h4.7v9.7c0.1,2.4,1,3.6,2.9,3.6c1.8-0.2,2.8-1.4,2.9-3.6v-9.7h4.8v13.1
	c0,0.5,0.1,0.9,0.1,1.4v1.5h-4.7L178.2,26.7z M194.6,25.9c2.1-0.2,3.2-1.9,3.3-5.2c-0.2-3.4-1.3-5.2-3.3-5.3c-2.4,0-3.6,1.8-3.5,5.3
	C191,24.2,192.2,25.9,194.6,25.9L194.6,25.9z M197.9,5.7h4.8v19.7c0,1.2,0,2.2,0.1,3.2H198v-1.1c-0.1-0.4-0.1-0.7-0.1-1.1
	c-0.9,1.7-2.5,2.5-4.8,2.5c-4.3-0.2-6.6-2.9-6.9-8.2c0.3-5.4,2.8-8.2,7.4-8.4c1.7,0,3.3,0.9,4.3,2.2l0,0V5.7L197.9,5.7z M210.9,12.7
	v16H206v-16L210.9,12.7L210.9,12.7z M211,5.7v4.1h-5.1V5.7H211L211,5.7z M222.1,28.9c-5.3-0.2-8.1-2.9-8.3-8.2
	c0.2-5.4,3-8.2,8.3-8.4c5.3,0.2,8.1,3.1,8.3,8.4C230.1,26,227.4,28.8,222.1,28.9L222.1,28.9z M222.1,25.9c2.3,0,3.5-1.7,3.5-5.2
	c0.1-3.6-1.1-5.3-3.5-5.3c-2.2,0-3.3,1.8-3.3,5.3C218.7,24.2,219.9,25.9,222.1,25.9L222.1,25.9z"/>
<g>
	<linearGradient id="SVGID_1_" gradientUnits="userSpaceOnUse" x1="19.475" y1="30.725" x2="16.825" y2="28.075">
		<stop  offset="0.2439" style="stop-color:#006BA2"/>
		<stop  offset="1" style="stop-color:#00A5DF"/>
	</linearGradient>
	<polygon class="st1" points="19.1,27.7 17.2,27.7 16.2,29.4 17.2,31.1 19.1,31.1 20.1,29.4 	"/>
	<linearGradient id="SVGID_2_" gradientUnits="userSpaceOnUse" x1="14.425" y1="27.375" x2="12.075" y2="25.025">
		<stop  offset="0.2439" style="stop-color:#006BA2"/>
		<stop  offset="1" style="stop-color:#00A5DF"/>
	</linearGradient>
	<polygon class="st2" points="12.4,24.7 11.5,26.2 12.4,27.7 14.1,27.7 15,26.2 14.1,24.7 	"/>
	<linearGradient id="SVGID_3_" gradientUnits="userSpaceOnUse" x1="10.925" y1="30.075" x2="10.575" y2="29.725">
		<stop  offset="0.2439" style="stop-color:#006BA2"/>
		<stop  offset="1" style="stop-color:#00A5DF"/>
	</linearGradient>
	<polygon class="st3" points="10.6,29.7 10.5,29.9 10.6,30.1 10.9,30.1 11,29.9 10.9,29.7 	"/>
	<linearGradient id="SVGID_4_" gradientUnits="userSpaceOnUse" x1="11.2" y1="26.4" x2="8.4" y2="23.6">
		<stop  offset="0.2439" style="stop-color:#006BA2"/>
		<stop  offset="1" style="stop-color:#00A5DF"/>
	</linearGradient>
	<polygon class="st4" points="11.8,25 10.8,23.2 8.8,23.2 7.8,25 8.8,26.8 10.8,26.8 	"/>
	<linearGradient id="SVGID_5_" gradientUnits="userSpaceOnUse" x1="12.75" y1="29.45" x2="11.45" y2="28.15">
		<stop  offset="0.2439" style="stop-color:#006BA2"/>
		<stop  offset="1" style="stop-color:#00A5DF"/>
	</linearGradient>
	<polygon class="st5" points="13.1,28.8 12.6,28 11.6,28 11.1,28.8 11.6,29.6 12.6,29.6 	"/>
	<linearGradient id="SVGID_6_" gradientUnits="userSpaceOnUse" x1="13.3" y1="30.6" x2="12.7" y2="30">
		<stop  offset="0.2439" style="stop-color:#006BA2"/>
		<stop  offset="1" style="stop-color:#00A5DF"/>
	</linearGradient>
	<polygon class="st6" points="12.8,29.9 12.6,30.3 12.8,30.7 13.2,30.7 13.4,30.3 13.2,29.9 	"/>
	<linearGradient id="SVGID_7_" gradientUnits="userSpaceOnUse" x1="30.975" y1="30.225" x2="28.775" y2="28.025">
		<stop  offset="0.2439" style="stop-color:#006BA2"/>
		<stop  offset="1" style="stop-color:#00A5DF"/>
	</linearGradient>
	<path class="st7" d="M31.6,27.8c-0.1,0-0.2-0.1-0.3-0.1c-0.1,0-0.2,0-0.3,0s-0.2,0-0.3,0c-0.1,0-0.2,0-0.3,0.1
		c0,0.1-0.1,0.1-0.2,0.2v-0.2H29v3.5l1-0.3v-1.8c0-0.2,0-0.3,0.1-0.4c0-0.1,0.1-0.2,0.2-0.2c0.1,0,0.1,0,0.2,0s0.2,0.1,0.2,0.1
		c0.1,0.1,0.1,0.1,0.1,0.2c0,0.1,0,0.2,0,0.3H32V29c0-0.2,0-0.3,0-0.5c0-0.1,0-0.3-0.1-0.4C31.8,28,31.7,27.9,31.6,27.8z"/>
	<linearGradient id="SVGID_8_" gradientUnits="userSpaceOnUse" x1="36.3617" y1="17.8383" x2="34.073" y2="15.5495">
		<stop  offset="0.2439" style="stop-color:#006BA2"/>
		<stop  offset="1" style="stop-color:#00A5DF"/>
	</linearGradient>
	<path class="st8" d="M35.4,15.6c-0.7-0.3-1.5-0.1-1.7,0.4c-0.1,0.5,0.3,1.1,1.1,1.4c0.6,0.1,1.3,0.2,1.9,0.1
		C36.7,17.5,36.2,15.9,35.4,15.6z"/>
	<linearGradient id="SVGID_9_" gradientUnits="userSpaceOnUse" x1="39.6913" y1="28.8467" x2="14.4223" y2="3.5777">
		<stop  offset="0.2439" style="stop-color:#006BA2"/>
		<stop  offset="1" style="stop-color:#00A5DF"/>
	</linearGradient>
	<path class="st9" d="M45.2,18.3c-0.5-1.2-0.8-2.4-0.9-3.6c-0.1-1.6-0.1-5.2-2.5-6.9c-3.7-2.6-6.6-5.1-10.7-5.5
		c0.2,0.4,0.5,0.7,0.4,0.9c-0.2,0.3-1.2,0.1-1.5,0c-2.3-0.6-5.8,0.1-9.7,1.3c0.2,0.1,0.4,0.3,0.4,0.6c-0.1,0.1-0.2,0.3-0.3,0.4
		c-1.3-0.1-2.7,0-4,0.3c-1.4,0.4-2.7,0.9-3.9,1.5c0.4,0.2,0.8,0.4,0.9,0.7c0.3,1.6-4.7,4-9.4,6c0.9,0.1,1.8,0.2,2.6,0.6
		c0.9,0.3,1.4,0.5,1.5,0.9c0.1,0.5-1,1.3-1.4,2.3c-0.1,0.2-0.1,0.4-0.1,0.6c0.3,0.9,2.4,0.9,4.9,1.5c0.1,0,0.3,0.1,0.4,0.1l-1.2,2.1
		l1.3,2.3h2.6l1.3-2.3l-0.4-0.8l0.9,0.5h1.5c-0.1,0.2-0.1,0.4-0.2,0.7h-1.1l-1.3,2.3l1.3,2.3h2.1c0.1,0,0.1,0,0.2,0h0.3l0.1-0.1
		c0.1,0,0.1-0.1,0.1-0.1l1.2-2.1l-0.2-0.3c0.6-0.6,1.6-1.3,2.9-2.2c1.1-0.8,2.4-0.3,3.6-0.3c1.9,0,3.7,0.2,5.5,0.7
		c2.1,0.4,4,0.8,6,1.2c1.4,0.2,2.8,0.2,4.2,0c2.8-0.5,4.2-1.9,4.8-2.8c0.2-0.2,0.3-0.4,0.4-0.6C47.7,19.9,46,20,45.2,18.3z
		 M25.6,13.6c-0.2-0.2-0.5-0.3-0.8-0.2c-1.7-0.4-3.8-0.1-6,1.8c0.7-0.3,1.5-0.4,2.3-0.4c-1.1,0.6-2.3,1.3-3.5,2c0.5,0,0.9,0.1,1,0.3
		c0.1,0.5-2.4,2.2-5.1,2.2c-1.7,0-4.2-1.2-5.5-1.5c0.8-1.1,1.8-2.2,1.5-3c-0.3-0.5-0.7-0.8-1.2-1c-0.7-0.3-1.4-0.4-2.1-0.2
		c2.3-1.3,5.4-1.6,7.1-3.3c1-1,1.6-1.9,1.4-2.3c-0.1,0-0.1-0.1-0.1-0.1c-0.1-0.2-0.1-0.4,0-0.6C15.3,7,16,6.7,16.8,6.6
		c1-0.1,3.2,0.3,4.3-0.3c0.3-0.1,0.5-0.3,0.6-0.6c0.1-0.3-0.1-0.6,0.1-0.7c3.7-1.4,6-0.7,10.1-1c0.2,0,0.2-0.4,0.4-0.4
		c2.3,0.3,3.9,1.3,8.2,4.3c2.7,2.8,3.4,5.4,2.8,6.5c-0.6,0.7-2.1,0.7-3.1,0.4c-0.7-0.2-1.3-0.5-1.8-0.9c-1.8-1.3-3.6-2-4.4-2
		c-0.6,0-1.2,0.1-1.8,0.3c-1.3-1.1-5.5-4-9.9-0.1c0,0,3.8-1,4.6,1.5c0.1,0.2,0.2,0.5,0.3,0.7C26.7,14,26.2,13.8,25.6,13.6z
		 M43.5,20.8c-0.2,0.3-0.9,0.6-1.2,1c-0.3,0.3-0.7,0.6-1.2,0.7c-1.8,0.7-6.4-0.1-9.2-0.7c-0.4,0.1-0.8,0-0.9-0.4
		c-0.1-0.2,0-0.4,0.2-0.7s0.3-0.6,0.3-0.9c-0.1-0.7-1.2-0.9-1.6-1.6c-0.5-0.8-0.1-2,0.7-3.4c0.7-1,1.8-1.9,3.1-1.9
		c0.7,0,1.8,0.5,3.1,1.5c0.7,0.6,1.3,1.2,1.9,1.8c0.8,0,1.7,0.2,2.4,0.6c0.3,0.2,0.6,0.4,0.9,0.6c1.2,0.9,1.9,1.4,1.9,1.9
		S43.8,20.4,43.5,20.8z"/>
	<linearGradient id="SVGID_10_" gradientUnits="userSpaceOnUse" x1="41.125" y1="31.175" x2="37.625" y2="27.675">
		<stop  offset="0.2439" style="stop-color:#006BA2"/>
		<stop  offset="1" style="stop-color:#00A5DF"/>
	</linearGradient>
	<path class="st10" d="M39.6,29.8l-0.8-2h-1.3l1.4,3.2h0.3l-0.1,0.2c0,0.1,0,0.2-0.1,0.3c0,0.1,0,0.2-0.1,0.2h-0.1
		c-0.1,0-0.1,0-0.2,0v0.9h0.7c0.1,0,0.2,0,0.3,0c0.1,0,0.1,0,0.2-0.1c0.1-0.1,0.1-0.2,0.2-0.3c0.1-0.1,0.2-0.4,0.4-0.9l1.3-3.5h-1.4
		L39.6,29.8z"/>
	<linearGradient id="SVGID_11_" gradientUnits="userSpaceOnUse" x1="20.35" y1="32.65" x2="19.45" y2="31.75">
		<stop  offset="0.2439" style="stop-color:#006BA2"/>
		<stop  offset="1" style="stop-color:#00A5DF"/>
	</linearGradient>
	<polygon class="st11" points="19.6,31.6 19.3,32.2 19.6,32.8 20.2,32.8 20.5,32.2 20.2,31.6 	"/>
	<linearGradient id="SVGID_12_" gradientUnits="userSpaceOnUse" x1="36.4146" y1="31.1853" x2="33.2646" y2="28.0353">
		<stop  offset="0.2439" style="stop-color:#006BA2"/>
		<stop  offset="1" style="stop-color:#00A5DF"/>
	</linearGradient>
	<path class="st12" d="M36.3,28.1c-0.1-0.1-0.3-0.2-0.4-0.2c-0.1-0.1-0.3-0.1-0.4-0.1h-1.4c-0.2,0-0.3,0-0.4,0
		c-0.1,0-0.2,0.1-0.3,0.1c0,0.1-0.1,0.1-0.2,0.2c0,0.1-0.1,0.1-0.1,0.2c0,0.1,0,0.2,0,0.3v0.3h1.2l0.1-0.2c0-0.1,0.1-0.1,0.1-0.1
		c0.1,0,0.1,0,0.2,0H35c0.1,0,0.1,0,0.2,0c0.1,0,0.1,0.1,0.2,0.1c0,0,0.1,0,0.1,0.1c0,0.1,0,0.1,0,0.2c0,0,0,0.1,0,0.2l-0.1-0.1
		c-0.1,0-0.2,0-0.3,0c-0.2,0-0.3,0-0.3,0h-0.9c-0.2,0-0.3,0-0.5,0.1c-0.1,0.1-0.2,0.2-0.3,0.3c-0.1,0.1-0.2,0.2-0.1,0.3
		c0,0.2,0,0.3,0,0.5c0,0.1,0.1,0.3,0.1,0.4c0,0.1,0.1,0.2,0.2,0.3c0,0.1,0.2,0.2,0.3,0.2c0.1,0,0.3,0,0.4,0h0.4c0.2,0,0.4,0,0.5,0
		c0.1,0,0.2-0.1,0.3-0.1c0.1,0,0.1-0.1,0.2-0.1v0.3l1.2-0.3v-1.9c0-0.2-0.1-0.4-0.1-0.6C36.5,28.4,36.4,28.2,36.3,28.1z M35.4,30.3
		c-0.1,0-0.1,0.1-0.2,0.1c-0.2,0-0.3,0-0.4,0h-0.2c-0.1,0-0.1,0-0.2,0l-0.1-0.1c-0.1,0-0.1-0.1-0.1-0.1s-0.1-0.1-0.1-0.3l0.1-0.1
		c0.1-0.1,0.1-0.1,0.2-0.1c0.1,0,0.1,0,0.2,0h0.3c0.1,0,0.2,0,0.3,0l0.1,0.1c0.1,0.1,0.1,0.1,0.1,0.2C35.5,30.1,35.4,30.2,35.4,30.3
		z"/>
	<linearGradient id="SVGID_13_" gradientUnits="userSpaceOnUse" x1="28.0437" y1="31.3562" x2="23.3438" y2="26.6562">
		<stop  offset="0.2439" style="stop-color:#006BA2"/>
		<stop  offset="1" style="stop-color:#00A5DF"/>
	</linearGradient>
	<path class="st13" d="M27.7,26.6c-0.2-0.1-0.5-0.2-0.7-0.1h-3.5v4.8l1.3-0.3v-1h1.6c0.1,0,0.2,0,0.2,0.3c0.1,0,0.2,0.1,0.2,0.2
		c0.1,0.1,0.1,0.2,0.1,0.3v0.6l1.4-0.3v-0.7c0-0.1,0-0.2,0-0.3c0-0.1,0-0.2-0.1-0.3c0-0.1-0.1-0.1-0.2-0.2c-0.1,0-0.2-0.1-0.3-0.1
		l0.3-0.2c0.1,0,0.1-0.1,0.2-0.2c0-0.2,0.1-0.3,0.1-0.4c0-0.2,0-0.4,0-0.6c0-0.2,0-0.4,0-0.6c-0.1-0.2-0.1-0.3-0.2-0.5
		C28,26.8,27.9,26.7,27.7,26.6z M26.9,28.7c-0.1,0-0.1,0.1-0.2,0.1c-0.1,0.1-0.3,0.1-0.4,0.1h-1.6v-1.4h1.5c0.2,0,0.3,0,0.4,0.1
		c0.1,0.1,0.2,0.2,0.3,0.2C27,28,27,28.1,27,28.3C27,28.4,27,28.6,26.9,28.7z"/>
</g>
</svg>
