<?xml version="1.0" encoding="utf-8"?>
<!-- Generator: Adobe Illustrator 21.0.0, SVG Export Plug-In . SVG Version: 6.00 Build 0)  -->
<svg version="1.1" id="图层_1" xmlns="http://www.w3.org/2000/svg" xmlns:xlink="http://www.w3.org/1999/xlink" x="0px" y="0px"
	 viewBox="0 0 116 148" style="enable-background:new 0 0 116 148;" xml:space="preserve">
<style type="text/css">
	.st0{fill:url(#SVGID_1_);}
	.st1{opacity:0.1;enable-background:new    ;}
	.st2{fill:none;enable-background:new    ;}
	.st3{clip-path:url(#SVGID_3_);fill:#0F75AA;}
	.st4{clip-path:url(#SVGID_5_);fill:#FFFFFF;}
</style>
<linearGradient id="SVGID_1_" gradientUnits="userSpaceOnUse" x1="58" y1="34" x2="58" y2="150" gradientTransform="matrix(1 0 0 -1 0 150)">
	<stop  offset="0" style="stop-color:#0F80B6"/>
	<stop  offset="1" style="stop-color:#26A0D9"/>
</linearGradient>
<circle class="st0" cx="58" cy="58" r="58"/>
<ellipse class="st1" cx="58" cy="140" rx="43" ry="8"/>
<path class="st2" d="z"/>
<g>
	<defs>
		<rect id="SVGID_2_" x="34.2" y="26.9" width="50" height="66.2"/>
	</defs>
	<clipPath id="SVGID_3_">
		<use xlink:href="#SVGID_2_"  style="overflow:visible;"/>
	</clipPath>
	<path class="st3" d="M80,59.1c0,1.1,0.9,2.1,2.1,2.1c1.1,0,2.1-0.9,2.1-2.1v0c0-1.1-0.9-2.1-2.1-2.1C81,57.1,80,58,80,59.1L80,59.1
		z"/>
	<path class="st3" d="M80,66.6c0,1.1,0.9,2.1,2.1,2.1c1.1,0,2.1-0.9,2.1-2.1v0c0-1.1-0.9-2.1-2.1-2.1C81,64.5,80,65.4,80,66.6
		L80,66.6z"/>
	<path class="st3" d="M80,73.9c0,1.1,0.9,2.1,2.1,2.1c1.1,0,2.1-0.9,2.1-2.1v0c0-1.1-0.9-2.1-2.1-2.1C81,71.8,80,72.8,80,73.9
		L80,73.9z"/>
	<path class="st3" d="M81.7,78.2c-1.1,0-2,0.9-2,2c0,2.8-2.3,5.1-5.1,5.1H43c-2.8,0-5.1-2.3-5.1-5.1V52.9c0-2.8,2.3-5.1,5.1-5.1
		h31.8c2.8,0,5.1,2.3,5.1,5.1c0,1.1,0.9,2,2,2c1.1,0,2-0.9,2-2c0-4.9-4-9-9-9h-0.9v-8.9c0-4.5-3.6-8.1-8.1-8.1H52.2
		c-4.5,0-8.1,3.6-8.1,8.1v8.9h-0.9c-4.9,0-9,4-9,9v27.3c0,4.9,4,9,9,9h1v2.1c0,1.1,0.9,2,2,2s2-0.9,2-2V89h22v2.1c0,1.1,0.9,2,2,2
		c1.1,0,2-0.9,2-2V89h1c4.9,0,9-4,9-9C83.7,79,82.8,78.2,81.7,78.2 M47.9,35.1c0-2.3,1.9-4.2,4.2-4.2h13.5c2.3,0,4.2,1.9,4.2,4.2
		v8.9h-22V35.1z"/>
	<path class="st3" d="M55.1,77.5c0.9,0,1.7-0.7,1.7-1.7V57.4c0-0.7-0.4-1.2-1-1.5c-0.6-0.3-1.3-0.1-1.8,0.4l-5.9,5.9
		c-0.6,0.6-0.6,1.7,0,2.3c0.6,0.6,1.7,0.6,2.3,0l3.1-3.1v14.5C53.5,76.8,54.2,77.5,55.1,77.5 M62.6,55.8c-0.9,0-1.7,0.7-1.7,1.7
		v18.4c0,0.7,0.4,1.2,1,1.5c0.2,0.1,0.4,0.1,0.6,0.1c0.4,0,0.8-0.2,1.2-0.5l5.9-5.9c0.6-0.6,0.6-1.7,0-2.3c-0.6-0.6-1.7-0.6-2.3,0
		l-3.1,3.1V57.4C64.2,56.6,63.5,55.8,62.6,55.8"/>
</g>
<g>
	<defs>
		<rect id="SVGID_4_" x="33.1" y="25.9" width="50" height="66.2"/>
	</defs>
	<clipPath id="SVGID_5_">
		<use xlink:href="#SVGID_4_"  style="overflow:visible;"/>
	</clipPath>
	<path class="st4" d="M79,58.1c0,1.1,0.9,2.1,2.1,2.1c1.1,0,2.1-0.9,2.1-2.1v0c0-1.1-0.9-2.1-2.1-2.1C79.9,56,79,56.9,79,58.1
		L79,58.1z"/>
	<path class="st4" d="M79,65.5c0,1.1,0.9,2.1,2.1,2.1c1.1,0,2.1-0.9,2.1-2.1v0c0-1.1-0.9-2.1-2.1-2.1C79.9,63.4,79,64.4,79,65.5
		L79,65.5z"/>
	<path class="st4" d="M79,72.9c0,1.1,0.9,2.1,2.1,2.1c1.1,0,2.1-0.9,2.1-2.1v0c0-1.1-0.9-2.1-2.1-2.1C79.9,70.8,79,71.7,79,72.9
		L79,72.9z"/>
	<path class="st4" d="M80.7,77.1c-1.1,0-2,0.9-2,2c0,2.8-2.3,5.1-5.1,5.1H41.9c-2.8,0-5.1-2.3-5.1-5.1V51.8c0-2.8,2.3-5.1,5.1-5.1
		h31.8c2.8,0,5.1,2.3,5.1,5.1c0,1.1,0.9,2,2,2c1.1,0,2-0.9,2-2c0-4.9-4-9-9-9h-0.9V34c0-4.5-3.6-8.1-8.1-8.1H51.2
		c-4.5,0-8.1,3.6-8.1,8.1v8.9h-0.9c-4.9,0-9,4-9,9v27.3c0,4.9,4,9,9,9h1v2.1c0,1.1,0.9,2,2,2s2-0.9,2-2V88h22v2.1c0,1.1,0.9,2,2,2
		c1.1,0,2-0.9,2-2V88h1c4.9,0,9-4,9-9C82.6,78,81.7,77.1,80.7,77.1 M46.8,34c0-2.3,1.9-4.2,4.2-4.2h13.5c2.3,0,4.2,1.9,4.2,4.2v8.9
		h-22V34z"/>
	<path class="st4" d="M54.1,76.5c0.9,0,1.7-0.7,1.7-1.7V56.4c0-0.7-0.4-1.2-1-1.5c-0.6-0.3-1.3-0.1-1.8,0.4L47,61.2
		c-0.6,0.6-0.6,1.7,0,2.3c0.6,0.6,1.7,0.6,2.3,0l3.1-3.1v14.5C52.5,75.7,53.2,76.5,54.1,76.5 M61.5,54.8c-0.9,0-1.7,0.7-1.7,1.7
		v18.4c0,0.7,0.4,1.2,1,1.5c0.2,0.1,0.4,0.1,0.6,0.1c0.4,0,0.8-0.2,1.2-0.5l5.9-5.9c0.6-0.6,0.6-1.7,0-2.3c-0.6-0.6-1.7-0.6-2.3,0
		l-3.1,3.1V56.4C63.2,55.5,62.5,54.8,61.5,54.8"/>
</g>
</svg>
