<?xml version="1.0" encoding="utf-8"?>
<!-- Generator: Adobe Illustrator 19.0.0, SVG Export Plug-In . SVG Version: 6.00 Build 0)  -->
<svg version="1.1" id="安全" xmlns="http://www.w3.org/2000/svg" xmlns:xlink="http://www.w3.org/1999/xlink" x="0px" y="0px"
	 viewBox="-268 383.9 58 74" style="enable-background:new -268 383.9 58 74;" xml:space="preserve">
<style type="text/css">
	.st0{fill:url(#椭圆_1_2_);}
	.st1{opacity:0.1;enable-background:new    ;}
	.st2{fill:none;enable-background:new    ;}
	.st3{opacity:0.2;}
	.st4{fill:#FFFFFF;}
</style>
<linearGradient id="椭圆_1_2_" gradientUnits="userSpaceOnUse" x1="-239" y1="399.78" x2="-239" y2="457.78" gradientTransform="matrix(1 0 0 -1 0 841.67)">
	<stop  offset="0" style="stop-color:#0F80B6"/>
	<stop  offset="1" style="stop-color:#26A0D9"/>
</linearGradient>
<circle id="椭圆_1_1_" class="st0" cx="-239" cy="412.9" r="29"/>
<ellipse id="椭圆_2_1_" class="st1" cx="-238.5" cy="453.9" rx="21.5" ry="4"/>
<path class="st2" d="z"/>
<g>
	<g class="st3">
		<g>
			<g>
				<path d="M-226.3,417.4h-1.2v-1.4h1.2c0.3,0,0.6-0.3,0.6-0.6v-7c0-0.3-0.3-0.6-0.6-0.6h-1.2v-1.4h1.2c0.3,0,0.6-0.3,0.6-0.6v-7
					c0-0.3-0.3-0.6-0.6-0.6h-25.3c-0.3,0-0.6,0.3-0.6,0.6v7c0,0.3,0.3,0.6,0.6,0.6h1.2v1.4h-1.2c-0.3,0-0.6,0.3-0.6,0.6v7
					c0,0.3,0.3,0.6,0.6,0.6h1.2v1.4h-1.2c-0.3,0-0.6,0.3-0.6,0.6v7c0,0.3,0.3,0.6,0.6,0.6h1.2v2.2c0,0.3,0.3,0.6,0.6,0.6h21.8
					c0.3,0,0.6-0.3,0.6-0.6v-2.2h1.2c0.3,0,0.6-0.3,0.6-0.6v-7C-225.8,417.7-226,417.4-226.3,417.4z M-251.1,405.4v-5.8h24.1v5.8
					h-1.2h-21.8H-251.1z M-228.7,406.5v1.4h-20.6v-1.4H-228.7L-228.7,406.5z M-251.1,414.9v-2.3h11.3c0.3,0,0.6-0.3,0.6-0.6
					s-0.3-0.6-0.6-0.6h-11.3v-2.3h1.2c0,0,0,0,0,0h21.8c0,0,0,0,0,0h1.2v5.8h-1.2h-21.8H-251.1z M-228.7,416.1v1.4h-20.6v-1.4
					H-228.7z M-228.7,427.2h-20.6v-1.6h20.6V427.2z M-226.9,424.5h-1.2h-21.8h-1.2v-5.9h1.2h21.8h1.2V424.5z"/>
			</g>
		</g>
		<g>
			<g>
				<path d="M-229.5,410h-5.3c-0.3,0-0.6,0.3-0.6,0.6v2.8c0,0.3,0.3,0.6,0.6,0.6h5.3c0.3,0,0.6-0.3,0.6-0.6v-2.8
					C-228.9,410.3-229.2,410-229.5,410z M-230.1,412.8h-4.2v-1.6h4.2V412.8z"/>
			</g>
		</g>
		<g>
			<g>
				<path d="M-229.5,419.7h-5.3c-0.3,0-0.6,0.3-0.6,0.6v0.7h-11.5c-0.3,0-0.6,0.3-0.6,0.6s0.3,0.6,0.6,0.6h11.5v0.9
					c0,0.3,0.3,0.6,0.6,0.6h5.3c0.3,0,0.6-0.3,0.6-0.6v-2.8C-228.9,419.9-229.2,419.7-229.5,419.7z M-230.1,422.4h-4.2v-1.6h4.2
					V422.4z"/>
			</g>
		</g>
		<g>
			<g>
				<path d="M-248.9,402C-248.9,402-249,402-248.9,402c-0.1-0.1-0.2-0.1-0.2-0.1c0,0-0.1,0-0.1,0c-0.1,0-0.2,0-0.2,0
					c0,0-0.1,0-0.1,0c0,0-0.1,0-0.1,0.1c0,0-0.1,0-0.1,0.1c0,0-0.1,0.1-0.1,0.1c0,0,0,0.1-0.1,0.1c0,0,0,0.1,0,0.1c0,0,0,0.1,0,0.1
					s0,0.1,0,0.1c0,0,0,0.1,0,0.1c0,0,0,0.1,0.1,0.1c0,0,0,0.1,0.1,0.1s0.1,0.1,0.1,0.1c0,0,0.1,0,0.1,0.1c0,0,0.1,0,0.1,0
					c0,0,0.1,0,0.1,0s0.1,0,0.1,0c0,0,0.1,0,0.1,0c0,0,0.1,0,0.1-0.1c0,0,0.1,0,0.1-0.1c0,0,0.1-0.1,0.1-0.1c0,0,0-0.1,0.1-0.1
					c0,0,0-0.1,0-0.1c0,0,0-0.1,0-0.1C-248.7,402.3-248.8,402.2-248.9,402z"/>
			</g>
		</g>
		<g>
			<g>
				<path d="M-229.5,400.5h-5.3c-0.3,0-0.6,0.3-0.6,0.6v0.8h-11.5c-0.3,0-0.6,0.3-0.6,0.6c0,0.3,0.3,0.6,0.6,0.6h11.5v0.8
					c0,0.3,0.3,0.6,0.6,0.6h5.3c0.3,0,0.6-0.3,0.6-0.6v-2.8C-228.9,400.8-229.2,400.5-229.5,400.5z M-230.1,403.2h-4.2v-1.6h4.2
					V403.2z"/>
			</g>
		</g>
		<g>
			<g>
				<path d="M-248.8,421.4c0,0,0-0.1,0-0.1c0,0,0-0.1-0.1-0.1c0,0,0-0.1-0.1-0.1c0,0-0.1-0.1-0.1-0.1c0,0-0.1,0-0.1-0.1
					c0,0-0.1,0-0.1,0c-0.1,0-0.2,0-0.2,0c0,0-0.1,0-0.1,0c0,0-0.1,0-0.1,0.1c0,0-0.1,0-0.1,0.1c0,0-0.1,0.1-0.1,0.1
					c0,0,0,0.1-0.1,0.1c0,0,0,0.1,0,0.1c0,0,0,0.1,0,0.1s0,0.1,0,0.1c0,0,0,0.1,0,0.1s0,0.1,0.1,0.1c0,0,0,0.1,0.1,0.1
					s0.1,0.1,0.1,0.1c0,0,0.1,0,0.1,0.1c0,0,0.1,0,0.1,0c0,0,0.1,0,0.1,0s0.1,0,0.1,0c0,0,0.1,0,0.1,0c0,0,0.1,0,0.1-0.1
					c0,0,0.1,0,0.1-0.1c0.1-0.1,0.2-0.3,0.2-0.4C-248.7,421.5-248.7,421.5-248.8,421.4z"/>
			</g>
		</g>
		<g>
			<g>
				<path d="M-236.9,411.6C-237,411.6-237,411.5-236.9,411.6c-0.1-0.1-0.2-0.1-0.2-0.1c0,0-0.1,0-0.1,0c-0.1,0-0.2,0-0.2,0
					c0,0-0.1,0-0.1,0s-0.1,0-0.1,0.1c0,0-0.1,0-0.1,0.1c-0.1,0.1-0.2,0.3-0.2,0.4c0,0,0,0.1,0,0.1c0,0,0,0.1,0,0.1s0,0.1,0.1,0.1
					c0,0,0,0.1,0.1,0.1c0,0,0.1,0.1,0.1,0.1c0,0,0.1,0,0.1,0.1s0.1,0,0.1,0c0,0,0.1,0,0.1,0s0.1,0,0.1,0c0,0,0.1,0,0.1,0
					c0,0,0.1,0,0.1-0.1c0,0,0.1,0,0.1-0.1c0,0,0.1-0.1,0.1-0.1c0,0,0-0.1,0.1-0.1s0-0.1,0-0.1c0,0,0-0.1,0-0.1
					C-236.8,411.8-236.8,411.7-236.9,411.6z"/>
			</g>
		</g>
	</g>
	<g>
		<g>
			<g>
				<path class="st4" d="M-226.3,416.4h-1.2v-1.4h1.2c0.3,0,0.6-0.3,0.6-0.6v-7c0-0.3-0.3-0.6-0.6-0.6h-1.2v-1.4h1.2
					c0.3,0,0.6-0.3,0.6-0.6v-7c0-0.3-0.3-0.6-0.6-0.6h-25.3c-0.3,0-0.6,0.3-0.6,0.6v7c0,0.3,0.3,0.6,0.6,0.6h1.2v1.4h-1.2
					c-0.3,0-0.6,0.3-0.6,0.6v7c0,0.3,0.3,0.6,0.6,0.6h1.2v1.4h-1.2c-0.3,0-0.6,0.3-0.6,0.6v7c0,0.3,0.3,0.6,0.6,0.6h1.2v2.2
					c0,0.3,0.3,0.6,0.6,0.6h21.8c0.3,0,0.6-0.3,0.6-0.6v-2.2h1.2c0.3,0,0.6-0.3,0.6-0.6v-7C-225.8,416.7-226,416.4-226.3,416.4z
					 M-251.1,404.4v-5.8h24.1v5.8h-1.2h-21.8H-251.1z M-228.7,405.5v1.4h-20.6v-1.4H-228.7L-228.7,405.5z M-251.1,413.9v-2.3h11.3
					c0.3,0,0.6-0.3,0.6-0.6s-0.3-0.6-0.6-0.6h-11.3v-2.3h1.2c0,0,0,0,0,0h21.8c0,0,0,0,0,0h1.2v5.8h-1.2h-21.8H-251.1z
					 M-228.7,415.1v1.4h-20.6v-1.4H-228.7z M-228.7,426.2h-20.6v-1.6h20.6V426.2z M-226.9,423.5h-1.2h-21.8h-1.2v-5.9h1.2h21.8h1.2
					V423.5z"/>
			</g>
		</g>
		<g>
			<g>
				<path class="st4" d="M-229.5,409h-5.3c-0.3,0-0.6,0.3-0.6,0.6v2.8c0,0.3,0.3,0.6,0.6,0.6h5.3c0.3,0,0.6-0.3,0.6-0.6v-2.8
					C-228.9,409.3-229.2,409-229.5,409z M-230.1,411.8h-4.2v-1.6h4.2V411.8z"/>
			</g>
		</g>
		<g>
			<g>
				<path class="st4" d="M-229.5,418.7h-5.3c-0.3,0-0.6,0.3-0.6,0.6v0.7h-11.5c-0.3,0-0.6,0.3-0.6,0.6s0.3,0.6,0.6,0.6h11.5v0.9
					c0,0.3,0.3,0.6,0.6,0.6h5.3c0.3,0,0.6-0.3,0.6-0.6v-2.8C-228.9,418.9-229.2,418.7-229.5,418.7z M-230.1,421.4h-4.2v-1.6h4.2
					V421.4z"/>
			</g>
		</g>
		<g>
			<g>
				<path class="st4" d="M-248.9,401C-248.9,401-249,401-248.9,401c-0.1-0.1-0.2-0.1-0.2-0.1c0,0-0.1,0-0.1,0c-0.1,0-0.2,0-0.2,0
					c0,0-0.1,0-0.1,0c0,0-0.1,0-0.1,0.1c0,0-0.1,0-0.1,0.1c0,0-0.1,0.1-0.1,0.1c0,0,0,0.1-0.1,0.1c0,0,0,0.1,0,0.1c0,0,0,0.1,0,0.1
					s0,0.1,0,0.1c0,0,0,0.1,0,0.1c0,0,0,0.1,0.1,0.1c0,0,0,0.1,0.1,0.1s0.1,0.1,0.1,0.1c0,0,0.1,0,0.1,0.1c0,0,0.1,0,0.1,0
					c0,0,0.1,0,0.1,0s0.1,0,0.1,0c0,0,0.1,0,0.1,0c0,0,0.1,0,0.1-0.1c0,0,0.1,0,0.1-0.1c0,0,0.1-0.1,0.1-0.1c0,0,0-0.1,0.1-0.1
					c0,0,0-0.1,0-0.1c0,0,0-0.1,0-0.1C-248.7,401.3-248.8,401.2-248.9,401z"/>
			</g>
		</g>
		<g>
			<g>
				<path class="st4" d="M-229.5,399.5h-5.3c-0.3,0-0.6,0.3-0.6,0.6v0.8h-11.5c-0.3,0-0.6,0.3-0.6,0.6c0,0.3,0.3,0.6,0.6,0.6h11.5
					v0.8c0,0.3,0.3,0.6,0.6,0.6h5.3c0.3,0,0.6-0.3,0.6-0.6v-2.8C-228.9,399.8-229.2,399.5-229.5,399.5z M-230.1,402.2h-4.2v-1.6h4.2
					V402.2z"/>
			</g>
		</g>
		<g>
			<g>
				<path class="st4" d="M-248.8,420.4c0,0,0-0.1,0-0.1c0,0,0-0.1-0.1-0.1c0,0,0-0.1-0.1-0.1c0,0-0.1-0.1-0.1-0.1c0,0-0.1,0-0.1-0.1
					c0,0-0.1,0-0.1,0c-0.1,0-0.2,0-0.2,0c0,0-0.1,0-0.1,0c0,0-0.1,0-0.1,0.1c0,0-0.1,0-0.1,0.1c0,0-0.1,0.1-0.1,0.1
					c0,0,0,0.1-0.1,0.1c0,0,0,0.1,0,0.1c0,0,0,0.1,0,0.1s0,0.1,0,0.1c0,0,0,0.1,0,0.1s0,0.1,0.1,0.1c0,0,0,0.1,0.1,0.1
					s0.1,0.1,0.1,0.1c0,0,0.1,0,0.1,0.1c0,0,0.1,0,0.1,0c0,0,0.1,0,0.1,0s0.1,0,0.1,0c0,0,0.1,0,0.1,0c0,0,0.1,0,0.1-0.1
					c0,0,0.1,0,0.1-0.1c0.1-0.1,0.2-0.3,0.2-0.4C-248.7,420.5-248.7,420.5-248.8,420.4z"/>
			</g>
		</g>
		<g>
			<g>
				<path class="st4" d="M-236.9,410.6C-237,410.6-237,410.5-236.9,410.6c-0.1-0.1-0.2-0.1-0.2-0.1c0,0-0.1,0-0.1,0
					c-0.1,0-0.2,0-0.2,0c0,0-0.1,0-0.1,0s-0.1,0-0.1,0.1c0,0-0.1,0-0.1,0.1c-0.1,0.1-0.2,0.3-0.2,0.4c0,0,0,0.1,0,0.1
					c0,0,0,0.1,0,0.1s0,0.1,0.1,0.1c0,0,0,0.1,0.1,0.1c0,0,0.1,0.1,0.1,0.1c0,0,0.1,0,0.1,0.1s0.1,0,0.1,0c0,0,0.1,0,0.1,0
					s0.1,0,0.1,0c0,0,0.1,0,0.1,0c0,0,0.1,0,0.1-0.1c0,0,0.1,0,0.1-0.1c0,0,0.1-0.1,0.1-0.1c0,0,0-0.1,0.1-0.1s0-0.1,0-0.1
					c0,0,0-0.1,0-0.1C-236.8,410.8-236.8,410.7-236.9,410.6z"/>
			</g>
		</g>
	</g>
</g>
</svg>
