<svg id="转账" xmlns="http://www.w3.org/2000/svg" xmlns:xlink="http://www.w3.org/1999/xlink" width="199.822" height="219.289" viewBox="0 0 199.822 219.289">
  <defs>
    <linearGradient id="linear-gradient" x1="0.068" y1="0.106" x2="0.916" y2="0.88" gradientUnits="objectBoundingBox">
      <stop offset="0" stop-color="#3a9bd5"/>
      <stop offset="0.305" stop-color="#3a9bd5"/>
      <stop offset="0.356" stop-color="#3a9bd5"/>
      <stop offset="0.599" stop-color="#3999d3"/>
      <stop offset="0.688" stop-color="#3592cf"/>
      <stop offset="0.752" stop-color="#2f86c7"/>
      <stop offset="0.804" stop-color="#2675bb"/>
      <stop offset="0.81" stop-color="#2573ba"/>
    </linearGradient>
    <linearGradient id="linear-gradient-2" x1="6.44" y1="-1.815" x2="6.999" y2="-1.305" gradientUnits="objectBoundingBox">
      <stop offset="0" stop-color="#59bdef"/>
      <stop offset="1" stop-color="#7bdaff"/>
    </linearGradient>
    <linearGradient id="linear-gradient-3" x1="-0.397" y1="6.337" x2="-2.263" y2="6.151" xlink:href="#linear-gradient-2"/>
    <linearGradient id="linear-gradient-4" x1="-11.939" y1="0.82" x2="-10.511" y2="1.179" gradientUnits="objectBoundingBox">
      <stop offset="0" stop-color="#2573ba"/>
      <stop offset="0.907" stop-color="#0364ae"/>
      <stop offset="1" stop-color="#0063ad"/>
    </linearGradient>
    <linearGradient id="linear-gradient-5" x1="-32.724" y1="0.5" x2="-31.724" y2="0.5" gradientUnits="objectBoundingBox">
      <stop offset="0" stop-color="#0063ad"/>
      <stop offset="1" stop-color="#2573ba"/>
    </linearGradient>
    <linearGradient id="linear-gradient-6" x1="-12.368" y1="0.896" x2="-11.214" y2="0.896" gradientUnits="objectBoundingBox">
      <stop offset="0" stop-color="#7bdaff"/>
      <stop offset="1" stop-color="#59bdef"/>
    </linearGradient>
  </defs>
  <g id="组_37" data-name="组 37" transform="translate(0 85.524)">
    <path id="路径_136" data-name="路径 136" d="M717.575,281.924,658.9,315.811c-2.62,1.513-6.585,1.677-8.854.367l-128.6-74.245c-2.27-1.31-1.985-3.6.636-5.113l58.67-33.887c2.62-1.513,6.585-1.677,8.854-.367l128.6,74.245C720.479,278.122,720.195,280.411,717.575,281.924Z" transform="translate(-519.92 -183.297)" fill="#13247a" opacity="0.5"/>
    <path id="路径_137" data-name="路径 137" d="M719.742,258.448l-12.087-2.1L589.612,188.192c-2.27-1.31-6.234-1.146-8.854.368l-54.682,31.584-6.155-1.071v6.253h.006a2.617,2.617,0,0,0,1.526,2.232l128.6,74.246c2.27,1.31,6.234,1.146,8.854-.367l58.671-33.887c1.455-.84,2.187-1.919,2.164-2.937h0Z" transform="translate(-519.92 -181.096)" fill="url(#linear-gradient)"/>
    <path id="路径_138" data-name="路径 138" d="M717.575,260.216,658.9,294.1c-2.62,1.513-6.585,1.678-8.854.367l-128.6-74.245c-2.27-1.31-1.985-3.6.636-5.113l58.67-33.887c2.62-1.513,6.585-1.677,8.854-.367L718.21,255.1C720.479,256.414,720.195,258.7,717.575,260.216Z" transform="translate(-519.92 -179.974)" fill="url(#linear-gradient-2)"/>
    <path id="路径_139" data-name="路径 139" d="M717.576,266.221,658.9,300.107c-2.62,1.513-6.585,1.677-8.854.367l-128.6-74.245a2.831,2.831,0,0,1-1.49-1.811,2.494,2.494,0,0,0,1.49,2.61l128.6,74.245c2.27,1.311,6.234,1.147,8.854-.367l58.671-33.887c1.63-.942,2.355-2.182,2.125-3.3A3.969,3.969,0,0,1,717.576,266.221Z" transform="translate(-519.921 -186.778)" fill="#fff"/>
    <path id="路径_140" data-name="路径 140" d="M718.038,255l-68.16,39.366-127.5-73.614,68.16-39.366Z" transform="translate(-520.296 -180.191)" fill="#0f65b2"/>
    <path id="路径_141" data-name="路径 141" d="M565.565,199.415l-9.054,5.227a1.478,1.478,0,0,1-1.329.055l-.091-.053c-.34-.2-.3-.539.095-.766l9.054-5.227a1.473,1.473,0,0,1,1.328-.055l.092.053C566,198.844,565.958,199.188,565.565,199.415Z" transform="translate(-525.269 -182.804)" fill="#0063ad"/>
    <g id="组_36" data-name="组 36" transform="translate(14.833 35.997)">
      <path id="路径_142" data-name="路径 142" d="M541.285,228.347l-1.143.66-2.707-1.563,1.143-.66Z" transform="translate(-537.435 -223.137)" fill="#fff"/>
      <path id="路径_143" data-name="路径 143" d="M543.771,226.912l-1.143.66-2.708-1.563,1.143-.66Z" transform="translate(-537.815 -222.917)" fill="#fff"/>
      <path id="路径_144" data-name="路径 144" d="M546.258,225.476l-1.143.66-2.707-1.563,1.143-.66Z" transform="translate(-538.196 -222.698)" fill="#fff"/>
      <path id="路径_145" data-name="路径 145" d="M548.744,224.041l-1.143.66-2.708-1.563,1.143-.66Z" transform="translate(-538.576 -222.478)" fill="#fff"/>
    </g>
  </g>
  <g id="组_38" data-name="组 38" transform="translate(20.659 9.599)">
    <path id="路径_146" data-name="路径 146" d="M594.41,90.324a4.028,4.028,0,1,1-4.028,4.028A4.028,4.028,0,0,1,594.41,90.324Z" transform="translate(-551.366 -90.324)" fill="#fff"/>
    <path id="路径_147" data-name="路径 147" d="M579.054,90.324a4.028,4.028,0,1,1-4.029,4.028A4.028,4.028,0,0,1,579.054,90.324Z" transform="translate(-549.015 -90.324)" fill="#7bdaff"/>
    <path id="路径_148" data-name="路径 148" d="M563.7,90.324a4.028,4.028,0,1,1-4.029,4.028A4.028,4.028,0,0,1,563.7,90.324Z" transform="translate(-546.664 -90.324)" fill="#7bdaff" opacity="0.5"/>
    <path id="路径_149" data-name="路径 149" d="M548.341,90.324a4.028,4.028,0,1,1-4.028,4.028A4.028,4.028,0,0,1,548.341,90.324Z" transform="translate(-544.313 -90.324)" fill="#7bdaff" opacity="0.1"/>
  </g>
  <ellipse id="椭圆_17" data-name="椭圆 17" cx="22.786" cy="13.156" rx="22.786" ry="13.156" transform="translate(63.384 121.193)" fill="#041860" opacity="0.6"/>
  <path id="路径_150" data-name="路径 150" d="M615.257,254.488c-9.057,0-18.113-1.991-25.008-5.972-6.737-3.89-10.448-9.08-10.448-14.614s3.71-10.724,10.447-14.613c13.79-7.961,36.227-7.961,50.017,0,6.737,3.89,10.448,9.08,10.448,14.614s-3.71,10.724-10.447,14.613C633.37,252.5,624.314,254.488,615.257,254.488Zm0-40.571c-8.948,0-17.894,1.967-24.7,5.9-6.542,3.776-10.144,8.779-10.144,14.087s3.6,10.311,10.145,14.088c13.623,7.864,35.786,7.864,49.407,0,6.542-3.777,10.144-8.78,10.144-14.088s-3.6-10.311-10.144-14.087C633.149,215.883,624.2,213.917,615.257,213.917Z" transform="translate(-529.087 -99.554)" fill="#fff"/>
  <g id="组_41" data-name="组 41" transform="translate(76.081 0)">
    <path id="路径_151" data-name="路径 151" d="M712.191,135.812,614.4,79.353a1.948,1.948,0,0,0-1.992-.158v-.005l-1.453.849s.335.048.673.095a3.879,3.879,0,0,0-.277,1.524v67.375a7.3,7.3,0,0,0,3.049,5.825l97.788,56.458a2.96,2.96,0,0,0,.54.245v.764l1.461-.851h-.008a2.7,2.7,0,0,0,1.056-2.463V141.637A7.3,7.3,0,0,0,712.191,135.812Z" transform="translate(-609.938 -78.99)" fill="#fff"/>
    <path id="路径_152" data-name="路径 152" d="M710.589,212.292,612.8,155.834a7.3,7.3,0,0,1-3.049-5.825V82.634c0-2.245,1.365-3.277,3.049-2.305l97.788,56.458a7.3,7.3,0,0,1,3.049,5.825v67.375C713.638,212.233,712.273,213.264,710.589,212.292Z" transform="translate(-609.753 -79.139)" fill="url(#linear-gradient-3)"/>
    <g id="组_40" data-name="组 40" transform="translate(8.436 63.352)">
      <path id="路径_157" data-name="路径 157" d="M638.277,166.991l-18.563-10.717v-2.48l18.563,10.717Z" transform="translate(-619.714 -153.793)" fill="#fff"/>
      <path id="路径_158" data-name="路径 158" d="M665.218,182.545l-18.563-10.717v-2.48l18.563,10.717Z" transform="translate(-623.838 -156.175)" fill="#fff"/>
      <path id="路径_159" data-name="路径 159" d="M692.159,198.1,673.6,187.383V184.9l18.563,10.717Z" transform="translate(-627.963 -158.556)" fill="#fff"/>
      <path id="路径_160" data-name="路径 160" d="M719.1,213.654l-18.563-10.717v-2.48L719.1,211.174Z" transform="translate(-632.087 -160.937)" fill="#fff"/>
    </g>
  </g>
  <path id="路径_161" data-name="路径 161" d="M631.746,111.374,609.753,109.6v44.951a7.3,7.3,0,0,0,3.049,5.826l42.315,24.43c10.936-15.5,8.465-39.242,8.465-39.242Z" transform="translate(-533.672 -83.675)" fill="#041860" opacity="0.2"/>
  <g id="组_43" data-name="组 43" transform="translate(51.313 30.369)">
    <g id="组_42" data-name="组 42">
      <path id="路径_162" data-name="路径 162" d="M652.876,151.608l-31.835-34.185-31.835-2.575s-5.116,43.156,31.835,88.93C657.992,200.672,652.876,151.608,652.876,151.608Z" transform="translate(-581.802 -114.848)" fill="url(#linear-gradient-4)"/>
      <path id="路径_163" data-name="路径 163" d="M587.954,114.848l-7.163,4.135,31.835,2.576,7.163-4.135Z" transform="translate(-580.551 -114.848)" fill="url(#linear-gradient-5)"/>
      <path id="路径_164" data-name="路径 164" d="M644.418,156.491l-31.834-34.185-13.091-1.323-18.745-1.253s-5.117,43.156,31.836,88.93C649.535,205.555,644.418,156.491,644.418,156.491Z" transform="translate(-580.508 -115.595)" fill="url(#linear-gradient-6)"/>
      <path id="路径_165" data-name="路径 165" d="M644.462,156.4l-31.835-34.185-31.834-2.575.9-.52,32.259,2.61,31.835,34.185s4.271,41.015-23.247,50.414C648.595,196.083,644.462,156.4,644.462,156.4Z" transform="translate(-580.551 -115.501)" fill="#fff"/>
    </g>
    <path id="路径_166" data-name="路径 166" d="M641.021,157.788,612.4,127.053l-11.769-1.19-16.854-1.126s-4.6,38.8,28.622,79.957C645.621,201.9,641.021,157.788,641.021,157.788Z" transform="translate(-580.975 -116.362)" fill="#fff" opacity="0.2"/>
  </g>
  <g id="组_44" data-name="组 44" transform="translate(60.225 47.216)">
    <rect id="矩形_23" data-name="矩形 23" width="1.592" height="1.592" transform="translate(1.126 2.04) rotate(45)" fill="#fff"/>
    <rect id="矩形_24" data-name="矩形 24" width="1.592" height="1.592" transform="matrix(0.707, 0.707, -0.707, 0.707, 5.191, 2.026)" fill="#fff"/>
    <rect id="矩形_25" data-name="矩形 25" width="1.592" height="1.592" transform="translate(3.166 0) rotate(45)" fill="#fff"/>
    <rect id="矩形_26" data-name="矩形 26" width="1.592" height="1.592" transform="matrix(0.707, 0.707, -0.707, 0.707, 3.151, 4.066)" fill="#fff"/>
  </g>
  <g id="组_45" data-name="组 45" transform="translate(169.064 28.609)">
    <path id="路径_167" data-name="路径 167" d="M731.5,128.537l-2.316-2.316,5.567-5.568-5.567-5.567,2.316-2.316,7.884,7.883Zm-1.392-2.316,1.392,1.391,6.959-6.959-6.959-6.958-1.392,1.391,5.567,5.567Z" transform="translate(-721.021 -112.77)" fill="#fff"/>
    <path id="路径_168" data-name="路径 168" d="M721.4,113.316l-1.854,1.854,5.567,5.567-5.567,5.567,1.854,1.854,5.567-5.567,1.854-1.854Z" transform="translate(-719.545 -112.854)" fill="#7bdaff" opacity="0.5"/>
  </g>
  <g id="组_46" data-name="组 46" transform="translate(112.696 148.253)">
    <path id="路径_169" data-name="路径 169" d="M678.1,286.919a.445.445,0,0,1-.035-.889,45.854,45.854,0,0,0,18.928-5.741c5.96-3.441,9.529-6.866,10.608-10.182a.445.445,0,0,1,.847.276c-1.15,3.53-4.854,7.122-11.009,10.676a46.758,46.758,0,0,1-19.3,5.858Z" transform="translate(-656.763 -256.454)" fill="#fff"/>
    <path id="路径_170" data-name="路径 170" d="M707.539,265.888a.445.445,0,0,1-.445-.429c-.095-2.639-2.017-5.114-5.555-7.156-7.825-4.518-18.029-4.494-28.734.068a.445.445,0,0,1-.349-.82c10.968-4.672,21.455-4.679,29.528-.019,3.819,2.2,5.893,4.934,6,7.895a.445.445,0,0,1-.429.461Z" transform="translate(-655.926 -254.041)" fill="#fff"/>
    <path id="路径_171" data-name="路径 171" d="M667.539,284.873a.35.35,0,0,1-.042,0,23.665,23.665,0,0,1-9.518-2.729c-2.758-1.593-4.478-3.746-4.97-6.227a1.148,1.148,0,0,1,.285-.987,2.729,2.729,0,0,1,2.181-.739,2.123,2.123,0,0,1,2.048,1.192,7.517,7.517,0,0,0,3.762,4.34c6.95,4.012,20.331,2.813,29.831-2.671,6.13-3.539,9.371-7.147,9.371-10.433,0-2.313-1.641-4.484-4.745-6.276-8.008-4.623-18.881-3.65-29.83,2.67-3.951,2.281-6.784,5.075-7.976,7.868a2.057,2.057,0,0,1-1.907.989,2.329,2.329,0,0,1-2.01-.825,1.009,1.009,0,0,1-.061-1.012c1.613-3.268,4.866-6.381,9.407-9a.445.445,0,0,1,.445.771c-4.389,2.533-7.519,5.517-9.054,8.627a.119.119,0,0,0,.013.138,1.539,1.539,0,0,0,1.236.415,1.3,1.3,0,0,0,1.114-.449c1.268-2.969,4.233-5.912,8.349-8.289,11.232-6.485,22.43-7.458,30.721-2.67,3.4,1.961,5.19,4.4,5.19,7.046,0,3.674-3.3,7.443-9.816,11.2-9.745,5.627-23.527,6.824-30.721,2.671a8.48,8.48,0,0,1-4.174-4.866c-.067-.235-.56-.511-1.24-.547a1.9,1.9,0,0,0-1.46.434c-.106.121-.09.2-.084.23a8.643,8.643,0,0,0,4.542,5.63,22.793,22.793,0,0,0,9.157,2.614.445.445,0,0,1-.041.888Z" transform="translate(-652.987 -254.428)" fill="#fff"/>
    <path id="路径_172" data-name="路径 172" d="M683.03,281.315a2.444,2.444,0,0,1-1.775-.656,1.053,1.053,0,0,1-.25-1.052,1.716,1.716,0,0,1,1.372-1,28.391,28.391,0,0,0,8.461-3.155c4.114-2.375,6.444-4.749,6.739-6.863a3.424,3.424,0,0,0-1.088-2.931,1.116,1.116,0,0,1-.324-1.054,1.66,1.66,0,0,1,1.156-1.087,3.09,3.09,0,0,1,3.068.522,5.4,5.4,0,0,1,1.653,4.217c-.172,2.2-1.762,4.473-4.728,6.762a.445.445,0,0,1-.544-.7c2.758-2.128,4.234-4.19,4.385-6.127a4.548,4.548,0,0,0-1.413-3.536,2.282,2.282,0,0,0-2.125-.294c-.386.136-.557.329-.586.451-.006.026-.025.107.1.231a4.269,4.269,0,0,1,1.331,3.674c-.339,2.43-2.753,4.957-7.176,7.511a29.331,29.331,0,0,1-8.727,3.256c-.42.085-.66.27-.7.406-.008.023-.025.077.065.177a1.821,1.821,0,0,0,1.569.314,33.486,33.486,0,0,0,9.6-3.629.445.445,0,1,1,.445.771,34.376,34.376,0,0,1-9.854,3.729A3.109,3.109,0,0,1,683.03,281.315Z" transform="translate(-657.269 -255.464)" fill="#fff"/>
    <path id="路径_173" data-name="路径 173" d="M672.944,281.348h-.105a17.592,17.592,0,0,1-8.152-1.978c-2.334-1.347-3.568-3.234-3.568-5.458,0-3.374,2.956-7.1,7.905-9.953,7.842-4.528,15.678-5.983,22.064-4.1a1.781,1.781,0,0,1,1.3,1.087,1.115,1.115,0,0,1-.263,1.07h0a3.04,3.04,0,0,1-2.968.6c-4.562-1.369-10.322-.4-16.218,2.725-.221.118-.3.241-.3.311s.1.192.255.283a2.13,2.13,0,0,0,1.826.024c5.864-3.1,11.328-3.665,14.989-1.552a3.821,3.821,0,0,1,2.255,3.225c0,2.067-2.031,4.288-6.034,6.6-5.488,3.167-12.722,4.148-16.127,2.182a3.508,3.508,0,0,1-1.863-2.5c-.2-1.351.427-2.866,1.828-4.383.08-.087.07-.136.067-.152-.02-.091-.154-.23-.408-.335a1.985,1.985,0,0,0-1.9.214c-1.545,1.673-2.271,3.408-2.047,4.887a4.152,4.152,0,0,0,2.269,2.945,12.208,12.208,0,0,0,5.327,1.37c1.137.064,1.956.63,1.992,1.376a1.137,1.137,0,0,1-.348.883A2.5,2.5,0,0,1,672.944,281.348Zm12.35-21.4c-4.911,0-10.357,1.626-15.825,4.783-4.671,2.7-7.46,6.13-7.46,9.182,0,1.888,1.08,3.509,3.123,4.688a16.723,16.723,0,0,0,7.736,1.859,1.689,1.689,0,0,0,1.214-.362.274.274,0,0,0,.1-.183c-.011-.228-.455-.524-1.155-.564a13.085,13.085,0,0,1-5.721-1.488,5.06,5.06,0,0,1-2.7-3.582c-.266-1.751.541-3.749,2.273-5.624a2.813,2.813,0,0,1,2.9-.432,1.44,1.44,0,0,1,.937.966,1.041,1.041,0,0,1-.281.947c-1.194,1.292-1.763,2.586-1.6,3.645a2.623,2.623,0,0,0,1.428,1.864c3.159,1.823,10,.844,15.238-2.182,3.6-2.081,5.589-4.151,5.589-5.829a2.962,2.962,0,0,0-1.811-2.454c-3.39-1.957-8.539-1.386-14.127,1.568a3,3,0,0,1-2.686-.04,1.24,1.24,0,0,1-.7-1.069,1.293,1.293,0,0,1,.776-1.082c6.1-3.237,12.1-4.229,16.891-2.792a2.205,2.205,0,0,0,2.04-.33h0c.112-.128.088-.208.08-.236-.044-.151-.278-.358-.7-.483A19.52,19.52,0,0,0,685.294,259.946Zm6.5,1.779h0Z" transform="translate(-654.232 -254.809)" fill="#fff"/>
    <path id="路径_174" data-name="路径 174" d="M676.906,276.579a5.338,5.338,0,0,1-2.634-.562,1.99,1.99,0,0,1-1.09-1.773c0-1.591,1.714-3.531,4.585-5.189,4.659-2.69,8.729-3.425,11.168-2.017a2.238,2.238,0,0,1,1.3,1.893c.035,1.3-1.175,2.757-3.6,4.334a2.964,2.964,0,0,1-2.829.05,1.257,1.257,0,0,1-.7-1.026,1.184,1.184,0,0,1,.609-1.017c1.943-1.261,1.941-1.782,1.941-1.782-.542-.314-2.18-.047-5.145,1.666-2.057,1.187-2.907,2.205-2.9,2.487a.444.444,0,0,1-.442.447h0a.445.445,0,0,1-.445-.442c-.009-1.227,2.562-2.808,3.349-3.262,2.036-1.175,4.728-2.426,6-1.691a.9.9,0,0,1,.484.769c.011.436-.219,1.176-2.346,2.555-.128.083-.206.178-.2.248s.069.17.256.278a2.09,2.09,0,0,0,1.9-.025c2.811-1.833,3.206-3.02,3.191-3.566a1.419,1.419,0,0,0-.855-1.146c-1.02-.589-4.063-1.57-10.277,2.017-2.515,1.452-4.141,3.187-4.141,4.418a1.116,1.116,0,0,0,.645,1c1.081.623,3.206.589,5.683-.094a.445.445,0,1,1,.237.858A14.353,14.353,0,0,1,676.906,276.579Z" transform="translate(-656.079 -255.924)" fill="#fff"/>
  </g>
  <path id="路径_175" data-name="路径 175" d="M666.705,259.027a.283.283,0,0,1-.141-.038l-11.725-6.769a.283.283,0,1,1,.283-.489l11.725,6.768a.283.283,0,0,1-.141.528Z" transform="translate(-540.553 -105.429)" fill="#fff"/>
</svg>
