<svg id="提现" xmlns="http://www.w3.org/2000/svg" xmlns:xlink="http://www.w3.org/1999/xlink" width="199.33" height="198.377" viewBox="0 0 199.33 198.377">
  <defs>
    <linearGradient id="linear-gradient" x1="0.554" y1="0.572" x2="-0.237" y2="-0.487" gradientUnits="objectBoundingBox">
      <stop offset="0" stop-color="#59bdef"/>
      <stop offset="1" stop-color="#7bdaff"/>
    </linearGradient>
    <linearGradient id="linear-gradient-2" y1="0.5" x2="1" y2="0.5" gradientUnits="objectBoundingBox">
      <stop offset="0" stop-color="#2573ba"/>
      <stop offset="1" stop-color="#0063ad"/>
    </linearGradient>
    <linearGradient id="linear-gradient-3" y1="0.5" x2="1" y2="0.5" gradientUnits="objectBoundingBox">
      <stop offset="0" stop-color="#3a9bd5"/>
      <stop offset="1" stop-color="#2573ba"/>
    </linearGradient>
    <linearGradient id="linear-gradient-7" y1="0.5" x2="2.597" y2="0.5" gradientUnits="objectBoundingBox">
      <stop offset="0" stop-color="#3a9bd5"/>
      <stop offset="0.522" stop-color="#2f87c7"/>
      <stop offset="1" stop-color="#297bbf"/>
    </linearGradient>
    <linearGradient id="linear-gradient-8" x1="-1.774" y1="3.037" x2="-0.169" y2="3.344" xlink:href="#linear-gradient"/>
    <radialGradient id="radial-gradient" cx="364.579" cy="189.986" r="19.728" gradientTransform="matrix(0.516, -0.65, 0.65, 0.516, -4.654, 6.068)" gradientUnits="userSpaceOnUse">
      <stop offset="0" stop-color="#fce586"/>
      <stop offset="0.227" stop-color="#fcdb7b"/>
      <stop offset="0.616" stop-color="#fccf6f"/>
      <stop offset="1" stop-color="#fccc6b"/>
    </radialGradient>
    <radialGradient id="radial-gradient-2" cx="14.915" cy="13.424" r="67.445" gradientTransform="matrix(0.551, -0.172, 0.172, 0.551, 4.386, 8.591)" xlink:href="#radial-gradient"/>
    <linearGradient id="linear-gradient-9" y1="0.5" x2="1" y2="0.5" gradientUnits="objectBoundingBox">
      <stop offset="0" stop-color="#7bdaff"/>
      <stop offset="1" stop-color="#59bdef"/>
    </linearGradient>
    <radialGradient id="radial-gradient-3" cx="364.893" cy="270.415" r="28.352" gradientTransform="matrix(0.552, -0.17, 0.17, 0.552, 1.683, 2.089)" xlink:href="#radial-gradient"/>
    <radialGradient id="radial-gradient-4" cx="377.115" cy="282.282" r="67.443" gradientTransform="matrix(0.552, -0.17, 0.17, 0.552, 4.388, 8.548)" xlink:href="#radial-gradient"/>
    <radialGradient id="radial-gradient-5" cx="367.216" cy="267.099" r="28.351" gradientTransform="matrix(0.552, -0.17, 0.17, 0.552, 1.683, 2.089)" xlink:href="#radial-gradient"/>
    <radialGradient id="radial-gradient-6" cx="379.439" cy="278.966" r="67.443" gradientTransform="matrix(0.552, -0.17, 0.17, 0.552, 4.387, 8.548)" xlink:href="#radial-gradient"/>
    <radialGradient id="radial-gradient-7" cx="10.371" cy="4.812" r="9.451" gradientTransform="matrix(0.516, 1.653, -1.653, 0.516, 12.977, -14.818)" xlink:href="#radial-gradient"/>
    <radialGradient id="radial-gradient-8" cx="-2.313" cy="14.915" r="22.482" gradientTransform="matrix(0.516, 1.653, -1.653, 0.516, 23.541, 11.043)" xlink:href="#radial-gradient"/>
    <radialGradient id="radial-gradient-9" cx="10.371" cy="4.812" r="9.451" gradientTransform="matrix(0.516, 1.653, -1.653, 0.516, 12.977, -14.818)" xlink:href="#radial-gradient"/>
    <radialGradient id="radial-gradient-10" cx="370.209" cy="300.141" r="67.443" gradientTransform="matrix(0.552, -0.17, 0.17, 0.552, 4.387, 8.548)" xlink:href="#radial-gradient"/>
    <radialGradient id="radial-gradient-11" cx="10.371" cy="4.812" r="9.451" gradientTransform="matrix(0.516, 1.653, -1.653, 0.516, 12.976, -14.818)" xlink:href="#radial-gradient"/>
    <radialGradient id="radial-gradient-12" cx="383.014" cy="295.164" r="67.443" gradientTransform="matrix(0.552, -0.17, 0.17, 0.552, 4.387, 8.548)" xlink:href="#radial-gradient"/>
    <radialGradient id="radial-gradient-13" cx="374.291" cy="280.593" r="28.351" gradientTransform="matrix(0.552, -0.17, 0.17, 0.552, 1.683, 2.089)" xlink:href="#radial-gradient"/>
    <radialGradient id="radial-gradient-14" cx="386.514" cy="292.459" r="67.443" gradientTransform="matrix(0.552, -0.17, 0.17, 0.552, 4.387, 8.548)" xlink:href="#radial-gradient"/>
    <radialGradient id="radial-gradient-15" cx="10.371" cy="4.812" r="9.451" gradientTransform="matrix(0.516, 1.653, -1.653, 0.516, 12.977, -14.818)" xlink:href="#radial-gradient"/>
    <radialGradient id="radial-gradient-16" cx="388.368" cy="287.257" r="67.443" gradientTransform="matrix(0.552, -0.17, 0.17, 0.552, 4.388, 8.548)" xlink:href="#radial-gradient"/>
    <radialGradient id="radial-gradient-17" cx="386.742" cy="273.445" r="26.784" gradientTransform="matrix(0.609, -0.056, 0.056, 0.609, 2.08, 1.033)" xlink:href="#radial-gradient"/>
    <radialGradient id="radial-gradient-18" cx="396.317" cy="287.507" r="63.715" gradientTransform="matrix(0.609, -0.056, 0.056, 0.609, 4.275, 6.442)" xlink:href="#radial-gradient"/>
    <radialGradient id="radial-gradient-19" cx="10.371" cy="4.812" r="9.451" gradientTransform="matrix(0.516, 1.653, -1.653, 0.516, 12.976, -14.818)" xlink:href="#radial-gradient"/>
    <radialGradient id="radial-gradient-20" cx="374.451" cy="227.136" r="50.481" gradientTransform="matrix(0.753, 0.166, -0.166, 0.753, 5.036, 2.433)" xlink:href="#radial-gradient"/>
    <radialGradient id="radial-gradient-21" cx="363.148" cy="254.444" r="21.381" gradientTransform="matrix(0.526, -0.556, 0.556, 0.526, -3.103, 5.405)" xlink:href="#radial-gradient"/>
    <radialGradient id="radial-gradient-22" cx="379.554" cy="258.973" r="50.865" gradientTransform="matrix(0.526, -0.556, 0.556, 0.526, 2.061, 14.849)" xlink:href="#radial-gradient"/>
    <linearGradient id="linear-gradient-10" x1="-14.277" y1="1.875" x2="-12.848" y2="2.233" gradientUnits="objectBoundingBox">
      <stop offset="0" stop-color="#2573ba"/>
      <stop offset="0.907" stop-color="#0364ae"/>
      <stop offset="1" stop-color="#0063ad"/>
    </linearGradient>
    <linearGradient id="linear-gradient-11" x1="-27.927" y1="0.5" x2="-26.927" y2="0.5" gradientUnits="objectBoundingBox">
      <stop offset="0" stop-color="#0063ad"/>
      <stop offset="1" stop-color="#2573ba"/>
    </linearGradient>
    <linearGradient id="linear-gradient-12" x1="-14.706" y1="1.95" x2="-13.551" y2="1.95" xlink:href="#linear-gradient-9"/>
  </defs>
  <g id="组_15" data-name="组 15" transform="translate(14.359 68.257)">
    <g id="组_9" data-name="组 9">
      <path id="路径_27" data-name="路径 27" d="M308.575,210.593l-16.585-9.574,13.179-7.609,16.585,9.574Z" transform="translate(-285.752 -171.269)" fill="#041860" opacity="0.6"/>
      <path id="路径_28" data-name="路径 28" d="M308.1,213.543l-23.471-13.55,18.768-10.835,23.472,13.551Zm-22.339-13.55,22.339,12.9,17.635-10.18-22.339-12.9Z" transform="translate(-284.625 -170.618)" fill="#fff"/>
      <path id="路径_29" data-name="路径 29" d="M308.575,184.45l-16.585-9.574,13.179-7.609,16.585,9.574Z" transform="translate(-285.752 -167.267)" fill="url(#linear-gradient)"/>
      <path id="路径_30" data-name="路径 30" d="M324.752,188.843V178.572l-13.179,7.609v10.271Z" transform="translate(-288.75 -168.997)" fill="url(#linear-gradient-2)"/>
      <path id="路径_31" data-name="路径 31" d="M291.99,176.251v10.271l16.585,9.574V185.825Z" transform="translate(-285.752 -168.642)" fill="url(#linear-gradient-3)"/>
    </g>
    <g id="组_14" data-name="组 14" transform="translate(9.256 5.207)">
      <g id="组_10" data-name="组 10">
        <path id="路径_32" data-name="路径 32" d="M302.733,173.414l-7.18,4.145v2.222l2.131,1.23V178.79l7.18-4.145Z" transform="translate(-295.554 -173.414)" fill="#fff"/>
        <path id="路径_33" data-name="路径 33" d="M308.119,176.522l-7.18,4.145v2.222l2.131,1.23V181.9l7.18-4.145Z" transform="translate(-296.378 -173.89)" fill="#fff"/>
        <path id="路径_34" data-name="路径 34" d="M313.51,179.634l-7.18,4.145V186l2.131,1.23V185.01l7.18-4.145Z" transform="translate(-297.203 -174.367)" fill="#fff"/>
      </g>
      <g id="组_11" data-name="组 11">
        <path id="路径_35" data-name="路径 35" d="M304.031,173.414v.9l1.369.775.762-.44Z" transform="translate(-296.851 -173.414)" fill="#a9ebff"/>
        <path id="路径_36" data-name="路径 36" d="M296.326,180.391l-.772.459,2.131,1.23v-.925Z" transform="translate(-295.554 -174.482)" fill="#a9ebff"/>
        <path id="路径_37" data-name="路径 37" d="M302.733,173.414l-7.18,4.145v2.222l.772-.459v-1.311l6.411-3.7Z" transform="translate(-295.554 -173.414)" fill="url(#linear-gradient-2)"/>
      </g>
      <g id="组_12" data-name="组 12" transform="translate(4.561 2.632)">
        <path id="路径_38" data-name="路径 38" d="M309.417,176.522v.9l1.369.775.762-.44Z" transform="translate(-302.237 -176.522)" fill="#a9ebff"/>
        <path id="路径_39" data-name="路径 39" d="M301.711,183.5l-.772.459,2.131,1.23v-.925Z" transform="translate(-300.939 -177.59)" fill="#a9ebff"/>
        <path id="路径_40" data-name="路径 40" d="M308.119,176.522l-7.18,4.145v2.222l.772-.459v-1.311l6.411-3.7Z" transform="translate(-300.939 -176.522)" fill="url(#linear-gradient-2)"/>
      </g>
      <g id="组_13" data-name="组 13" transform="translate(9.127 5.268)">
        <path id="路径_41" data-name="路径 41" d="M314.808,179.634v.9l1.369.775.762-.44Z" transform="translate(-307.628 -179.634)" fill="#a9ebff"/>
        <path id="路径_42" data-name="路径 42" d="M307.1,186.61l-.772.459,2.131,1.23v-.925Z" transform="translate(-306.33 -180.702)" fill="#a9ebff"/>
        <path id="路径_43" data-name="路径 43" d="M313.51,179.634l-7.18,4.145V186l.772-.459v-1.311l6.411-3.7Z" transform="translate(-306.33 -179.634)" fill="url(#linear-gradient-2)"/>
      </g>
    </g>
  </g>
  <g id="组_32" data-name="组 32" transform="translate(47.255 0)">
    <path id="路径_44" data-name="路径 44" d="M399.506,305c-19.452,0-38.9-4.274-53.708-12.824-14.4-8.314-22.331-19.385-22.331-31.173s7.93-22.858,22.33-31.171c29.611-17.1,77.8-17.1,107.415,0,14.4,8.313,22.331,19.383,22.331,31.171s-7.93,22.858-22.329,31.172h0C438.407,300.727,418.954,305,399.506,305Zm0-87.433c-19.349,0-38.694,4.252-53.423,12.756-14.216,8.207-22.045,19.1-22.045,30.679s7.829,22.474,22.046,30.682c29.459,17.008,77.391,17.008,106.85,0h0c14.216-8.208,22.045-19.1,22.045-30.681s-7.83-22.473-22.047-30.68C438.2,221.822,418.849,217.57,399.5,217.57Z" transform="translate(-323.467 -106.625)" fill="#fff"/>
    <ellipse id="椭圆_4" data-name="椭圆 4" cx="54.31" cy="31.356" rx="54.31" ry="31.356" transform="translate(21.728 123.025)" fill="#13247a" opacity="0.5"/>
    <g id="组_17" data-name="组 17" transform="translate(40.559)">
      <path id="路径_45" data-name="路径 45" d="M442.926,119.24l-55.6-32.13a2.362,2.362,0,0,0-2.354-.214L381.2,89.1l2.466,1.489V220.866c0,2.7,1.64,5.828,3.661,7l54.959,31.758-.783,2.789,3.8-2.213,0,0a3.219,3.219,0,0,0,1.29-2.971V126.235C446.589,123.54,444.949,120.407,442.926,119.24Z" transform="translate(-372.864 -86.672)" fill="url(#linear-gradient-7)"/>
      <path id="路径_46" data-name="路径 46" d="M438.816,262.642l-55.6-32.129c-2.022-1.168-3.661-4.3-3.661-7V92.529c0-2.7,1.639-3.936,3.661-2.768l55.6,32.129c2.022,1.168,3.661,4.3,3.661,7V259.875C442.477,262.571,440.838,263.81,438.816,262.642Z" transform="translate(-372.612 -87.078)" fill="url(#linear-gradient-8)"/>
      <path id="路径_47" data-name="路径 47" d="M442.477,260.529l-62.926-36.358V93l62.926,36.358Z" transform="translate(-372.612 -87.641)" fill="#0f65b2"/>
      <g id="组_16" data-name="组 16" transform="translate(0 11.21)">
        <path id="路径_48" data-name="路径 48" d="M431.217,264.15,375.055,231.7a6.811,6.811,0,0,1-3.4-5.9V102.445a2.24,2.24,0,0,1,3.361-1.939l56.162,32.449a6.811,6.811,0,0,1,3.4,5.9V262.211A2.24,2.24,0,0,1,431.217,264.15Z" transform="translate(-371.403 -99.953)" fill="#fff" opacity="0.4"/>
        <path id="路径_49" data-name="路径 49" d="M432.292,264.658a2.473,2.473,0,0,1-1.244-.339L374.885,231.87a7.079,7.079,0,0,1-3.527-6.111V102.4a2.488,2.488,0,0,1,3.732-2.154L431.253,132.7a7.08,7.08,0,0,1,3.527,6.111V262.166a2.5,2.5,0,0,1-2.489,2.492ZM373.846,100.405a2,2,0,0,0-1.992,2V225.759a6.583,6.583,0,0,0,3.279,5.683l56.162,32.45a1.992,1.992,0,0,0,2.989-1.726V138.807a6.585,6.585,0,0,0-3.279-5.683l-56.163-32.449A1.992,1.992,0,0,0,373.846,100.405Z" transform="translate(-371.358 -99.908)" fill="#fff"/>
      </g>
      <path id="路径_50" data-name="路径 50" d="M420.015,114.177l-8.313-4.8a1.223,1.223,0,0,1-.511-.976h0c0-.376.229-.55.511-.386l8.313,4.8a1.225,1.225,0,0,1,.511.977h0C420.525,114.168,420.3,114.34,420.015,114.177Z" transform="translate(-377.456 -89.93)" fill="#0063ad"/>
    </g>
    <path id="路径_51" data-name="路径 51" d="M417.379,189.229c1.138.657,2.061-.041,2.061-1.558V142.12a4.938,4.938,0,0,0-2.061-3.939l-45.553-26.3a7.768,7.768,0,0,0-.175,1.645v49.3Z" transform="translate(-330.843 -90.531)" fill="#041860" opacity="0.2"/>
    <g id="组_18" data-name="组 18" transform="translate(31.741 78.255)">
      <path id="路径_52" data-name="路径 52" d="M381.8,183.278l.009,1.131a7.414,7.414,0,0,0-3.672-.548c-5.155.377-11.159,4.455-13.41,9.108a7.476,7.476,0,0,0-.847,3.535l-1.044-.346,1.125,1.657,0-.005c.933,1.452,2.831,2.26,5.458,2.067,5.155-.377,11.159-4.455,13.41-9.108,1.126-2.326,1.1-4.356.148-5.757h0Z" transform="translate(-361.235 -179.716)" fill="#f4a856"/>
      <path id="路径_53" data-name="路径 53" d="M381.523,188.672c-2.251,4.653-8.255,8.73-13.41,9.108s-7.509-3.09-5.258-7.742,8.255-8.731,13.41-9.108S383.774,184.019,381.523,188.672Z" transform="translate(-361.107 -179.352)" fill="#fccc6b"/>
      <path id="路径_54" data-name="路径 54" d="M381.523,188.672c-2.251,4.653-8.255,8.73-13.41,9.108s-7.509-3.09-5.258-7.742,8.255-8.731,13.41-9.108S383.774,184.019,381.523,188.672Z" transform="translate(-361.107 -179.352)" fill="url(#radial-gradient)"/>
      <path id="路径_55" data-name="路径 55" d="M375.7,194.213a14.054,14.054,0,0,1-6.651,2.54c-2.129.156-3.772-.451-4.627-1.709s-.812-3.009.118-4.931a15.171,15.171,0,0,1,11.338-7.7c2.129-.155,3.771.451,4.626,1.709s.812,3.008-.117,4.93A13.982,13.982,0,0,1,375.7,194.213Zm-6.364-9.1a13.774,13.774,0,0,0-4.622,5.087c-.9,1.856-.944,3.539-.131,4.737s2.394,1.774,4.451,1.624a14.953,14.953,0,0,0,11.177-7.592c.9-1.856.945-3.538.131-4.737s-2.393-1.774-4.451-1.624A13.851,13.851,0,0,0,369.339,185.11Z" transform="translate(-361.385 -179.58)" fill="#f4a856"/>
      <ellipse id="椭圆_5" data-name="椭圆 5" cx="9.623" cy="5.556" rx="9.623" ry="5.556" transform="translate(0 10.813) rotate(-34.182)" fill="url(#radial-gradient-2)"/>
      <path id="路径_56" data-name="路径 56" d="M364.908,190.555a15.038,15.038,0,0,1,11.257-7.647c2.048-.149,3.567.423,4.4,1.481-.753-1.3-2.38-2.029-4.661-1.862a15.037,15.037,0,0,0-11.258,7.646c-1,2.058-.917,3.839.013,5.018C363.986,194.026,364.013,192.4,364.908,190.555Z" transform="translate(-361.403 -179.598)" fill="#f4a856"/>
      <path id="路径_57" data-name="路径 57" d="M381.385,188.643c-2.251,4.653-8.255,8.731-13.41,9.108-2.467.18-4.29-.521-5.276-1.809.909,1.517,2.833,2.367,5.521,2.17,5.155-.377,11.159-4.454,13.41-9.107,1.174-2.426,1.093-4.528.019-5.933C382.482,184.463,382.462,186.416,381.385,188.643Z" transform="translate(-361.214 -179.685)" fill="#fce586"/>
    </g>
    <path id="路径_58" data-name="路径 58" d="M380.954,194.176a14.381,14.381,0,0,0,2.747-3.77c1.126-2.326,1.1-4.356.148-5.757l-1.178-1.734c-.016-.024-.038-.044-.055-.068s-.048-.072-.074-.107c.007.012.011.025.018.037-.98-1.31-2.807-2.029-5.295-1.847a17.09,17.09,0,0,0-8.732,3.631l9.281,9.615Z" transform="translate(-330.366 -101.097)" fill="#f4a856"/>
    <g id="组_21" data-name="组 21" transform="translate(11.505 12.993)">
      <path id="路径_59" data-name="路径 59" d="M406.309,140.43,340.2,102.26a1.316,1.316,0,0,0-1.347-.107v0l-.983.573s.227.033.455.064a2.638,2.638,0,0,0-.186,1.032v45.551a4.934,4.934,0,0,0,2.061,3.938l66.112,38.17a1.994,1.994,0,0,0,.365.165v.517l.987-.575h-.005a1.823,1.823,0,0,0,.714-1.665V144.368A4.937,4.937,0,0,0,406.309,140.43Z" transform="translate(-337.177 -102.013)" fill="#fff"/>
      <path id="路径_60" data-name="路径 60" d="M405.227,192.137l-66.113-38.17a4.937,4.937,0,0,1-2.061-3.938V104.477c0-1.518.923-2.216,2.061-1.557l66.113,38.169a4.939,4.939,0,0,1,2.061,3.939v45.551C407.288,192.1,406.365,192.794,405.227,192.137Z" transform="translate(-337.052 -102.114)" fill="url(#linear-gradient-9)"/>
      <g id="组_20" data-name="组 20" transform="translate(5.704 42.831)">
        <path id="路径_65" data-name="路径 65" d="M356.337,161.509l-12.55-7.246v-1.677l12.55,7.246Z" transform="translate(-343.787 -152.587)" fill="#fff"/>
        <path id="路径_66" data-name="路径 66" d="M374.551,172.026,362,164.78V163.1l12.55,7.246Z" transform="translate(-346.575 -154.197)" fill="#fff"/>
        <path id="路径_67" data-name="路径 67" d="M392.766,182.542l-12.55-7.246v-1.677l12.55,7.246Z" transform="translate(-349.364 -155.807)" fill="#fff"/>
        <path id="路径_68" data-name="路径 68" d="M410.981,193.058l-12.55-7.246v-1.677l12.55,7.246Z" transform="translate(-352.152 -157.416)" fill="#fff"/>
      </g>
      <path id="路径_69" data-name="路径 69" d="M405.227,141.089l-66.113-38.169c-1.138-.658-2.061.04-2.061,1.558v45.551a4.394,4.394,0,0,0,.1.848c3.517-2.543,17.82-10.407,45.14,4.666,9.947,5.488,18.264,4.762,25,1.17V145.028A4.939,4.939,0,0,0,405.227,141.089Z" transform="translate(-337.052 -102.114)" fill="#fff" opacity="0.2"/>
      <path id="路径_70" data-name="路径 70" d="M364.457,138.772a64.248,64.248,0,0,0,23.487-7.662l-48.83-28.191c-1.138-.658-2.061.04-2.061,1.558v43.593C341.927,144.226,350.263,140.6,364.457,138.772Z" transform="translate(-337.052 -102.114)" fill="#fff" opacity="0.2"/>
    </g>
    <g id="组_22" data-name="组 22" transform="translate(30.985 153.213)">
      <path id="路径_71" data-name="路径 71" d="M382.986,274.81l-.632.938a7.413,7.413,0,0,0-2.719-2.529c-4.465-2.6-11.722-2.636-16.21-.072a7.485,7.485,0,0,0-2.7,2.436l-.666-.875-.009,2,0,0c-.051,1.726,1.057,3.465,3.332,4.792,4.465,2.6,11.723,2.637,16.211.073,2.243-1.282,3.37-2.971,3.378-4.665h0Z" transform="translate(-360.053 -268.141)" fill="#f4a856"/>
      <path id="路径_72" data-name="路径 72" d="M379.611,278.913c-4.488,2.564-11.746,2.532-16.211-.072s-4.445-6.795.042-9.359,11.745-2.531,16.21.073S384.1,276.349,379.611,278.913Z" transform="translate(-360.055 -267.58)" fill="#fccc6b"/>
      <path id="路径_73" data-name="路径 73" d="M379.611,278.913c-4.488,2.564-11.746,2.532-16.211-.072s-4.445-6.795.042-9.359,11.745-2.531,16.21.073S384.1,276.349,379.611,278.913Z" transform="translate(-360.055 -267.58)" fill="url(#radial-gradient-3)"/>
      <path id="路径_74" data-name="路径 74" d="M371.892,280.022a14.054,14.054,0,0,1-6.922-1.667c-1.844-1.076-2.856-2.505-2.849-4.025s1.032-2.941,2.885-4a15.171,15.171,0,0,1,13.706.062c1.844,1.076,2.856,2.505,2.849,4.025s-1.032,2.94-2.885,4A13.979,13.979,0,0,1,371.892,280.022Zm-.1-11.106A13.781,13.781,0,0,0,365.1,270.5c-1.79,1.023-2.78,2.384-2.786,3.831s.971,2.819,2.752,3.858a14.956,14.956,0,0,0,13.512.06c1.79-1.023,2.78-2.384,2.787-3.832s-.971-2.817-2.752-3.856A13.853,13.853,0,0,0,371.791,268.915Z" transform="translate(-360.37 -267.755)" fill="#f4a856"/>
      <path id="路径_75" data-name="路径 75" d="M378.646,278.349a15.04,15.04,0,0,1-13.609-.061c-3.748-2.187-3.732-5.7.035-7.857a15.04,15.04,0,0,1,13.609.061C382.429,272.678,382.413,276.2,378.646,278.349Z" transform="translate(-360.387 -267.772)" fill="url(#radial-gradient-4)"/>
      <path id="路径_76" data-name="路径 76" d="M365.07,270.892a15.04,15.04,0,0,1,13.609.061c1.773,1.034,2.7,2.366,2.792,3.71.113-1.5-.816-3.019-2.791-4.171a15.04,15.04,0,0,0-13.609-.061c-1.985,1.134-2.927,2.648-2.827,4.146C362.346,273.234,363.288,271.91,365.07,270.892Z" transform="translate(-360.387 -267.772)" fill="#f4a856"/>
      <path id="路径_77" data-name="路径 77" d="M379.613,279.625c-4.488,2.564-11.745,2.532-16.21-.073-2.137-1.246-3.244-2.856-3.328-4.476-.108,1.765,1,3.555,3.326,4.913,4.465,2.6,11.723,2.636,16.211.072,2.34-1.337,3.462-3.116,3.37-4.882C382.882,276.8,381.761,278.4,379.613,279.625Z" transform="translate(-360.055 -268.728)" fill="#fce586"/>
    </g>
    <g id="组_23" data-name="组 23" transform="translate(32.953 150.405)">
      <path id="路径_78" data-name="路径 78" d="M385.31,271.494l-.633.938a7.408,7.408,0,0,0-2.718-2.529c-4.465-2.6-11.723-2.636-16.211-.072a7.474,7.474,0,0,0-2.7,2.436l-.667-.875-.008,2,0,0c-.051,1.726,1.057,3.465,3.333,4.792,4.465,2.6,11.722,2.637,16.21.073,2.243-1.282,3.371-2.971,3.378-4.665h0Z" transform="translate(-362.377 -264.825)" fill="#f4a856"/>
      <path id="路径_79" data-name="路径 79" d="M381.934,275.6c-4.488,2.564-11.745,2.532-16.21-.072s-4.446-6.795.042-9.359,11.745-2.532,16.21.073S386.422,273.033,381.934,275.6Z" transform="translate(-362.379 -264.264)" fill="#fccc6b"/>
      <path id="路径_80" data-name="路径 80" d="M381.934,275.6c-4.488,2.564-11.745,2.532-16.21-.072s-4.446-6.795.042-9.359,11.745-2.532,16.21.073S386.422,273.033,381.934,275.6Z" transform="translate(-362.379 -264.264)" fill="url(#radial-gradient-5)"/>
      <path id="路径_81" data-name="路径 81" d="M374.215,276.706a14.05,14.05,0,0,1-6.921-1.667c-1.845-1.076-2.856-2.505-2.85-4.026s1.032-2.94,2.885-4a15.166,15.166,0,0,1,13.706.062c1.845,1.076,2.856,2.5,2.849,4.025s-1.032,2.94-2.885,4A13.979,13.979,0,0,1,374.215,276.706Zm-.1-11.106a13.776,13.776,0,0,0-6.688,1.583c-1.791,1.023-2.78,2.384-2.787,3.831s.971,2.818,2.752,3.858a14.954,14.954,0,0,0,13.512.06c1.791-1.023,2.78-2.384,2.787-3.832s-.971-2.817-2.752-3.856A13.851,13.851,0,0,0,374.114,265.6Z" transform="translate(-362.693 -264.439)" fill="#f4a856"/>
      <path id="路径_82" data-name="路径 82" d="M380.969,275.033a15.041,15.041,0,0,1-13.608-.061c-3.748-2.187-3.733-5.7.035-7.858a15.043,15.043,0,0,1,13.608.061C384.752,269.362,384.737,272.88,380.969,275.033Z" transform="translate(-362.711 -264.456)" fill="url(#radial-gradient-6)"/>
      <path id="路径_83" data-name="路径 83" d="M367.393,267.576a15.04,15.04,0,0,1,13.609.06c1.773,1.034,2.7,2.366,2.792,3.711.113-1.5-.815-3.019-2.791-4.172a15.043,15.043,0,0,0-13.608-.061c-1.986,1.135-2.928,2.648-2.828,4.147C364.67,269.918,365.611,268.594,367.393,267.576Z" transform="translate(-362.711 -264.456)" fill="#f4a856"/>
      <path id="路径_84" data-name="路径 84" d="M381.936,276.309c-4.488,2.564-11.745,2.531-16.21-.073-2.137-1.246-3.244-2.856-3.328-4.476-.108,1.765,1,3.554,3.327,4.913,4.465,2.6,11.722,2.636,16.21.072,2.34-1.337,3.462-3.117,3.37-4.882C385.2,273.483,384.084,275.082,381.936,276.309Z" transform="translate(-362.379 -265.411)" fill="#fce586"/>
    </g>
    <g id="组_24" data-name="组 24" transform="translate(48.037 164.312)">
      <path id="路径_85" data-name="路径 85" d="M403.145,287.975l-.632.938a7.42,7.42,0,0,0-2.719-2.53c-4.465-2.6-11.722-2.636-16.21-.072a7.466,7.466,0,0,0-2.7,2.437l-.667-.876-.008,2,0,0c-.052,1.726,1.057,3.465,3.332,4.792,4.465,2.6,11.722,2.637,16.21.073,2.244-1.282,3.371-2.971,3.378-4.665h0Z" transform="translate(-380.191 -281.255)" fill="#f4a856"/>
      <ellipse id="椭圆_6" data-name="椭圆 6" cx="6.618" cy="11.462" rx="6.618" ry="11.462" transform="translate(0 13.235) rotate(-89.743)" fill="#fccc6b"/>
      <ellipse id="椭圆_7" data-name="椭圆 7" cx="6.618" cy="11.462" rx="6.618" ry="11.462" transform="translate(0 13.235) rotate(-89.743)" fill="url(#radial-gradient-7)"/>
      <path id="路径_86" data-name="路径 86" d="M392.05,293.187a14.043,14.043,0,0,1-6.921-1.667c-1.845-1.076-2.856-2.505-2.849-4.025s1.031-2.94,2.885-4a15.171,15.171,0,0,1,13.706.062c1.845,1.076,2.856,2.505,2.849,4.025s-1.031,2.941-2.885,4A13.977,13.977,0,0,1,392.05,293.187Zm-.1-11.106a13.778,13.778,0,0,0-6.688,1.583c-1.791,1.023-2.78,2.384-2.787,3.831s.971,2.819,2.753,3.858a14.954,14.954,0,0,0,13.512.06c1.791-1.022,2.78-2.384,2.787-3.832s-.971-2.817-2.753-3.856A13.85,13.85,0,0,0,391.949,282.08Z" transform="translate(-380.508 -280.869)" fill="#f4a856"/>
      <ellipse id="椭圆_8" data-name="椭圆 8" cx="5.556" cy="9.623" rx="5.556" ry="9.623" transform="matrix(0.004, -1, 1, 0.004, 1.844, 12.182)" fill="url(#radial-gradient-8)"/>
      <path id="路径_87" data-name="路径 87" d="M385.228,284.057a15.04,15.04,0,0,1,13.609.061c1.773,1.034,2.7,2.366,2.792,3.71.113-1.5-.815-3.019-2.791-4.171a15.038,15.038,0,0,0-13.608-.061c-1.985,1.134-2.928,2.648-2.828,4.146C382.505,286.4,383.446,285.075,385.228,284.057Z" transform="translate(-380.525 -280.886)" fill="#f4a856"/>
      <path id="路径_88" data-name="路径 88" d="M399.771,292.79c-4.488,2.564-11.745,2.532-16.21-.073-2.137-1.246-3.244-2.856-3.328-4.476-.108,1.765,1,3.554,3.327,4.913,4.465,2.6,11.722,2.636,16.21.072,2.34-1.337,3.462-3.116,3.37-4.882C403.04,289.964,401.919,291.563,399.771,292.79Z" transform="translate(-380.193 -281.841)" fill="#fce586"/>
    </g>
    <g id="组_25" data-name="组 25" transform="translate(25.115 168.287)">
      <path id="路径_89" data-name="路径 89" d="M376.08,292.669l-.633.938a7.4,7.4,0,0,0-2.718-2.529c-4.465-2.605-11.723-2.637-16.211-.073a7.475,7.475,0,0,0-2.7,2.437l-.667-.876-.009,2,0,0c-.051,1.725,1.057,3.464,3.333,4.791,4.465,2.605,11.722,2.637,16.21.073,2.244-1.282,3.371-2.971,3.378-4.665h0Z" transform="translate(-353.126 -285.949)" fill="#f4a856"/>
      <ellipse id="椭圆_9" data-name="椭圆 9" cx="6.618" cy="11.462" rx="6.618" ry="11.462" transform="translate(0 13.235) rotate(-89.743)" fill="#fccc6b"/>
      <ellipse id="椭圆_10" data-name="椭圆 10" cx="6.618" cy="11.462" rx="6.618" ry="11.462" transform="translate(0 13.235) rotate(-89.743)" fill="url(#radial-gradient-9)"/>
      <path id="路径_90" data-name="路径 90" d="M364.985,297.882a14.041,14.041,0,0,1-6.921-1.668c-1.845-1.076-2.856-2.505-2.85-4.025s1.032-2.94,2.885-4a15.171,15.171,0,0,1,13.706.062c1.845,1.076,2.856,2.505,2.849,4.025s-1.032,2.941-2.885,4A13.988,13.988,0,0,1,364.985,297.882Zm-.1-11.106a13.769,13.769,0,0,0-6.688,1.583c-1.791,1.022-2.78,2.383-2.787,3.831s.971,2.818,2.752,3.857a14.954,14.954,0,0,0,13.512.06c1.791-1.022,2.78-2.383,2.787-3.831s-.971-2.818-2.753-3.857A13.851,13.851,0,0,0,364.884,286.775Z" transform="translate(-353.442 -285.563)" fill="#f4a856"/>
      <path id="路径_91" data-name="路径 91" d="M371.739,296.208a15.038,15.038,0,0,1-13.608-.061c-3.748-2.186-3.733-5.7.035-7.857a15.038,15.038,0,0,1,13.608.061C375.522,290.538,375.507,294.055,371.739,296.208Z" transform="translate(-353.46 -285.58)" fill="url(#radial-gradient-10)"/>
      <path id="路径_92" data-name="路径 92" d="M358.163,288.751a15.04,15.04,0,0,1,13.609.061c1.773,1.034,2.7,2.366,2.792,3.71.114-1.5-.815-3.019-2.791-4.171a15.038,15.038,0,0,0-13.608-.061c-1.986,1.135-2.928,2.648-2.828,4.147C355.44,291.093,356.381,289.769,358.163,288.751Z" transform="translate(-353.46 -285.58)" fill="#f4a856"/>
      <path id="路径_93" data-name="路径 93" d="M372.706,297.484c-4.488,2.564-11.745,2.532-16.21-.072-2.137-1.247-3.244-2.856-3.328-4.477-.108,1.765,1,3.554,3.327,4.913,4.465,2.6,11.722,2.636,16.21.073,2.34-1.337,3.462-3.117,3.37-4.883C375.975,294.658,374.854,296.257,372.706,297.484Z" transform="translate(-353.128 -286.536)" fill="#fce586"/>
    </g>
    <g id="组_26" data-name="组 26" transform="translate(35.96 164.072)">
      <path id="路径_94" data-name="路径 94" d="M388.885,287.693l-.633.938a7.408,7.408,0,0,0-2.718-2.529c-4.465-2.6-11.723-2.637-16.21-.073a7.48,7.48,0,0,0-2.7,2.437l-.667-.876-.008,2,0,0c-.051,1.726,1.057,3.465,3.333,4.792,4.465,2.6,11.722,2.636,16.21.072,2.244-1.282,3.371-2.971,3.378-4.664h0Z" transform="translate(-365.931 -280.972)" fill="#f4a856"/>
      <ellipse id="椭圆_11" data-name="椭圆 11" cx="6.618" cy="11.462" rx="6.618" ry="11.462" transform="translate(0 13.235) rotate(-89.743)" fill="#fccc6b"/>
      <ellipse id="椭圆_12" data-name="椭圆 12" cx="6.618" cy="11.462" rx="6.618" ry="11.462" transform="translate(0 13.235) rotate(-89.743)" fill="url(#radial-gradient-11)"/>
      <path id="路径_95" data-name="路径 95" d="M377.79,292.9a14.05,14.05,0,0,1-6.921-1.667c-1.845-1.076-2.856-2.506-2.85-4.026s1.031-2.94,2.885-4a15.171,15.171,0,0,1,13.706.062c1.845,1.076,2.856,2.505,2.849,4.025s-1.032,2.941-2.885,4A13.989,13.989,0,0,1,377.79,292.9Zm-.1-11.106A13.779,13.779,0,0,0,371,283.381c-1.791,1.023-2.78,2.384-2.787,3.831s.971,2.818,2.752,3.858a14.954,14.954,0,0,0,13.512.06c1.791-1.023,2.78-2.384,2.787-3.832s-.971-2.818-2.752-3.857A13.859,13.859,0,0,0,377.689,281.8Z" transform="translate(-366.247 -280.586)" fill="#f4a856"/>
      <path id="路径_96" data-name="路径 96" d="M384.544,291.231a15.038,15.038,0,0,1-13.608-.061c-3.748-2.186-3.733-5.7.035-7.857a15.038,15.038,0,0,1,13.608.061C388.327,285.561,388.312,289.078,384.544,291.231Z" transform="translate(-366.265 -280.603)" fill="url(#radial-gradient-12)"/>
      <path id="路径_97" data-name="路径 97" d="M370.968,283.774a15.04,15.04,0,0,1,13.609.061c1.773,1.034,2.7,2.366,2.792,3.711.113-1.5-.815-3.019-2.791-4.172a15.038,15.038,0,0,0-13.608-.061c-1.986,1.135-2.928,2.648-2.828,4.146C368.245,286.116,369.186,284.792,370.968,283.774Z" transform="translate(-366.265 -280.603)" fill="#f4a856"/>
      <path id="路径_98" data-name="路径 98" d="M385.511,292.508c-4.488,2.564-11.745,2.531-16.21-.073-2.137-1.247-3.244-2.856-3.328-4.477-.108,1.766,1,3.555,3.327,4.913,4.465,2.6,11.722,2.637,16.21.073,2.34-1.337,3.462-3.117,3.37-4.882C388.78,289.681,387.659,291.28,385.511,292.508Z" transform="translate(-365.933 -281.559)" fill="#fce586"/>
    </g>
    <g id="组_27" data-name="组 27" transform="translate(38.945 161.833)">
      <path id="路径_99" data-name="路径 99" d="M392.385,284.987l-.632.938a7.418,7.418,0,0,0-2.719-2.529c-4.465-2.6-11.722-2.637-16.21-.073a7.48,7.48,0,0,0-2.7,2.437l-.667-.876-.009,2,0,0c-.052,1.726,1.057,3.465,3.332,4.792,4.465,2.6,11.722,2.636,16.21.072,2.244-1.282,3.371-2.971,3.378-4.664h0Z" transform="translate(-369.452 -278.319)" fill="#f4a856"/>
      <path id="路径_100" data-name="路径 100" d="M389.009,289.091c-4.488,2.564-11.745,2.532-16.21-.073s-4.446-6.794.042-9.358,11.745-2.532,16.21.072S393.5,286.527,389.009,289.091Z" transform="translate(-369.454 -277.758)" fill="#fccc6b"/>
      <path id="路径_101" data-name="路径 101" d="M389.009,289.091c-4.488,2.564-11.745,2.532-16.21-.073s-4.446-6.794.042-9.358,11.745-2.532,16.21.072S393.5,286.527,389.009,289.091Z" transform="translate(-369.454 -277.758)" fill="url(#radial-gradient-13)"/>
      <path id="路径_102" data-name="路径 102" d="M381.29,290.2a14.052,14.052,0,0,1-6.921-1.667c-1.845-1.076-2.856-2.506-2.849-4.026s1.032-2.94,2.885-4a15.171,15.171,0,0,1,13.706.062c1.845,1.076,2.856,2.505,2.85,4.025s-1.031,2.941-2.885,4A13.987,13.987,0,0,1,381.29,290.2Zm-.1-11.106a13.778,13.778,0,0,0-6.688,1.583c-1.791,1.023-2.78,2.384-2.787,3.831s.971,2.818,2.752,3.858a14.954,14.954,0,0,0,13.512.06c1.791-1.023,2.781-2.384,2.787-3.832s-.971-2.818-2.752-3.857A13.859,13.859,0,0,0,381.189,279.093Z" transform="translate(-369.768 -277.933)" fill="#f4a856"/>
      <path id="路径_103" data-name="路径 103" d="M388.044,288.526a15.038,15.038,0,0,1-13.608-.061c-3.748-2.186-3.733-5.7.035-7.857a15.04,15.04,0,0,1,13.609.061C391.827,282.856,391.812,286.373,388.044,288.526Z" transform="translate(-369.786 -277.95)" fill="url(#radial-gradient-14)"/>
      <path id="路径_104" data-name="路径 104" d="M374.469,281.069a15.038,15.038,0,0,1,13.608.061c1.773,1.034,2.7,2.366,2.792,3.711.114-1.5-.815-3.019-2.79-4.172a15.04,15.04,0,0,0-13.609-.061c-1.985,1.135-2.928,2.648-2.828,4.146C371.745,283.411,372.686,282.088,374.469,281.069Z" transform="translate(-369.786 -277.95)" fill="#f4a856"/>
      <path id="路径_105" data-name="路径 105" d="M389.012,289.8c-4.488,2.564-11.746,2.531-16.211-.073-2.136-1.247-3.244-2.856-3.328-4.477-.108,1.766,1,3.555,3.327,4.913,4.465,2.605,11.722,2.637,16.21.073,2.34-1.337,3.462-3.117,3.37-4.882C392.28,286.976,391.159,288.575,389.012,289.8Z" transform="translate(-369.454 -278.905)" fill="#fce586"/>
    </g>
    <g id="组_28" data-name="组 28" transform="translate(40.495 157.375)">
      <path id="路径_106" data-name="路径 106" d="M394.24,279.785l-.632.938a7.424,7.424,0,0,0-2.719-2.529c-4.465-2.6-11.722-2.637-16.21-.072a7.484,7.484,0,0,0-2.7,2.436l-.666-.875-.009,2,0,0c-.052,1.726,1.057,3.465,3.332,4.792,4.465,2.6,11.723,2.637,16.211.073,2.243-1.282,3.37-2.971,3.378-4.665h0Z" transform="translate(-371.285 -273.065)" fill="#f4a856"/>
      <ellipse id="椭圆_13" data-name="椭圆 13" cx="6.618" cy="11.462" rx="6.618" ry="11.462" transform="translate(0 13.235) rotate(-89.743)" fill="#fccc6b"/>
      <ellipse id="椭圆_14" data-name="椭圆 14" cx="6.618" cy="11.462" rx="6.618" ry="11.462" transform="translate(0 13.235) rotate(-89.743)" fill="url(#radial-gradient-15)"/>
      <path id="路径_107" data-name="路径 107" d="M383.144,285a14.053,14.053,0,0,1-6.921-1.667c-1.844-1.076-2.856-2.505-2.849-4.025s1.032-2.941,2.885-4a15.17,15.17,0,0,1,13.706.062c1.844,1.076,2.856,2.505,2.849,4.025s-1.032,2.941-2.886,4A13.974,13.974,0,0,1,383.144,285Zm-.1-11.106a13.779,13.779,0,0,0-6.689,1.583c-1.79,1.023-2.78,2.384-2.787,3.831s.971,2.818,2.752,3.858a14.956,14.956,0,0,0,13.512.06c1.79-1.023,2.78-2.384,2.786-3.832s-.971-2.817-2.752-3.856A13.853,13.853,0,0,0,383.044,273.89Z" transform="translate(-371.602 -272.679)" fill="#f4a856"/>
      <path id="路径_108" data-name="路径 108" d="M389.9,283.324a15.04,15.04,0,0,1-13.609-.061c-3.748-2.187-3.732-5.7.035-7.857a15.04,15.04,0,0,1,13.609.061C393.682,277.653,393.666,281.171,389.9,283.324Z" transform="translate(-371.619 -272.696)" fill="url(#radial-gradient-16)"/>
      <path id="路径_109" data-name="路径 109" d="M376.323,275.867a15.041,15.041,0,0,1,13.608.06c1.773,1.035,2.7,2.366,2.793,3.711.113-1.5-.816-3.019-2.791-4.171a15.04,15.04,0,0,0-13.609-.061c-1.985,1.134-2.928,2.647-2.827,4.146C373.6,278.209,374.541,276.885,376.323,275.867Z" transform="translate(-371.62 -272.696)" fill="#f4a856"/>
      <path id="路径_110" data-name="路径 110" d="M390.866,284.6c-4.488,2.564-11.745,2.532-16.21-.073-2.137-1.246-3.244-2.856-3.328-4.476-.108,1.765,1,3.555,3.326,4.913,4.465,2.6,11.723,2.636,16.211.072,2.34-1.337,3.462-3.117,3.37-4.882C394.134,281.774,393.013,283.373,390.866,284.6Z" transform="translate(-371.288 -273.651)" fill="#fce586"/>
    </g>
    <g id="组_29" data-name="组 29" transform="translate(48.429 156.62)">
      <path id="路径_111" data-name="路径 111" d="M403.59,281.45l-.81.789a7.423,7.423,0,0,0-2.144-3.032c-3.837-3.463-10.934-4.98-15.852-3.388a7.48,7.48,0,0,0-3.14,1.833l-.473-.993-.418,1.958,0,0c-.4,1.679.326,3.608,2.281,5.372,3.837,3.464,10.934,4.981,15.853,3.389,2.459-.8,3.907-2.218,4.261-3.875h0Z" transform="translate(-380.65 -272.151)" fill="#f4a856"/>
      <path id="路径_112" data-name="路径 112" d="M399.407,284.776c-4.917,1.591-12.014.075-15.852-3.388s-2.962-7.561,1.956-9.153,12.014-.075,15.852,3.389S404.325,283.184,399.407,284.776Z" transform="translate(-380.729 -271.603)" fill="#fccc6b"/>
      <path id="路径_113" data-name="路径 113" d="M399.407,284.776c-4.917,1.591-12.014.075-15.852-3.388s-2.962-7.561,1.956-9.153,12.014-.075,15.852,3.389S404.325,283.184,399.407,284.776Z" transform="translate(-380.729 -271.603)" fill="url(#radial-gradient-17)"/>
      <path id="路径_114" data-name="路径 114" d="M391.662,284.228a14.057,14.057,0,0,1-6.433-3.048c-1.585-1.43-2.282-3.037-1.965-4.523s1.612-2.668,3.643-3.325a15.168,15.168,0,0,1,13.4,2.866c1.585,1.43,2.282,3.036,1.965,4.523s-1.612,2.667-3.643,3.324A13.977,13.977,0,0,1,391.662,284.228Zm2.175-10.892a13.779,13.779,0,0,0-6.87.18c-1.962.635-3.21,1.765-3.512,3.18s.374,2.957,1.9,4.34a14.954,14.954,0,0,0,13.213,2.824c1.962-.635,3.21-1.764,3.513-3.181s-.374-2.956-1.9-4.338A13.865,13.865,0,0,0,393.837,273.336Z" transform="translate(-381.039 -271.786)" fill="#f4a856"/>
      <path id="路径_115" data-name="路径 115" d="M398.621,283.97a15.039,15.039,0,0,1-13.308-2.845c-3.222-2.907-2.486-6.348,1.642-7.684a15.042,15.042,0,0,1,13.308,2.846C403.484,279.194,402.748,282.633,398.621,283.97Z" transform="translate(-381.057 -271.803)" fill="url(#radial-gradient-18)"/>
      <path id="路径_116" data-name="路径 116" d="M386.865,273.892a15.041,15.041,0,0,1,13.307,2.846c1.524,1.375,2.161,2.869,1.974,4.2.418-1.442-.18-3.122-1.878-4.654a15.042,15.042,0,0,0-13.308-2.846c-2.176.7-3.407,1.993-3.616,3.48C383.719,275.627,384.912,274.523,386.865,273.892Z" transform="translate(-381.063 -271.803)" fill="#f4a856"/>
      <path id="路径_117" data-name="路径 117" d="M399.5,285.125c-4.918,1.591-12.015.074-15.852-3.388-1.837-1.657-2.591-3.46-2.342-5.063-.467,1.706.249,3.683,2.25,5.49,3.837,3.463,10.934,4.98,15.852,3.388,2.564-.83,4.027-2.342,4.3-4.089C403.277,283.028,401.852,284.364,399.5,285.125Z" transform="translate(-380.73 -272.379)" fill="#fce586"/>
    </g>
    <g id="组_30" data-name="组 30" transform="translate(30.707 100.556)">
      <path id="路径_118" data-name="路径 118" d="M383.222,223.566l-1.012.506a7.421,7.421,0,0,0-1.121-3.54c-2.6-4.465-8.9-8.067-14.073-8.045a7.477,7.477,0,0,0-3.548.792l-.149-1.089-.993,1.738h.005c-.894,1.477-.786,3.536.541,5.812,2.6,4.465,8.9,8.067,14.073,8.045,2.584-.011,4.4-.927,5.236-2.4h0Z" transform="translate(-360.034 -206.443)" fill="#f4a856"/>
      <ellipse id="椭圆_15" data-name="椭圆 15" cx="6.618" cy="11.462" rx="6.618" ry="11.462" transform="matrix(0.496, -0.868, 0.868, 0.496, 0, 11.491)" fill="#fccc6b"/>
      <ellipse id="椭圆_16" data-name="椭圆 16" cx="6.618" cy="11.462" rx="6.618" ry="11.462" transform="matrix(0.496, -0.868, 0.868, 0.496, 0, 11.491)" fill="url(#radial-gradient-19)"/>
      <path id="路径_119" data-name="路径 119" d="M371.006,222.6a14.052,14.052,0,0,1-5.2-4.859c-1.076-1.845-1.252-3.587-.5-4.907s2.345-2.051,4.48-2.061a15.172,15.172,0,0,1,11.9,6.8c1.075,1.845,1.252,3.587.5,4.906s-2.345,2.052-4.48,2.061A13.978,13.978,0,0,1,371.006,222.6Zm5.381-9.717a13.778,13.778,0,0,0-6.6-1.915c-2.062.008-3.594.705-4.312,1.962s-.543,2.93.5,4.712a14.955,14.955,0,0,0,11.731,6.706c2.062-.008,3.594-.705,4.312-1.963s.543-2.93-.5-4.712A13.859,13.859,0,0,0,376.387,212.886Z" transform="translate(-360.508 -206.227)" fill="#f4a856"/>
      <path id="路径_120" data-name="路径 120" d="M377.72,224.466a15.042,15.042,0,0,1-11.815-6.754c-2.186-3.748-.44-6.8,3.9-6.821a15.041,15.041,0,0,1,11.815,6.753C383.8,221.393,382.059,224.447,377.72,224.466Z" transform="translate(-360.526 -206.244)" fill="url(#radial-gradient-20)"/>
      <path id="路径_121" data-name="路径 121" d="M369.636,211.291a15.041,15.041,0,0,1,11.815,6.753c1.033,1.773,1.186,3.391.6,4.606.836-1.248.777-3.029-.374-5.005a15.041,15.041,0,0,0-11.815-6.753c-2.287.009-3.852.863-4.5,2.216C366.113,211.988,367.584,211.3,369.636,211.291Z" transform="translate(-360.588 -206.244)" fill="#f4a856"/>
      <path id="路径_122" data-name="路径 122" d="M378.389,225.549c-5.169.022-11.47-3.579-14.073-8.045-1.246-2.137-1.417-4.082-.693-5.535-.964,1.483-.882,3.585.476,5.914,2.6,4.465,8.9,8.067,14.073,8.045,2.7-.012,4.548-1.008,5.337-2.591C382.625,224.7,380.862,225.539,378.389,225.549Z" transform="translate(-360.223 -206.41)" fill="#fce586"/>
    </g>
    <g id="组_31" data-name="组 31" transform="translate(31.172 135.291)">
      <path id="路径_123" data-name="路径 123" d="M380.875,249.3l-.087,1.128a7.415,7.415,0,0,0-3.612-.86c-5.169-.064-11.5,3.486-14.138,7.93a7.483,7.483,0,0,0-1.147,3.45l-1.011-.434.98,1.746,0,0c.806,1.526,2.628,2.492,5.262,2.526,5.168.064,11.5-3.485,14.138-7.929,1.32-2.222,1.468-4.246.639-5.724h0Z" transform="translate(-360.366 -246.859)" fill="#f4a856"/>
      <path id="路径_124" data-name="路径 124" d="M380.142,254.581c-2.64,4.444-8.97,7.994-14.138,7.93s-7.218-3.719-4.578-8.163,8.971-7.994,14.138-7.93S382.782,250.138,380.142,254.581Z" transform="translate(-360.273 -246.418)" fill="#fccc6b"/>
      <path id="路径_125" data-name="路径 125" d="M380.142,254.581c-2.64,4.444-8.97,7.994-14.138,7.93s-7.218-3.719-4.578-8.163,8.971-7.994,14.138-7.93S382.782,250.138,380.142,254.581Z" transform="translate(-360.273 -246.418)" fill="url(#radial-gradient-21)"/>
      <path id="路径_126" data-name="路径 126" d="M373.9,259.57a14.037,14.037,0,0,1-6.843,1.962c-2.135-.026-3.72-.772-4.463-2.1s-.553-3.067.538-4.9a15.171,15.171,0,0,1,11.954-6.7c2.135.027,3.72.772,4.463,2.1s.553,3.067-.538,4.9A13.971,13.971,0,0,1,373.9,259.57Zm-5.563-9.612a13.776,13.776,0,0,0-5.038,4.674c-1.054,1.773-1.244,3.445-.535,4.708s2.233,1.972,4.3,2a14.954,14.954,0,0,0,11.785-6.609c1.054-1.773,1.244-3.445.535-4.708s-2.233-1.972-4.3-2A13.842,13.842,0,0,0,368.336,249.958Z" transform="translate(-360.56 -246.634)" fill="#f4a856"/>
      <path id="路径_127" data-name="路径 127" d="M378.946,254.8a15.04,15.04,0,0,1-11.869,6.657c-4.34-.054-6.061-3.122-3.844-6.852a15.04,15.04,0,0,1,11.87-6.657C379.441,248,381.162,251.066,378.946,254.8Z" transform="translate(-360.578 -246.651)" fill="url(#radial-gradient-22)"/>
      <path id="路径_128" data-name="路径 128" d="M363.458,255a15.04,15.04,0,0,1,11.87-6.657c2.052.025,3.517.727,4.259,1.852-.639-1.359-2.2-2.226-4.484-2.254a15.04,15.04,0,0,0-11.87,6.657c-1.168,1.966-1.241,3.748-.415,5C362.243,258.382,362.41,256.767,363.458,255Z" transform="translate(-360.578 -246.651)" fill="#f4a856"/>
      <path id="路径_129" data-name="路径 129" d="M380,254.609c-2.64,4.444-8.97,7.994-14.138,7.929-2.474-.031-4.23-.885-5.1-2.253.776,1.589,2.62,2.6,5.316,2.634,5.169.064,11.5-3.486,14.138-7.93,1.377-2.317,1.476-4.418.525-5.909C381.454,250.538,381.267,252.482,380,254.609Z" transform="translate(-360.348 -246.825)" fill="#fce586"/>
    </g>
  </g>
  <path id="路径_130" data-name="路径 130" d="M298.742,243.305a2.254,2.254,0,0,1-1.128-.3l-29.672-17.131a.542.542,0,0,1,0-.939l26.244-15.151.263.456L268.2,225.391l29.673,17.158a1.732,1.732,0,0,0,1.727,0l17.7-10.183a2.258,2.258,0,0,1,2.263.007l7.246,4.235-.266.455-7.247-4.235a1.728,1.728,0,0,0-1.734-.005l-17.7,10.184A2.253,2.253,0,0,1,298.742,243.305Z" transform="translate(-267.67 -105.519)" fill="#fff"/>
  <g id="组_34" data-name="组 34" transform="translate(102.011 80.629)">
    <g id="组_33" data-name="组 33">
      <path id="路径_131" data-name="路径 131" d="M450.92,213.775,423.295,184.11l-27.625-2.235s-4.44,37.45,27.625,77.171C455.359,256.351,450.92,213.775,450.92,213.775Z" transform="translate(-389.244 -181.875)" fill="url(#linear-gradient-10)"/>
      <path id="路径_132" data-name="路径 132" d="M394.583,181.875l-6.216,3.589,27.625,2.235,6.216-3.588Z" transform="translate(-388.158 -181.875)" fill="url(#linear-gradient-11)"/>
      <path id="路径_133" data-name="路径 133" d="M443.581,218.012l-27.626-29.665L404.6,187.2l-16.267-1.087s-4.439,37.449,27.625,77.17C448.02,260.588,443.581,218.012,443.581,218.012Z" transform="translate(-388.12 -182.524)" fill="url(#linear-gradient-12)"/>
      <path id="路径_134" data-name="路径 134" d="M443.619,217.93l-27.626-29.665-27.625-2.234.781-.451,27.993,2.265,27.625,29.665s3.706,35.591-20.172,43.747C447.2,252.368,443.619,217.93,443.619,217.93Z" transform="translate(-388.158 -182.442)" fill="#fff"/>
    </g>
    <path id="路径_135" data-name="路径 135" d="M440.633,219.138l-24.838-26.671-10.213-1.032-14.624-.977s-3.992,33.671,24.837,69.383C444.624,257.417,440.633,219.138,440.633,219.138Z" transform="translate(-388.526 -183.189)" fill="#fff" opacity="0.2"/>
  </g>
</svg>
