<svg id="充值" xmlns="http://www.w3.org/2000/svg" xmlns:xlink="http://www.w3.org/1999/xlink" width="197.708" height="220.946" viewBox="0 0 197.708 220.946">
  <defs>
    <linearGradient id="linear-gradient" x1="0.068" y1="0.106" x2="0.916" y2="0.88" gradientUnits="objectBoundingBox">
      <stop offset="0" stop-color="#3a9bd5"/>
      <stop offset="0.305" stop-color="#3a9bd5"/>
      <stop offset="0.356" stop-color="#3a9bd5"/>
      <stop offset="0.599" stop-color="#3999d3"/>
      <stop offset="0.688" stop-color="#3592cf"/>
      <stop offset="0.752" stop-color="#2f86c7"/>
      <stop offset="0.804" stop-color="#2675bb"/>
      <stop offset="0.81" stop-color="#2573ba"/>
    </linearGradient>
    <linearGradient id="linear-gradient-2" x1="7.584" y1="-3.964" x2="8.143" y2="-3.454" gradientUnits="objectBoundingBox">
      <stop offset="0" stop-color="#59bdef"/>
      <stop offset="1" stop-color="#7bdaff"/>
    </linearGradient>
    <clipPath id="clip-path">
      <path id="SVGID" d="M187.273,252.373l-26.88,17.83L73.228,226.851l26.88-17.83Z" transform="translate(-73.228 -209.021)" fill="none"/>
    </clipPath>
    <linearGradient id="linear-gradient-3" x1="11.057" y1="-10.255" x2="10.022" y2="-10.483" xlink:href="#linear-gradient-2"/>
    <linearGradient id="linear-gradient-4" x1="0.869" y1="0.196" x2="-0.035" y2="0.627" xlink:href="#linear-gradient-2"/>
    <linearGradient id="linear-gradient-5" x1="0.52" y1="0.401" x2="-0.761" y2="0.78" xlink:href="#linear-gradient-2"/>
    <linearGradient id="linear-gradient-6" x1="0" y1="0.5" x2="1" y2="0.5" xlink:href="#linear-gradient-2"/>
    <linearGradient id="linear-gradient-7" x1="-104.767" y1="-14.01" x2="-105.366" y2="-15.115" gradientUnits="objectBoundingBox">
      <stop offset="0.768" stop-color="#59bdef"/>
      <stop offset="0.845" stop-color="#54b8eb"/>
      <stop offset="0.932" stop-color="#48aae1"/>
      <stop offset="1" stop-color="#3a9bd5"/>
    </linearGradient>
    <linearGradient id="linear-gradient-8" x1="-62.691" y1="-13.882" x2="-63.279" y2="-15.009" xlink:href="#linear-gradient-7"/>
    <linearGradient id="linear-gradient-9" x1="-126.706" y1="-16.315" x2="-126.706" y2="-18.346" gradientUnits="objectBoundingBox">
      <stop offset="0.768" stop-color="#3a9bd5"/>
      <stop offset="0.839" stop-color="#3796d1"/>
      <stop offset="0.918" stop-color="#3088c8"/>
      <stop offset="1" stop-color="#2573ba"/>
    </linearGradient>
    <linearGradient id="linear-gradient-10" x1="-126.427" y1="-18.576" x2="-125.387" y2="-17.625" gradientUnits="objectBoundingBox">
      <stop offset="0" stop-color="#7bdaff"/>
      <stop offset="1" stop-color="#59bdef"/>
    </linearGradient>
  </defs>
  <path id="路径_176" data-name="路径 176" d="M220.094,282.116l-58.049,33.528c-2.593,1.5-6.515,1.66-8.761.363L26.047,242.547c-2.245-1.3-1.964-3.561.629-5.059l58.049-33.528c2.593-1.5,6.515-1.66,8.761-.363l127.236,73.46C222.968,278.355,222.687,280.619,220.094,282.116Z" transform="translate(-24.531 -95.937)" fill="#13247a" opacity="0.5"/>
  <g id="组_48" data-name="组 48" transform="translate(0 84.993)">
    <path id="路径_177" data-name="路径 177" d="M222.239,254.635l-11.959-2.083L93.486,185.123c-2.246-1.3-6.168-1.134-8.761.362l-54.1,31.25-6.09-1.06v6.188h.006a2.59,2.59,0,0,0,1.51,2.209l127.237,73.459c2.246,1.3,6.168,1.134,8.761-.362l58.049-33.528c1.44-.832,2.164-1.9,2.142-2.907h0Z" transform="translate(-24.531 -178.101)" fill="url(#linear-gradient)"/>
    <path id="路径_178" data-name="路径 178" d="M220.094,256.384l-58.049,33.528c-2.593,1.5-6.515,1.659-8.761.363L26.047,216.815c-2.245-1.3-1.964-3.561.629-5.059l58.049-33.528c2.593-1.5,6.515-1.66,8.761-.363l127.236,73.46C222.968,252.622,222.687,254.886,220.094,256.384Z" transform="translate(-24.531 -176.99)" fill="url(#linear-gradient-2)"/>
    <path id="路径_179" data-name="路径 179" d="M220.095,262.325l-58.049,33.528c-2.593,1.5-6.515,1.659-8.761.362L26.048,222.756a2.8,2.8,0,0,1-1.474-1.791,2.467,2.467,0,0,0,1.474,2.582l127.236,73.459c2.246,1.3,6.168,1.134,8.761-.362l58.049-33.528c1.613-.932,2.331-2.16,2.1-3.267A3.923,3.923,0,0,1,220.095,262.325Z" transform="translate(-24.532 -183.722)" fill="#fff"/>
    <path id="路径_180" data-name="路径 180" d="M220.553,251.228l-67.439,38.949L26.961,217.342,94.4,178.393Z" transform="translate(-24.903 -177.205)" fill="#0f65b2"/>
    <path id="路径_181" data-name="路径 181" d="M69.694,196.226,60.735,201.4a1.459,1.459,0,0,1-1.314.054l-.091-.052c-.337-.194-.295-.534.095-.759l8.958-5.172a1.463,1.463,0,0,1,1.314-.054l.091.053C70.125,195.662,70.082,196,69.694,196.226Z" transform="translate(-29.823 -179.791)" fill="#0063ad"/>
  </g>
  <g id="组_51" data-name="组 51" transform="translate(41.242 112.12)">
    <g id="组_50" data-name="组 50">
      <g id="组_49" data-name="组 49" clip-path="url(#clip-path)">
        <rect id="矩形_27" data-name="矩形 27" width="114.046" height="61.181" fill="#fff"/>
        <ellipse id="椭圆_18" data-name="椭圆 18" cx="13.547" cy="45.823" rx="13.547" ry="45.823" transform="translate(9.804 22.937) rotate(-64.601)" fill="#fff"/>
        <ellipse id="椭圆_19" data-name="椭圆 19" cx="13.493" cy="45.643" rx="13.493" ry="45.643" transform="translate(9.989 22.966) rotate(-64.601)" fill="#fff"/>
        <ellipse id="椭圆_20" data-name="椭圆 20" cx="13.44" cy="45.464" rx="13.44" ry="45.464" transform="translate(10.174 22.995) rotate(-64.601)" fill="#fff"/>
        <ellipse id="椭圆_21" data-name="椭圆 21" cx="13.387" cy="45.284" rx="13.387" ry="45.284" transform="translate(10.359 23.024) rotate(-64.601)" fill="#fff"/>
        <ellipse id="椭圆_22" data-name="椭圆 22" cx="13.334" cy="45.104" rx="13.334" ry="45.104" transform="translate(10.544 23.053) rotate(-64.601)" fill="#feffff"/>
        <ellipse id="椭圆_23" data-name="椭圆 23" cx="13.281" cy="44.924" rx="13.281" ry="44.924" transform="translate(10.729 23.082) rotate(-64.601)" fill="#fefeff"/>
        <ellipse id="椭圆_24" data-name="椭圆 24" cx="13.228" cy="44.745" rx="13.228" ry="44.745" transform="translate(10.915 23.111) rotate(-64.601)" fill="#fefeff"/>
        <ellipse id="椭圆_25" data-name="椭圆 25" cx="13.175" cy="44.565" rx="13.175" ry="44.565" transform="translate(11.1 23.14) rotate(-64.601)" fill="#fefefe"/>
        <ellipse id="椭圆_26" data-name="椭圆 26" cx="13.122" cy="44.385" rx="13.122" ry="44.385" transform="translate(11.285 23.169) rotate(-64.601)" fill="#fdfefe"/>
        <ellipse id="椭圆_27" data-name="椭圆 27" cx="13.068" cy="44.206" rx="13.068" ry="44.206" transform="translate(11.47 23.198) rotate(-64.601)" fill="#fdfdfe"/>
        <ellipse id="椭圆_28" data-name="椭圆 28" cx="13.015" cy="44.026" rx="13.015" ry="44.026" transform="translate(11.655 23.227) rotate(-64.601)" fill="#fdfdfe"/>
        <ellipse id="椭圆_29" data-name="椭圆 29" cx="12.962" cy="43.846" rx="12.962" ry="43.846" transform="translate(11.84 23.257) rotate(-64.601)" fill="#fcfdfe"/>
        <path id="路径_182" data-name="路径 182" d="M172.786,259.6c-3.058,6.441-23.2,3.277-44.983-7.067s-36.967-23.951-33.909-30.391,23.2-3.276,44.983,7.067S175.844,253.162,172.786,259.6Z" transform="translate(-76.331 -210.52)" fill="#fcfdfe"/>
        <ellipse id="椭圆_30" data-name="椭圆 30" cx="12.856" cy="43.487" rx="12.856" ry="43.487" transform="translate(12.21 23.315) rotate(-64.601)" fill="#fbfcfe"/>
        <ellipse id="椭圆_31" data-name="椭圆 31" cx="12.803" cy="43.307" rx="12.803" ry="43.307" transform="translate(12.396 23.344) rotate(-64.601)" fill="#fbfcfd"/>
        <ellipse id="椭圆_32" data-name="椭圆 32" cx="12.75" cy="43.127" rx="12.75" ry="43.127" transform="translate(12.581 23.373) rotate(-64.601)" fill="#fbfcfd"/>
        <ellipse id="椭圆_33" data-name="椭圆 33" cx="12.697" cy="42.948" rx="12.697" ry="42.948" transform="matrix(0.429, -0.903, 0.903, 0.429, 12.766, 23.402)" fill="#fafbfd"/>
        <ellipse id="椭圆_34" data-name="椭圆 34" cx="12.643" cy="42.768" rx="12.643" ry="42.768" transform="translate(12.951 23.431) rotate(-64.601)" fill="#fafbfd"/>
        <ellipse id="椭圆_35" data-name="椭圆 35" cx="12.59" cy="42.588" rx="12.59" ry="42.588" transform="translate(13.136 23.46) rotate(-64.601)" fill="#f9fbfd"/>
        <ellipse id="椭圆_36" data-name="椭圆 36" cx="12.537" cy="42.409" rx="12.537" ry="42.409" transform="translate(13.321 23.489) rotate(-64.601)" fill="#f9fafc"/>
        <ellipse id="椭圆_37" data-name="椭圆 37" cx="12.484" cy="42.229" rx="12.484" ry="42.229" transform="translate(13.506 23.518) rotate(-64.601)" fill="#f8fafc"/>
        <ellipse id="椭圆_38" data-name="椭圆 38" cx="12.431" cy="42.049" rx="12.431" ry="42.049" transform="translate(13.691 23.547) rotate(-64.601)" fill="#f8fafc"/>
        <ellipse id="椭圆_39" data-name="椭圆 39" cx="12.378" cy="41.87" rx="12.378" ry="41.87" transform="matrix(0.429, -0.903, 0.903, 0.429, 13.876, 23.576)" fill="#f7f9fc"/>
        <ellipse id="椭圆_40" data-name="椭圆 40" cx="12.325" cy="41.69" rx="12.325" ry="41.69" transform="translate(14.062 23.605) rotate(-64.601)" fill="#f7f9fc"/>
        <ellipse id="椭圆_41" data-name="椭圆 41" cx="12.272" cy="41.51" rx="12.272" ry="41.51" transform="translate(14.247 23.635) rotate(-64.601)" fill="#f6f9fb"/>
        <ellipse id="椭圆_42" data-name="椭圆 42" cx="12.218" cy="41.33" rx="12.218" ry="41.33" transform="matrix(0.429, -0.903, 0.903, 0.429, 14.432, 23.664)" fill="#f6f8fb"/>
        <ellipse id="椭圆_43" data-name="椭圆 43" cx="12.165" cy="41.151" rx="12.165" ry="41.151" transform="matrix(0.429, -0.903, 0.903, 0.429, 14.617, 23.693)" fill="#f5f8fb"/>
        <ellipse id="椭圆_44" data-name="椭圆 44" cx="12.112" cy="40.971" rx="12.112" ry="40.971" transform="translate(14.802 23.722) rotate(-64.601)" fill="#f5f7fb"/>
        <ellipse id="椭圆_45" data-name="椭圆 45" cx="12.059" cy="40.791" rx="12.059" ry="40.791" transform="translate(14.987 23.751) rotate(-64.601)" fill="#f4f7fb"/>
        <ellipse id="椭圆_46" data-name="椭圆 46" cx="12.006" cy="40.612" rx="12.006" ry="40.612" transform="translate(15.172 23.78) rotate(-64.601)" fill="#f4f7fa"/>
        <ellipse id="椭圆_47" data-name="椭圆 47" cx="11.953" cy="40.432" rx="11.953" ry="40.432" transform="translate(15.357 23.809) rotate(-64.601)" fill="#f3f6fa"/>
        <ellipse id="椭圆_48" data-name="椭圆 48" cx="11.9" cy="40.252" rx="11.9" ry="40.252" transform="translate(15.542 23.838) rotate(-64.601)" fill="#f2f6fa"/>
        <ellipse id="椭圆_49" data-name="椭圆 49" cx="11.847" cy="40.073" rx="11.847" ry="40.073" transform="translate(15.728 23.867) rotate(-64.601)" fill="#f2f5fa"/>
        <ellipse id="椭圆_50" data-name="椭圆 50" cx="11.793" cy="39.893" rx="11.793" ry="39.893" transform="matrix(0.429, -0.903, 0.903, 0.429, 15.913, 23.896)" fill="#f1f5f9"/>
        <ellipse id="椭圆_51" data-name="椭圆 51" cx="11.74" cy="39.713" rx="11.74" ry="39.713" transform="translate(16.098 23.925) rotate(-64.601)" fill="#f1f4f9"/>
        <ellipse id="椭圆_52" data-name="椭圆 52" cx="11.687" cy="39.533" rx="11.687" ry="39.533" transform="translate(16.283 23.955) rotate(-64.601)" fill="#f0f4f9"/>
        <ellipse id="椭圆_53" data-name="椭圆 53" cx="11.634" cy="39.354" rx="11.634" ry="39.354" transform="translate(16.468 23.984) rotate(-64.601)" fill="#eff4f9"/>
        <ellipse id="椭圆_54" data-name="椭圆 54" cx="11.581" cy="39.174" rx="11.581" ry="39.174" transform="translate(16.653 24.013) rotate(-64.601)" fill="#eff3f8"/>
        <ellipse id="椭圆_55" data-name="椭圆 55" cx="11.528" cy="38.994" rx="11.528" ry="38.994" transform="translate(16.838 24.042) rotate(-64.601)" fill="#eef3f8"/>
        <ellipse id="椭圆_56" data-name="椭圆 56" cx="11.475" cy="38.815" rx="11.475" ry="38.815" transform="translate(17.023 24.071) rotate(-64.601)" fill="#eef2f8"/>
        <path id="路径_183" data-name="路径 183" d="M169.07,257.9c-2.706,5.7-20.524,2.9-39.8-6.254s-32.707-21.19-30-26.889,20.525-2.9,39.8,6.254S171.776,252.206,169.07,257.9Z" transform="translate(-77.161 -210.979)" fill="#edf2f8"/>
        <ellipse id="椭圆_57" data-name="椭圆 57" cx="11.369" cy="38.455" rx="11.369" ry="38.455" transform="translate(17.394 24.129) rotate(-64.601)" fill="#ecf1f7"/>
        <ellipse id="椭圆_58" data-name="椭圆 58" cx="11.315" cy="38.276" rx="11.315" ry="38.276" transform="translate(17.579 24.158) rotate(-64.601)" fill="#ecf1f7"/>
        <ellipse id="椭圆_59" data-name="椭圆 59" cx="11.262" cy="38.096" rx="11.262" ry="38.096" transform="matrix(0.429, -0.903, 0.903, 0.429, 17.764, 24.187)" fill="#ebf0f7"/>
        <ellipse id="椭圆_60" data-name="椭圆 60" cx="11.209" cy="37.916" rx="11.209" ry="37.916" transform="translate(17.949 24.216) rotate(-64.601)" fill="#eaf0f6"/>
        <ellipse id="椭圆_61" data-name="椭圆 61" cx="11.156" cy="37.737" rx="11.156" ry="37.737" transform="translate(18.134 24.245) rotate(-64.601)" fill="#eaeff6"/>
        <ellipse id="椭圆_62" data-name="椭圆 62" cx="11.103" cy="37.557" rx="11.103" ry="37.557" transform="translate(18.319 24.274) rotate(-64.601)" fill="#e9eff6"/>
        <ellipse id="椭圆_63" data-name="椭圆 63" cx="11.05" cy="37.377" rx="11.05" ry="37.377" transform="translate(18.504 24.304) rotate(-64.601)" fill="#e8eef6"/>
        <ellipse id="椭圆_64" data-name="椭圆 64" cx="10.997" cy="37.197" rx="10.997" ry="37.197" transform="translate(18.689 24.333) rotate(-64.601)" fill="#e7eef5"/>
        <path id="路径_184" data-name="路径 184" d="M167.876,257.358c-2.592,5.46-19.665,2.777-38.134-5.992S98.4,231.063,101,225.6s19.665-2.777,38.134,5.992S170.468,251.9,167.876,257.358Z" transform="translate(-77.428 -211.127)" fill="#e7edf5"/>
        <ellipse id="椭圆_65" data-name="椭圆 65" cx="10.89" cy="36.838" rx="10.89" ry="36.838" transform="translate(19.06 24.391) rotate(-64.601)" fill="#e6edf5"/>
        <ellipse id="椭圆_66" data-name="椭圆 66" cx="10.837" cy="36.658" rx="10.837" ry="36.658" transform="translate(19.245 24.42) rotate(-64.601)" fill="#e5ecf4"/>
        <ellipse id="椭圆_67" data-name="椭圆 67" cx="10.784" cy="36.479" rx="10.784" ry="36.479" transform="translate(19.43 24.449) rotate(-64.601)" fill="#e5ecf4"/>
        <ellipse id="椭圆_68" data-name="椭圆 68" cx="10.731" cy="36.299" rx="10.731" ry="36.299" transform="translate(19.615 24.478) rotate(-64.601)" fill="#e4ebf4"/>
        <ellipse id="椭圆_69" data-name="椭圆 69" cx="10.678" cy="36.119" rx="10.678" ry="36.119" transform="translate(19.8 24.507) rotate(-64.601)" fill="#e3ebf4"/>
        <ellipse id="椭圆_70" data-name="椭圆 70" cx="10.625" cy="35.94" rx="10.625" ry="35.94" transform="translate(19.985 24.536) rotate(-64.601)" fill="#e2eaf3"/>
        <ellipse id="椭圆_71" data-name="椭圆 71" cx="10.572" cy="35.76" rx="10.572" ry="35.76" transform="translate(20.17 24.565) rotate(-64.601)" fill="#e2eaf3"/>
        <ellipse id="椭圆_72" data-name="椭圆 72" cx="10.518" cy="35.58" rx="10.518" ry="35.58" transform="translate(20.355 24.594) rotate(-64.601)" fill="#e1e9f3"/>
        <ellipse id="椭圆_73" data-name="椭圆 73" cx="10.465" cy="35.4" rx="10.465" ry="35.4" transform="matrix(0.429, -0.903, 0.903, 0.429, 20.541, 24.624)" fill="#e0e8f2"/>
        <ellipse id="椭圆_74" data-name="椭圆 74" cx="10.412" cy="35.221" rx="10.412" ry="35.221" transform="matrix(0.429, -0.903, 0.903, 0.429, 20.726, 24.653)" fill="#dfe8f2"/>
        <path id="路径_185" data-name="路径 185" d="M166.416,256.69c-2.454,5.169-18.615,2.629-36.1-5.672s-29.665-19.219-27.21-24.388,18.615-2.629,36.1,5.672S168.87,251.523,166.416,256.69Z" transform="translate(-77.754 -211.307)" fill="#dfe7f2"/>
        <ellipse id="椭圆_75" data-name="椭圆 75" cx="10.306" cy="34.861" rx="10.306" ry="34.861" transform="matrix(0.429, -0.903, 0.903, 0.429, 21.096, 24.711)" fill="#dee7f1"/>
        <path id="路径_186" data-name="路径 186" d="M166.15,256.569c-2.428,5.115-18.424,2.6-35.727-5.613s-29.361-19.022-26.932-24.138,18.425-2.6,35.727,5.614S168.579,251.454,166.15,256.569Z" transform="translate(-77.813 -211.34)" fill="#dde6f1"/>
        <ellipse id="椭圆_76" data-name="椭圆 76" cx="10.2" cy="34.502" rx="10.2" ry="34.502" transform="translate(21.466 24.769) rotate(-64.601)" fill="#dce6f1"/>
        <ellipse id="椭圆_77" data-name="椭圆 77" cx="10.147" cy="34.322" rx="10.147" ry="34.322" transform="translate(21.651 24.798) rotate(-64.601)" fill="#dce5f0"/>
        <ellipse id="椭圆_78" data-name="椭圆 78" cx="10.094" cy="34.143" rx="10.094" ry="34.143" transform="translate(21.836 24.827) rotate(-64.601)" fill="#dbe4f0"/>
        <path id="路径_187" data-name="路径 187" d="M165.62,256.327c-2.379,5.009-18.043,2.548-34.987-5.5S101.881,232.2,104.26,227.192s18.043-2.548,34.987,5.5S168,251.318,165.62,256.327Z" transform="translate(-77.932 -211.406)" fill="#dae4f0"/>
        <ellipse id="椭圆_79" data-name="椭圆 79" cx="9.987" cy="33.783" rx="9.987" ry="33.783" transform="translate(22.207 24.885) rotate(-64.601)" fill="#d9e3ef"/>
        <path id="路径_188" data-name="路径 188" d="M165.354,256.205c-2.353,4.956-17.851,2.521-34.616-5.439s-28.449-18.431-26.1-23.387,17.851-2.52,34.617,5.44S167.708,251.249,165.354,256.205Z" transform="translate(-77.991 -211.439)" fill="#d8e3ef"/>
        <ellipse id="椭圆_80" data-name="椭圆 80" cx="9.881" cy="33.424" rx="9.881" ry="33.424" transform="translate(22.577 24.943) rotate(-64.601)" fill="#d7e2ef"/>
        <ellipse id="椭圆_81" data-name="椭圆 81" cx="9.828" cy="33.244" rx="9.828" ry="33.244" transform="matrix(0.429, -0.903, 0.903, 0.429, 22.762, 24.973)" fill="#d7e1ee"/>
        <ellipse id="椭圆_82" data-name="椭圆 82" cx="9.775" cy="33.064" rx="9.775" ry="33.064" transform="translate(22.947 25.002) rotate(-64.601)" fill="#d6e1ee"/>
        <ellipse id="椭圆_83" data-name="椭圆 83" cx="9.722" cy="32.885" rx="9.722" ry="32.885" transform="translate(23.132 25.031) rotate(-64.601)" fill="#d5e0ee"/>
        <path id="路径_189" data-name="路径 189" d="M164.691,255.9c-2.29,4.824-17.374,2.453-33.691-5.293s-27.687-17.938-25.4-22.762,17.374-2.453,33.691,5.294S166.981,251.079,164.691,255.9Z" transform="translate(-78.139 -211.521)" fill="#d4e0ed"/>
        <ellipse id="椭圆_84" data-name="椭圆 84" cx="9.615" cy="32.525" rx="9.615" ry="32.525" transform="translate(23.502 25.089) rotate(-64.601)" fill="#d3dfed"/>
        <ellipse id="椭圆_85" data-name="椭圆 85" cx="9.562" cy="32.346" rx="9.562" ry="32.346" transform="translate(23.687 25.118) rotate(-64.601)" fill="#d2deed"/>
        <path id="路径_190" data-name="路径 190" d="M164.293,255.72c-2.253,4.744-17.088,2.413-33.135-5.206s-27.231-17.643-24.979-22.387,17.088-2.413,33.136,5.207S166.546,250.976,164.293,255.72Z" transform="translate(-78.228 -211.57)" fill="#d2deec"/>
        <ellipse id="椭圆_86" data-name="椭圆 86" cx="9.456" cy="31.986" rx="9.456" ry="31.986" transform="matrix(0.429, -0.903, 0.903, 0.429, 24.058, 25.176)" fill="#d1ddec"/>
        <path id="路径_191" data-name="路径 191" d="M164.028,255.6c-2.227,4.691-16.9,2.387-32.765-5.148s-26.927-17.445-24.7-22.137,16.9-2.386,32.765,5.148S166.255,250.908,164.028,255.6Z" transform="translate(-78.287 -211.603)" fill="#d0dcec"/>
        <path id="路径_192" data-name="路径 192" d="M163.895,255.538c-2.215,4.665-16.8,2.373-32.58-5.12s-26.775-17.346-24.56-22.011,16.8-2.372,32.581,5.12S166.11,250.873,163.895,255.538Z" transform="translate(-78.317 -211.619)" fill="#cfdceb"/>
        <ellipse id="椭圆_87" data-name="椭圆 87" cx="9.297" cy="31.447" rx="9.297" ry="31.447" transform="matrix(0.429, -0.903, 0.903, 0.429, 24.613, 25.263)" fill="#cedbeb"/>
        <ellipse id="椭圆_88" data-name="椭圆 88" cx="9.244" cy="31.267" rx="9.244" ry="31.267" transform="translate(24.798 25.293) rotate(-64.601)" fill="#cddbeb"/>
        <path id="路径_193" data-name="路径 193" d="M163.5,255.356c-2.177,4.585-16.515,2.332-32.025-5.032s-26.318-17.051-24.14-21.636,16.515-2.332,32.024,5.032S165.674,250.771,163.5,255.356Z" transform="translate(-78.406 -211.669)" fill="#ccdaea"/>
        <ellipse id="椭圆_89" data-name="椭圆 89" cx="9.137" cy="30.908" rx="9.137" ry="30.908" transform="translate(25.168 25.351) rotate(-64.601)" fill="#ccd9ea"/>
        <ellipse id="椭圆_90" data-name="椭圆 90" cx="9.084" cy="30.728" rx="9.084" ry="30.728" transform="translate(25.354 25.38) rotate(-64.601)" fill="#cbd9e9"/>
        <ellipse id="椭圆_91" data-name="椭圆 91" cx="9.031" cy="30.549" rx="9.031" ry="30.549" transform="matrix(0.429, -0.903, 0.903, 0.429, 25.539, 25.409)" fill="#cad8e9"/>
        <ellipse id="椭圆_92" data-name="椭圆 92" cx="8.978" cy="30.369" rx="8.978" ry="30.369" transform="matrix(0.429, -0.903, 0.903, 0.429, 25.724, 25.438)" fill="#c9d7e9"/>
        <path id="路径_194" data-name="路径 194" d="M162.834,255.053c-2.115,4.452-16.038,2.265-31.1-4.887s-25.557-16.558-23.443-21.01,16.038-2.265,31.1,4.886S164.948,250.6,162.834,255.053Z" transform="translate(-78.554 -211.751)" fill="#c8d7e8"/>
        <ellipse id="椭圆_93" data-name="椭圆 93" cx="8.872" cy="30.009" rx="8.872" ry="30.009" transform="translate(26.094 25.496) rotate(-64.601)" fill="#c7d6e8"/>
        <ellipse id="椭圆_94" data-name="椭圆 94" cx="8.819" cy="29.83" rx="8.819" ry="29.83" transform="translate(26.279 25.525) rotate(-64.601)" fill="#c6d5e8"/>
        <ellipse id="椭圆_95" data-name="椭圆 95" cx="8.765" cy="29.65" rx="8.765" ry="29.65" transform="translate(26.464 25.554) rotate(-64.601)" fill="#c5d5e7"/>
        <path id="路径_195" data-name="路径 195" d="M162.3,254.81c-2.064,4.346-15.656,2.211-30.359-4.77S107,233.876,109.059,229.53s15.655-2.211,30.358,4.77S164.367,250.464,162.3,254.81Z" transform="translate(-78.673 -211.816)" fill="#c4d4e7"/>
        <ellipse id="椭圆_96" data-name="椭圆 96" cx="8.659" cy="29.291" rx="8.659" ry="29.291" transform="matrix(0.429, -0.903, 0.903, 0.429, 26.834, 25.612)" fill="#c3d3e6"/>
        <path id="路径_196" data-name="路径 196" d="M162.038,254.689c-2.039,4.294-15.465,2.184-29.989-4.712s-24.644-15.967-22.606-20.26,15.465-2.184,29.988,4.711S164.076,250.4,162.038,254.689Z" transform="translate(-78.732 -211.849)" fill="#c2d3e6"/>
        <ellipse id="椭圆_97" data-name="椭圆 97" cx="8.553" cy="28.931" rx="8.553" ry="28.931" transform="matrix(0.429, -0.903, 0.903, 0.429, 27.205, 25.671)" fill="#c1d2e6"/>
        <path id="路径_197" data-name="路径 197" d="M161.772,254.568c-2.013,4.24-15.274,2.157-29.618-4.654s-24.34-15.769-22.327-20.01,15.274-2.157,29.618,4.654S163.786,250.327,161.772,254.568Z" transform="translate(-78.791 -211.882)" fill="#c1d1e5"/>
        <ellipse id="椭圆_98" data-name="椭圆 98" cx="8.447" cy="28.572" rx="8.447" ry="28.572" transform="translate(27.575 25.729) rotate(-64.601)" fill="#c0d1e5"/>
        <ellipse id="椭圆_99" data-name="椭圆 99" cx="8.394" cy="28.392" rx="8.394" ry="28.392" transform="matrix(0.429, -0.903, 0.903, 0.429, 27.76, 25.758)" fill="#bfd0e5"/>
        <ellipse id="椭圆_100" data-name="椭圆 100" cx="8.34" cy="28.213" rx="8.34" ry="28.213" transform="translate(27.945 25.787) rotate(-64.601)" fill="#becfe4"/>
        <ellipse id="椭圆_101" data-name="椭圆 101" cx="8.287" cy="28.033" rx="8.287" ry="28.033" transform="translate(28.13 25.816) rotate(-64.601)" fill="#bdcee4"/>
        <ellipse id="椭圆_102" data-name="椭圆 102" cx="8.234" cy="27.853" rx="8.234" ry="27.853" transform="matrix(0.429, -0.903, 0.903, 0.429, 28.315, 25.845)" fill="#bccee3"/>
        <path id="路径_198" data-name="路径 198" d="M160.976,254.2c-1.938,4.081-14.7,2.076-28.508-4.479s-23.427-15.178-21.49-19.26,14.7-2.077,28.508,4.478S162.913,250.121,160.976,254.2Z" transform="translate(-78.969 -211.98)" fill="#bbcde3"/>
        <ellipse id="椭圆_103" data-name="椭圆 103" cx="8.128" cy="27.494" rx="8.128" ry="27.494" transform="matrix(0.429, -0.903, 0.903, 0.429, 28.686, 25.903)" fill="#bacce3"/>
        <ellipse id="椭圆_104" data-name="椭圆 104" cx="8.075" cy="27.314" rx="8.075" ry="27.314" transform="translate(28.871 25.932) rotate(-64.601)" fill="#b9cce2"/>
        <path id="路径_199" data-name="路径 199" d="M160.577,254.022c-1.9,4-14.414,2.036-27.952-4.392s-22.971-14.883-21.071-18.884,14.415-2.036,27.952,4.391S162.478,250.019,160.577,254.022Z" transform="translate(-79.058 -212.03)" fill="#b8cbe2"/>
        <ellipse id="椭圆_105" data-name="椭圆 105" cx="7.969" cy="26.955" rx="7.969" ry="26.955" transform="matrix(0.429, -0.903, 0.903, 0.429, 29.241, 25.991)" fill="#b7cae1"/>
        <path id="路径_200" data-name="路径 200" d="M160.312,253.9c-1.875,3.949-14.224,2.009-27.582-4.334s-22.667-14.685-20.792-18.635,14.224-2.009,27.581,4.334S162.187,249.951,160.312,253.9Z" transform="translate(-79.117 -212.063)" fill="#b6c9e1"/>
        <ellipse id="椭圆_106" data-name="椭圆 106" cx="7.862" cy="26.595" rx="7.862" ry="26.595" transform="matrix(0.429, -0.903, 0.903, 0.429, 29.611, 26.049)" fill="#b5c9e1"/>
        <ellipse id="椭圆_107" data-name="椭圆 107" cx="7.809" cy="26.416" rx="7.809" ry="26.416" transform="translate(29.796 26.078) rotate(-64.601)" fill="#b4c8e0"/>
        <ellipse id="椭圆_108" data-name="椭圆 108" cx="7.756" cy="26.236" rx="7.756" ry="26.236" transform="translate(29.981 26.107) rotate(-64.601)" fill="#b3c7e0"/>
        <path id="路径_201" data-name="路径 201" d="M159.781,253.658c-1.824,3.843-13.842,1.955-26.841-4.218s-22.059-14.292-20.234-18.134,13.843-1.955,26.842,4.217S161.606,249.814,159.781,253.658Z" transform="translate(-79.236 -212.128)" fill="#b2c7df"/>
        <ellipse id="椭圆_109" data-name="椭圆 109" cx="7.65" cy="25.876" rx="7.65" ry="25.876" transform="translate(30.352 26.165) rotate(-64.601)" fill="#b1c6df"/>
        <ellipse id="椭圆_110" data-name="椭圆 110" cx="7.597" cy="25.697" rx="7.597" ry="25.697" transform="matrix(0.429, -0.903, 0.903, 0.429, 30.537, 26.194)" fill="#b0c5de"/>
        <ellipse id="椭圆_111" data-name="椭圆 111" cx="7.544" cy="25.517" rx="7.544" ry="25.517" transform="translate(30.722 26.223) rotate(-64.601)" fill="#afc4de"/>
        <ellipse id="椭圆_112" data-name="椭圆 112" cx="7.49" cy="25.337" rx="7.49" ry="25.337" transform="translate(30.907 26.252) rotate(-64.601)" fill="#aec4de"/>
        <path id="路径_202" data-name="路径 202" d="M159.118,253.354c-1.762,3.71-13.365,1.887-25.916-4.072s-21.3-13.8-19.536-17.509,13.364-1.888,25.915,4.072S160.88,249.644,159.118,253.354Z" transform="translate(-79.384 -212.21)" fill="#adc3dd"/>
        <path id="路径_203" data-name="路径 203" d="M158.985,253.294c-1.749,3.684-13.269,1.873-25.731-4.043s-21.146-13.7-19.4-17.384,13.269-1.874,25.731,4.042S160.734,249.61,158.985,253.294Z" transform="translate(-79.413 -212.227)" fill="#acc2dd"/>
        <ellipse id="椭圆_113" data-name="椭圆 113" cx="7.331" cy="24.798" rx="7.331" ry="24.798" transform="translate(31.462 26.34) rotate(-64.601)" fill="#abc1dc"/>
        <ellipse id="椭圆_114" data-name="椭圆 114" cx="7.278" cy="24.619" rx="7.278" ry="24.619" transform="matrix(0.429, -0.903, 0.903, 0.429, 31.647, 26.369)" fill="#aac1dc"/>
        <ellipse id="椭圆_115" data-name="椭圆 115" cx="7.225" cy="24.439" rx="7.225" ry="24.439" transform="translate(31.832 26.398) rotate(-64.601)" fill="#a9c0dc"/>
        <ellipse id="椭圆_116" data-name="椭圆 116" cx="7.172" cy="24.259" rx="7.172" ry="24.259" transform="translate(32.018 26.427) rotate(-64.601)" fill="#a8bfdb"/>
        <path id="路径_204" data-name="路径 204" d="M158.322,252.991c-1.686,3.551-12.793,1.806-24.805-3.9s-20.385-13.208-18.7-16.759,12.792-1.806,24.805,3.9S160.008,249.439,158.322,252.991Z" transform="translate(-79.562 -212.309)" fill="#a7bedb"/>
        <ellipse id="椭圆_117" data-name="椭圆 117" cx="7.065" cy="23.9" rx="7.065" ry="23.9" transform="translate(32.388 26.485) rotate(-64.601)" fill="#a6beda"/>
        <path id="路径_205" data-name="路径 205" d="M158.056,252.869c-1.661,3.5-12.6,1.779-24.435-3.84s-20.08-13.009-18.419-16.508,12.6-1.779,24.435,3.839S159.718,249.371,158.056,252.869Z" transform="translate(-79.621 -212.342)" fill="#a5bdda"/>
        <ellipse id="椭圆_118" data-name="椭圆 118" cx="6.959" cy="23.54" rx="6.959" ry="23.54" transform="translate(32.758 26.543) rotate(-64.601)" fill="#a4bcd9"/>
        <ellipse id="椭圆_119" data-name="椭圆 119" cx="6.906" cy="23.361" rx="6.906" ry="23.361" transform="translate(32.943 26.572) rotate(-64.601)" fill="#a3bbd9"/>
        <path id="路径_206" data-name="路径 206" d="M157.658,252.687c-1.623,3.419-12.314,1.739-23.879-3.753s-19.625-12.714-18-16.133,12.315-1.74,23.879,3.752S159.282,249.268,157.658,252.687Z" transform="translate(-79.71 -212.391)" fill="#a1bad8"/>
        <path id="路径_207" data-name="路径 207" d="M157.526,252.627c-1.611,3.392-12.219,1.725-23.695-3.723S114.359,236.287,115.97,232.9s12.219-1.726,23.694,3.723S159.137,249.234,157.526,252.627Z" transform="translate(-79.739 -212.407)" fill="#a0bad8"/>
        <ellipse id="椭圆_120" data-name="椭圆 120" cx="6.747" cy="22.822" rx="6.747" ry="22.822" transform="translate(33.499 26.66) rotate(-64.601)" fill="#9fb9d8"/>
        <path id="路径_208" data-name="路径 208" d="M157.26,252.505c-1.585,3.339-12.028,1.7-23.324-3.665s-19.168-12.418-17.583-15.758,12.029-1.7,23.325,3.665S158.846,249.166,157.26,252.505Z" transform="translate(-79.799 -212.44)" fill="#9eb8d7"/>
        <ellipse id="椭圆_121" data-name="椭圆 121" cx="6.64" cy="22.462" rx="6.64" ry="22.462" transform="translate(33.869 26.718) rotate(-64.601)" fill="#9db7d7"/>
        <path id="路径_209" data-name="路径 209" d="M156.995,252.384c-1.56,3.286-11.837,1.672-22.954-3.607s-18.864-12.222-17.3-15.508,11.838-1.672,22.955,3.607S158.556,249.1,156.995,252.384Z" transform="translate(-79.858 -212.473)" fill="#9cb6d6"/>
        <path id="路径_210" data-name="路径 210" d="M156.862,252.323c-1.547,3.26-11.742,1.658-22.769-3.578s-18.712-12.123-17.164-15.382,11.742-1.658,22.769,3.577S158.41,249.063,156.862,252.323Z" transform="translate(-79.888 -212.489)" fill="#9bb6d6"/>
        <path id="路径_211" data-name="路径 211" d="M156.73,252.263c-1.535,3.234-11.647,1.645-22.585-3.549s-18.559-12.024-17.024-15.258,11.646-1.645,22.584,3.549S158.264,249.029,156.73,252.263Z" transform="translate(-79.917 -212.506)" fill="#9ab5d5"/>
        <ellipse id="椭圆_122" data-name="椭圆 122" cx="6.428" cy="21.743" rx="6.428" ry="21.743" transform="translate(34.609 26.834) rotate(-64.601)" fill="#99b4d5"/>
        <path id="路径_212" data-name="路径 212" d="M156.464,252.141c-1.51,3.18-11.455,1.618-22.214-3.491s-18.255-11.827-16.745-15.007,11.455-1.618,22.214,3.49S157.974,248.96,156.464,252.141Z" transform="translate(-79.976 -212.539)" fill="#98b3d4"/>
        <ellipse id="椭圆_123" data-name="椭圆 123" cx="6.322" cy="21.384" rx="6.322" ry="21.384" transform="matrix(0.429, -0.903, 0.903, 0.429, 34.979, 26.892)" fill="#97b2d4"/>
        <path id="路径_213" data-name="路径 213" d="M156.2,252.02c-1.485,3.127-11.265,1.59-21.844-3.433s-17.951-11.63-16.466-14.757,11.265-1.591,21.844,3.432S157.683,248.892,156.2,252.02Z" transform="translate(-80.036 -212.571)" fill="#96b2d4"/>
        <path id="路径_214" data-name="路径 214" d="M156.066,251.959c-1.472,3.1-11.169,1.577-21.658-3.4s-17.8-11.532-16.327-14.632,11.169-1.578,21.659,3.4S157.538,248.858,156.066,251.959Z" transform="translate(-80.065 -212.588)" fill="#94b1d3"/>
        <ellipse id="椭圆_124" data-name="椭圆 124" cx="6.162" cy="20.845" rx="6.162" ry="20.845" transform="translate(35.535 26.979) rotate(-64.601)" fill="#93b0d3"/>
        <path id="路径_215" data-name="路径 215" d="M155.8,251.838c-1.447,3.047-10.979,1.55-21.288-3.345s-17.495-11.334-16.048-14.382,10.979-1.551,21.289,3.344S157.248,248.79,155.8,251.838Z" transform="translate(-80.125 -212.621)" fill="#92afd2"/>
        <ellipse id="椭圆_125" data-name="椭圆 125" cx="6.056" cy="20.486" rx="6.056" ry="20.486" transform="translate(35.905 27.038) rotate(-64.601)" fill="#91aed2"/>
        <ellipse id="椭圆_126" data-name="椭圆 126" cx="6.003" cy="20.306" rx="6.003" ry="20.306" transform="translate(36.09 27.067) rotate(-64.601)" fill="#90aed1"/>
        <ellipse id="椭圆_127" data-name="椭圆 127" cx="5.95" cy="20.126" rx="5.95" ry="20.126" transform="translate(36.275 27.096) rotate(-64.601)" fill="#8fadd1"/>
        <ellipse id="椭圆_128" data-name="椭圆 128" cx="5.897" cy="19.946" rx="5.897" ry="19.946" transform="translate(36.46 27.125) rotate(-64.601)" fill="#8eacd0"/>
        <path id="路径_216" data-name="路径 216" d="M155.137,251.535c-1.385,2.915-10.5,1.483-20.363-3.2s-16.734-10.842-15.349-13.757,10.5-1.483,20.362,3.2S156.521,248.619,155.137,251.535Z" transform="translate(-80.273 -212.703)" fill="#8dabd0"/>
        <ellipse id="椭圆_129" data-name="椭圆 129" cx="5.791" cy="19.587" rx="5.791" ry="19.587" transform="translate(36.831 27.183) rotate(-64.601)" fill="#8caacf"/>
        <ellipse id="椭圆_130" data-name="椭圆 130" cx="5.737" cy="19.407" rx="5.737" ry="19.407" transform="matrix(0.429, -0.903, 0.903, 0.429, 37.016, 27.212)" fill="#8aa9cf"/>
        <path id="路径_217" data-name="路径 217" d="M154.739,251.352c-1.347,2.836-10.215,1.443-19.808-3.112S118.654,237.695,120,234.858s10.215-1.442,19.807,3.112S156.085,248.517,154.739,251.352Z" transform="translate(-80.362 -212.752)" fill="#89a9cf"/>
        <path id="路径_218" data-name="路径 218" d="M154.606,251.291c-1.334,2.81-10.119,1.43-19.622-3.083s-16.126-10.447-14.791-13.257,10.119-1.429,19.622,3.083S155.94,248.482,154.606,251.291Z" transform="translate(-80.391 -212.768)" fill="#88a8ce"/>
        <ellipse id="椭圆_131" data-name="椭圆 131" cx="5.578" cy="18.868" rx="5.578" ry="18.868" transform="translate(37.571 27.299) rotate(-64.601)" fill="#87a7ce"/>
        <ellipse id="椭圆_132" data-name="椭圆 132" cx="5.525" cy="18.689" rx="5.525" ry="18.689" transform="translate(37.756 27.329) rotate(-64.601)" fill="#86a6cd"/>
        <path id="路径_219" data-name="路径 219" d="M154.208,251.109c-1.3,2.73-9.833,1.389-19.066-3s-15.67-10.152-14.373-12.882,9.833-1.389,19.067,3S155.5,248.38,154.208,251.109Z" transform="translate(-80.48 -212.818)" fill="#85a5cd"/>
        <path id="路径_220" data-name="路径 220" d="M154.075,251.049c-1.283,2.7-9.737,1.375-18.882-2.967s-15.516-10.053-14.233-12.756,9.738-1.375,18.882,2.967S155.359,248.346,154.075,251.049Z" transform="translate(-80.51 -212.834)" fill="#84a4cc"/>
        <ellipse id="椭圆_133" data-name="椭圆 133" cx="5.366" cy="18.149" rx="5.366" ry="18.149" transform="translate(38.312 27.416) rotate(-64.601)" fill="#82a4cc"/>
        <path id="路径_221" data-name="路径 221" d="M153.81,250.928c-1.258,2.65-9.546,1.347-18.512-2.909s-15.212-9.855-13.954-12.506,9.546-1.348,18.511,2.908S155.069,248.277,153.81,250.928Z" transform="translate(-80.569 -212.867)" fill="#81a3cb"/>
        <ellipse id="椭圆_134" data-name="椭圆 134" cx="5.259" cy="17.79" rx="5.259" ry="17.79" transform="translate(38.682 27.474) rotate(-64.601)" fill="#80a2cb"/>
        <path id="路径_222" data-name="路径 222" d="M153.545,250.806c-1.234,2.6-9.356,1.321-18.142-2.85S120.5,238.3,121.728,235.7s9.355-1.321,18.141,2.851S154.778,248.209,153.545,250.806Z" transform="translate(-80.628 -212.9)" fill="#7fa1ca"/>
        <path id="路径_223" data-name="路径 223" d="M153.412,250.745c-1.22,2.571-9.26,1.309-17.956-2.821s-14.757-9.56-13.535-12.131,9.259-1.308,17.955,2.821S154.633,248.175,153.412,250.745Z" transform="translate(-80.658 -212.916)" fill="#7ea0ca"/>
        <ellipse id="椭圆_135" data-name="椭圆 135" cx="5.1" cy="17.251" rx="5.1" ry="17.251" transform="translate(39.237 27.561) rotate(-64.601)" fill="#7d9fc9"/>
        <path id="路径_224" data-name="路径 224" d="M153.147,250.624c-1.2,2.518-9.07,1.281-17.586-2.763S121.108,238.5,122.3,235.98s9.069-1.281,17.586,2.763S154.342,248.107,153.147,250.624Z" transform="translate(-80.717 -212.949)" fill="#7b9ec9"/>
        <path id="路径_225" data-name="路径 225" d="M153.014,250.563c-1.183,2.492-8.974,1.268-17.4-2.734s-14.3-9.264-13.117-11.756,8.973-1.267,17.4,2.734S154.2,248.073,153.014,250.563Z" transform="translate(-80.747 -212.965)" fill="#7a9ec8"/>
        <path id="路径_226" data-name="路径 226" d="M152.881,250.5c-1.17,2.465-8.878,1.254-17.215-2.7s-14.148-9.167-12.978-11.631,8.878-1.253,17.216,2.705S154.052,248.038,152.881,250.5Z" transform="translate(-80.777 -212.982)" fill="#799dc8"/>
        <path id="路径_227" data-name="路径 227" d="M152.749,250.442c-1.158,2.439-8.783,1.241-17.031-2.675s-14-9.068-12.838-11.506,8.782-1.24,17.031,2.676S153.907,248,152.749,250.442Z" transform="translate(-80.806 -212.998)" fill="#789cc7"/>
        <ellipse id="椭圆_136" data-name="椭圆 136" cx="4.834" cy="16.353" rx="4.834" ry="16.353" transform="translate(40.163 27.707) rotate(-64.601)" fill="#779bc7"/>
        <path id="路径_228" data-name="路径 228" d="M152.483,250.321c-1.132,2.386-8.592,1.214-16.66-2.617s-13.691-8.871-12.559-11.256,8.592-1.214,16.66,2.618S153.615,247.936,152.483,250.321Z" transform="translate(-80.865 -213.031)" fill="#759ac6"/>
        <path id="路径_229" data-name="路径 229" d="M152.351,250.26c-1.12,2.359-8.5,1.2-16.476-2.588s-13.54-8.772-12.419-11.131,8.5-1.2,16.475,2.589S153.471,247.9,152.351,250.26Z" transform="translate(-80.895 -213.047)" fill="#7499c6"/>
        <ellipse id="椭圆_137" data-name="椭圆 137" cx="4.675" cy="15.813" rx="4.675" ry="15.813" transform="translate(40.718 27.794) rotate(-64.601)" fill="#7398c5"/>
        <path id="路径_230" data-name="路径 230" d="M152.085,250.139c-1.1,2.306-8.3,1.173-16.1-2.53s-13.235-8.575-12.14-10.881,8.306-1.173,16.1,2.531S153.18,247.834,152.085,250.139Z" transform="translate(-80.954 -213.08)" fill="#7297c5"/>
        <path id="路径_231" data-name="路径 231" d="M151.952,250.078c-1.082,2.28-8.209,1.159-15.919-2.5s-13.083-8.477-12-10.756,8.21-1.159,15.919,2.5S153.034,247.8,151.952,250.078Z" transform="translate(-80.984 -213.097)" fill="#7197c4"/>
        <path id="路径_232" data-name="路径 232" d="M151.82,250.018c-1.07,2.253-8.114,1.146-15.735-2.472s-12.931-8.378-11.861-10.63,8.114-1.146,15.735,2.472S152.89,247.765,151.82,250.018Z" transform="translate(-81.014 -213.113)" fill="#6f96c4"/>
        <path id="路径_233" data-name="路径 233" d="M151.687,249.957c-1.057,2.227-8.019,1.132-15.549-2.443s-12.779-8.279-11.722-10.506,8.019-1.132,15.55,2.443S152.744,247.731,151.687,249.957Z" transform="translate(-81.043 -213.129)" fill="#6e95c3"/>
        <path id="路径_234" data-name="路径 234" d="M151.554,249.9c-1.044,2.2-7.923,1.12-15.364-2.414s-12.627-8.18-11.582-10.381,7.924-1.119,15.365,2.415S152.6,247.7,151.554,249.9Z" transform="translate(-81.073 -213.146)" fill="#6d94c3"/>
        <path id="路径_235" data-name="路径 235" d="M151.422,249.836c-1.032,2.174-7.828,1.106-15.179-2.385S123.768,239.369,124.8,237.2s7.828-1.105,15.179,2.385S152.453,247.662,151.422,249.836Z" transform="translate(-81.103 -213.162)" fill="#6c93c2"/>
        <path id="路径_236" data-name="路径 236" d="M151.289,249.775c-1.019,2.147-7.732,1.092-14.995-2.355s-12.322-7.984-11.3-10.131,7.733-1.092,14.995,2.356S152.309,247.628,151.289,249.775Z" transform="translate(-81.132 -213.179)" fill="#6b92c2"/>
        <ellipse id="椭圆_138" data-name="椭圆 138" cx="4.25" cy="14.376" rx="4.25" ry="14.376" transform="matrix(0.429, -0.903, 0.903, 0.429, 42.199, 28.027)" fill="#6991c1"/>
        <path id="路径_237" data-name="路径 237" d="M151.024,249.654c-.994,2.094-7.542,1.065-14.624-2.3s-12.018-7.787-11.023-9.88,7.541-1.065,14.624,2.3S152.018,247.56,151.024,249.654Z" transform="translate(-81.191 -213.212)" fill="#6890c1"/>
        <path id="路径_238" data-name="路径 238" d="M150.891,249.593c-.982,2.067-7.446,1.052-14.439-2.268s-11.866-7.688-10.885-9.756,7.446-1.052,14.439,2.269S151.872,247.526,150.891,249.593Z" transform="translate(-81.221 -213.228)" fill="#678fc0"/>
        <path id="路径_239" data-name="路径 239" d="M150.758,249.532c-.969,2.041-7.35,1.038-14.254-2.239s-11.714-7.589-10.745-9.63,7.35-1.038,14.254,2.24S151.728,247.492,150.758,249.532Z" transform="translate(-81.251 -213.244)" fill="#668fc0"/>
        <path id="路径_240" data-name="路径 240" d="M150.626,249.472c-.957,2.015-7.255,1.025-14.069-2.21s-11.562-7.49-10.605-9.5,7.255-1.025,14.068,2.21S151.582,247.458,150.626,249.472Z" transform="translate(-81.28 -213.261)" fill="#648ebf"/>
        <ellipse id="椭圆_139" data-name="椭圆 139" cx="3.984" cy="13.477" rx="3.984" ry="13.477" transform="translate(43.125 28.172) rotate(-64.601)" fill="#638dbf"/>
        <path id="路径_241" data-name="路径 241" d="M150.36,249.35c-.931,1.961-7.064,1-13.7-2.152s-11.258-7.294-10.326-9.255,7.064-1,13.7,2.153S151.291,247.389,150.36,249.35Z" transform="translate(-81.34 -213.294)" fill="#628cbe"/>
        <path id="路径_242" data-name="路径 242" d="M150.228,249.29c-.919,1.935-6.969.984-13.513-2.123s-11.106-7.194-10.187-9.13,6.968-.984,13.513,2.123S151.146,247.355,150.228,249.29Z" transform="translate(-81.369 -213.31)" fill="#618bbe"/>
        <path id="路径_243" data-name="路径 243" d="M150.095,249.229c-.906,1.909-6.874.971-13.328-2.094s-10.953-7.1-10.048-9,6.874-.971,13.329,2.094S151,247.321,150.095,249.229Z" transform="translate(-81.399 -213.326)" fill="#5f8abd"/>
        <ellipse id="椭圆_140" data-name="椭圆 140" cx="3.772" cy="12.759" rx="3.772" ry="12.759" transform="matrix(0.429, -0.903, 0.903, 0.429, 43.865, 28.288)" fill="#5e89bd"/>
        <path id="路径_244" data-name="路径 244" d="M149.83,249.108c-.881,1.856-6.683.944-12.959-2.036s-10.648-6.9-9.767-8.755,6.682-.943,12.958,2.036S150.71,247.253,149.83,249.108Z" transform="translate(-81.458 -213.359)" fill="#5d88bc"/>
        <path id="路径_245" data-name="路径 245" d="M149.7,249.047c-.868,1.829-6.587.931-12.773-2.007s-10.5-6.8-9.629-8.629,6.587-.93,12.773,2.007S150.565,247.219,149.7,249.047Z" transform="translate(-81.488 -213.376)" fill="#5c87bc"/>
        <path id="路径_246" data-name="路径 246" d="M149.564,248.986c-.855,1.8-6.491.917-12.588-1.978s-10.344-6.7-9.489-8.5,6.492-.916,12.588,1.978S150.42,247.184,149.564,248.986Z" transform="translate(-81.517 -213.392)" fill="#5a86bb"/>
        <path id="路径_247" data-name="路径 247" d="M149.432,248.926c-.844,1.776-6.4.9-12.4-1.949s-10.193-6.6-9.349-8.379,6.4-.9,12.4,1.949S150.274,247.151,149.432,248.926Z" transform="translate(-81.547 -213.408)" fill="#5985bb"/>
        <path id="路径_248" data-name="路径 248" d="M149.3,248.865c-.831,1.75-6.3.89-12.218-1.92s-10.04-6.5-9.21-8.254,6.3-.889,12.218,1.92S150.129,247.116,149.3,248.865Z" transform="translate(-81.577 -213.425)" fill="#5884ba"/>
        <path id="路径_249" data-name="路径 249" d="M149.165,248.8c-.817,1.723-6.2.877-12.032-1.89s-9.889-6.407-9.07-8.129,6.205-.876,12.032,1.891S149.984,247.082,149.165,248.8Z" transform="translate(-81.606 -213.441)" fill="#5784ba"/>
        <path id="路径_250" data-name="路径 250" d="M149.033,248.744c-.805,1.7-6.11.863-11.847-1.862s-9.736-6.308-8.931-8,6.11-.862,11.847,1.861S149.839,247.047,149.033,248.744Z" transform="translate(-81.636 -213.458)" fill="#5583b9"/>
        <path id="路径_251" data-name="路径 251" d="M148.9,248.683c-.793,1.67-6.014.849-11.662-1.833s-9.584-6.209-8.792-7.879,6.015-.849,11.663,1.833S149.693,247.014,148.9,248.683Z" transform="translate(-81.666 -213.474)" fill="#5482b9"/>
        <path id="路径_252" data-name="路径 252" d="M148.767,248.623c-.78,1.644-5.918.836-11.476-1.8s-9.432-6.11-8.652-7.754,5.919-.836,11.477,1.8S149.548,246.979,148.767,248.623Z" transform="translate(-81.695 -213.491)" fill="#5381b8"/>
        <path id="路径_253" data-name="路径 253" d="M148.635,248.562c-.768,1.617-5.823.822-11.292-1.774s-9.28-6.012-8.512-7.629,5.823-.822,11.292,1.774S149.4,246.945,148.635,248.562Z" transform="translate(-81.725 -213.507)" fill="#5280b8"/>
        <path id="路径_254" data-name="路径 254" d="M148.5,248.5c-.755,1.59-5.728.809-11.107-1.745s-9.127-5.914-8.373-7.5,5.729-.809,11.107,1.746S149.258,246.912,148.5,248.5Z" transform="translate(-81.754 -213.523)" fill="#507fb7"/>
        <path id="路径_255" data-name="路径 255" d="M148.369,248.441c-.742,1.564-5.632.8-10.922-1.716s-8.976-5.815-8.233-7.379,5.632-.8,10.922,1.717S149.112,246.877,148.369,248.441Z" transform="translate(-81.784 -213.54)" fill="#4f7eb7"/>
        <path id="路径_256" data-name="路径 256" d="M148.237,248.38c-.73,1.537-5.537.782-10.737-1.687s-8.823-5.717-8.093-7.254,5.536-.782,10.736,1.687S148.966,246.843,148.237,248.38Z" transform="translate(-81.814 -213.556)" fill="#4e7db6"/>
        <path id="路径_257" data-name="路径 257" d="M148.1,248.319c-.717,1.511-5.441.768-10.552-1.657s-8.672-5.618-7.954-7.129,5.441-.768,10.552,1.658S148.822,246.808,148.1,248.319Z" transform="translate(-81.843 -213.573)" fill="#4c7cb5"/>
        <path id="路径_258" data-name="路径 258" d="M147.971,248.259c-.7,1.485-5.346.755-10.366-1.629s-8.519-5.519-7.814-7,5.346-.755,10.366,1.629S148.676,246.775,147.971,248.259Z" transform="translate(-81.873 -213.589)" fill="#4b7bb5"/>
        <path id="路径_259" data-name="路径 259" d="M147.839,248.2c-.693,1.458-5.251.742-10.182-1.6s-8.367-5.42-7.675-6.879,5.25-.741,10.181,1.6S148.531,246.74,147.839,248.2Z" transform="translate(-81.903 -213.605)" fill="#4a7ab4"/>
        <path id="路径_260" data-name="路径 260" d="M147.706,248.137c-.679,1.431-5.155.728-10-1.57s-8.215-5.323-7.536-6.754,5.155-.728,10,1.571S148.385,246.706,147.706,248.137Z" transform="translate(-81.932 -213.622)" fill="#4979b4"/>
        <path id="路径_261" data-name="路径 261" d="M147.573,248.077c-.667,1.4-5.059.715-9.811-1.541s-8.063-5.224-7.4-6.629,5.059-.714,9.811,1.542S148.241,246.672,147.573,248.077Z" transform="translate(-81.962 -213.638)" fill="#4778b3"/>
        <path id="路径_262" data-name="路径 262" d="M147.441,248.016c-.655,1.378-4.965.7-9.626-1.513s-7.911-5.125-7.256-6.5,4.964-.7,9.626,1.513S148.095,246.638,147.441,248.016Z" transform="translate(-81.992 -213.655)" fill="#4677b3"/>
        <path id="路径_263" data-name="路径 263" d="M147.308,247.955c-.642,1.352-4.869.688-9.44-1.483s-7.759-5.027-7.117-6.379,4.869-.687,9.441,1.484S147.95,246.6,147.308,247.955Z" transform="translate(-82.021 -213.671)" fill="#4576b2"/>
        <path id="路径_264" data-name="路径 264" d="M147.175,247.895c-.629,1.325-4.773.674-9.256-1.454s-7.606-4.928-6.977-6.254,4.773-.673,9.256,1.455S147.8,246.569,147.175,247.895Z" transform="translate(-82.051 -213.688)" fill="#4375b2"/>
        <path id="路径_265" data-name="路径 265" d="M147.043,247.834c-.617,1.3-4.678.661-9.071-1.425s-7.454-4.829-6.837-6.128,4.677-.661,9.07,1.425S147.66,246.536,147.043,247.834Z" transform="translate(-82.081 -213.704)" fill="#4274b1"/>
        <path id="路径_266" data-name="路径 266" d="M146.91,247.773c-.6,1.272-4.583.647-8.886-1.4s-7.3-4.731-6.7-6,4.583-.647,8.886,1.4S147.514,246.5,146.91,247.773Z" transform="translate(-82.11 -213.72)" fill="#4173b1"/>
        <path id="路径_267" data-name="路径 267" d="M146.777,247.713c-.591,1.246-4.486.633-8.7-1.367s-7.15-4.633-6.559-5.878,4.487-.633,8.7,1.368S147.369,246.467,146.777,247.713Z" transform="translate(-82.14 -213.737)" fill="#3f72b0"/>
        <ellipse id="椭圆_141" data-name="椭圆 141" cx="2.444" cy="8.266" rx="2.444" ry="8.266" transform="translate(48.493 29.016) rotate(-64.601)" fill="#3e72b0"/>
        <path id="路径_268" data-name="路径 268" d="M146.512,247.591c-.567,1.192-4.3.606-8.33-1.309s-6.846-4.435-6.28-5.629,4.3-.606,8.33,1.309S147.079,246.4,146.512,247.591Z" transform="translate(-82.199 -213.77)" fill="#3d71af"/>
        <path id="路径_269" data-name="路径 269" d="M146.379,247.531c-.554,1.166-4.2.593-8.145-1.28s-6.694-4.337-6.14-5.5,4.2-.593,8.146,1.28S146.933,246.365,146.379,247.531Z" transform="translate(-82.229 -213.786)" fill="#3b70ae"/>
        <path id="路径_270" data-name="路径 270" d="M146.247,247.47c-.541,1.14-4.1.579-7.96-1.251s-6.542-4.238-6-5.378,4.1-.579,7.96,1.251S146.788,246.33,146.247,247.47Z" transform="translate(-82.258 -213.802)" fill="#3a6fae"/>
        <path id="路径_271" data-name="路径 271" d="M146.114,247.409c-.528,1.113-4.009.567-7.775-1.221s-6.39-4.14-5.861-5.253,4.009-.566,7.775,1.222S146.642,246.3,146.114,247.409Z" transform="translate(-82.288 -213.819)" fill="#396ead"/>
        <path id="路径_272" data-name="路径 272" d="M145.981,247.349c-.516,1.087-3.914.553-7.589-1.192s-6.238-4.041-5.722-5.128,3.914-.552,7.59,1.192S146.5,246.262,145.981,247.349Z" transform="translate(-82.318 -213.835)" fill="#376dad"/>
        <path id="路径_273" data-name="路径 273" d="M145.849,247.288c-.5,1.06-3.819.54-7.4-1.164s-6.086-3.942-5.582-5,3.819-.539,7.4,1.164S146.352,246.228,145.849,247.288Z" transform="translate(-82.347 -213.852)" fill="#366cac"/>
        <path id="路径_274" data-name="路径 274" d="M145.716,247.227c-.491,1.034-3.723.526-7.22-1.134s-5.933-3.844-5.441-4.878,3.723-.525,7.219,1.135S146.206,246.193,145.716,247.227Z" transform="translate(-82.377 -213.868)" fill="#356bac"/>
        <path id="路径_275" data-name="路径 275" d="M145.583,247.167c-.478,1.007-3.627.512-7.034-1.105s-5.78-3.745-5.3-4.753,3.627-.512,7.034,1.105S146.061,246.16,145.583,247.167Z" transform="translate(-82.406 -213.884)" fill="#336aab"/>
        <path id="路径_276" data-name="路径 276" d="M145.451,247.106c-.466.981-3.532.5-6.85-1.076s-5.629-3.647-5.163-4.628,3.532-.5,6.849,1.076S145.916,246.125,145.451,247.106Z" transform="translate(-82.436 -213.901)" fill="#3269ab"/>
        <path id="路径_277" data-name="路径 277" d="M145.318,247.046c-.453.954-3.437.485-6.664-1.047s-5.476-3.549-5.023-4.5,3.436-.486,6.663,1.047S145.771,246.091,145.318,247.046Z" transform="translate(-82.466 -213.917)" fill="#3168aa"/>
        <path id="路径_278" data-name="路径 278" d="M145.185,246.985c-.44.927-3.341.472-6.479-1.018s-5.325-3.449-4.884-4.377,3.341-.473,6.479,1.017S145.625,246.057,145.185,246.985Z" transform="translate(-82.495 -213.934)" fill="#2f67aa"/>
        <ellipse id="椭圆_142" data-name="椭圆 142" cx="1.806" cy="6.11" rx="1.806" ry="6.11" transform="translate(50.714 29.365) rotate(-64.601)" fill="#2e66a9"/>
        <path id="路径_279" data-name="路径 279" d="M144.92,246.864c-.415.875-3.151.445-6.109-.96s-5.02-3.253-4.6-4.127,3.15-.445,6.109.96S145.335,245.989,144.92,246.864Z" transform="translate(-82.555 -213.967)" fill="#2d65a8"/>
        <path id="路径_280" data-name="路径 280" d="M144.787,246.8c-.4.848-3.055.431-5.923-.931s-4.868-3.154-4.466-4,3.055-.431,5.924.931S145.19,245.955,144.787,246.8Z" transform="translate(-82.584 -213.983)" fill="#2b64a8"/>
        <path id="路径_281" data-name="路径 281" d="M144.655,246.742c-.39.822-2.96.418-5.739-.9s-4.716-3.055-4.326-3.876,2.959-.418,5.739.9S145.044,245.921,144.655,246.742Z" transform="translate(-82.614 -213.999)" fill="#2a63a7"/>
        <path id="路径_282" data-name="路径 282" d="M144.522,246.682c-.378.8-2.864.4-5.553-.872s-4.564-2.957-4.186-3.752,2.863-.4,5.553.872S144.9,245.886,144.522,246.682Z" transform="translate(-82.644 -214.016)" fill="#2962a7"/>
        <path id="路径_283" data-name="路径 283" d="M144.389,246.621c-.365.769-2.769.391-5.369-.844s-4.412-2.858-4.047-3.626,2.769-.391,5.369.843S144.754,245.852,144.389,246.621Z" transform="translate(-82.673 -214.032)" fill="#2761a6"/>
        <path id="路径_284" data-name="路径 284" d="M144.257,246.56c-.353.742-2.674.378-5.184-.815s-4.259-2.759-3.907-3.5,2.673-.377,5.183.815S144.609,245.818,144.257,246.56Z" transform="translate(-82.703 -214.049)" fill="#2660a6"/>
        <path id="路径_285" data-name="路径 285" d="M144.124,246.5c-.34.716-2.578.364-5-.785s-4.107-2.661-3.767-3.377,2.577-.363,5,.786S144.463,245.784,144.124,246.5Z" transform="translate(-82.732 -214.065)" fill="#255fa5"/>
        <path id="路径_286" data-name="路径 286" d="M143.991,246.439c-.327.689-2.482.351-4.813-.756s-3.955-2.563-3.628-3.251,2.482-.351,4.813.756S144.318,245.75,143.991,246.439Z" transform="translate(-82.762 -214.081)" fill="#235ea4"/>
        <path id="路径_287" data-name="路径 287" d="M143.858,246.378c-.315.662-2.387.337-4.628-.727s-3.8-2.464-3.488-3.126,2.387-.337,4.628.727S144.173,245.716,143.858,246.378Z" transform="translate(-82.792 -214.098)" fill="#225da4"/>
        <path id="路径_288" data-name="路径 288" d="M143.726,246.318c-.3.636-2.291.324-4.443-.7s-3.651-2.365-3.349-3,2.291-.324,4.442.7S144.027,245.682,143.726,246.318Z" transform="translate(-82.821 -214.114)" fill="#205ca3"/>
        <path id="路径_289" data-name="路径 289" d="M143.593,246.257c-.29.61-2.2.31-4.257-.669s-3.5-2.267-3.21-2.876,2.2-.311,4.258.669S143.882,245.647,143.593,246.257Z" transform="translate(-82.851 -214.131)" fill="#1f5ba3"/>
        <path id="路径_290" data-name="路径 290" d="M143.46,246.2c-.276.583-2.1.3-4.072-.64s-3.347-2.168-3.07-2.751,2.1-.3,4.073.639S143.736,245.613,143.46,246.2Z" transform="translate(-82.881 -214.147)" fill="#1e5aa2"/>
        <ellipse id="椭圆_143" data-name="椭圆 143" cx="1.116" cy="3.774" rx="1.116" ry="3.774" transform="translate(53.121 29.743) rotate(-64.601)" fill="#1c59a2"/>
        <path id="路径_291" data-name="路径 291" d="M143.194,246.075c-.252.53-1.909.269-3.7-.582s-3.043-1.971-2.791-2.5,1.91-.27,3.7.582S143.446,245.545,143.194,246.075Z" transform="translate(-82.94 -214.18)" fill="#1b58a1"/>
        <path id="路径_292" data-name="路径 292" d="M143.062,246.014c-.239.5-1.813.256-3.516-.553s-2.89-1.873-2.652-2.376,1.814-.257,3.517.552S143.3,245.51,143.062,246.014Z" transform="translate(-82.97 -214.196)" fill="#1957a0"/>
        <path id="路径_293" data-name="路径 293" d="M142.929,245.954c-.227.477-1.718.242-3.333-.523s-2.738-1.774-2.511-2.251,1.718-.243,3.332.523S143.156,245.477,142.929,245.954Z" transform="translate(-82.999 -214.213)" fill="#1856a0"/>
        <path id="路径_294" data-name="路径 294" d="M142.8,245.893c-.213.451-1.623.23-3.147-.495s-2.586-1.675-2.372-2.126,1.624-.23,3.147.495S143.011,245.443,142.8,245.893Z" transform="translate(-83.029 -214.229)" fill="#17559f"/>
        <path id="路径_295" data-name="路径 295" d="M142.663,245.832c-.2.424-1.527.216-2.962-.466s-2.434-1.577-2.232-2,1.527-.216,2.962.465S142.865,245.408,142.663,245.832Z" transform="translate(-83.058 -214.246)" fill="#15549f"/>
        <path id="路径_296" data-name="路径 296" d="M142.531,245.772c-.189.4-1.432.2-2.777-.436s-2.282-1.479-2.093-1.876,1.431-.2,2.776.436S142.72,245.374,142.531,245.772Z" transform="translate(-83.088 -214.262)" fill="#14539e"/>
        <path id="路径_297" data-name="路径 297" d="M142.4,245.711c-.176.371-1.336.189-2.592-.407s-2.13-1.38-1.954-1.751,1.336-.189,2.592.407S142.574,245.34,142.4,245.711Z" transform="translate(-83.118 -214.278)" fill="#12529e"/>
        <path id="路径_298" data-name="路径 298" d="M142.265,245.65c-.163.345-1.241.175-2.406-.379s-1.978-1.281-1.814-1.625,1.241-.175,2.406.378S142.43,245.306,142.265,245.65Z" transform="translate(-83.147 -214.295)" fill="#11519d"/>
        <path id="路径_299" data-name="路径 299" d="M142.133,245.59c-.152.318-1.146.162-2.221-.349s-1.826-1.183-1.674-1.5,1.145-.162,2.221.349S142.284,245.271,142.133,245.59Z" transform="translate(-83.177 -214.311)" fill="#104f9c"/>
        <path id="路径_300" data-name="路径 300" d="M142,245.529c-.138.291-1.05.148-2.036-.32s-1.673-1.084-1.535-1.375,1.05-.148,2.037.319S142.139,245.238,142,245.529Z" transform="translate(-83.207 -214.328)" fill="#0e4e9c"/>
        <path id="路径_301" data-name="路径 301" d="M141.867,245.469c-.125.265-.954.135-1.851-.291s-1.522-.985-1.4-1.25.954-.135,1.851.29S141.993,245.2,141.867,245.469Z" transform="translate(-83.236 -214.344)" fill="#0d4d9b"/>
        <path id="路径_302" data-name="路径 302" d="M141.735,245.408c-.113.239-.86.121-1.666-.262s-1.369-.888-1.256-1.126.859-.122,1.666.262S141.848,245.169,141.735,245.408Z" transform="translate(-83.266 -214.36)" fill="#0b4c9b"/>
        <path id="路径_303" data-name="路径 303" d="M141.6,245.347c-.1.212-.764.108-1.481-.233s-1.217-.788-1.116-1,.764-.108,1.481.232S141.7,245.135,141.6,245.347Z" transform="translate(-83.295 -214.377)" fill="#0a4b9a"/>
        <path id="路径_304" data-name="路径 304" d="M141.469,245.287c-.088.185-.668.094-1.3-.2s-1.065-.689-.976-.875.668-.095,1.3.2S141.557,245.1,141.469,245.287Z" transform="translate(-83.325 -214.393)" fill="#094a9a"/>
        <path id="路径_305" data-name="路径 305" d="M141.337,245.226c-.075.159-.573.08-1.111-.174s-.912-.592-.837-.75.573-.081,1.11.174S141.413,245.067,141.337,245.226Z" transform="translate(-83.355 -214.41)" fill="#074999"/>
        <path id="路径_306" data-name="路径 306" d="M141.2,245.165c-.063.132-.478.067-.926-.146s-.761-.493-.7-.625.478-.068.926.145S141.267,245.032,141.2,245.165Z" transform="translate(-83.384 -214.426)" fill="#064898"/>
        <path id="路径_307" data-name="路径 307" d="M141.071,245.1c-.05.106-.381.053-.74-.117s-.608-.394-.558-.5.382-.054.74.116S141.122,245,141.071,245.1Z" transform="translate(-83.414 -214.443)" fill="#044798"/>
        <path id="路径_308" data-name="路径 308" d="M140.939,245.044c-.038.08-.286.04-.556-.087s-.456-.3-.418-.375.286-.041.555.087S140.976,244.964,140.939,245.044Z" transform="translate(-83.444 -214.459)" fill="#034697"/>
        <path id="路径_309" data-name="路径 309" d="M140.806,244.983c-.025.053-.191.027-.37-.058s-.3-.2-.279-.25.191-.027.371.058S140.831,244.93,140.806,244.983Z" transform="translate(-83.473 -214.475)" fill="#014597"/>
        <path id="路径_310" data-name="路径 310" d="M140.673,244.923c-.012.026-.095.014-.185-.03s-.152-.1-.14-.124.1-.014.185.029S140.686,244.9,140.673,244.923Z" transform="translate(-83.503 -214.492)" fill="#004496"/>
      </g>
    </g>
  </g>
  <g id="组_54" data-name="组 54" transform="translate(33.788 17.374)">
    <path id="路径_311" data-name="路径 311" d="M219.336,149.441,128,202.175a6.886,6.886,0,0,1-6.2.257L65.88,170.144c-1.589-.916-1.389-2.519.445-3.577l91.337-52.733a6.886,6.886,0,0,1,6.2-.257l55.923,32.287C221.369,146.781,221.17,148.383,219.336,149.441Z" transform="translate(-64.484 -99.569)" fill="#fff" opacity="0.4"/>
    <path id="路径_312" data-name="路径 312" d="M211.527,151.531,131.62,197.666a6.026,6.026,0,0,1-5.421.225L77.273,169.644c-1.39-.8-1.215-2.2.39-3.13l79.907-46.135a6.023,6.023,0,0,1,5.421-.224L211.917,148.4C213.306,149.2,213.131,150.606,211.527,151.531Z" transform="translate(-66.249 -100.588)" fill="#041860" opacity="0.2"/>
    <path id="路径_313" data-name="路径 313" d="M124.436,203.31a5.811,5.811,0,0,1-2.852-.656L65.66,170.367a2.158,2.158,0,0,1-1.234-1.834,2.866,2.866,0,0,1,1.679-2.3L157.441,113.5a7.249,7.249,0,0,1,6.52-.256l55.922,32.287a2.158,2.158,0,0,1,1.235,1.834,2.867,2.867,0,0,1-1.679,2.3L128.1,202.4A7.533,7.533,0,0,1,124.436,203.31Zm36.673-90.091a6.874,6.874,0,0,0-3.344.837L66.428,166.789a2.268,2.268,0,0,0-1.356,1.744,1.551,1.551,0,0,0,.91,1.275l55.923,32.287a6.548,6.548,0,0,0,5.874-.257L219.117,149.1a2.268,2.268,0,0,0,1.354-1.744,1.548,1.548,0,0,0-.91-1.275L163.638,113.8A5.167,5.167,0,0,0,161.109,113.219Z" transform="translate(-64.426 -99.512)" fill="#fff"/>
    <path id="路径_314" data-name="路径 314" d="M220.853,132.031l-1.014.8c-.02-.013-.037-.026-.058-.038l-55.923-32.288a6.886,6.886,0,0,0-6.2.257L66.325,153.5a4.5,4.5,0,0,0-.574.392l-.943-.692v2.29l.005,0a1.819,1.819,0,0,0,1.067,1.59L121.8,189.362a6.886,6.886,0,0,0,6.2-.257l91.337-52.733a2.542,2.542,0,0,0,1.513-2.026l0,0Z" transform="translate(-64.484 -97.568)" fill="#fff"/>
    <path id="路径_315" data-name="路径 315" d="M219.336,133.633,128,186.366a6.886,6.886,0,0,1-6.2.257L65.88,154.336c-1.589-.917-1.389-2.519.445-3.577l91.337-52.734a6.886,6.886,0,0,1,6.2-.257l55.923,32.288C221.369,130.972,221.17,132.574,219.336,133.633Z" transform="translate(-64.484 -97.149)" fill="url(#linear-gradient-3)"/>
    <g id="组_53" data-name="组 53" transform="translate(54.711 31.401)">
      <path id="路径_320" data-name="路径 320" d="M148.559,179.405l-17.507,10.108-2.026-1.17,17.507-10.108Z" transform="translate(-129.026 -140.963)" fill="#fff"/>
      <path id="路径_321" data-name="路径 321" d="M173.968,164.735l-17.507,10.108-2.026-1.17,17.507-10.108Z" transform="translate(-132.916 -138.717)" fill="#fff"/>
      <path id="路径_322" data-name="路径 322" d="M199.377,150.065,181.87,160.173,179.844,159,197.351,148.9Z" transform="translate(-136.806 -136.472)" fill="#fff"/>
      <path id="路径_323" data-name="路径 323" d="M224.786,135.4,207.279,145.5l-2.026-1.17,17.507-10.108Z" transform="translate(-140.696 -134.226)" fill="#fff"/>
    </g>
  </g>
  <g id="组_62" data-name="组 62" transform="translate(34.111 0)">
    <g id="组_57" data-name="组 57">
      <path id="路径_324" data-name="路径 324" d="M236.131,214.885l-28.1-16.358c-5.566-3.214-10.814-3.722-14.78-1.435s-6.148,7.09-6.148,13.516v2.059c.2.135.407.266.619.4v-2.454c0-6.2,2.074-10.8,5.839-12.979s8.794-1.664,14.16,1.434l28.1,16.358a.309.309,0,1,0,.309-.536Z" transform="translate(-83.531 -94.859)" fill="#fff"/>
      <path id="路径_325" data-name="路径 325" d="M134.286,177.172V113.857c0-12.673-8.93-28.14-19.906-34.476C109,76.277,103.934,75.786,100.1,78s-5.939,6.847-5.939,13.055v4.414l.62.62V91.052c0-5.977,2-10.422,5.629-12.518s8.481-1.6,13.656,1.384c10.806,6.238,19.6,21.463,19.6,33.94v63.315c0,10.505,6.182,22.938,14.563,30.419v-.831C140.178,199.362,134.286,187.348,134.286,177.172Z" transform="translate(-69.302 -76.634)" fill="#fff"/>
      <g id="组_55" data-name="组 55" transform="translate(6.232 0.114)">
        <path id="路径_326" data-name="路径 326" d="M148.387,207.348s-7.153-7.286-9.938-13.291-4.228-11.565-4.276-16.522-.1-47.574-.1-47.574.306-17.67-.437-20.459-2.5-17.672-17.073-28.363-21.856.843-21.771,6.868,0,9.881,0,9.881,7.986,6.463,11,15.7,3.3,7.629,3.353,16.814.1,55.771.1,55.771-.675,8.181,1.36,14.514,5.7,13.351,10.043,17.948,10.756,10.027,16.684,9.492,9.914-2.722,11.056-12.1Z" transform="translate(-75.631 -76.769)" fill="#fff"/>
        <path id="路径_327" data-name="路径 327" d="M96.736,78.243,72.167,92.407,91.33,98.115Z" transform="translate(-72.167 -76.995)" fill="#fff"/>
        <path id="路径_328" data-name="路径 328" d="M181.584,215.315v2.841c-1.367-.989-7.793-5.381-13.9-5.165-6.876.242-9.184,6.536-9.184,6.536s-1.628,4.7-1.507,6.9c.021.38.039.83.055,1.308-.038-.036-.078-.067-.116-.1v.831c.047.041.095.08.141.12.056,2.12.074,4.451.074,4.451a38.7,38.7,0,0,1-.534,6.949c-1.07,4.957-5.267,7.771-5.59,8.211l25.213-14.516c.022-.012.047-.02.069-.033s.066-.043.1-.064l.127-.074.014-.017c3.647-2.249,5.655-6.779,5.655-12.807v-4.975C181.991,215.581,181.782,215.45,181.584,215.315Z" transform="translate(-84.239 -97.622)" fill="url(#linear-gradient-4)"/>
        <path id="路径_329" data-name="路径 329" d="M163.911,212.069,189.7,197.14a12.848,12.848,0,0,1,9.718-.364c5.319,1.947,33.193,18.669,33.193,18.669l-24.9,14.347s-28.935-17.927-32.33-18.826C168.416,209.119,163.911,212.069,163.911,212.069Z" transform="translate(-86.212 -95.021)" fill="#fff"/>
      </g>
      <path id="路径_330" data-name="路径 330" d="M89.71,100.016h0a24.86,24.86,0,0,0-12.683-6.209c-7.84-1.2-11.079,7.969-11.079,7.969a50.612,50.612,0,0,0-.875,7.581c.032,2.819.234,13.054.234,13.054l24.853-14.317v0a.308.308,0,0,0,.171-.273v-7.267C90.124,100.346,89.917,100.223,89.71,100.016Z" transform="translate(-64.848 -79.247)" fill="url(#linear-gradient-5)"/>
      <g id="组_56" data-name="组 56" transform="translate(0 14.321)">
        <path id="路径_331" data-name="路径 331" d="M132.983,231.037a18.123,18.123,0,0,1-8.912-2.727c-10.9-6.291-19.761-21.646-19.761-34.227V130.768c0-12.476-8.791-27.7-19.6-33.942-5.175-2.987-10.025-3.479-13.656-1.383s-5.63,6.542-5.63,12.518v14.154a.31.31,0,1,1-.619,0V107.962c0-6.207,2.109-10.843,5.939-13.054s8.9-1.72,14.276,1.383c10.977,6.337,19.906,21.8,19.906,34.478v63.315c0,12.384,8.726,27.5,19.452,33.691,5.137,2.965,9.95,3.454,13.555,1.373s5.587-6.493,5.587-12.424v-7.429c0-6.426,2.183-11.227,6.149-13.516s9.214-1.78,14.78,1.434l28.095,16.359a.31.31,0,1,1-.31.536l-28.095-16.359c-5.366-3.1-10.4-3.607-14.16-1.433s-5.839,6.783-5.839,12.979v7.429c0,6.162-2.094,10.765-5.9,12.961A10.4,10.4,0,0,1,132.983,231.037Z" transform="translate(-64.808 -93.544)" fill="url(#linear-gradient-6)"/>
      </g>
    </g>
    <g id="组_61" data-name="组 61" transform="translate(46.183 47.353)">
      <g id="组_58" data-name="组 58">
        <path id="路径_332" data-name="路径 332" d="M119.339,153.24V151l2.607-1.505v2.235Z" transform="translate(-119.339 -135.142)" fill="#dde1ed"/>
        <path id="路径_333" data-name="路径 333" d="M128.028,143.043v-2.235l4.966-2.867v2.235Z" transform="translate(-120.669 -133.373)" fill="#dde1ed"/>
        <path id="路径_334" data-name="路径 334" d="M119.638,141.752v-2.235l12.072-6.97v2.235Z" transform="translate(-119.385 -132.547)" fill="#dde1ed"/>
        <path id="路径_335" data-name="路径 335" d="M124.591,149.428v-2.235l10.076-5.817v2.235Z" transform="translate(-120.143 -133.899)" fill="#dde1ed"/>
        <path id="路径_336" data-name="路径 336" d="M119.638,147.887v-2.235l4.966-2.867v2.235Z" transform="translate(-119.385 -134.114)" fill="#dde1ed"/>
      </g>
      <g id="组_59" data-name="组 59" transform="translate(0.121 17.817)">
        <path id="路径_337" data-name="路径 337" d="M122.538,179.6v2.235l-3.056,1.765v-2.235Z" transform="translate(-119.481 -157.567)" fill="#dde1ed"/>
        <path id="路径_338" data-name="路径 338" d="M129.108,175.8v2.235l-3.056,1.765v-2.235Z" transform="translate(-120.487 -156.986)" fill="#dde1ed"/>
        <path id="路径_339" data-name="路径 339" d="M131.465,168.593v2.235l-11.811,6.819v-2.235Z" transform="translate(-119.508 -155.883)" fill="#dde1ed"/>
        <path id="路径_340" data-name="路径 340" d="M126.637,159.225V156.99l5.9-3.4v2.235Z" transform="translate(-120.577 -153.585)" fill="#dde1ed"/>
        <path id="路径_341" data-name="路径 341" d="M119.481,163.652v-2.235l3.056-1.764v2.235Z" transform="translate(-119.481 -154.514)" fill="#dde1ed"/>
        <path id="路径_342" data-name="路径 342" d="M119.481,168.3v-2.235L125.3,162.7v2.235Z" transform="translate(-119.481 -154.981)" fill="#dde1ed"/>
        <path id="路径_343" data-name="路径 343" d="M129.127,162.942v-2.235l3.788-2.187v2.235Z" transform="translate(-120.958 -154.34)" fill="#dde1ed"/>
        <path id="路径_344" data-name="路径 344" d="M126.637,189.958v-2.235l5.9-3.4v2.235Z" transform="translate(-120.577 -158.29)" fill="#dde1ed"/>
        <path id="路径_345" data-name="路径 345" d="M119.481,194.385V192.15l3.056-1.764v2.235Z" transform="translate(-119.481 -159.219)" fill="#dde1ed"/>
        <path id="路径_346" data-name="路径 346" d="M119.481,199.031V196.8l5.821-3.361v2.235Z" transform="translate(-119.481 -159.686)" fill="#dde1ed"/>
        <path id="路径_347" data-name="路径 347" d="M129.127,193.674v-2.235l3.788-2.187v2.235Z" transform="translate(-120.958 -159.045)" fill="#dde1ed"/>
      </g>
      <g id="组_60" data-name="组 60" transform="translate(60.939 60.724)">
        <path id="路径_348" data-name="路径 348" d="M201.875,218.658l-1.936-1.118,2.607-1.505,1.936,1.118Z" transform="translate(-192.617 -206.052)" fill="#dde1ed"/>
        <path id="路径_349" data-name="路径 349" d="M206.29,210.929l-1.936-1.118,4.966-2.867,1.936,1.118Z" transform="translate(-193.293 -204.66)" fill="#dde1ed"/>
        <path id="路径_350" data-name="路径 350" d="M193.229,212.334l-1.936-1.118,12.071-6.969,1.936,1.118Z" transform="translate(-191.293 -204.247)" fill="#dde1ed"/>
        <path id="路径_351" data-name="路径 351" d="M207.127,214.847l-1.936-1.118,10.076-5.817,1.936,1.118Z" transform="translate(-193.421 -204.808)" fill="#dde1ed"/>
        <path id="路径_352" data-name="路径 352" d="M197.9,215.772l-1.936-1.118,4.966-2.867,1.936,1.118Z" transform="translate(-192.008 -205.401)" fill="#dde1ed"/>
      </g>
    </g>
  </g>
  <g id="组_63" data-name="组 63" transform="translate(14.676 120.609)">
    <path id="路径_353" data-name="路径 353" d="M45.67,224.852l-1.131.653-2.679-1.547,1.131-.653Z" transform="translate(-41.86 -219.697)" fill="#fff"/>
    <path id="路径_354" data-name="路径 354" d="M48.13,223.432,47,224.085l-2.679-1.547,1.131-.653Z" transform="translate(-42.237 -219.48)" fill="#fff"/>
    <path id="路径_355" data-name="路径 355" d="M50.59,222.012l-1.131.653-2.679-1.547,1.131-.653Z" transform="translate(-42.614 -219.262)" fill="#fff"/>
    <path id="路径_356" data-name="路径 356" d="M53.05,220.592l-1.131.653L49.241,219.7l1.131-.653Z" transform="translate(-42.99 -219.045)" fill="#fff"/>
  </g>
  <g id="组_65" data-name="组 65" transform="translate(117.435 139.437)">
    <path id="路径_357" data-name="路径 357" d="M217.6,264.326l-19.935-11.5a3.892,3.892,0,0,0-1.7-.466v-.005H195.9c-.121-.005-.241,0-.362,0-.053,0-.106,0-.158.005-.12.008-.236.025-.352.044-.051.008-.1.014-.153.024a3.313,3.313,0,0,0-.338.091c-.043.013-.089.022-.131.037a2.615,2.615,0,0,0-.415.19l-14.87,8.615h0l-14.18,8.215-1.38.138.01,1.242.013.158a1.5,1.5,0,0,0,.811.983l19.946,11.5a3.922,3.922,0,0,0,1.7.466v0h.057c.121.005.241,0,.361,0,.054,0,.108,0,.16-.006.119-.008.235-.025.351-.044.052-.008.1-.014.154-.024a3.206,3.206,0,0,0,.336-.091c.044-.014.091-.023.133-.038a2.611,2.611,0,0,0,.415-.19h0l29.739-17.23a1.169,1.169,0,0,0,.685-1h0v-1.211Z" transform="translate(-163.25 -242.972)" fill="#fff"/>
    <g id="组_64" data-name="组 64" transform="translate(0.314 8.151)">
      <path id="路径_358" data-name="路径 358" d="M164.254,270.162l14.87-8.615,23.114,13.33-14.224,8.987a4.062,4.062,0,0,1-3.671-.078l-19.946-11.5C163.344,271.676,163.28,270.726,164.254,270.162Z" transform="translate(-163.563 -252.53)" fill="url(#linear-gradient-7)"/>
      <path id="路径_359" data-name="路径 359" d="M196.807,251.3l-14.87,8.615,22.968,13.247L220.566,265c.975-.564.91-1.514-.142-2.121l-19.946-11.5A4.059,4.059,0,0,0,196.807,251.3Z" transform="translate(-166.376 -250.9)" fill="url(#linear-gradient-8)"/>
      <path id="路径_360" data-name="路径 360" d="M222.493,266.211a1.115,1.115,0,0,1-.675,1.137l-29.739,17.23a3.629,3.629,0,0,1-1.967.392l1.972-17.581Z" transform="translate(-167.628 -253.244)" fill="url(#linear-gradient-9)"/>
      <path id="路径_361" data-name="路径 361" d="M163.58,269.67a1.117,1.117,0,0,1,.675-1.137l29.74-17.23a3.619,3.619,0,0,1,1.967-.393l-1.972,17.581Z" transform="translate(-163.564 -250.901)" fill="url(#linear-gradient-10)"/>
    </g>
    <path id="路径_362" data-name="路径 362" d="M186.2,273.646c-.06,0-.116,0-.173,0l-.363-.031a4.015,4.015,0,0,1-1.543-.481l-19.946-11.5a2.006,2.006,0,0,1-.878-.913l-.046.005-.057-.345,0-.052a.874.874,0,0,1,0-.235.883.883,0,0,1,.014-.127,1.371,1.371,0,0,1,.1-.272.881.881,0,0,1,.057-.118,1.5,1.5,0,0,1,.2-.248.9.9,0,0,1,.083-.092,2.143,2.143,0,0,1,.385-.284l29.739-17.23a3.063,3.063,0,0,1,.468-.213l.105-.032c.162-.048.281-.084.408-.11l.117-.018c.175-.027.3-.046.429-.056l.124,0c.177-.007.307-.008.435,0l.366.032a4.051,4.051,0,0,1,1.542.481l19.946,11.5a2.006,2.006,0,0,1,.878.913l.046-.005.057.345,0,.052a.874.874,0,0,1,0,.235,1.185,1.185,0,0,1-.014.127,1.27,1.27,0,0,1-.1.275.741.741,0,0,1-.053.115,1.469,1.469,0,0,1-.2.248l-.082.092a2.142,2.142,0,0,1-.385.284l-29.739,17.23a3.046,3.046,0,0,1-.468.213l-.105.032c-.163.048-.281.083-.409.11l-.116.018c-.175.027-.3.046-.429.056l-.125,0C186.368,273.644,186.283,273.646,186.2,273.646Zm.661-.7.208.3-.065-.317c.106-.022.2-.052.3-.082l.23.269-.11-.3a2.343,2.343,0,0,0,.361-.164l29.742-17.231a1.535,1.535,0,0,0,.268-.2l.286.161-.237-.219a1.062,1.062,0,0,0,.117-.141,1.248,1.248,0,0,0,.076-.195,1.124,1.124,0,0,0,.008-.172l-.008-.038a1.206,1.206,0,0,0-.652-.76l-19.946-11.5a3.61,3.61,0,0,0-1.562-.423l-.127-.008c-.1,0-.179,0-.258,0l-.153.005c-.105.008-.211.023-.317.041l-.208-.3.065.317c-.106.022-.2.052-.3.082l-.23-.269.11.3a2.3,2.3,0,0,0-.363.165L164.36,259.5a1.53,1.53,0,0,0-.269.2,1.842,1.842,0,0,0-.165.2,1.3,1.3,0,0,0-.077.195,1.2,1.2,0,0,0-.007.172l.007.038a1.207,1.207,0,0,0,.653.76l19.946,11.5a3.61,3.61,0,0,0,1.561.423l.127.008c.1,0,.18,0,.258,0l.154-.005C186.653,272.983,186.759,272.968,186.865,272.95Z" transform="translate(-163.193 -241.275)" fill="#fff"/>
    <path id="路径_363" data-name="路径 363" d="M218.148,255.44a1.221,1.221,0,0,0,.157-.2c.017-.029.025-.059.04-.089a.941.941,0,0,0,.076-.2c.006-.031.006-.062.009-.092a.907.907,0,0,0,0-.209c0-.011,0-.022,0-.032h-.008a1.5,1.5,0,0,0-.81-.984l-19.946-11.5a3.91,3.91,0,0,0-1.7-.466v0h-.057c-.121-.005-.241,0-.362,0-.053,0-.107,0-.159.005-.119.009-.235.026-.351.045-.052.008-.1.013-.156.023a3.457,3.457,0,0,0-.335.091c-.044.014-.091.024-.134.039a2.512,2.512,0,0,0-.415.19l-9.913,5.743-4.957,2.872h0l-14.87,8.615a1.823,1.823,0,0,0-.327.24c-.026.025-.042.051-.065.076a1.221,1.221,0,0,0-.157.2.754.754,0,0,0-.04.089.939.939,0,0,0-.076.2.846.846,0,0,0-.009.092.911.911,0,0,0,0,.209c0,.011,0,.021,0,.032h.008a1.5,1.5,0,0,0,.811.984l19.946,11.5a3.922,3.922,0,0,0,1.7.466v0c.019,0,.038,0,.057,0,.121.005.241,0,.361,0,.053,0,.107,0,.16-.005.119-.009.235-.026.351-.045.052-.008.1-.013.155-.023a3.421,3.421,0,0,0,.335-.091c.044-.014.091-.024.134-.039a2.583,2.583,0,0,0,.412-.188l0,0,29.739-17.23a1.767,1.767,0,0,0,.327-.241C218.108,255.491,218.125,255.464,218.148,255.44Z" transform="translate(-163.252 -241.334)" fill="#fff" opacity="0.4"/>
  </g>
</svg>
