<svg xmlns="http://www.w3.org/2000/svg" xmlns:xlink="http://www.w3.org/1999/xlink" width="120" height="120" viewBox="0 0 120 120">
  <defs>
    <linearGradient id="linear-gradient" x1="0.84" y1="0.89" x2="0.16" y2="0.11" gradientUnits="objectBoundingBox">
      <stop offset="0.244" stop-color="#006ba2"/>
      <stop offset="1" stop-color="#00a5df"/>
    </linearGradient>
    <linearGradient id="linear-gradient-2" x1="0.836" y1="0.892" x2="0.164" y2="0.108" xlink:href="#linear-gradient"/>
    <linearGradient id="linear-gradient-3" x1="0.85" y1="0.937" x2="0.15" y2="0.062" xlink:href="#linear-gradient"/>
    <linearGradient id="linear-gradient-4" x1="0.85" y1="0.889" x2="0.15" y2="0.111" xlink:href="#linear-gradient"/>
    <linearGradient id="linear-gradient-5" x1="0.825" y1="0.906" x2="0.175" y2="0.094" xlink:href="#linear-gradient"/>
    <linearGradient id="linear-gradient-6" x1="0.875" y1="0.875" x2="0.125" y2="0.125" xlink:href="#linear-gradient"/>
    <linearGradient id="linear-gradient-7" x1="0.658" y1="0.701" x2="-0.075" y2="0.09" xlink:href="#linear-gradient"/>
    <linearGradient id="linear-gradient-8" x1="0.888" y1="1.143" x2="0.129" y2="0.043" xlink:href="#linear-gradient"/>
    <linearGradient id="linear-gradient-9" x1="0.815" y1="1.07" x2="0.238" y2="0.052" xlink:href="#linear-gradient"/>
    <linearGradient id="linear-gradient-10" x1="0.863" y1="0.703" x2="0.03" y2="-0.026" xlink:href="#linear-gradient"/>
    <linearGradient id="linear-gradient-12" x1="0.949" y1="0.967" x2="0.084" y2="0.067" xlink:href="#linear-gradient"/>
    <linearGradient id="linear-gradient-13" x1="0.947" y1="0.991" x2="-0.033" y2="0.04" xlink:href="#linear-gradient"/>
  </defs>
  <g id="LOGO" transform="translate(-128 -2387)">
    <rect id="矩形_476" data-name="矩形 476" width="120" height="120" rx="8" transform="translate(128 2387)" fill="#fff"/>
    <g id="logo2.5caeee7" transform="translate(133 2408.7)">
      <g id="组_70" data-name="组 70" transform="translate(4 2.3)">
        <path id="路径_364" data-name="路径 364" d="M23.019,27.7H18.551l-2.351,4,2.351,4h4.467l2.351-4Z" transform="translate(12.486 32.023)" fill="url(#linear-gradient)"/>
        <path id="路径_365" data-name="路径 365" d="M13.616,24.7,11.5,28.227l2.116,3.527h4l2.116-3.527L17.613,24.7Z" transform="translate(6.135 27.969)" fill="url(#linear-gradient-2)"/>
        <path id="路径_366" data-name="路径 366" d="M10.735,29.7l-.235.47.235.47h.705l.235-.47-.235-.47Z" transform="translate(4.783 34.725)" fill="url(#linear-gradient-3)"/>
        <path id="路径_367" data-name="路径 367" d="M17.205,27.432,14.854,23.2h-4.7L7.8,27.432l2.351,4.232h4.7Z" transform="translate(1.135 25.942)" fill="url(#linear-gradient-4)"/>
        <path id="路径_368" data-name="路径 368" d="M15.8,29.881,14.627,28H12.276L11.1,29.881l1.176,1.881h2.351Z" transform="translate(5.594 32.428)" fill="url(#linear-gradient-5)"/>
        <path id="路径_369" data-name="路径 369" d="M13.07,29.9l-.47.941.47.941h.941l.47-.941-.47-.941Z" transform="translate(7.621 34.996)" fill="url(#linear-gradient-6)"/>
        <path id="路径_370" data-name="路径 370" d="M35.113,27.935c-.235,0-.47-.235-.705-.235H33a.864.864,0,0,0-.705.235c0,.235-.235.235-.47.47v-.47H29v8.23l2.351-.705V31.227c0-.47,0-.705.235-.941a.506.506,0,0,1,.47-.47h.47a.821.821,0,0,1,.47.235c.235.235.235.235.235.47v.705h2.822V29.581a1.414,1.414,0,0,0-.235-.941Z" transform="translate(29.782 32.023)" fill="url(#linear-gradient-7)"/>
        <path id="路径_371" data-name="路径 371" d="M37.718,15.79c-1.646-.705-3.527-.235-4,.941-.235,1.176.705,2.586,2.586,3.292a14.294,14.294,0,0,0,4.467.235S39.6,16.5,37.718,15.79Z" transform="translate(36.113 15.482)" fill="url(#linear-gradient-8)"/>
        <path id="路径_372" data-name="路径 372" d="M100.873,39.921a27.972,27.972,0,0,1-2.116-8.465c-.235-3.762-.235-12.227-5.878-16.224C84.179,9.119,77.36,3.241,67.72,2.3c.47.941,1.176,1.646.941,2.116-.47.705-2.822.235-3.527,0C59.726,3.005,51.5,4.651,42.326,7.473a1.588,1.588,0,0,1,.941,1.411c-.235.235-.47.705-.705.941a31.79,31.79,0,0,0-9.405.705,53.037,53.037,0,0,0-9.17,3.527c.941.47,1.881.941,2.116,1.646C26.808,19.464,15.051,25.108,4,29.81a17.864,17.864,0,0,1,6.113,1.411c2.116.705,3.292,1.176,3.527,2.116.235,1.176-2.351,3.057-3.292,5.408a2.982,2.982,0,0,0-.235,1.411c.705,2.116,5.643,2.116,11.521,3.527.235,0,.705.235.941.235l-2.822,4.938,3.057,5.408h6.113l3.057-5.408-.941-1.881,2.116,1.176h3.527a14.985,14.985,0,0,0-.47,1.646H33.626L30.57,55.2l3.057,5.408H39.74l.235-.235a.23.23,0,0,0,.235-.235L43.031,55.2l-.47-.705a55.2,55.2,0,0,1,6.819-5.173c2.586-1.881,5.643-.705,8.465-.705a47.592,47.592,0,0,1,12.932,1.646c4.938.941,9.405,1.881,14.108,2.822a34.74,34.74,0,0,0,9.875,0c6.584-1.176,9.875-4.467,11.286-6.584a4.919,4.919,0,0,0,.941-1.411C106.751,43.683,102.754,43.918,100.873,39.921ZM54.788,28.87a1.829,1.829,0,0,0-1.881-.47c-4-.941-8.935-.235-14.108,4.232a13.8,13.8,0,0,1,5.408-.941c-2.586,1.411-5.408,3.057-8.23,4.7,1.176,0,2.116.235,2.351.705.235,1.176-5.643,5.173-11.992,5.173-4,0-9.875-2.822-12.932-3.527,1.881-2.586,4.232-5.173,3.527-7.054a5.491,5.491,0,0,0-2.822-2.351,7.225,7.225,0,0,0-4.938-.47c5.408-3.057,12.7-3.762,16.694-7.759,2.351-2.351,3.762-4.467,3.292-5.408a.23.23,0,0,1-.235-.235,1.5,1.5,0,0,1,0-1.411A19.006,19.006,0,0,1,34.1,12.411c2.351-.235,7.524.705,10.111-.705a2.12,2.12,0,0,0,1.411-1.411c.235-.705-.235-1.411.235-1.646C54.553,5.357,59.961,7,69.6,6.3c.47,0,.47-.941.941-.941,5.408.705,9.17,3.057,19.281,10.111,6.348,6.584,7.994,12.7,6.584,15.283C95,32.4,91.468,32.4,89.117,31.691a11.935,11.935,0,0,1-4.232-2.116c-4.232-3.057-8.465-4.7-10.346-4.7a13.314,13.314,0,0,0-4.232.705c-3.057-2.586-12.932-9.405-23.278-.235,0,0,8.935-2.351,10.816,3.527.235.47.47,1.176.705,1.646A18.2,18.2,0,0,0,54.788,28.87ZM96.876,45.8c-.47.705-2.116,1.411-2.822,2.351A5.643,5.643,0,0,1,91.233,49.8C87,51.442,76.185,49.561,69.6,48.15c-.941.235-1.881,0-2.116-.941-.235-.47,0-.941.47-1.646a3.792,3.792,0,0,0,.705-2.116c-.235-1.646-2.822-2.116-3.762-3.762-1.176-1.881-.235-4.7,1.646-7.994,1.646-2.351,4.232-4.467,7.289-4.467,1.646,0,4.232,1.176,7.289,3.527,1.646,1.411,3.057,2.822,4.467,4.232a11.815,11.815,0,0,1,5.643,1.411L93.349,37.8c2.822,2.116,4.467,3.292,4.467,4.467A6.123,6.123,0,0,1,96.876,45.8Z" transform="translate(-4 -2.3)" fill="url(#linear-gradient-9)"/>
        <path id="路径_373" data-name="路径 373" d="M42.438,32.5l-1.881-4.7H37.5l3.292,7.524H41.5l-.235.47a.864.864,0,0,1-.235.705c0,.235,0,.47-.235.47h-.705v2.116h2.351c.235,0,.235,0,.47-.235s.235-.47.47-.705a9.712,9.712,0,0,0,.941-2.116l3.057-8.23H44.084Z" transform="translate(41.268 32.158)" fill="url(#linear-gradient-10)"/>
        <path id="路径_374" data-name="路径 374" d="M20.005,31.6,19.3,33.011l.705,1.411h1.411l.705-1.411L21.416,31.6Z" transform="translate(16.675 37.293)" fill="url(#linear-gradient-6)"/>
        <path id="路径_375" data-name="路径 375" d="M40.815,28.505a1.783,1.783,0,0,0-.941-.47,1.414,1.414,0,0,0-.941-.235H34.7c-.235,0-.47.235-.705.235,0,.235-.235.235-.47.47,0,.235-.235.235-.235.47v1.411h2.822l.235-.47a.23.23,0,0,1,.235-.235h1.646c.235,0,.235.235.47.235a.23.23,0,0,1,.235.235v.941l-.235-.235H35.172A2.12,2.12,0,0,0,34,31.092l-.705.705c-.235.235-.47.47-.235.705v1.176c0,.235.235.705.235.941s.235.47.47.705c0,.235.47.47.705.47h3.057c.235,0,.47-.235.705-.235s.235-.235.47-.235v.705l2.822-.705V30.857c0-.47-.235-.941-.235-1.411A1.783,1.783,0,0,0,40.815,28.505ZM38.7,33.678c-.235,0-.235.235-.47.235H36.348l-.235-.235a.23.23,0,0,1-.235-.235,1.03,1.03,0,0,1-.235-.705l.235-.235c.235-.235.235-.235.47-.235h1.881l.235.235c.235.235.235.235.235.47C38.934,33.208,38.7,33.443,38.7,33.678Z" transform="translate(35.132 32.158)" fill="url(#linear-gradient-12)"/>
        <path id="路径_376" data-name="路径 376" d="M33.375,26.791a2.065,2.065,0,0,0-1.646-.235H23.5V37.842l3.057-.705V34.785h3.762c.235,0,.47,0,.47.705a.506.506,0,0,1,.47.47.864.864,0,0,1,.235.705v1.411l3.292-.705V35.021a.864.864,0,0,0-.235-.705c0-.235-.235-.235-.47-.47-.235,0-.47-.235-.705-.235l.705-.47c.235,0,.235-.235.47-.47,0-.47.235-.705.235-.941V28.907c-.235-.47-.235-.705-.47-1.176A1.836,1.836,0,0,0,33.375,26.791Zm-1.881,4.938c-.235,0-.235.235-.47.235a1.414,1.414,0,0,1-.941.235H26.322V28.907h3.527c.47,0,.705,0,.941.235s.47.47.705.47a2.12,2.12,0,0,1,.235,1.176A1.414,1.414,0,0,1,31.494,31.729Z" transform="translate(22.35 30.345)" fill="url(#linear-gradient-13)"/>
      </g>
    </g>
  </g>
</svg>
