<?xml version="1.0" encoding="utf-8"?>
<!-- Generator: Adobe Illustrator 19.0.0, SVG Export Plug-In . SVG Version: 6.00 Build 0)  -->
<svg version="1.1" id="图层_1" xmlns="http://www.w3.org/2000/svg" xmlns:xlink="http://www.w3.org/1999/xlink" x="0px" y="0px"
	 viewBox="-191 318 228 158" style="enable-background:new -191 318 228 158;" xml:space="preserve">
<style type="text/css">
	.st0{opacity:0.6;fill:#FFFFFF;enable-background:new    ;}
	.st1{fill:url(#circle-1_2_);}
	.st2{fill:none;stroke:#FFFFFF;}
	.st3{opacity:0.2;fill:#FFFFFF;enable-background:new    ;}
	.st4{clip-path:url(#SVGID_2_);fill:#FFFFFF;}
	.st5{clip-path:url(#SVGID_4_);fill:#FFFFFF;}
	.st6{enable-background:new    ;}
	.st7{fill:#808080;}
</style>
<rect x="-58.5" y="365.4" class="st0" width="50" height="1"/>
<rect x="-8.5" y="336.4" class="st0" width="1" height="30"/>
<rect x="-175.5" y="418.4" class="st0" width="50" height="1"/>
<rect x="-176.5" y="418.4" class="st0" width="1" height="30"/>
<g>
	
		<linearGradient id="circle-1_2_" gradientUnits="userSpaceOnUse" x1="-91.5499" y1="888.4" x2="-91.5499" y2="784.4" gradientTransform="matrix(1 0 0 1 0 -436)">
		<stop  offset="0" style="stop-color:#0B79A3"/>
		<stop  offset="1" style="stop-color:#0C7BA4"/>
	</linearGradient>
	<circle id="circle-1" class="st1" cx="-91.5" cy="400.4" r="52"/>
</g>
<g>
	<circle id="circle-1_1_" class="st2" cx="-91.5" cy="400.4" r="52"/>
</g>
<circle class="st2" cx="-91" cy="400.9" r="47.5"/>
<path class="st3" d="M-18.6,407.9l-18-0.6v-1l18,0.6V407.9z M-19,412.8l-17.9-1.9l0.1-1l17.9,1.9L-19,412.8z M-19.8,417.7l-17.7-3.1
	l0.2-1l17.7,3.1L-19.8,417.7z M-20.9,422.5l-17.5-4.4l0.2-1l17.5,4.4L-20.9,422.5z M-22.3,427.2l-17.1-5.6l0.3-1l17.1,5.6
	L-22.3,427.2z M-24,431.8l-16.7-6.7l0.4-0.9l16.7,6.7L-24,431.8z M-26.1,436.3l-16.2-7.9l0.4-0.9l16.2,7.9L-26.1,436.3z
	 M-28.5,440.6l-15.6-9l0.5-0.9l15.6,9L-28.5,440.6z M-31.3,444.8l-14.9-10.1l0.6-0.8l14.9,10.1L-31.3,444.8z M-34.3,448.7
	l-14.2-11.1l0.6-0.8l14.2,11.1L-34.3,448.7z M-37.4,452.4l-13.4-12l0.7-0.7l13.4,12L-37.4,452.4z M-40.9,455.9L-53.4,443l0.7-0.7
	l12.5,12.9L-40.9,455.9z M-44.6,459.2l-11.6-13.8l0.8-0.6l11.6,13.8L-44.6,459.2z M-48.5,462.2l-10.6-14.6l0.8-0.6l10.6,14.6
	L-48.5,462.2z M-52.8,464.9l-9.5-15.3l0.8-0.5l9.5,15.3L-52.8,464.9z M-57,467.3l-8.5-15.9l0.9-0.5l8.5,15.9L-57,467.3z
	 M-61.4,469.4l-7.3-16.4l0.9-0.4l7.3,16.4L-61.4,469.4z M-66,471.2l-6.2-16.9l0.9-0.3l6.2,16.9L-66,471.2z M-70.8,472.6l-5-17.3
	l1-0.3l5,17.3L-70.8,472.6z M-75.6,473.7l-3.7-17.6l1-0.2l3.7,17.6L-75.6,473.7z M-82.9,456.7l1-0.1l2.5,17.8l-1,0.1L-82.9,456.7z
	 M-86.6,457l1-0.1l1.3,18l-1,0.1L-86.6,457z M-90.3,457h1v18h-1V457z M-95.3,474.8l1.3-18l1,0.1l-1.3,18L-95.3,474.8z M-100.1,474.2
	l2.5-17.8l1,0.1l-2.5,17.8L-100.1,474.2z M-105,473.3l3.7-17.6l1,0.2l-3.7,17.6L-105,473.3z M-109.8,472l5-17.3l1,0.3l-5,17.3
	L-109.8,472z M-114.4,470.4l6.2-16.9l0.9,0.3l-6.2,16.9L-114.4,470.4z M-119,468.5l7.3-16.4l0.9,0.4l-7.3,16.4L-119,468.5z
	 M-123.4,466.3l8.5-15.9l0.9,0.5l-8.5,15.9L-123.4,466.3z"/>
<path class="st3" d="M-70,349.7l8.5-15.9l0.9,0.5l-8.5,15.9L-70,349.7z M-73.3,348.1l7.3-16.5l0.9,0.4l-7.3,16.5L-73.3,348.1z
	 M-76.8,346.7l6.2-17l0.9,0.3l-6.2,17L-76.8,346.7z M-80.3,345.5l5-17.3l1,0.3l-5,17.3L-80.3,345.5z M-83.8,344.6l3.7-17.7l1,0.2
	l-3.7,17.7L-83.8,344.6z M-87.4,344l2.5-17.9l1,0.1l-2.5,17.9L-87.4,344z M-91,343.6l1.3-18l1,0.1l-1.3,18L-91,343.6z M-94.8,325.4
	h1v18h-1V325.4z M-99.8,325.6l1-0.1l1.3,18l-1,0.1L-99.8,325.6z M-104.6,326.1l1-0.1l2.5,17.9l-1,0.1L-104.6,326.1z M-109.4,326.9
	l1-0.2l3.7,17.7l-1,0.2L-109.4,326.9z M-109.3,345.5l-5-17.3l1-0.3l5,17.3L-109.3,345.5z M-112.8,346.6l-6.2-17l0.9-0.3l6.2,17
	L-112.8,346.6z M-116.3,348l-7.3-16.5l0.9-0.4l7.3,16.5L-116.3,348z M-119.5,349.6l-8.5-15.9l0.9-0.5l8.5,15.9L-119.5,349.6z
	 M-122.8,351.5l-9.5-15.3l0.8-0.5l9.5,15.3L-122.8,351.5z M-125.8,353.5l-10.6-14.6l0.8-0.6l10.6,14.6L-125.8,353.5z M-128.6,355.8
	l-11.6-13.8l0.8-0.6l11.6,13.8L-128.6,355.8z M-131.4,358.2l-12.5-13l0.7-0.7l12.5,13L-131.4,358.2z M-133.9,360.9l-13.4-12.1
	l0.7-0.7l13.4,12.1L-133.9,360.9z M-136.3,363.7l-14.2-11.1l0.6-0.8l14.2,11.1L-136.3,363.7z M-138.5,366.7l-14.9-10.1l0.6-0.8
	l14.9,10.1L-138.5,366.7z M-140.4,369.8l-15.6-9l0.5-0.9l15.6,9L-140.4,369.8z M-142.3,373.1l-16.2-7.9l0.4-0.9l16.2,7.9
	L-142.3,373.1z M-143.8,376.5l-16.7-6.8l0.4-0.9l16.7,6.8L-143.8,376.5z M-144.9,379.9l-17.1-5.6l0.3-1l17.1,5.6L-144.9,379.9z
	 M-145.9,383.5l-17.5-4.4l0.2-1l17.5,4.4L-145.9,383.5z M-146.8,387.1l-17.7-3.1l0.2-1l17.7,3.1L-146.8,387.1z M-147.3,390.7
	l-17.9-1.9l0.1-1l17.9,1.9L-147.3,390.7z M-147.5,394.4l-18-0.6v-1l18,0.6V394.4z"/>
<g>
	<g>
		<g>
			<g>
				<g>
					<g>
						<g>
							<g>
								<defs>
									<rect id="SVGID_1_" x="-110.5" y="376.5" width="40" height="49.9"/>
								</defs>
								<clipPath id="SVGID_2_">
									<use xlink:href="#SVGID_1_"  style="overflow:visible;"/>
								</clipPath>
								<path class="st4" d="M-75.3,393.4l1.3-1.3l0.6,0.6c0.3,0.3,0.7,0.5,1.1,0.5s0.8-0.2,1.1-0.5c0.6-0.6,0.6-1.6,0-2.3l-3.5-3.5
									c-0.6-0.6-1.6-0.6-2.3,0c-0.6,0.6-0.6,1.6,0,2.3l0.6,0.6l-1.3,1.3c-2.2-1.9-4.9-3.3-7.8-4.1c0.9-1.1,1.4-2.5,1.4-4
									c0-3.6-2.9-6.6-6.6-6.6c-3.6,0-6.6,2.9-6.6,6.6c0,1.5,0.5,2.9,1.4,4c-2.9,0.8-5.6,2.2-7.8,4.1l-1.3-1.3l0.6-0.6
									c0.6-0.6,0.6-1.6,0-2.3c-0.6-0.6-1.6-0.6-2.3,0l-3.5,3.5c-0.6,0.6-0.6,1.6,0,2.3c0.3,0.3,0.7,0.5,1.1,0.5s0.8-0.2,1.1-0.5
									l0.6-0.6l1.3,1.3c-3,3.5-4.8,8-4.8,13c0,11,9,20,20,20s20-9,20-20C-70.5,401.5-72.3,396.9-75.3,393.4 M-93.9,383
									c0-1.9,1.5-3.4,3.4-3.4s3.4,1.5,3.4,3.4s-1.5,3.4-3.4,3.4S-93.9,384.9-93.9,383 M-90.5,423.2c-9.3,0-16.8-7.5-16.8-16.8
									s7.5-16.8,16.8-16.8s16.8,7.5,16.8,16.8C-73.8,415.7-81.3,423.2-90.5,423.2"/>
							</g>
						</g>
					</g>
				</g>
			</g>
		</g>
	</g>
	<g>
		<g>
			<g>
				<g>
					<g>
						<g>
							<g>
								<defs>
									<rect id="SVGID_3_" x="-110.5" y="376.5" width="40" height="49.9"/>
								</defs>
								<clipPath id="SVGID_4_">
									<use xlink:href="#SVGID_3_"  style="overflow:visible;"/>
								</clipPath>
								<path class="st5" d="M-90.5,392.9c-0.9,0-1.6,0.7-1.6,1.6v11.9c0,0.9,0.7,1.6,1.6,1.6s1.6-0.7,1.6-1.6v-11.9
									C-88.9,393.6-89.6,392.9-90.5,392.9"/>
							</g>
						</g>
					</g>
				</g>
			</g>
		</g>
	</g>
</g>
<g class="st6">
	<path class="st7" d="M-53,328.9c0.7,0.4,1.6,0.7,2.7,0.7c1.5,0,2.4-0.8,2.4-2c0-1.1-0.6-1.7-2.2-2.3c-1.9-0.7-3-1.6-3-3.2
		c0-1.8,1.5-3.1,3.7-3.1c1.2,0,2,0.3,2.5,0.6l-0.4,1.2c-0.4-0.2-1.1-0.5-2.2-0.5c-1.6,0-2.2,0.9-2.2,1.7c0,1.1,0.7,1.6,2.3,2.2
		c1.9,0.7,2.9,1.7,2.9,3.4c0,1.8-1.3,3.3-4,3.3c-1.1,0-2.3-0.3-2.9-0.7L-53,328.9z"/>
	<path class="st7" d="M-34.6,324.9c0,3.9-2.4,6-5.3,6c-3,0-5.2-2.3-5.2-5.8c0-3.6,2.3-6,5.3-6C-36.6,319.1-34.6,321.5-34.6,324.9z
		 M-43.5,325c0,2.4,1.3,4.6,3.7,4.6c2.3,0,3.7-2.2,3.7-4.8c0-2.3-1.2-4.7-3.7-4.7C-42.3,320.3-43.5,322.5-43.5,325z"/>
	<path class="st7" d="M-24.8,330.3c-0.5,0.3-1.6,0.5-3,0.5c-3.2,0-5.7-2-5.7-5.8c0-3.6,2.4-6,6-6c1.4,0,2.3,0.3,2.7,0.5l-0.4,1.2
		c-0.6-0.3-1.4-0.5-2.3-0.5c-2.7,0-4.5,1.7-4.5,4.7c0,2.8,1.6,4.6,4.4,4.6c0.9,0,1.8-0.2,2.4-0.5L-24.8,330.3z"/>
	<path class="st7" d="M-21.3,319.2v11.5h-1.5v-11.5H-21.3z"/>
	<path class="st7" d="M-16.9,327.1l-1.2,3.6h-1.5l3.9-11.5h1.8l3.9,11.5h-1.6l-1.2-3.6H-16.9z M-13.1,325.9l-1.1-3.3
		c-0.3-0.7-0.4-1.4-0.6-2.1l0,0c-0.2,0.7-0.4,1.4-0.6,2.1l-1.1,3.3H-13.1z"/>
	<path class="st7" d="M-8.3,319.2h1.5v10.2h4.9v1.2h-6.4V319.2z"/>
	<path class="st7" d="M1.2,319.2v11.5h-1.5v-11.5H1.2z"/>
	<path class="st7" d="M3,329.8l6.4-9.3v-0.1H3.6v-1.2h7.7v0.9l-6.3,9.3v0.1h6.4v1.2H2.9L3,329.8L3,329.8z"/>
	<path class="st7" d="M14.6,319.2v11.5h-1.5v-11.5H14.6z"/>
	<path class="st7" d="M17.2,330.7v-11.5h1.6l3.7,5.8c0.9,1.3,1.5,2.5,2.1,3.7l0,0c-0.1-1.5-0.2-2.9-0.2-4.7v-4.8h1.4v11.5h-1.5
		l-3.6-5.8c-0.8-1.3-1.6-2.6-2.1-3.8h-0.1c0.1,1.4,0.1,2.8,0.1,4.7v4.9L17.2,330.7L17.2,330.7z"/>
	<path class="st7" d="M37.1,330.2c-0.7,0.2-2,0.6-3.5,0.6c-1.7,0-3.2-0.4-4.3-1.5c-1-1-1.6-2.5-1.6-4.3c0-3.4,2.4-5.9,6.2-5.9
		c1.3,0,2.4,0.3,2.9,0.5l-0.4,1.2c-0.6-0.3-1.4-0.5-2.5-0.5c-2.8,0-4.6,1.7-4.6,4.6s1.8,4.6,4.4,4.6c1,0,1.6-0.1,2-0.3v-3.4h-2.3
		v-1.2h3.8L37.1,330.2L37.1,330.2z"/>
</g>
<g class="st6">
	<path class="st7" d="M-191.1,457.1h1.5v10.2h4.9v1.2h-6.4V457.1z"/>
	<path class="st7" d="M-181.6,457.1v11.5h-1.5v-11.5H-181.6z"/>
	<path class="st7" d="M-179,468.6v-11.5h1.6l3.7,5.8c0.9,1.3,1.5,2.5,2.1,3.7l0,0c-0.1-1.5-0.2-2.9-0.2-4.7v-4.8h1.4v11.5h-1.5
		l-3.6-5.8c-0.8-1.3-1.6-2.6-2.1-3.8h-0.1c0.1,1.4,0.1,2.8,0.1,4.7v4.9L-179,468.6L-179,468.6z"/>
	<path class="st7" d="M-167.8,457.1h1.5v5.5h0.1c0.3-0.4,0.6-0.8,0.9-1.2l3.5-4.3h1.8l-4.1,4.9l4.5,6.6h-1.8l-3.8-5.6l-1.1,1.3v4.4
		h-1.5V457.1z"/>
</g>
</svg>
