<?xml version="1.0" encoding="utf-8"?>
<!-- Generator: Adobe Illustrator 19.0.0, SVG Export Plug-In . SVG Version: 6.00 Build 0)  -->
<svg version="1.1" id="图层_1" xmlns="http://www.w3.org/2000/svg" xmlns:xlink="http://www.w3.org/1999/xlink" x="0px" y="0px"
	 viewBox="-191 318 228 158" style="enable-background:new -191 318 228 158;" xml:space="preserve">
<style type="text/css">
	.st0{opacity:0.6;fill:#FFFFFF;enable-background:new    ;}
	.st1{fill:url(#circle-1_2_);}
	.st2{fill:none;stroke:#FFFFFF;}
	.st3{opacity:0.2;fill:#FFFFFF;enable-background:new    ;}
	.st4{clip-path:url(#SVGID_2_);fill:#FFFFFF;}
	.st5{clip-path:url(#SVGID_4_);fill:#FFFFFF;}
	.st6{clip-path:url(#SVGID_6_);fill:#FFFFFF;}
	.st7{enable-background:new    ;}
	.st8{fill:#808080;}
</style>
<g>
	<rect x="-49.7" y="365.2" class="st0" width="50" height="1"/>
	<rect x="0.3" y="336.2" class="st0" width="1" height="30"/>
	<rect x="-166.7" y="418.2" class="st0" width="50" height="1"/>
	<rect x="-167.7" y="418.2" class="st0" width="1" height="30"/>
	<g>
		
			<linearGradient id="circle-1_2_" gradientUnits="userSpaceOnUse" x1="-82.7001" y1="888.2001" x2="-82.7001" y2="784.2001" gradientTransform="matrix(1 0 0 1 0 -436)">
			<stop  offset="0" style="stop-color:#0B79A3"/>
			<stop  offset="1" style="stop-color:#0C7BA4"/>
		</linearGradient>
		<circle id="circle-1" class="st1" cx="-82.7" cy="400.2" r="52"/>
	</g>
	<g>
		<circle id="circle-1_1_" class="st2" cx="-82.7" cy="400.2" r="52"/>
	</g>
	<circle class="st2" cx="-82.2" cy="400.7" r="47.5"/>
	<path class="st3" d="M-9.8,407.7l-18-0.6v-1l18,0.6V407.7z M-10.2,412.6l-17.9-1.9l0.1-1l17.9,1.9L-10.2,412.6z M-11,417.5
		l-17.7-3.1l0.2-1l17.7,3.1L-11,417.5z M-12.1,422.3l-17.5-4.4l0.2-1l17.5,4.4L-12.1,422.3z M-13.5,427l-17.1-5.6l0.3-1l17.1,5.6
		L-13.5,427z M-15.2,431.6l-16.7-6.7l0.4-0.9l16.7,6.7L-15.2,431.6z M-17.3,436.1l-16.2-7.9l0.4-0.9l16.2,7.9L-17.3,436.1z
		 M-19.7,440.4l-15.6-9l0.5-0.9l15.6,9L-19.7,440.4z M-22.4,444.6l-14.9-10.1l0.6-0.8l14.9,10.1L-22.4,444.6z M-25.4,448.5
		l-14.2-11.1l0.6-0.8l14.2,11.1L-25.4,448.5z M-28.6,452.2l-13.4-12l0.7-0.7l13.4,12L-28.6,452.2z M-32.1,455.7l-12.5-12.9l0.7-0.7
		l12.5,12.9L-32.1,455.7z M-35.8,459l-11.6-13.8l0.8-0.6l11.6,13.8L-35.8,459z M-39.7,462l-10.6-14.6l0.8-0.6l10.6,14.6L-39.7,462z
		 M-43.9,464.7l-9.5-15.3l0.8-0.5l9.5,15.3L-43.9,464.7z M-48.2,467.1l-8.5-15.9l0.9-0.5l8.5,15.9L-48.2,467.1z M-52.6,469.2
		l-7.3-16.4l0.9-0.4l7.3,16.4L-52.6,469.2z M-57.2,471l-6.2-16.9l0.9-0.3l6.2,16.9L-57.2,471z M-62,472.4l-5-17.3l1-0.3l5,17.3
		L-62,472.4z M-66.8,473.5l-3.7-17.6l1-0.2l3.7,17.6L-66.8,473.5z M-74.1,456.5l1-0.1l2.5,17.8l-1,0.1L-74.1,456.5z M-77.8,456.8
		l1-0.1l1.3,18l-1,0.1L-77.8,456.8z M-81.5,456.8h1v18h-1V456.8z M-86.4,474.6l1.3-18l1,0.1l-1.3,18L-86.4,474.6z M-91.3,474
		l2.5-17.8l1,0.1l-2.5,17.8L-91.3,474z M-96.2,473.1l3.7-17.6l1,0.2l-3.7,17.6L-96.2,473.1z M-100.9,471.8l5-17.3l1,0.3l-5,17.3
		L-100.9,471.8z M-105.6,470.2l6.2-16.9l0.9,0.3l-6.2,16.9L-105.6,470.2z M-110.2,468.3l7.3-16.4l0.9,0.4l-7.3,16.4L-110.2,468.3z
		 M-114.6,466.1l8.5-15.9l0.9,0.5l-8.5,15.9L-114.6,466.1z"/>
	<path class="st3" d="M-61.2,349.5l8.5-15.9l0.9,0.5l-8.5,15.9L-61.2,349.5z M-64.5,347.9l7.3-16.5l0.9,0.4l-7.3,16.5L-64.5,347.9z
		 M-67.9,346.5l6.2-17l0.9,0.3l-6.2,17L-67.9,346.5z M-71.4,345.3l5-17.3l1,0.3l-5,17.3L-71.4,345.3z M-75,344.4l3.7-17.7l1,0.2
		l-3.7,17.7L-75,344.4z M-78.6,343.8l2.5-17.9l1,0.1l-2.5,17.9L-78.6,343.8z M-82.2,343.4l1.3-18l1,0.1l-1.3,18L-82.2,343.4z
		 M-85.9,325.2h1v18h-1V325.2z M-90.9,325.4l1-0.1l1.3,18l-1,0.1L-90.9,325.4z M-95.8,325.9l1-0.1l2.5,17.9l-1,0.1L-95.8,325.9z
		 M-100.6,326.7l1-0.2l3.7,17.7l-1,0.2L-100.6,326.7z M-100.5,345.3l-5-17.3l1-0.3l5,17.3L-100.5,345.3z M-104,346.4l-6.2-17
		l0.9-0.3l6.2,17L-104,346.4z M-107.4,347.8l-7.3-16.5l0.9-0.4l7.3,16.5L-107.4,347.8z M-110.7,349.4l-8.5-15.9l0.9-0.5l8.5,15.9
		L-110.7,349.4z M-113.9,351.3l-9.5-15.3l0.8-0.5l9.5,15.3L-113.9,351.3z M-116.9,353.3l-10.6-14.6l0.8-0.6l10.6,14.6L-116.9,353.3z
		 M-119.8,355.6l-11.6-13.8l0.8-0.6L-119,355L-119.8,355.6z M-122.6,358l-12.5-13l0.7-0.7l12.5,13L-122.6,358z M-125.1,360.7
		l-13.4-12.1l0.7-0.7l13.4,12.1L-125.1,360.7z M-127.5,363.5l-14.2-11.1l0.6-0.8l14.2,11.1L-127.5,363.5z M-129.7,366.5l-14.9-10.1
		l0.6-0.8l14.9,10.1L-129.7,366.5z M-131.6,369.6l-15.6-9l0.5-0.9l15.6,9L-131.6,369.6z M-133.4,372.9l-16.2-7.9l0.4-0.9l16.2,7.9
		L-133.4,372.9z M-134.9,376.3l-16.7-6.8l0.4-0.9l16.7,6.8L-134.9,376.3z M-136.1,379.7l-17.1-5.6l0.3-1l17.1,5.6L-136.1,379.7z
		 M-137.1,383.3l-17.5-4.4l0.2-1l17.5,4.4L-137.1,383.3z M-137.9,386.9l-17.7-3.1l0.2-1l17.7,3.1L-137.9,386.9z M-138.4,390.5
		l-17.9-1.9l0.1-1l17.9,1.9L-138.4,390.5z M-138.7,394.2l-18-0.6v-1l18,0.6V394.2z"/>
</g>
<g>
	<g>
		<g>
			<g>
				<g>
					<g>
						<g>
							<g>
								<defs>
									<rect id="SVGID_1_" x="-108.2" y="371.9" width="50" height="56.2"/>
								</defs>
								<clipPath id="SVGID_2_">
									<use xlink:href="#SVGID_1_"  style="overflow:visible;"/>
								</clipPath>
								<path class="st4" d="M-58.6,393c-0.7-4.7-2.4-8.9-5-12.5c-1.6-2.2-4.7-4.4-8.5-5.9c-4.1-1.7-8.6-2.6-12.9-2.6
									c-4.7,0-8.9,1.1-12.4,3.2c-4.1,2.5-7.3,6.3-9.3,11.3c-3.6,9,0.4,18.5,0.9,19.5c0.1,0.2,0.3,0.4,0.5,0.6l34.8,18.5
									c0.2,0.1,0.4,0.1,0.6,0.1s0.4-0.1,0.6-0.2c3.6-2.2,6.9-7.3,8.9-13.5c0,0,0,0,0-0.1l0,0c0.6-1.7,1.1-3.5,1.4-5.4
									C-58.1,401.6-58,397.1-58.6,393 M-70,422.7l-33.8-18c-0.4-0.9-1.2-3.2-1.7-6.2c-0.7-4.1-0.3-7.9,1-11.1
									c1.8-4.6,4.6-8,8.3-10.2c3.2-1.9,7-2.9,11.2-2.9c3.9,0,8.2,0.9,12,2.5c3.4,1.4,6.1,3.3,7.5,5.2c1.8,2.4,3.1,5.1,3.9,8.2
									c-1.7-0.2-4.4-0.7-7.6-1.3c-6.8-1.3-12.5-2.8-16.3-4.5l0,0c-0.7-0.3-1.4-0.5-2.2-0.5c-3.1,0-5.6,2.5-5.6,5.6l0,0l0,0l0,0
									c0,0.3,0,6.9,1.7,10.3c0.6,1.2,2.9,3.1,15.9,7.7c5.4,1.9,10.7,3.7,12.9,4.4C-64.7,416.7-67.3,420.7-70,422.7 M-84.6,389.5
									c0,1.8-1.5,3.3-3.3,3.3s-3.3-1.5-3.3-3.3s1.5-3.3,3.3-3.3C-86,386.2-84.6,387.7-84.6,389.5 M-61.2,405.7
									c-0.3,1.4-0.6,2.7-1,4c-2.2-0.7-7.4-2.4-12.7-4.3c-4.1-1.5-7.4-2.8-9.9-3.9c-4.2-1.9-4.8-2.7-4.9-2.8
									c-0.6-1.2-0.9-2.9-1.1-4.5c0.9,0.5,1.9,0.8,3,0.8c3.1,0,5.6-2.5,5.6-5.6c0-0.5-0.1-1-0.2-1.5c8.2,2.7,18.4,4.1,21.4,4.5
									c0.1,0.3,0.1,0.6,0.1,0.8C-60.3,397.2-60.4,401.5-61.2,405.7"/>
							</g>
						</g>
					</g>
				</g>
			</g>
		</g>
	</g>
	<g>
		<g>
			<g>
				<g>
					<g>
						<g>
							<g>
								<defs>
									<rect id="SVGID_3_" x="-108.2" y="371.9" width="50" height="56.2"/>
								</defs>
								<clipPath id="SVGID_4_">
									<use xlink:href="#SVGID_3_"  style="overflow:visible;"/>
								</clipPath>
								<path class="st5" d="M-62.1,394.1c-0.1-0.6-0.6-1.1-1.3-1.1c-0.6,0.1-1.1,0.6-1.1,1.3c0,0.1,0.6,7-1,11.7
									c-0.2,0.6,0.1,1.3,0.7,1.5c0.1,0,0.3,0.1,0.4,0.1c0.5,0,0.9-0.3,1.1-0.8C-61.4,401.6-62.1,394.4-62.1,394.1"/>
							</g>
						</g>
					</g>
				</g>
			</g>
		</g>
	</g>
	<g>
		<g>
			<g>
				<g>
					<g>
						<g>
							<g>
								<defs>
									<rect id="SVGID_5_" x="-108.2" y="371.9" width="50" height="56.2"/>
								</defs>
								<clipPath id="SVGID_6_">
									<use xlink:href="#SVGID_5_"  style="overflow:visible;"/>
								</clipPath>
								<path class="st6" d="M-72.2,425.9l-33.8-18c-0.6-0.3-1.3-0.1-1.6,0.5c-0.3,0.6-0.1,1.3,0.5,1.6l33.8,18
									c0.2,0.1,0.4,0.1,0.5,0.1c0.4,0,0.8-0.2,1-0.6C-71.4,426.9-71.7,426.2-72.2,425.9"/>
							</g>
						</g>
					</g>
				</g>
			</g>
		</g>
	</g>
</g>
<g class="st7">
	<path class="st8" d="M-191.2,457.9c0.7-0.2,1.8-0.2,2.8-0.2c1.6,0,2.6,0.3,3.3,0.9c0.6,0.5,0.9,1.3,0.9,2.2c0,1.5-1,2.5-2.2,2.9
		v0.1c0.9,0.3,1.4,1.1,1.7,2.3c0.4,1.6,0.6,2.7,0.9,3.1h-1.5c-0.2-0.3-0.4-1.3-0.8-2.7c-0.3-1.6-1-2.2-2.3-2.2h-1.4v5h-1.5
		L-191.2,457.9L-191.2,457.9z M-189.7,463.1h1.5c1.6,0,2.6-0.9,2.6-2.2c0-1.5-1.1-2.1-2.6-2.1c-0.7,0-1.2,0.1-1.5,0.1V463.1z"/>
	<path class="st8" d="M-172.2,463.4c0,3.9-2.4,6-5.3,6c-3,0-5.2-2.3-5.2-5.8c0-3.6,2.3-6,5.3-6C-174.2,457.6-172.2,460-172.2,463.4z
		 M-181.1,463.5c0,2.4,1.3,4.6,3.7,4.6c2.3,0,3.7-2.2,3.7-4.8c0-2.3-1.2-4.7-3.7-4.7C-179.9,458.8-181.1,461-181.1,463.5z"/>
	<path class="st8" d="M-170.3,457.9c0.6-0.1,1.7-0.2,2.7-0.2c1.5,0,2.4,0.3,3.1,0.8c0.6,0.4,1,1.1,1,2c0,1.1-0.7,2.1-1.9,2.5l0,0
		c1.1,0.3,2.4,1.2,2.4,2.9c0,1-0.4,1.7-1,2.3c-0.8,0.7-2.1,1.1-4,1.1c-1,0-1.8-0.1-2.3-0.1L-170.3,457.9L-170.3,457.9z
		 M-168.8,462.6h1.3c1.6,0,2.5-0.8,2.5-1.9c0-1.3-1-1.9-2.5-1.9c-0.7,0-1.1,0.1-1.3,0.1V462.6z M-168.8,468.1
		c0.3,0.1,0.7,0.1,1.2,0.1c1.5,0,2.9-0.6,2.9-2.2s-1.3-2.2-3-2.2h-1.2L-168.8,468.1L-168.8,468.1z"/>
	<path class="st8" d="M-151.3,463.4c0,3.9-2.4,6-5.3,6c-3,0-5.2-2.3-5.2-5.8c0-3.6,2.3-6,5.3-6C-153.3,457.6-151.3,460-151.3,463.4z
		 M-160.2,463.5c0,2.4,1.3,4.6,3.7,4.6c2.3,0,3.7-2.2,3.7-4.8c0-2.3-1.2-4.7-3.7-4.7C-158.9,458.8-160.2,461-160.2,463.5z"/>
	<path class="st8" d="M-147.6,459h-3.5v-1.3h8.5v1.3h-3.5v10.2h-1.5V459z"/>
</g>
<g class="st7">
	<path class="st8" d="M-34,319.6c0.9-0.1,2-0.2,3.1-0.2c2.1,0,3.6,0.5,4.6,1.4s1.6,2.3,1.6,4.1c0,1.9-0.6,3.4-1.6,4.5
		c-1.1,1.1-2.8,1.6-5.1,1.6c-1.1,0-1.9-0.1-2.7-0.1L-34,319.6L-34,319.6z M-32.5,329.7c0.4,0.1,0.9,0.1,1.5,0.1
		c3.2,0,4.9-1.8,4.9-4.9c0-2.7-1.5-4.4-4.6-4.4c-0.8,0-1.3,0.1-1.7,0.2v9H-32.5z"/>
	<path class="st8" d="M-16.8,325.5h-4.5v4.1h5v1.2h-6.4v-11.5h6.2v1.2h-4.7v3.6h4.5L-16.8,325.5L-16.8,325.5z"/>
	<path class="st8" d="M-8.4,325.5h-4.5v4.1h5v1.2h-6.4v-11.5h6.2v1.2h-4.7v3.6h4.5L-8.4,325.5L-8.4,325.5z"/>
	<path class="st8" d="M-6,319.6c0.7-0.1,1.6-0.2,2.8-0.2c1.5,0,2.5,0.3,3.2,1c0.6,0.5,1,1.4,1,2.4s-0.3,1.9-0.9,2.4
		c-0.8,0.8-2.1,1.3-3.5,1.3c-0.4,0-0.8,0-1.2-0.1v4.6h-1.5L-6,319.6L-6,319.6z M-4.5,325.1c0.3,0.1,0.7,0.1,1.2,0.1
		c1.8,0,2.9-0.9,2.9-2.4s-1.1-2.2-2.7-2.2c-0.6,0-1.1,0.1-1.4,0.1V325.1z"/>
	<path class="st8" d="M3.1,330.9v-11.5h1.6l3.7,5.8c0.9,1.3,1.5,2.5,2.1,3.7l0,0c-0.1-1.5-0.2-2.9-0.2-4.7v-4.8h1.4v11.5h-1.5
		l-3.6-5.8c-0.8-1.3-1.6-2.6-2.1-3.8H4.4c0.1,1.4,0.1,2.8,0.1,4.7v4.9L3.1,330.9L3.1,330.9z"/>
	<path class="st8" d="M20.2,325.5h-4.5v4.1h5v1.2h-6.4v-11.5h6.2v1.2h-4.7v3.6h4.5L20.2,325.5L20.2,325.5z"/>
	<path class="st8" d="M22.4,329.1c0.7,0.4,1.6,0.7,2.7,0.7c1.5,0,2.4-0.8,2.4-2c0-1.1-0.6-1.7-2.2-2.3c-1.9-0.7-3-1.6-3-3.2
		c0-1.8,1.5-3.1,3.7-3.1c1.2,0,2,0.3,2.5,0.6l-0.4,1.2c-0.4-0.2-1.1-0.5-2.2-0.5c-1.6,0-2.2,0.9-2.2,1.7c0,1.1,0.7,1.6,2.3,2.2
		c1.9,0.7,2.9,1.7,2.9,3.4c0,1.8-1.3,3.3-4,3.3c-1.1,0-2.3-0.3-2.9-0.7L22.4,329.1z"/>
	<path class="st8" d="M30.8,329.1c0.7,0.4,1.6,0.7,2.7,0.7c1.5,0,2.4-0.8,2.4-2c0-1.1-0.6-1.7-2.2-2.3c-1.9-0.7-3-1.6-3-3.2
		c0-1.8,1.5-3.1,3.7-3.1c1.2,0,2,0.3,2.5,0.6l-0.4,1.2c-0.4-0.2-1.1-0.5-2.2-0.5c-1.6,0-2.2,0.9-2.2,1.7c0,1.1,0.7,1.6,2.3,2.2
		c1.9,0.7,2.9,1.7,2.9,3.4c0,1.8-1.3,3.3-4,3.3c-1.1,0-2.3-0.3-2.9-0.7L30.8,329.1z"/>
</g>
</svg>
