<?xml version="1.0" encoding="utf-8"?>
<!-- Generator: Adobe Illustrator 19.0.0, SVG Export Plug-In . SVG Version: 6.00 Build 0)  -->
<svg version="1.1" id="图层_1" xmlns="http://www.w3.org/2000/svg" xmlns:xlink="http://www.w3.org/1999/xlink" x="0px" y="0px"
	 viewBox="-696 -131 500 577" style="enable-background:new -696 -131 500 577;" xml:space="preserve">
<style type="text/css">
	.st0{fill:none;enable-background:new    ;}
	.st1{opacity:5.000000e-002;fill:#FFFFFF;enable-background:new    ;}
	.st2{fill:#27A1DA;}
	.st3{fill:#0178A1;}
</style>
<path class="st0" d="z"/>
<g>
	<path class="st1" d="M-446,409c131.7,0,238.5,8.3,238.5,18.5S-314.3,446-446,446s-238.5-8.3-238.5-18.5S-577.7,409-446,409z"/>
	<g>
		<g>
			<g>
				<path class="st2" d="M-616.6,127.5l95.5-162.1l0.2,0.4l77.3,162.1l-0.4,0L-616.6,127.5z M-521.2-33.5l-94.5,160.4l171.3,0.6
					L-521.2-33.5z"/>
			</g>
			<g>
				<path class="st2" d="M-444.1,128.2l-0.2-0.4l-77.3-162.2l0.4,0l165.7,18.5l-0.2,0.3L-444.1,128.2z M-520.7-33.7l76.7,161
					l87.7-142.6L-520.7-33.7z"/>
			</g>
			<g>
				<path class="st2" d="M-355.5-15.3l-0.4,0l-166-18.5l0.6-0.4l123.8-84.3l0.1,0.3L-355.5-15.3z M-520.4-34.2l164.2,18.3
					l-41.4-101.8L-520.4-34.2z"/>
			</g>
			<g>
				<path class="st2" d="M-521.2-33.7l-0.1-0.3l-35.9-72.8l0.4,0l160.2-11.7L-521.2-33.7z M-556.5-106.3l35.4,71.9l122.6-83.4
					L-556.5-106.3z"/>
			</g>
			<g>
				<path class="st2" d="M-556.8-106.3l-0.1-0.5l109-20.8l0,0l52.3,9.6L-556.8-106.3z M-447.9-127.1l-104.6,20l153-11.1
					L-447.9-127.1z"/>
			</g>
			<g>
				<path class="st2" d="M-274.5-10.1l-81.5-5.3l-0.1-0.1l-42-103.4L-274.5-10.1z M-355.7-15.9l79.8,5.2l-121-106.5L-355.7-15.9z"/>
			</g>
			<g>
				<path class="st2" d="M-274.7-9.3l-124.1-109.5l82.7,31.2l0,0.1L-274.7-9.3z M-396.4-117.4l120,105.9l-40-75.7L-396.4-117.4z"/>
			</g>
			<g>
				<path class="st2" d="M-275.3-10.1l-41.9-78.7l68.9,68.7L-275.3-10.1z M-315.2-86.1l40.1,75.4l25.9-9.6L-315.2-86.1z"/>
			</g>
			<g>
				<path class="st2" d="M-226.8,15l-49.1-25.4l27.2-10.1L-226.8,15z M-274.6-10.4l46.5,24.1l-20.7-33.6L-274.6-10.4z"/>
			</g>
			<g>
				<path class="st2" d="M-262.9,130.3l-0.5,0l-181.1-2.4l0.2-0.4l88.4-143.7l0.2,0.3L-262.9,130.3z M-443.6,127.5l179.7,2.3
					l-92-144.9L-443.6,127.5z"/>
			</g>
			<g>
				<path class="st2" d="M-369.2,289.5l-0.2-0.4l-75.1-161.7l181.5,2.4l-0.2,0.4L-369.2,289.5z M-443.6,128l74.5,160.5l105.3-158.2
					L-443.6,128z"/>
			</g>
			<g>
				<path class="st2" d="M-525.7,266.5l-0.2-0.4L-616.6,127l0.4,0l172.6,0.7l-0.2,0.4L-525.7,266.5z M-615.7,127.4l89.9,138.1
					l81.3-137.3L-615.7,127.4z"/>
			</g>
			<g>
				<path class="st2" d="M-629.1,272l0-0.3l12.7-145.3l0.4,0.6l90.7,139.2l-0.4,0L-629.1,272z M-616,128l-12.6,143.5l102.4-5.7
					L-616,128z"/>
			</g>
			<g>
				<path class="st2" d="M-488.4,357l-141.3-85.5l0.8,0l103.3-5.8l0.1,0.2L-488.4,357z M-628,272l138.6,83.8l-36.5-89.5L-628,272z"
					/>
			</g>
			<g>
				<path class="st2" d="M-487,357.3l-79.2-24.9l-64.4-62L-487,357.3z M-565.9,332l75.1,23.6L-627,273.1L-565.9,332z"/>
			</g>
			<g>
				<path class="st2" d="M-627.8,273.4l-30.6-37.9l-35.7-108.3l0.5-0.2L-627.8,273.4z M-658,235.4l28.1,34.7l-62.3-138.4L-658,235.4
					z"/>
			</g>
			<g>
				<path class="st2" d="M-447.9,362.4L-447.9,362.4l-43.2-6.1l150.2-12.3l0.1,0.5L-447.9,362.4z M-486.6,356.5l38.7,5.4l101.1-16.9
					L-486.6,356.5z"/>
			</g>
			<g>
				<path class="st2" d="M-489,356.8l-37.1-91.1l0.4,0.1l157.3,23.1l-0.6,0.4L-489,356.8z M-525.3,266.3l36.6,89.7l118.9-66.9
					L-525.3,266.3z"/>
			</g>
			<g>
				<path class="st2" d="M-490,356.8l1-0.6l120-67.5l0.1,0.2l28.4,55.6l-0.4,0L-490,356.8z M-369.2,289.4l-118.6,66.7l146.5-12
					L-369.2,289.4z"/>
			</g>
			<g>
				<path class="st2" d="M-341,344.7l-0.2-0.3l-28.4-55.3l0.3-0.1l121.3-33.9l-0.7,0.7L-341,344.7z M-368.8,289.5l27.9,54.4
					l91.2-87.8L-368.8,289.5z"/>
			</g>
			<g>
				<path class="st2" d="M-628.7,272.7L-694.3,127h78.4l0,0.3L-628.7,272.7z M-693.5,127.5l64.5,143.3l12.6-143.3H-693.5z"/>
			</g>
			<g>
				<path class="st2" d="M-650.7,2.1l0.5-0.6l93.3-108.5l0.2,0.3l35.8,72.8L-650.7,2.1z M-556.9-106.1L-649.2,1.2l127.7-35.4
					L-556.9-106.1z"/>
			</g>
			<g>
				<path class="st2" d="M-615.8,127.5h-78.4l0.1-0.3l44.2-126.3L-615.8,127.5z M-693.6,127h77.1L-650,2.5L-693.6,127z"/>
			</g>
			<g>
				<path class="st2" d="M-693.7,127.3l-0.5-0.1l25.9-106l0,0l18.9-20.5L-693.7,127.3z M-667.8,21.4l-24.7,100.9l41.9-119.5
					L-667.8,21.4z"/>
			</g>
			<g>
				<path class="st2" d="M-668.9,22.6l13.7-28.8l98.2-100.5l0.4,0.3L-649.8,1.8L-668.9,22.6z M-654.8-5.9L-667,19.9l16.9-18.4
					l87.9-102.2L-654.8-5.9z"/>
			</g>
			<g>
				<path class="st2" d="M-616.2,127.8l-0.2-0.6L-650.2,1.5l0.2-0.1l129.4-35.9l-0.3,0.5L-616.2,127.8z M-649.6,1.8l33.6,124.7
					l94.4-160.2L-649.6,1.8z"/>
			</g>
			<g>
				<path class="st2" d="M-368.7,289.3l-0.5-0.1l-157-23.1l0.2-0.3l82-138.5l0.2,0.5L-368.7,289.3z M-525.4,265.8l155.8,22.9
					L-444,128.5L-525.4,265.8z"/>
			</g>
			<g>
				<path class="st2" d="M-369.7,289.5l0.4-0.6L-263.2,130l0.1,0.7l14.7,125.2l-0.2,0.1L-369.7,289.5z M-263.5,131.4l-105,157.3
					l119.5-33.2L-263.5,131.4z"/>
			</g>
			<g>
				<path class="st2" d="M-248.9,256.6l-14.8-126.8l65.2,1.8l0.1,0.3L-248.9,256.6z M-263.1,130.3l14.5,124.3l49.6-122.6
					L-263.1,130.3z"/>
			</g>
			<g>
				<path class="st2" d="M-263,131.7l-0.5-0.9l-92.7-146.7l81.3,5.2l0,0.2L-263,131.7z M-355.4-15.3l91.7,145l-11.7-139.9
					L-355.4-15.3z"/>
			</g>
			<g>
				<path class="st2" d="M-198.6,132.1l-65-1.8l-12-141.9L-198.6,132.1z M-263.1,129.8l64.1,1.8L-274.9-9.3L-263.1,129.8z"/>
			</g>
			<g>
				<path class="st2" d="M-198.4,131.9l-0.5,0l-77-143l48.6,25.2l0,0.1L-198.4,131.9z M-274.6-9.8l75.3,139.8l-28.3-115.5
					L-274.6-9.8z"/>
			</g>
		</g>
		<g>
			<g>
				
					<rect x="-575.4" y="-108.5" transform="matrix(0.9674 0.2534 -0.2534 0.9674 -28.0915 144.5596)" class="st2" width="0.5" height="143.4"/>
				
					<rect x="-495.5" y="-166.6" transform="matrix(0.6059 0.7955 -0.7955 0.6059 -229.2506 377.1237)" class="st2" width="0.5" height="247.5"/>
				
					<rect x="-601.7" y="58.8" transform="matrix(0.8239 0.5667 -0.5667 0.8239 -64.2165 324.8517)" class="st2" width="93.6" height="0.5"/>
				
					<rect x="-466.4" y="-10.1" transform="matrix(0.5673 0.8235 -0.8235 0.5673 -159.7734 405.9218)" class="st2" width="0.5" height="122"/>
				
					<rect x="-406.8" y="-118.9" transform="matrix(0.99 0.1409 -0.1409 0.99 -11.238 56.7611)" class="st2" width="0.5" height="135.8"/>
				
					<rect x="-579.7" y="-45.2" transform="matrix(0.7551 0.6556 -0.6556 0.7551 -148.5696 307.9057)" class="st2" width="186.6" height="0.5"/>
				
					<rect x="-461.5" y="82.9" transform="matrix(0.3669 0.9302 -0.9302 0.3669 -169.2906 415.0707)" class="st2" width="143.9" height="0.5"/>
				
					<rect x="-522.8" y="117.6" transform="matrix(0.9216 0.3881 -0.3881 0.9216 11.2656 179.8885)" class="st2" width="166.1" height="0.5"/>
				
					<rect x="-523.9" y="85.1" transform="matrix(0.9901 0.1403 -0.1403 0.9901 14.1085 74.8359)" class="st2" width="0.5" height="104.8"/>
				
					<rect x="-447.4" y="83.5" transform="matrix(0.2269 0.9739 -0.9739 0.2269 -180.4021 566.6827)" class="st2" width="0.5" height="172.4"/>
				
					<rect x="-643.9" y="10.9" transform="matrix(0.6833 0.7301 -0.7301 0.6833 -145.4688 495.2487)" class="st2" width="0.5" height="138.1"/>
				
					<rect x="-646.6" y="110.7" transform="matrix(0.3696 0.9292 -0.9292 0.3696 -251.3358 592.3826)" class="st2" width="168.7" height="0.5"/>
				
					<rect x="-417.4" y="28.9" transform="matrix(0.9779 0.2092 -0.2092 0.9779 -1.7691 75.032)" class="st2" width="123.5" height="0.5"/>
				
					<rect x="-329.5" y="32.3" transform="matrix(0.8473 0.531 -0.531 0.8473 0.7592 189.4983)" class="st2" width="0.5" height="127.6"/>
				
					<rect x="-441.2" y="-38.3" transform="matrix(0.5364 0.844 -0.844 0.5364 -192.6298 274.5111)" class="st2" width="190" height="0.5"/>
				
					<rect x="-285.4" y="-12.3" transform="matrix(0.9332 0.3593 -0.3593 0.9332 -13.3553 103.4841)" class="st2" width="0.5" height="56.3"/>
				
					<rect x="-313" y="86.8" transform="matrix(0.7313 0.6821 -0.6821 0.7313 -6.9973 191.8743)" class="st2" width="131.9" height="0.5"/>
				
					<rect x="-281.2" y="58.3" transform="matrix(0.1052 0.9944 -0.9944 0.1052 -111.1482 405.6469)" class="st2" width="0.5" height="165.4"/>
				
					<rect x="-402.8" y="191.7" transform="matrix(5.641146e-002 0.9984 -0.9984 5.641146e-002 -148.8887 541.3549)" class="st2" width="83.8" height="0.5"/>
				
					<rect x="-359.5" y="244.2" transform="matrix(0.9816 0.1908 -0.1908 0.9816 41.0582 62.3832)" class="st2" width="112.1" height="0.5"/>
				
					<rect x="-278.9" y="88.2" transform="matrix(0.5357 0.8444 -0.8444 0.5357 25.072 320.1922)" class="st2" width="0.5" height="189.3"/>
				<polygon class="st2" points="-341.1,344.1 -358.7,233.8 -358.2,233.7 -340.6,344 				"/>
				
					<rect x="-424" y="205.6" transform="matrix(0.6863 0.7273 -0.7273 0.6863 81.8079 400.8289)" class="st2" width="0.5" height="179.4"/>
				
					<rect x="-533.9" y="211.3" transform="matrix(0.9685 0.2491 -0.2491 0.9685 38.6786 117.4736)" class="st2" width="178.2" height="0.5"/>
				
					<rect x="-542.1" y="188.2" transform="matrix(0.9774 0.2112 -0.2112 0.9774 38.2564 119.8176)" class="st2" width="0.5" height="101.6"/>
				
					<rect x="-567.4" y="322.5" transform="matrix(0.6827 0.7307 -0.7307 0.6827 70.5551 482.964)" class="st2" width="93.1" height="0.5"/>
				
					<rect x="-559.7" y="287.6" transform="matrix(0.9547 0.2975 -0.2975 0.9547 67.0402 180.4725)" class="st2" width="0.5" height="45.7"/>
				<polygon class="st2" points="-552.7,288.9 -628.7,271.7 -628.6,271.2 -552.6,288.4 				"/>
				
					<rect x="-455.8" y="160.3" transform="matrix(0.272 0.9623 -0.9623 0.272 -80.2817 628.5484)" class="st2" width="0.5" height="201.7"/>
				
					<rect x="-656.4" y="240.7" transform="matrix(0.6505 0.7595 -0.7595 0.6505 -24.4086 534.9478)" class="st2" width="125.7" height="0.5"/>
				
					<rect x="-583" y="139.6" transform="matrix(3.717428e-002 0.9993 -0.9993 3.717428e-002 -369.9153 766.497)" class="st2" width="0.5" height="103.4"/>
				
					<rect x="-614.2" y="30" transform="matrix(0.9692 0.2461 -0.2461 0.9692 8.9004 154.5632)" class="st2" width="0.5" height="165.8"/>
				
					<rect x="-708.5" y="160" transform="matrix(0.67 0.7424 -0.7424 0.67 -100.219 545.9397)" class="st2" width="88.8" height="0.5"/>
				<polygon class="st2" points="-658.1,235.6 -658.6,235.4 -634.6,193.1 -634.2,193.3 				"/>
				<polygon class="st2" points="-593.6,32.8 -655.2,-6.1 -654.9,-6.5 -593.3,32.4 				"/>
				
					<rect x="-469.1" y="-132.7" transform="matrix(0.8832 0.469 -0.469 0.8832 -95.7496 209.6879)" class="st2" width="0.5" height="90.6"/>
				<polygon class="st2" points="-415.8,16.4 -416.2,16.1 -316.6,-88.1 -316.2,-87.7 				"/>
			</g>
			<g>
				<circle class="st2" cx="-516.2" cy="85.4" r="2.7"/>
				<circle class="st2" cx="-593.6" cy="32.6" r="2.7"/>
				<circle class="st2" cx="-531.1" cy="189.1" r="2.7"/>
				<circle class="st2" cx="-634.6" cy="193.4" r="2.7"/>
				<circle class="st2" cx="-552.6" cy="288.5" r="2.7"/>
				<circle class="st2" cx="-358.5" cy="233.5" r="2.7"/>
				<circle class="st2" cx="-363.5" cy="149.8" r="2.7"/>
				<circle class="st2" cx="-415.8" cy="16.3" r="2.7"/>
				<circle class="st2" cx="-295.5" cy="42.2" r="2.7"/>
				<circle class="st2" cx="-489.1" cy="-47.2" r="2.7"/>
			</g>
		</g>
		<g>
			<circle class="st3" cx="-199.3" cy="131.9" r="3.3"/>
			<circle class="st3" cx="-263.7" cy="129.8" r="4"/>
			<circle class="st3" cx="-369.7" cy="289.5" r="4"/>
			<circle class="st3" cx="-248.5" cy="254.6" r="4"/>
			<circle class="st3" cx="-340.8" cy="344.7" r="2.9"/>
			<circle class="st3" cx="-448.5" cy="362.4" r="2.2"/>
			<circle class="st3" cx="-489.6" cy="356.8" r="4"/>
			<circle class="st3" cx="-567" cy="332.5" r="2.6"/>
			<circle class="st3" cx="-526.1" cy="266.5" r="4"/>
			<circle class="st3" cx="-629.3" cy="272" r="4"/>
			<circle class="st3" cx="-657.6" cy="236.2" r="2.4"/>
			<circle class="st3" cx="-443.6" cy="127.5" r="4"/>
			<circle class="st3" cx="-615.8" cy="127.9" r="4"/>
			<circle class="st3" cx="-693.6" cy="127.1" r="2.4"/>
			<circle class="st3" cx="-649.5" cy="2.1" r="4"/>
			<circle class="st3" cx="-520.8" cy="-33.7" r="4"/>
			<circle class="st3" cx="-556.7" cy="-106" r="4"/>
			<circle class="st3" cx="-447.2" cy="-128" r="3"/>
			<circle class="st3" cx="-397.1" cy="-117.2" r="4"/>
			<circle class="st3" cx="-356.1" cy="-16.1" r="4"/>
			<circle class="st3" cx="-317.2" cy="-88.8" r="3.5"/>
			<circle class="st3" cx="-275.6" cy="-10.1" r="4"/>
			<circle class="st3" cx="-248.3" cy="-20.1" r="2.9"/>
			<circle class="st3" cx="-226.8" cy="14.2" r="4"/>
			<circle class="st3" cx="-655" cy="-7" r="2.8"/>
			<circle class="st3" cx="-668.9" cy="21.7" r="2.4"/>
		</g>
	</g>
</g>
</svg>
