<?xml version="1.0" encoding="utf-8"?>
<!-- Generator: Adobe Illustrator 19.0.0, SVG Export Plug-In . SVG Version: 6.00 Build 0)  -->
<svg version="1.1" id="图层_1" xmlns="http://www.w3.org/2000/svg" xmlns:xlink="http://www.w3.org/1999/xlink" x="0px" y="0px"
	 viewBox="0 0 355 305" style="enable-background:new 0 0 355 305;" xml:space="preserve">
<style type="text/css">
	.st0{fill:none;stroke:#FFFFFF;stroke-miterlimit:10;}
	.st1{clip-path:url(#XMLID_15_);fill:#2F97CB;}
	.st2{clip-path:url(#XMLID_16_);fill:#2F97CB;}
	.st3{clip-path:url(#XMLID_17_);fill:#2F97CB;}
	.st4{clip-path:url(#XMLID_18_);fill:#2F97CB;}
	.st5{clip-path:url(#XMLID_19_);fill:#2F97CB;}
	.st6{clip-path:url(#XMLID_20_);fill:#2F97CB;}
	.st7{clip-path:url(#XMLID_21_);fill:#2F97CB;}
	.st8{clip-path:url(#XMLID_22_);fill:#2F97CB;}
</style>
<g id="XMLID_92_">
	<polygon id="XMLID_5_" class="st0" points="229.4,105.4 177,135.6 124.7,105.4 124.7,45 177,14.8 229.4,45 	"/>
	<polygon id="XMLID_7_" class="st0" points="177.2,196 124.9,226.2 72.6,196 72.6,135.6 124.9,105.4 177.2,135.6 	"/>
	<polygon id="XMLID_8_" class="st0" points="281.7,196 229.4,226.2 177,196 177,135.6 229.4,105.4 281.7,135.6 	"/>
	<line id="XMLID_6_" class="st0" x1="124.7" y1="45" x2="82.3" y2="20.7"/>
	<line id="XMLID_42_" class="st0" x1="229.4" y1="45" x2="271.7" y2="20.7"/>
	<line id="XMLID_9_" class="st0" x1="72.6" y1="135.6" x2="31.6" y2="112.3"/>
	<line id="XMLID_13_" class="st0" x1="281.7" y1="135.6" x2="322.7" y2="112.3"/>
	<line id="XMLID_10_" class="st0" x1="72.6" y1="196" x2="33.8" y2="220"/>
	<line id="XMLID_14_" class="st0" x1="281.7" y1="195.9" x2="320.4" y2="219.9"/>
	<line id="XMLID_11_" class="st0" x1="124.9" y1="226.2" x2="124.9" y2="274.3"/>
	<line id="XMLID_71_" class="st0" x1="229.4" y1="226.2" x2="229.4" y2="274.3"/>
	<g id="XMLID_1_">
		<g id="XMLID_39_">
			<defs>
				<rect id="XMLID_4_" x="51.6" y="1.7" width="20.8" height="19"/>
			</defs>
			<clipPath id="XMLID_15_">
				<use xlink:href="#XMLID_4_"  style="overflow:visible;"/>
			</clipPath>
			<path id="XMLID_41_" class="st1" d="M62,13.8c2.2,0,5.2-3,5.2-6.8c0-3.8-1.9-5.3-5.2-5.3c-3.3,0-5.3,1.5-5.3,5.3
				C56.7,10.8,59.7,13.8,62,13.8 M72.3,18.7C72,18,71.7,17.3,71.4,17c-0.5-0.6-3.7-2.2-5.1-3c-0.4-0.2-0.8-0.1-1,0.3l-1.6,2.9
				c-0.2,0.4-0.8,0.3-0.9-0.2c0-0.1,0-0.2,0.1-0.3l0.3-0.7c0.1-0.2,0.1-0.4-0.1-0.5l-0.7-0.8c-0.3-0.3-0.7-0.4-1.1-0.1
				c0,0-0.1,0.1-0.1,0.1l-0.7,0.8c-0.1,0.2-0.1,0.4-0.1,0.5l0.3,0.7c0,0.1,0.1,0.2,0.1,0.3c-0.1,0.5-0.7,0.6-0.9,0.2l-1.6-2.9
				c-0.2-0.4-0.6-0.5-1-0.3c-1.4,0.7-4.5,2.4-5.1,3c-0.3,0.3-0.6,1-0.8,1.7c-0.3,1,0.4,2,1.4,2h17.8C71.9,20.8,72.6,19.7,72.3,18.7"
				/>
		</g>
		<g id="XMLID_43_">
			<defs>
				<rect id="XMLID_44_" x="1.6" y="93.7" width="20.8" height="19"/>
			</defs>
			<clipPath id="XMLID_16_">
				<use xlink:href="#XMLID_44_"  style="overflow:visible;"/>
			</clipPath>
			<path id="XMLID_45_" class="st2" d="M12,105.8c2.2,0,5.2-3,5.2-6.8c0-3.8-1.9-5.3-5.2-5.3c-3.3,0-5.3,1.5-5.3,5.3
				C6.7,102.7,9.7,105.8,12,105.8 M22.3,110.7c-0.3-0.7-0.6-1.4-0.8-1.7c-0.5-0.6-3.7-2.2-5.1-3c-0.4-0.2-0.8-0.1-1,0.3l-1.6,2.9
				c-0.2,0.4-0.8,0.3-0.9-0.2c0-0.1,0-0.2,0.1-0.3l0.3-0.7c0.1-0.2,0.1-0.4-0.1-0.5l-0.7-0.8c-0.3-0.3-0.7-0.4-1.1-0.1
				c0,0-0.1,0.1-0.1,0.1l-0.7,0.8c-0.1,0.2-0.1,0.4-0.1,0.5l0.3,0.7c0,0.1,0.1,0.2,0.1,0.3c-0.1,0.5-0.7,0.6-0.9,0.2l-1.6-2.9
				c-0.2-0.4-0.6-0.5-1-0.3c-1.4,0.7-4.5,2.4-5.1,3c-0.3,0.3-0.6,1-0.8,1.7c-0.3,1,0.4,2,1.4,2h17.8
				C21.9,112.7,22.6,111.7,22.3,110.7"/>
		</g>
		<g id="XMLID_77_">
			<defs>
				<rect id="XMLID_78_" x="1.6" y="201" width="20.8" height="19"/>
			</defs>
			<clipPath id="XMLID_17_">
				<use xlink:href="#XMLID_78_"  style="overflow:visible;"/>
			</clipPath>
			<path id="XMLID_79_" class="st3" d="M12,213.1c2.2,0,5.2-3,5.2-6.8c0-3.8-1.9-5.3-5.2-5.3c-3.3,0-5.3,1.5-5.3,5.3
				C6.7,210,9.7,213.1,12,213.1 M22.3,218c-0.3-0.7-0.6-1.4-0.8-1.7c-0.5-0.6-3.7-2.2-5.1-3c-0.4-0.2-0.8-0.1-1,0.3l-1.6,2.9
				c-0.2,0.4-0.8,0.3-0.9-0.2c0-0.1,0-0.2,0.1-0.3l0.3-0.7c0.1-0.2,0.1-0.4-0.1-0.5l-0.7-0.8c-0.3-0.3-0.7-0.4-1.1-0.1
				c0,0-0.1,0.1-0.1,0.1l-0.7,0.8c-0.1,0.2-0.1,0.4-0.1,0.5l0.3,0.7c0,0.1,0.1,0.2,0.1,0.3c-0.1,0.5-0.7,0.6-0.9,0.2l-1.6-2.9
				c-0.2-0.4-0.6-0.5-1-0.3c-1.4,0.7-4.5,2.4-5.1,3c-0.3,0.3-0.6,1-0.8,1.7c-0.3,1,0.4,2,1.4,2h17.8C21.9,220,22.6,219,22.3,218"/>
		</g>
		<g id="XMLID_82_">
			<defs>
				<rect id="XMLID_83_" x="114.3" y="284.3" width="20.8" height="19"/>
			</defs>
			<clipPath id="XMLID_18_">
				<use xlink:href="#XMLID_83_"  style="overflow:visible;"/>
			</clipPath>
			<path id="XMLID_84_" class="st4" d="M124.8,296.3c2.2,0,5.2-3,5.2-6.8c0-3.8-1.9-5.3-5.2-5.3c-3.3,0-5.3,1.5-5.3,5.3
				C119.5,293.3,122.5,296.3,124.8,296.3 M135,301.2c-0.3-0.7-0.6-1.4-0.8-1.7c-0.5-0.6-3.7-2.2-5.1-3c-0.4-0.2-0.8-0.1-1,0.3
				l-1.6,2.9c-0.2,0.4-0.8,0.3-0.9-0.2c0-0.1,0-0.2,0.1-0.3l0.3-0.7c0.1-0.2,0.1-0.4-0.1-0.5l-0.7-0.8c-0.3-0.3-0.7-0.4-1.1-0.1
				c0,0-0.1,0.1-0.1,0.1l-0.7,0.8c-0.1,0.2-0.1,0.4-0.1,0.5l0.3,0.7c0,0.1,0.1,0.2,0.1,0.3c-0.1,0.5-0.7,0.6-0.9,0.2l-1.6-2.9
				c-0.2-0.4-0.6-0.5-1-0.3c-1.4,0.7-4.5,2.4-5.1,3c-0.3,0.3-0.6,1-0.8,1.7c-0.3,1,0.4,2,1.4,2h17.8
				C134.7,303.3,135.4,302.2,135,301.2"/>
		</g>
		<g id="XMLID_87_">
			<defs>
				<rect id="XMLID_88_" x="219" y="284.3" width="20.8" height="19"/>
			</defs>
			<clipPath id="XMLID_19_">
				<use xlink:href="#XMLID_88_"  style="overflow:visible;"/>
			</clipPath>
			<path id="XMLID_89_" class="st5" d="M229.4,296.3c2.2,0,5.2-3,5.2-6.8c0-3.8-1.9-5.3-5.2-5.3c-3.3,0-5.3,1.5-5.3,5.3
				C224.1,293.3,227.2,296.3,229.4,296.3 M239.7,301.2c-0.3-0.7-0.6-1.4-0.8-1.7c-0.5-0.6-3.7-2.2-5.1-3c-0.4-0.2-0.8-0.1-1,0.3
				l-1.6,2.9c-0.2,0.4-0.8,0.3-0.9-0.2c0-0.1,0-0.2,0.1-0.3l0.3-0.7c0.1-0.2,0.1-0.4-0.1-0.5l-0.7-0.8c-0.3-0.3-0.7-0.4-1.1-0.1
				c0,0-0.1,0.1-0.1,0.1l-0.7,0.8c-0.1,0.2-0.1,0.4-0.1,0.5l0.3,0.7c0,0.1,0.1,0.2,0.1,0.3c-0.1,0.5-0.7,0.6-0.9,0.2l-1.6-2.9
				c-0.2-0.4-0.6-0.5-1-0.3c-1.4,0.7-4.5,2.4-5.1,3c-0.3,0.3-0.6,1-0.8,1.7c-0.3,1,0.4,2,1.4,2h17.8
				C239.3,303.3,240,302.2,239.7,301.2"/>
		</g>
		<g id="XMLID_48_">
			<defs>
				<rect id="XMLID_49_" x="332.7" y="93.2" width="20.8" height="19"/>
			</defs>
			<clipPath id="XMLID_20_">
				<use xlink:href="#XMLID_49_"  style="overflow:visible;"/>
			</clipPath>
			<path id="XMLID_50_" class="st6" d="M343.1,105.3c2.2,0,5.2-3,5.2-6.8c0-3.8-1.9-5.3-5.2-5.3c-3.3,0-5.3,1.5-5.3,5.3
				C337.8,102.3,340.9,105.3,343.1,105.3 M353.4,110.2c-0.3-0.7-0.6-1.4-0.8-1.7c-0.5-0.6-3.7-2.2-5.1-3c-0.4-0.2-0.8-0.1-1,0.3
				l-1.6,2.9c-0.2,0.4-0.8,0.3-0.9-0.2c0-0.1,0-0.2,0.1-0.3l0.3-0.7c0.1-0.2,0.1-0.4-0.1-0.5l-0.7-0.8c-0.3-0.3-0.7-0.4-1.1-0.1
				c0,0-0.1,0.1-0.1,0.1l-0.7,0.8c-0.1,0.2-0.1,0.4-0.1,0.5l0.3,0.7c0,0.1,0.1,0.2,0.1,0.3c-0.1,0.5-0.7,0.6-0.9,0.2l-1.6-2.9
				c-0.2-0.4-0.6-0.5-1-0.3c-1.4,0.7-4.5,2.4-5.1,3c-0.3,0.3-0.6,1-0.8,1.7c-0.3,1,0.4,2,1.4,2h17.8
				C353,112.3,353.7,111.2,353.4,110.2"/>
		</g>
		<g id="XMLID_72_">
			<defs>
				<rect id="XMLID_73_" x="332.7" y="201" width="20.8" height="19"/>
			</defs>
			<clipPath id="XMLID_21_">
				<use xlink:href="#XMLID_73_"  style="overflow:visible;"/>
			</clipPath>
			<path id="XMLID_74_" class="st7" d="M343.1,213.1c2.2,0,5.2-3,5.2-6.8c0-3.8-1.9-5.3-5.2-5.3c-3.3,0-5.3,1.5-5.3,5.3
				C337.8,210,340.9,213.1,343.1,213.1 M353.4,218c-0.3-0.7-0.6-1.4-0.8-1.7c-0.5-0.6-3.7-2.2-5.1-3c-0.4-0.2-0.8-0.1-1,0.3
				l-1.6,2.9c-0.2,0.4-0.8,0.3-0.9-0.2c0-0.1,0-0.2,0.1-0.3l0.3-0.7c0.1-0.2,0.1-0.4-0.1-0.5l-0.7-0.8c-0.3-0.3-0.7-0.4-1.1-0.1
				c0,0-0.1,0.1-0.1,0.1l-0.7,0.8c-0.1,0.2-0.1,0.4-0.1,0.5l0.3,0.7c0,0.1,0.1,0.2,0.1,0.3c-0.1,0.5-0.7,0.6-0.9,0.2l-1.6-2.9
				c-0.2-0.4-0.6-0.5-1-0.3c-1.4,0.7-4.5,2.4-5.1,3c-0.3,0.3-0.6,1-0.8,1.7c-0.3,1,0.4,2,1.4,2h17.8C353,220,353.7,219,353.4,218"/>
		</g>
		<g id="XMLID_2_">
			<defs>
				<rect id="XMLID_3_" x="281.3" y="1.7" width="20.8" height="19"/>
			</defs>
			<clipPath id="XMLID_22_">
				<use xlink:href="#XMLID_3_"  style="overflow:visible;"/>
			</clipPath>
			<path id="XMLID_33_" class="st8" d="M291.7,13.8c2.2,0,5.2-3,5.2-6.8c0-3.8-1.9-5.3-5.2-5.3c-3.3,0-5.3,1.5-5.3,5.3
				C286.4,10.8,289.5,13.8,291.7,13.8 M302,18.7c-0.3-0.7-0.6-1.4-0.8-1.7c-0.5-0.6-3.7-2.2-5.1-3c-0.4-0.2-0.8-0.1-1,0.3l-1.6,2.9
				c-0.2,0.4-0.8,0.3-0.9-0.2c0-0.1,0-0.2,0.1-0.3l0.3-0.7c0.1-0.2,0.1-0.4-0.1-0.5l-0.7-0.8c-0.3-0.3-0.7-0.4-1.1-0.1
				c0,0-0.1,0.1-0.1,0.1l-0.7,0.8c-0.1,0.2-0.1,0.4-0.1,0.5l0.3,0.7c0,0.1,0.1,0.2,0.1,0.3c-0.1,0.5-0.7,0.6-0.9,0.2l-1.6-2.9
				c-0.2-0.4-0.6-0.5-1-0.3c-1.4,0.7-4.5,2.4-5.1,3c-0.3,0.3-0.6,1-0.8,1.7c-0.3,1,0.4,2,1.4,2h17.8C301.6,20.8,302.3,19.7,302,18.7
				"/>
		</g>
	</g>
</g>
</svg>
