<?xml version="1.0" encoding="utf-8"?>
<!-- Generator: Adobe Illustrator 19.0.0, SVG Export Plug-In . SVG Version: 6.00 Build 0)  -->
<svg version="1.1" id="图层_1" xmlns="http://www.w3.org/2000/svg" xmlns:xlink="http://www.w3.org/1999/xlink" x="0px" y="0px"
	 viewBox="-191 318 228 158" style="enable-background:new -191 318 228 158;" xml:space="preserve">
<style type="text/css">
	.st0{opacity:0.6;fill:#FFFFFF;enable-background:new    ;}
	.st1{fill:url(#circle-1_2_);}
	.st2{fill:none;stroke:#FFFFFF;}
	.st3{opacity:0.2;fill:#FFFFFF;enable-background:new    ;}
	.st4{clip-path:url(#SVGID_2_);fill:#FFFFFF;}
	.st5{clip-path:url(#SVGID_4_);fill:#FFFFFF;}
	.st6{clip-path:url(#SVGID_6_);fill:#FFFFFF;}
	.st7{clip-path:url(#SVGID_8_);fill:#FFFFFF;}
	.st8{clip-path:url(#SVGID_10_);fill:#FFFFFF;}
	.st9{clip-path:url(#SVGID_12_);fill:#FFFFFF;}
	.st10{enable-background:new    ;}
	.st11{fill:#808080;}
</style>
<g>
	<rect x="-27.7" y="365.1" class="st0" width="50" height="1"/>
	<rect x="22.3" y="336.1" class="st0" width="1" height="30"/>
	<rect x="-144.7" y="418.1" class="st0" width="50" height="1"/>
	<rect x="-145.7" y="418.1" class="st0" width="1" height="30"/>
	<g>
		
			<linearGradient id="circle-1_2_" gradientUnits="userSpaceOnUse" x1="-60.7" y1="-92.1" x2="-60.7" y2="11.9" gradientTransform="matrix(1 0 0 -1 0 360)">
			<stop  offset="0" style="stop-color:#0B79A3"/>
			<stop  offset="1" style="stop-color:#0C7BA4"/>
		</linearGradient>
		<circle id="circle-1" class="st1" cx="-60.7" cy="400.1" r="52"/>
	</g>
	<g>
		<circle id="circle-1_1_" class="st2" cx="-60.7" cy="400.1" r="52"/>
	</g>
	<circle class="st2" cx="-60.2" cy="400.6" r="47.5"/>
	<path class="st3" d="M12.2,407.6l-18-0.6v-1l18,0.6C12.2,406.6,12.2,407.6,12.2,407.6z M11.8,412.5l-17.9-1.9l0.1-1l17.9,1.9
		L11.8,412.5z M11,417.4l-17.7-3.1l0.2-1l17.7,3.1L11,417.4z M9.9,422.2l-17.5-4.4l0.2-1l17.5,4.4L9.9,422.2z M8.5,426.9l-17.1-5.6
		l0.3-1l17.1,5.6L8.5,426.9z M6.8,431.5l-16.7-6.7l0.4-0.9l16.7,6.7L6.8,431.5z M4.7,436l-16.2-7.9l0.4-0.9l16.2,7.9L4.7,436z
		 M2.3,440.3l-15.6-9l0.5-0.9l15.6,9L2.3,440.3z M-0.4,444.5l-14.9-10.1l0.6-0.8l14.9,10.1L-0.4,444.5z M-3.4,448.4l-14.2-11.1
		l0.6-0.8l14.2,11.1L-3.4,448.4z M-6.6,452.1l-13.4-12l0.7-0.7l13.4,12L-6.6,452.1z M-10.1,455.6l-12.5-12.9l0.7-0.7l12.5,12.9
		L-10.1,455.6z M-13.8,458.9l-11.6-13.8l0.8-0.6l11.6,13.8L-13.8,458.9z M-17.7,461.9l-10.6-14.6l0.8-0.6l10.6,14.6L-17.7,461.9z
		 M-21.9,464.6l-9.5-15.3l0.8-0.5l9.5,15.3L-21.9,464.6z M-26.2,467l-8.5-15.9l0.9-0.5l8.5,15.9L-26.2,467z M-30.6,469.1l-7.3-16.4
		l0.9-0.4l7.3,16.4L-30.6,469.1z M-35.2,470.9l-6.2-16.9l0.9-0.3l6.2,16.9L-35.2,470.9z M-40,472.3l-5-17.3l1-0.3l5,17.3L-40,472.3z
		 M-44.8,473.4l-3.7-17.6l1-0.2l3.7,17.6L-44.8,473.4z M-52.1,456.4l1-0.1l2.5,17.8l-1,0.1L-52.1,456.4z M-55.8,456.7l1-0.1l1.3,18
		l-1,0.1L-55.8,456.7z M-59.5,456.7h1v18h-1V456.7z M-64.4,474.5l1.3-18l1,0.1l-1.3,18L-64.4,474.5z M-69.3,473.9l2.5-17.8l1,0.1
		l-2.5,17.8L-69.3,473.9z M-74.2,473l3.7-17.6l1,0.2l-3.7,17.6L-74.2,473z M-78.9,471.7l5-17.3l1,0.3l-5,17.3L-78.9,471.7z
		 M-83.6,470.1l6.2-16.9l0.9,0.3l-6.2,16.9L-83.6,470.1z M-88.2,468.2l7.3-16.4l0.9,0.4l-7.3,16.4L-88.2,468.2z M-92.6,466l8.5-15.9
		l0.9,0.5l-8.5,15.9L-92.6,466z"/>
	<path class="st3" d="M-39.2,349.4l8.5-15.9l0.9,0.5l-8.5,15.9L-39.2,349.4z M-42.5,347.8l7.3-16.5l0.9,0.4l-7.3,16.5L-42.5,347.8z
		 M-45.9,346.4l6.2-17l0.9,0.3l-6.2,17L-45.9,346.4z M-49.4,345.2l5-17.3l1,0.3l-5,17.3L-49.4,345.2z M-53,344.3l3.7-17.7l1,0.2
		l-3.7,17.7L-53,344.3z M-56.6,343.7l2.5-17.9l1,0.1l-2.5,17.9L-56.6,343.7z M-60.2,343.3l1.3-18l1,0.1l-1.3,18L-60.2,343.3z
		 M-63.9,325.1h1v18h-1V325.1z M-68.9,325.3l1-0.1l1.3,18l-1,0.1L-68.9,325.3z M-73.8,325.8l1-0.1l2.5,17.9l-1,0.1L-73.8,325.8z
		 M-78.6,326.6l1-0.2l3.7,17.7l-1,0.2L-78.6,326.6z M-78.5,345.2l-5-17.3l1-0.3l5,17.3L-78.5,345.2z M-82,346.3l-6.2-17l0.9-0.3
		l6.2,17L-82,346.3z M-85.4,347.7l-7.3-16.5l0.9-0.4l7.3,16.5L-85.4,347.7z M-88.7,349.3l-8.5-15.9l0.9-0.5l8.5,15.9L-88.7,349.3z
		 M-91.9,351.2l-9.5-15.3l0.8-0.5l9.5,15.3L-91.9,351.2z M-94.9,353.2l-10.6-14.6l0.8-0.6l10.6,14.6L-94.9,353.2z M-97.8,355.5
		l-11.6-13.8l0.8-0.6l11.6,13.8L-97.8,355.5z M-100.6,357.9l-12.5-13l0.7-0.7l12.5,13L-100.6,357.9z M-103.1,360.6l-13.4-12.1
		l0.7-0.7l13.4,12.1L-103.1,360.6z M-105.5,363.4l-14.2-11.1l0.6-0.8l14.2,11.1L-105.5,363.4z M-107.7,366.4l-14.9-10.1l0.6-0.8
		l14.9,10.1L-107.7,366.4z M-109.6,369.5l-15.6-9l0.5-0.9l15.6,9L-109.6,369.5z M-111.4,372.8l-16.2-7.9l0.4-0.9l16.2,7.9
		L-111.4,372.8z M-112.9,376.2l-16.7-6.8l0.4-0.9l16.7,6.8L-112.9,376.2z M-114.1,379.6l-17.1-5.6l0.3-1l17.1,5.6L-114.1,379.6z
		 M-115.1,383.2l-17.5-4.4l0.2-1l17.5,4.4L-115.1,383.2z M-115.9,386.8l-17.7-3.1l0.2-1l17.7,3.1L-115.9,386.8z M-116.4,390.4
		l-17.9-1.9l0.1-1l17.9,1.9L-116.4,390.4z M-116.7,394.1l-18-0.6v-1l18,0.6C-116.7,393.1-116.7,394.1-116.7,394.1z"/>
</g>
<g>
	<g>
		<g>
			<g>
				<g>
					<g>
						<g>
							<g>
								<g>
									<g>
										<defs>
											<rect id="SVGID_1_" x="-89.7" y="370.9" width="57" height="58"/>
										</defs>
										<clipPath id="SVGID_2_">
											<use xlink:href="#SVGID_1_"  style="overflow:visible;"/>
										</clipPath>
										<path class="st4" d="M-77.2,409.1c-0.4,0-0.9-0.2-1.2-0.5l-10.8-10.8c-0.3-0.3-0.5-0.7-0.5-1.2c0-0.4,0.2-0.9,0.5-1.2l0,0
											c0.7-0.7,1.7-0.7,2.4,0c0.1,0.1,0.2,0.2,0.3,0.4l9.3,9.3l7.3-7.3l-9.6-9.6c-0.7-0.7-0.7-1.7,0-2.4c0.7-0.7,1.7-0.7,2.4,0
											l10.8,10.8c0.7,0.7,0.7,1.7,0,2.4l-9.7,9.7C-76.4,408.9-76.8,409.1-77.2,409.1"/>
									</g>
								</g>
							</g>
						</g>
					</g>
				</g>
			</g>
		</g>
	</g>
	<g>
		<g>
			<g>
				<g>
					<g>
						<g>
							<g>
								<g>
									<g>
										<defs>
											<rect id="SVGID_3_" x="-89.7" y="370.9" width="57" height="58"/>
										</defs>
										<clipPath id="SVGID_4_">
											<use xlink:href="#SVGID_3_"  style="overflow:visible;"/>
										</clipPath>
										<path class="st5" d="M-62.3,394.7c-0.4,0-0.9-0.2-1.2-0.5l-10.8-10.8c-0.7-0.7-0.7-1.7,0-2.4l9.7-9.7
											c0.3-0.3,0.7-0.5,1.2-0.5c0.4,0,0.9,0.2,1.2,0.5l10.8,10.8c0.3,0.3,0.5,0.7,0.5,1.2c0,0.4-0.2,0.9-0.5,1.2l-9.7,9.7
											C-61.4,394.6-61.9,394.7-62.3,394.7 M-70.7,382.3l8.4,8.4l7.3-7.3l-8.4-8.4L-70.7,382.3z"/>
									</g>
								</g>
							</g>
						</g>
					</g>
				</g>
			</g>
		</g>
	</g>
	<g>
		<g>
			<g>
				<g>
					<g>
						<g>
							<g>
								<g>
									<g>
										<defs>
											<rect id="SVGID_5_" x="-89.7" y="370.9" width="57" height="58"/>
										</defs>
										<clipPath id="SVGID_6_">
											<use xlink:href="#SVGID_5_"  style="overflow:visible;"/>
										</clipPath>
										<path class="st6" d="M-59,428.9L-59,428.9c-0.4,0-0.9-0.2-1.2-0.5L-71,417.6c-0.7-0.7-0.7-1.7,0-2.4l9.7-9.7
											c0.3-0.3,0.7-0.5,1.2-0.5l0,0c0.4,0,0.9,0.2,1.2,0.5l10.8,10.8c0.7,0.7,0.7,1.7,0,2.4l-9.7,9.7
											C-58.1,428.7-58.6,428.9-59,428.9 M-67.4,416.4l8.4,8.4l7.3-7.3l-8.4-8.4L-67.4,416.4z"/>
									</g>
								</g>
							</g>
						</g>
					</g>
				</g>
			</g>
		</g>
	</g>
	<g>
		<g>
			<g>
				<g>
					<g>
						<g>
							<g>
								<g>
									<g>
										<defs>
											<rect id="SVGID_7_" x="-89.7" y="370.9" width="57" height="58"/>
										</defs>
										<clipPath id="SVGID_8_">
											<use xlink:href="#SVGID_7_"  style="overflow:visible;"/>
										</clipPath>
										<path class="st7" d="M-44,414.5c-0.4,0-0.9-0.2-1.2-0.5L-56,403.2c-0.7-0.7-0.7-1.7,0-2.4l9.7-9.7
											c0.3-0.3,0.7-0.5,1.2-0.5c0.4,0,0.9,0.2,1.2,0.5l10.8,10.8c0.7,0.7,0.7,1.7,0,2.4c-0.7,0.7-1.7,0.7-2.4,0l-9.6-9.6
											l-7.3,7.3l9.6,9.6c0.7,0.7,0.7,1.7,0,2.4C-43.2,414.4-43.6,414.5-44,414.5"/>
									</g>
								</g>
							</g>
						</g>
					</g>
				</g>
			</g>
		</g>
	</g>
	<g>
		<g>
			<g>
				<g>
					<g>
						<g>
							<g>
								<g>
									<g>
										<defs>
											<rect id="SVGID_9_" x="-89.7" y="370.9" width="57" height="58"/>
										</defs>
										<clipPath id="SVGID_10_">
											<use xlink:href="#SVGID_9_"  style="overflow:visible;"/>
										</clipPath>
										<path class="st8" d="M-49.6,398.4c-0.4,0-0.9-0.2-1.2-0.5l-8.2-8.2c-0.7-0.7-0.7-1.7,0-2.4c0.7-0.7,1.7-0.7,2.4,0l8.2,8.2
											c0.7,0.7,0.7,1.7,0,2.4C-48.7,398.3-49.1,398.4-49.6,398.4"/>
									</g>
								</g>
							</g>
						</g>
					</g>
				</g>
			</g>
		</g>
	</g>
	<g>
		<g>
			<g>
				<g>
					<g>
						<g>
							<g>
								<g>
									<g>
										<defs>
											<rect id="SVGID_11_" x="-89.7" y="370.9" width="57" height="58"/>
										</defs>
										<clipPath id="SVGID_12_">
											<use xlink:href="#SVGID_11_"  style="overflow:visible;"/>
										</clipPath>
										<path class="st9" d="M-64.6,412.6c-0.4,0-0.9-0.2-1.2-0.5l-8-8c-0.7-0.7-0.7-1.7,0-2.4s1.7-0.7,2.4,0l8,8
											c0.7,0.7,0.7,1.7,0,2.4C-63.7,412.4-64.1,412.6-64.6,412.6"/>
									</g>
								</g>
							</g>
						</g>
					</g>
				</g>
			</g>
		</g>
	</g>
</g>
<g class="st10">
	<path class="st11" d="M-173.9,468.2c-0.5,0.3-1.6,0.5-3,0.5c-3.2,0-5.7-2-5.7-5.8c0-3.6,2.4-6,6-6c1.4,0,2.3,0.3,2.7,0.5l-0.4,1.2
		c-0.6-0.3-1.4-0.5-2.3-0.5c-2.7,0-4.5,1.7-4.5,4.7c0,2.8,1.6,4.6,4.4,4.6c0.9,0,1.8-0.2,2.4-0.5L-173.9,468.2z"/>
	<path class="st11" d="M-170.5,457.1v4.8h5.5v-4.8h1.5v11.5h-1.5v-5.4h-5.5v5.4h-1.5v-11.5H-170.5z"/>
	<path class="st11" d="M-159.1,465l-1.2,3.6h-1.5l3.9-11.5h1.8l3.9,11.5h-1.6l-1.2-3.6H-159.1z M-155.3,463.8l-1.1-3.3
		c-0.3-0.7-0.4-1.4-0.6-2.1l0,0c-0.2,0.7-0.4,1.4-0.6,2.1l-1.1,3.3H-155.3z"/>
	<path class="st11" d="M-149.6,458.4h-3.5v-1.3h8.5v1.3h-3.5v10.2h-1.5V458.4z"/>
	<path class="st11" d="M-140.5,458.4h-3.5v-1.3h8.5v1.3h-3.5v10.2h-1.5V458.4z"/>
	<path class="st11" d="M-132.8,457.1v11.5h-1.5v-11.5H-132.8z"/>
	<path class="st11" d="M-130.2,468.6v-11.5h1.6l3.7,5.8c0.8,1.3,1.5,2.5,2.1,3.7l0,0c-0.1-1.5-0.2-2.9-0.2-4.7v-4.8h1.4v11.5h-1.5
		l-3.6-5.8c-0.8-1.3-1.6-2.6-2.1-3.8h-0.1c0.1,1.4,0.1,2.8,0.1,4.7v4.9L-130.2,468.6L-130.2,468.6z"/>
	<path class="st11" d="M-110.3,468.1c-0.7,0.2-2,0.6-3.5,0.6c-1.7,0-3.2-0.4-4.3-1.5c-1-1-1.6-2.5-1.6-4.3c0-3.4,2.4-5.9,6.2-5.9
		c1.3,0,2.4,0.3,2.9,0.5l-0.4,1.2c-0.6-0.3-1.4-0.5-2.5-0.5c-2.8,0-4.6,1.7-4.6,4.6s1.8,4.6,4.4,4.6c1,0,1.6-0.1,2-0.3v-3.4h-2.3
		v-1.2h3.8L-110.3,468.1L-110.3,468.1z"/>
</g>
<g class="st10">
	<path class="st11" d="M18.5,327.2l-1.2,3.6h-1.5l3.9-11.5h1.8l3.9,11.5h-1.6l-1.2-3.6H18.5z M22.3,326l-1.1-3.3
		c-0.3-0.7-0.4-1.4-0.6-2.1l0,0c-0.2,0.7-0.4,1.4-0.6,2.1l-1.1,3.3H22.3z"/>
	<path class="st11" d="M28.6,319.3v11.5h-1.5v-11.5H28.6z"/>
</g>
</svg>
