<?xml version="1.0" encoding="utf-8"?>
<!-- Generator: Adobe Illustrator 22.0.1, SVG Export Plug-In . SVG Version: 6.00 Build 0)  -->
<svg version="1.1" id="图层_1" xmlns="http://www.w3.org/2000/svg" xmlns:xlink="http://www.w3.org/1999/xlink" x="0px" y="0px"
	 viewBox="0 0 425.5 399.1" style="enable-background:new 0 0 425.5 399.1;" xml:space="preserve">
<style type="text/css">
	.st0{display:none;clip-path:url(#SVGID_2_);}
	
		.st1{opacity:0.6;clip-path:url(#SVGID_4_);fill:none;stroke:#FFFFFF;stroke-width:5.0697;stroke-miterlimit:10;stroke-dasharray:3.6212,5.7939;enable-background:new    ;}
	
		.st2{opacity:0.6;clip-path:url(#SVGID_6_);fill:none;stroke:#FFFFFF;stroke-width:5.0697;stroke-miterlimit:10;enable-background:new    ;}
	
		.st3{opacity:0.6;clip-path:url(#SVGID_8_);fill:none;stroke:#FFFFFF;stroke-width:5.0697;stroke-miterlimit:10;stroke-dasharray:3.6212,5.7939;enable-background:new    ;}
	
		.st4{opacity:0.6;clip-path:url(#SVGID_10_);fill:none;stroke:#FFFFFF;stroke-width:5.0697;stroke-miterlimit:10;stroke-dasharray:3.6212,5.7939;enable-background:new    ;}
	
		.st5{opacity:0.6;clip-path:url(#SVGID_12_);fill:none;stroke:#FFFFFF;stroke-width:5.0697;stroke-miterlimit:10;stroke-dasharray:3.6212,5.7939;enable-background:new    ;}
	
		.st6{opacity:0.6;clip-path:url(#SVGID_14_);fill:none;stroke:#FFFFFF;stroke-width:5.0697;stroke-miterlimit:10;enable-background:new    ;}
	.st7{opacity:0.6;clip-path:url(#SVGID_16_);}
	.st8{fill:#00FCFA;stroke:#FFFFFF;stroke-width:0.7242;stroke-miterlimit:10;}
	.st9{opacity:0.6;clip-path:url(#SVGID_18_);}
	.st10{clip-path:url(#SVGID_20_);}
	.st11{fill:none;stroke:#3BBEFB;stroke-width:1.4485;stroke-miterlimit:10;}
	.st12{fill:none;stroke:#3BBEFB;stroke-width:1.4485;stroke-linecap:round;stroke-linejoin:round;stroke-miterlimit:10;}
	.st13{opacity:0.6;clip-path:url(#SVGID_22_);}
	.st14{fill:none;stroke:#FFFFFF;stroke-width:1.1603;stroke-miterlimit:10;}
	.st15{fill:none;stroke:#FFFFFF;stroke-width:1.0748;stroke-miterlimit:10;}
	.st16{fill:none;stroke:#FFFFFF;stroke-width:1.1602;stroke-miterlimit:10;}
	.st17{fill:#FFFFFF;}
	.st18{fill:none;}
	.st19{opacity:0.6;clip-path:url(#SVGID_24_);}
	.st20{opacity:0.6;clip-path:url(#SVGID_26_);}
	
		.st21{opacity:0.6;clip-path:url(#SVGID_28_);fill:none;stroke:#FFFFFF;stroke-width:1.1603;stroke-miterlimit:10;enable-background:new    ;}
	
		.st22{opacity:0.6;clip-path:url(#SVGID_30_);fill:none;stroke:#FFFFFF;stroke-width:5.0697;stroke-miterlimit:10;stroke-dasharray:3.6212,5.7939;enable-background:new    ;}
	
		.st23{opacity:0.6;clip-path:url(#SVGID_32_);fill:none;stroke:#FFFFFF;stroke-width:5.0697;stroke-miterlimit:10;stroke-dasharray:3.6212,5.7939;enable-background:new    ;}
	
		.st24{opacity:0.6;clip-path:url(#SVGID_34_);fill:none;stroke:#FFFFFF;stroke-width:5.0697;stroke-miterlimit:10;stroke-dasharray:3.6212,5.7939;enable-background:new    ;}
	
		.st25{opacity:0.6;clip-path:url(#SVGID_36_);fill:none;stroke:#FFFFFF;stroke-width:5.0697;stroke-miterlimit:10;stroke-dasharray:3.6212,5.7939;enable-background:new    ;}
	
		.st26{opacity:0.6;clip-path:url(#SVGID_38_);fill:none;stroke:#FFFFFF;stroke-width:5.0697;stroke-miterlimit:10;stroke-dasharray:3.6212,5.7939;enable-background:new    ;}
	
		.st27{opacity:0.6;clip-path:url(#SVGID_40_);fill:none;stroke:#FFFFFF;stroke-width:5.0697;stroke-miterlimit:10;stroke-dasharray:3.6212,5.7939;enable-background:new    ;}
	
		.st28{opacity:0.6;clip-path:url(#SVGID_42_);fill:none;stroke:#FFFFFF;stroke-width:5.0697;stroke-miterlimit:10;stroke-dasharray:3.6212,5.7939;enable-background:new    ;}
	
		.st29{opacity:0.6;clip-path:url(#SVGID_44_);fill:none;stroke:#FFFFFF;stroke-width:5.0697;stroke-miterlimit:10;stroke-dasharray:3.6212,5.7939;enable-background:new    ;}
	
		.st30{opacity:0.6;clip-path:url(#SVGID_46_);fill:none;stroke:#FFFFFF;stroke-width:5.0697;stroke-miterlimit:10;stroke-dasharray:3.6212,5.7939;enable-background:new    ;}
	
		.st31{opacity:0.6;clip-path:url(#SVGID_48_);fill:none;stroke:#FFFFFF;stroke-width:5.0697;stroke-miterlimit:10;stroke-dasharray:3.6212,5.7939;enable-background:new    ;}
	
		.st32{opacity:0.6;clip-path:url(#SVGID_50_);fill:none;stroke:#FFFFFF;stroke-width:5.0697;stroke-miterlimit:10;stroke-dasharray:3.6212,5.7939;enable-background:new    ;}
	
		.st33{opacity:0.6;clip-path:url(#SVGID_52_);fill:none;stroke:#FFFFFF;stroke-width:5.0697;stroke-miterlimit:10;stroke-dasharray:3.6212,5.7939;enable-background:new    ;}
	
		.st34{opacity:0.6;clip-path:url(#SVGID_54_);fill:none;stroke:#FFFFFF;stroke-width:5.0697;stroke-miterlimit:10;stroke-dasharray:3.6212,5.7939;enable-background:new    ;}
	
		.st35{opacity:0.6;clip-path:url(#SVGID_56_);fill:none;stroke:#FFFFFF;stroke-width:5.0697;stroke-miterlimit:10;stroke-dasharray:3.6212,5.7939;enable-background:new    ;}
	
		.st36{opacity:0.6;clip-path:url(#SVGID_58_);fill:none;stroke:#FFFFFF;stroke-width:5.0697;stroke-miterlimit:10;stroke-dasharray:3.6212,5.7939;enable-background:new    ;}
	
		.st37{opacity:0.6;clip-path:url(#SVGID_60_);fill:none;stroke:#FFFFFF;stroke-width:5.0697;stroke-miterlimit:10;stroke-dasharray:3.6212,5.7939;enable-background:new    ;}
	.st38{opacity:0.6;clip-path:url(#SVGID_62_);}
</style>
<g id="XMLID_23_">
	<g>
		<defs>
			<rect id="SVGID_1_" x="24.8" y="19.2" width="362.1" height="362.1"/>
		</defs>
		<clipPath id="SVGID_2_">
			<use xlink:href="#SVGID_1_"  style="overflow:visible;"/>
		</clipPath>
		<g class="st0">
			
				<image style="display:inline;overflow:visible;enable-background:new    ;" width="1517" height="1513" id="XMLID_1096_" xlink:href="7106460.png"  transform="matrix(0.2387 0 0 0.2387 24.7716 19.6535)">
			</image>
		</g>
	</g>
	<g>
		<defs>
			<rect id="SVGID_3_" x="24.8" y="19.2" width="362.1" height="362.1"/>
		</defs>
		<clipPath id="SVGID_4_">
			<use xlink:href="#SVGID_3_"  style="overflow:visible;"/>
		</clipPath>
		<path id="XMLID_1095_" class="st1" d="M275,178.4c2.1,6.9,3.3,14.2,3.3,21.8c0,9.8-1.9,19.1-5.4,27.7"/>
	</g>
	<g>
		<defs>
			<rect id="SVGID_5_" x="24.8" y="19.2" width="362.1" height="362.1"/>
		</defs>
		<clipPath id="SVGID_6_">
			<use xlink:href="#SVGID_5_"  style="overflow:visible;"/>
		</clipPath>
		<path id="XMLID_1094_" class="st2" d="M204.8,126.8c33,0,60.8,21.7,70.1,51.6"/>
	</g>
	<g>
		<defs>
			<rect id="SVGID_7_" x="24.8" y="19.2" width="362.1" height="362.1"/>
		</defs>
		<clipPath id="SVGID_8_">
			<use xlink:href="#SVGID_7_"  style="overflow:visible;"/>
		</clipPath>
		<path id="XMLID_1093_" class="st3" d="M138.1,231c-4.3-9.4-6.7-19.8-6.7-30.8c0-11.3,2.5-22,7.1-31.5"/>
	</g>
	<g>
		<defs>
			<rect id="SVGID_9_" x="24.8" y="19.2" width="362.1" height="362.1"/>
		</defs>
		<clipPath id="SVGID_10_">
			<use xlink:href="#SVGID_9_"  style="overflow:visible;"/>
		</clipPath>
		<path id="XMLID_1092_" class="st4" d="M166.8,137.6c2.3-1.4,4.7-2.7,7.2-3.8c10.2-4.8,21-7,31.5-6.9"/>
	</g>
	<g>
		<defs>
			<rect id="SVGID_11_" x="24.8" y="19.2" width="362.1" height="362.1"/>
		</defs>
		<clipPath id="SVGID_12_">
			<use xlink:href="#SVGID_11_"  style="overflow:visible;"/>
		</clipPath>
		<path id="XMLID_1091_" class="st5" d="M166.8,137.6"/>
	</g>
	<g>
		<defs>
			<rect id="SVGID_13_" x="24.8" y="19.2" width="362.1" height="362.1"/>
		</defs>
		<clipPath id="SVGID_14_">
			<use xlink:href="#SVGID_13_"  style="overflow:visible;"/>
		</clipPath>
		<path id="XMLID_1090_" class="st6" d="M204.8,273.7c-29.6,0-55.1-17.5-66.7-42.7"/>
	</g>
	<g>
		<defs>
			<rect id="SVGID_15_" x="24.8" y="19.2" width="362.1" height="362.1"/>
		</defs>
		<clipPath id="SVGID_16_">
			<use xlink:href="#SVGID_15_"  style="overflow:visible;"/>
		</clipPath>
		<g id="XMLID_1028_" class="st7">
			<g id="XMLID_1029_">
				<path id="XMLID_1030_" class="st8" d="M201,289.1L201,289.1L201,289.1c-1-0.1-1.8-0.9-1.7-1.9l0,0c0.1-1,0.9-1.8,1.9-1.7l0,0
					c1,0.1,1.8,0.9,1.7,1.9l0,0C202.9,288.4,202.1,289.1,201,289.1L201,289.1C201.1,289.1,201.1,289.1,201,289.1z M208.8,287.4
					c-0.1-1,0.7-1.9,1.7-1.9l0,0c1-0.1,1.9,0.7,1.9,1.7l0,0c0.1,1-0.7,1.9-1.7,1.9l0,0h-0.1l0,0
					C209.7,289.1,208.9,288.4,208.8,287.4z M191.4,288.1c-1-0.2-1.7-1.1-1.5-2.1l0,0c0.2-1,1.1-1.7,2.1-1.5l0,0
					c1,0.2,1.7,1.1,1.5,2.1l0,0c-0.1,0.9-0.9,1.5-1.8,1.5l0,0C191.6,288.1,191.5,288.1,191.4,288.1z M218.3,286.6
					c-0.2-1,0.5-1.9,1.5-2.1l0,0c1-0.2,1.9,0.5,2.1,1.5l0,0c0.2,1-0.5,1.9-1.5,2.1l0,0l0,0l0,0c-0.1,0-0.2,0-0.3,0l0,0
					C219.2,288.1,218.4,287.5,218.3,286.6z M182,286c-1-0.3-1.5-1.3-1.3-2.2l0,0c0.3-1,1.3-1.5,2.2-1.3l0,0c1,0.3,1.5,1.3,1.3,2.2
					l0,0c-0.2,0.8-0.9,1.3-1.7,1.3l0,0C182.3,286.1,182.1,286.1,182,286z M227.6,284.7c-0.3-1,0.3-2,1.3-2.2l0,0
					c1-0.3,2,0.3,2.2,1.3l0,0c0.3,1-0.3,2-1.3,2.2l0,0c-0.2,0-0.3,0.1-0.5,0.1l0,0C228.5,286.1,227.8,285.5,227.6,284.7z M172.8,283
					c-0.9-0.4-1.4-1.4-1-2.4l0,0c0.4-0.9,1.4-1.4,2.4-1l0,0c0.9,0.4,1.4,1.4,1,2.4l0,0c-0.3,0.7-1,1.1-1.7,1.1l0,0
					C173.2,283.1,173,283,172.8,283z M236.6,281.9c-0.4-0.9,0.1-2,1-2.4l0,0c0.9-0.4,2,0.1,2.4,1l0,0c0.4,0.9-0.1,2-1,2.4l0,0
					c-0.2,0.1-0.4,0.1-0.7,0.1l0,0C237.6,283,236.9,282.6,236.6,281.9z M164,278.9c-0.9-0.5-1.2-1.6-0.8-2.4l0,0
					c0.5-0.9,1.6-1.2,2.4-0.8l0,0c0.9,0.5,1.2,1.6,0.8,2.4l0,0c-0.3,0.6-1,1-1.6,1l0,0C164.6,279.1,164.3,279,164,278.9z
					 M245.3,278.1c-0.5-0.9-0.1-2,0.7-2.4l0,0c0.9-0.5,2-0.1,2.4,0.7l0,0c0.5,0.9,0.1,2-0.7,2.4l0,0c-0.3,0.1-0.6,0.2-0.9,0.2l0,0
					C246.2,279.1,245.6,278.7,245.3,278.1z M155.7,273.9c-0.8-0.6-1-1.7-0.5-2.5l0,0c0.6-0.8,1.7-1,2.5-0.5l0,0
					c0.8,0.6,1,1.7,0.5,2.5l0,0c-0.3,0.5-0.9,0.8-1.5,0.8l0,0C156.4,274.2,156,274.1,155.7,273.9z M253.5,273.4
					c-0.6-0.8-0.3-2,0.5-2.5l0,0c0.8-0.6,2-0.3,2.5,0.5l0,0c0.6,0.8,0.3,1.9-0.5,2.5l0,0c-0.3,0.2-0.7,0.3-1,0.3l0,0
					C254.4,274.2,253.9,273.9,253.5,273.4z M148,268c-0.8-0.7-0.9-1.8-0.2-2.6l0,0c0.7-0.8,1.8-0.9,2.6-0.2l0,0
					c0.8,0.6,0.9,1.8,0.2,2.5l0,0c-0.4,0.4-0.9,0.6-1.4,0.6l0,0C148.8,268.5,148.3,268.3,148,268z M261.2,267.8
					c-0.7-0.8-0.6-1.9,0.2-2.5l0,0c0.8-0.7,1.9-0.6,2.5,0.2l0,0c0.7,0.8,0.6,1.9-0.2,2.5l0,0c-0.3,0.3-0.8,0.4-1.2,0.4l0,0
					C262,268.4,261.5,268.2,261.2,267.8z M141,261.4c-0.7-0.7-0.7-1.9,0.1-2.6l0,0c0.7-0.7,1.9-0.7,2.6,0.1l0,0
					c0.7,0.7,0.7,1.9-0.1,2.6l0,0c-0.3,0.3-0.8,0.5-1.2,0.5l0,0C141.8,261.9,141.3,261.8,141,261.4z M268.2,261.4
					c-0.7-0.7-0.8-1.8-0.1-2.6l0,0c0.7-0.7,1.8-0.8,2.6-0.1l0,0c0.7,0.7,0.8,1.8,0.1,2.6l0,0l0,0l0,0c-0.4,0.4-0.8,0.6-1.3,0.6l0,0
					C269,261.9,268.5,261.7,268.2,261.4z M134.7,254L134.7,254L134.7,254c-0.6-0.8-0.5-1.9,0.3-2.5l0,0c0.8-0.6,1.9-0.5,2.5,0.3l0,0
					c0.6,0.8,0.5,1.9-0.3,2.5l0,0c-0.3,0.3-0.7,0.4-1.1,0.4l0,0C135.6,254.7,135.1,254.5,134.7,254z M274.5,254.3
					c-0.8-0.6-1-1.7-0.3-2.5l0,0c0.6-0.8,1.7-1,2.5-0.3l0,0c0.8,0.6,0.9,1.7,0.3,2.5l0,0c-0.4,0.5-0.9,0.7-1.4,0.7l0,0
					C275.2,254.7,274.8,254.5,274.5,254.3z M129.3,246c-0.5-0.9-0.2-2,0.6-2.5l0,0c0.9-0.5,2-0.2,2.5,0.6l0,0c0.5,0.9,0.2,2-0.6,2.5
					l0,0c-0.3,0.2-0.6,0.3-0.9,0.3l0,0C130.2,246.9,129.6,246.6,129.3,246z M280,246.6c-0.9-0.5-1.1-1.6-0.6-2.5l0,0
					c0.5-0.9,1.6-1.1,2.5-0.6l0,0c0.9,0.5,1.1,1.6,0.6,2.5l0,0c-0.3,0.6-0.9,0.9-1.6,0.9l0,0C280.6,246.8,280.2,246.7,280,246.6z
					 M124.7,237.5c-0.4-0.9,0-2,0.9-2.4l0,0c0.9-0.4,2,0,2.4,0.9l0,0c0.4,0.9,0,2-0.9,2.4l0,0c-0.3,0.1-0.5,0.2-0.8,0.2l0,0
					C125.7,238.5,125,238.1,124.7,237.5z M284.6,238.3c-0.9-0.4-1.3-1.5-0.9-2.4l0,0c0.4-0.9,1.5-1.3,2.4-0.9l0,0
					c0.9,0.4,1.3,1.5,0.9,2.4l0,0c-0.3,0.7-1,1.1-1.6,1.1l0,0C285.1,238.5,284.8,238.4,284.6,238.3z M121.1,228.5L121.1,228.5
					L121.1,228.5c-0.3-0.9,0.2-2,1.1-2.3l0,0c0.9-0.3,2,0.2,2.3,1.1l0,0c0.3,0.9-0.2,2-1.1,2.3l0,0c-0.2,0.1-0.4,0.1-0.6,0.1l0,0
					C122.1,229.7,121.4,229.2,121.1,228.5z M288.3,229.5c-0.9-0.3-1.5-1.3-1.1-2.3l0,0c0.3-0.9,1.3-1.5,2.3-1.1l0,0
					c0.9,0.3,1.5,1.3,1.1,2.3l0,0c-0.3,0.8-1,1.2-1.7,1.2l0,0C288.7,229.6,288.5,229.6,288.3,229.5z M118.5,219.2
					c-0.2-1,0.4-1.9,1.4-2.2l0,0c1-0.2,1.9,0.4,2.2,1.4l0,0c0.2,1-0.4,1.9-1.4,2.2l0,0c-0.1,0-0.3,0-0.4,0l0,0
					C119.5,220.6,118.7,220,118.5,219.2z M291,220.5c-1-0.2-1.6-1.2-1.4-2.2l0,0c0.2-1,1.2-1.6,2.2-1.4l0,0c1,0.2,1.6,1.2,1.4,2.2
					l0,0l0,0l0,0c-0.2,0.8-0.9,1.4-1.8,1.4l0,0C291.2,220.5,291.1,220.5,291,220.5z M117,209.6c-0.1-1,0.6-1.9,1.6-2l0,0
					c1-0.1,1.9,0.6,2,1.6l0,0c0.1,1-0.6,1.9-1.6,2l0,0c-0.1,0-0.1,0-0.2,0l0,0C117.9,211.2,117.1,210.5,117,209.6z M292.7,211.1
					c-1-0.1-1.7-1-1.6-2l0,0c0.1-1,1-1.7,2-1.6l0,0c1,0.1,1.7,1,1.6,2l0,0l0,0l0,0c-0.1,0.9-0.9,1.6-1.8,1.6l0,0
					C292.8,211.1,292.8,211.1,292.7,211.1z M116.4,200L116.4,200L116.4,200c0-1,0.8-1.8,1.8-1.8l0,0c1,0,1.8,0.8,1.8,1.8l0,0
					c0,1-0.8,1.8-1.8,1.8l0,0C117.3,201.8,116.4,201,116.4,200z M291.6,199.9L291.6,199.9C291.6,199.8,291.6,199.8,291.6,199.9
					L291.6,199.9c0-0.1,0-0.1,0-0.2l0,0c0-1,0.8-1.8,1.8-1.8l0,0c1,0,1.8,0.8,1.8,1.8l0,0v0.1l0,0v0.1l0,0l0,0l0,0
					c0,1-0.8,1.8-1.8,1.8l0,0C292.4,201.7,291.6,200.9,291.6,199.9z M118.6,192.3c-1-0.1-1.7-1-1.6-2l0,0c0.1-1,1-1.7,2-1.6l0,0
					c1,0.1,1.7,1,1.6,2l0,0c-0.1,0.9-0.9,1.6-1.8,1.6l0,0C118.7,192.3,118.6,192.3,118.6,192.3z M291.1,190.4L291.1,190.4
					c-0.1-1,0.6-1.9,1.6-2l0,0c1-0.1,1.9,0.6,2,1.6l0,0c0.1,1-0.6,1.9-1.6,2l0,0c-0.1,0-0.1,0-0.2,0l0,0
					C292,192,291.2,191.3,291.1,190.4z M119.9,182.9c-1-0.2-1.6-1.2-1.4-2.2l0,0l0,0l0,0c0.2-1,1.2-1.6,2.2-1.4l0,0
					c1,0.2,1.6,1.2,1.4,2.2l0,0c-0.2,0.8-0.9,1.4-1.8,1.4l0,0C120.1,182.9,120,182.9,119.9,182.9z M289.6,181.3
					c-0.2-1,0.4-1.9,1.4-2.2l0,0c1-0.2,1.9,0.4,2.2,1.4l0,0c0.2,1-0.4,1.9-1.4,2.2l0,0c-0.1,0-0.3,0-0.4,0l0,0
					C290.5,182.7,289.8,182.1,289.6,181.3z M122.2,173.7c-0.9-0.3-1.5-1.3-1.1-2.3l0,0l0,0l0,0c0.3-0.9,1.3-1.5,2.3-1.1l0,0
					c0.9,0.3,1.5,1.3,1.1,2.3l0,0c-0.3,0.8-1,1.2-1.7,1.2l0,0C122.6,173.8,122.4,173.8,122.2,173.7z M287.1,172.3
					c-0.3-0.9,0.2-2,1.1-2.3l0,0c0.9-0.3,2,0.2,2.3,1.1l0,0l0,0l0,0c0.3,0.9-0.2,2-1.1,2.3l0,0c-0.2,0.1-0.4,0.1-0.6,0.1l0,0
					C288,173.5,287.3,173.1,287.1,172.3z M125.5,164.8c-0.9-0.4-1.3-1.5-0.9-2.4l0,0c0.4-0.9,1.5-1.3,2.4-0.9l0,0
					c0.9,0.4,1.3,1.5,0.9,2.4l0,0c-0.3,0.7-1,1.1-1.6,1.1l0,0C126,165,125.8,164.9,125.5,164.8z M283.6,163.7c-0.4-0.9,0-2,0.9-2.4
					l0,0c0.9-0.4,2,0,2.4,0.9l0,0c0.4,0.9,0,2-0.9,2.4l0,0c-0.2,0.1-0.5,0.2-0.8,0.2l0,0C284.6,164.7,283.9,164.4,283.6,163.7z
					 M129.8,156.4c-0.9-0.5-1.1-1.6-0.6-2.5l0,0l0,0l0,0c0.5-0.9,1.6-1.1,2.5-0.6l0,0c0.9,0.5,1.1,1.6,0.6,2.5l0,0
					c-0.3,0.6-0.9,0.9-1.5,0.9l0,0C130.4,156.6,130.1,156.5,129.8,156.4z M279.2,155.5c-0.5-0.9-0.2-2,0.6-2.5l0,0
					c0.9-0.5,2-0.2,2.5,0.6l0,0c0.5,0.9,0.2,2-0.6,2.5l0,0c-0.3,0.2-0.6,0.3-0.9,0.3l0,0C280.2,156.4,279.6,156.1,279.2,155.5z
					 M134.9,148.4c-0.8-0.6-0.9-1.7-0.3-2.5l0,0c0.6-0.8,1.7-1,2.5-0.3l0,0c0.8,0.6,1,1.7,0.3,2.5l0,0c-0.4,0.5-0.9,0.7-1.4,0.7l0,0
					C135.7,148.8,135.3,148.6,134.9,148.4z M274,147.8c-0.6-0.8-0.5-1.9,0.3-2.5l0,0c0.8-0.6,1.9-0.5,2.5,0.3l0,0
					c0.6,0.8,0.5,1.9-0.3,2.5l0,0c-0.3,0.2-0.7,0.4-1.1,0.4l0,0C274.9,148.6,274.4,148.3,274,147.8z M140.9,141
					c-0.7-0.7-0.8-1.8-0.1-2.6l0,0c0.7-0.7,1.8-0.8,2.6-0.1l0,0c0.7,0.7,0.8,1.8,0.1,2.6l0,0c-0.4,0.4-0.8,0.6-1.3,0.6l0,0
					C141.7,141.5,141.3,141.4,140.9,141z M268,140.8c-0.7-0.7-0.7-1.9,0.1-2.6l0,0c0.7-0.7,1.9-0.7,2.6,0.1l0,0l0,0l0,0
					c0.7,0.7,0.7,1.9-0.1,2.6l0,0c-0.3,0.3-0.8,0.5-1.2,0.5l0,0C268.8,141.3,268.3,141.2,268,140.8z M147.7,134.4
					c-0.7-0.8-0.6-1.9,0.2-2.5l0,0l0,0l0,0c0.8-0.7,1.9-0.6,2.5,0.2l0,0c0.7,0.8,0.6,1.9-0.2,2.5l0,0c-0.3,0.3-0.8,0.4-1.2,0.4l0,0
					C148.5,135,148,134.8,147.7,134.4z M261.2,134.4c-0.8-0.6-0.9-1.8-0.2-2.5l0,0c0.7-0.8,1.8-0.9,2.6-0.2l0,0l0,0l0,0
					c0.8,0.6,0.9,1.8,0.2,2.5l0,0c-0.4,0.4-0.9,0.6-1.4,0.6l0,0C262,134.8,261.6,134.7,261.2,134.4z M155.1,128.5
					c-0.6-0.8-0.3-2,0.5-2.5l0,0l0,0l0,0c0.8-0.6,1.9-0.3,2.5,0.5l0,0c0.6,0.8,0.3,2-0.5,2.5l0,0c-0.3,0.2-0.7,0.3-1,0.3l0,0
					C156,129.3,155.4,129,155.1,128.5z M253.8,128.8L253.8,128.8c-0.8-0.6-1-1.7-0.5-2.5l0,0c0.6-0.8,1.7-1,2.5-0.5l0,0
					c0.8,0.6,1,1.7,0.5,2.5l0,0c-0.3,0.5-0.9,0.8-1.5,0.8l0,0C254.5,129.1,254.2,129,253.8,128.8z M163.1,123.4
					c-0.5-0.9-0.1-2,0.7-2.4l0,0c0.9-0.5,2-0.1,2.4,0.7l0,0c0.5,0.9,0.1,2-0.7,2.4l0,0c-0.3,0.1-0.6,0.2-0.8,0.2l0,0
					C164,124.3,163.4,124,163.1,123.4z M245.9,124L245.9,124c-0.9-0.5-1.2-1.6-0.8-2.4l0,0c0.5-0.9,1.6-1.2,2.4-0.8l0,0l0,0l0,0
					c0.9,0.5,1.2,1.6,0.8,2.4l0,0c-0.3,0.6-1,1-1.6,1l0,0C246.4,124.2,246.1,124.2,245.9,124z M171.6,119.2c-0.4-0.9,0.1-2,1-2.4
					l0,0l0,0l0,0c0.9-0.4,2,0.1,2.4,1l0,0c0.4,0.9-0.1,2-1,2.4l0,0c-0.2,0.1-0.4,0.1-0.7,0.1l0,0
					C172.6,120.4,171.9,119.9,171.6,119.2z M237.4,120.1c-0.9-0.4-1.4-1.4-1-2.4l0,0c0.4-0.9,1.4-1.4,2.4-1l0,0
					c0.9,0.4,1.4,1.4,1,2.4l0,0c-0.3,0.7-1,1.1-1.7,1.1l0,0C237.9,120.3,237.7,120.2,237.4,120.1z M180.5,116c-0.3-1,0.3-2,1.3-2.2
					l0,0c1-0.3,2,0.3,2.2,1.3l0,0c0.3,1-0.3,2-1.3,2.2l0,0c-0.2,0-0.3,0.1-0.5,0.1l0,0C181.5,117.3,180.8,116.8,180.5,116z
					 M228.6,117.2L228.6,117.2c-1-0.3-1.5-1.3-1.3-2.2l0,0c0.3-1,1.3-1.5,2.2-1.3l0,0c1,0.3,1.5,1.3,1.3,2.2l0,0
					c-0.2,0.8-0.9,1.3-1.7,1.3l0,0C229,117.2,228.8,117.2,228.6,117.2z M189.7,113.7c-0.2-1,0.5-1.9,1.5-2.1l0,0
					c1-0.2,1.9,0.5,2.1,1.5l0,0c0.2,1-0.5,1.9-1.5,2.1l0,0c-0.1,0-0.2,0-0.3,0l0,0C190.7,115.3,189.9,114.6,189.7,113.7z
					 M219.6,115.2c-1-0.2-1.7-1.1-1.5-2.1l0,0c0.2-1,1.1-1.7,2.1-1.5l0,0c1,0.2,1.7,1.1,1.5,2.1l0,0c-0.1,0.9-0.9,1.5-1.8,1.5l0,0
					C219.8,115.2,219.7,115.2,219.6,115.2z M199.1,112.5c-0.1-1,0.7-1.9,1.7-1.9l0,0c1-0.1,1.9,0.7,1.9,1.7l0,0
					c0.1,1-0.7,1.9-1.7,1.9l0,0h-0.1l0,0C200,114.2,199.2,113.5,199.1,112.5z M210.3,114.2c-1-0.1-1.8-0.9-1.7-1.9l0,0
					c0.1-1,0.9-1.8,1.9-1.7l0,0c1,0.1,1.8,0.9,1.7,1.9l0,0C212.2,113.5,211.4,114.2,210.3,114.2L210.3,114.2
					C210.4,114.2,210.4,114.2,210.3,114.2z"/>
			</g>
		</g>
	</g>
	<g>
		<defs>
			<rect id="SVGID_17_" x="24.8" y="19.2" width="362.1" height="362.1"/>
		</defs>
		<clipPath id="SVGID_18_">
			<use xlink:href="#SVGID_17_"  style="overflow:visible;"/>
		</clipPath>
		<g id="XMLID_967_" class="st9">
			<g id="XMLID_968_">
				<path id="XMLID_969_" class="st8" d="M201,289.1L201,289.1L201,289.1c-1-0.1-1.8-0.9-1.7-1.9l0,0c0.1-1,0.9-1.8,1.9-1.7l0,0
					c1,0.1,1.8,0.9,1.7,1.9l0,0C202.9,288.4,202.1,289.1,201,289.1L201,289.1C201.1,289.1,201.1,289.1,201,289.1z M208.8,287.4
					c-0.1-1,0.7-1.9,1.7-1.9l0,0c1-0.1,1.9,0.7,1.9,1.7l0,0c0.1,1-0.7,1.9-1.7,1.9l0,0h-0.1l0,0
					C209.7,289.1,208.9,288.4,208.8,287.4z M191.4,288.1c-1-0.2-1.7-1.1-1.5-2.1l0,0c0.2-1,1.1-1.7,2.1-1.5l0,0
					c1,0.2,1.7,1.1,1.5,2.1l0,0c-0.1,0.9-0.9,1.5-1.8,1.5l0,0C191.6,288.1,191.5,288.1,191.4,288.1z M218.3,286.6
					c-0.2-1,0.5-1.9,1.5-2.1l0,0c1-0.2,1.9,0.5,2.1,1.5l0,0c0.2,1-0.5,1.9-1.5,2.1l0,0l0,0l0,0c-0.1,0-0.2,0-0.3,0l0,0
					C219.2,288.1,218.4,287.5,218.3,286.6z M182,286c-1-0.3-1.5-1.3-1.3-2.2l0,0c0.3-1,1.3-1.5,2.2-1.3l0,0c1,0.3,1.5,1.3,1.3,2.2
					l0,0c-0.2,0.8-0.9,1.3-1.7,1.3l0,0C182.3,286.1,182.1,286.1,182,286z M227.6,284.7c-0.3-1,0.3-2,1.3-2.2l0,0
					c1-0.3,2,0.3,2.2,1.3l0,0c0.3,1-0.3,2-1.3,2.2l0,0c-0.2,0-0.3,0.1-0.5,0.1l0,0C228.5,286.1,227.8,285.5,227.6,284.7z M172.8,283
					c-0.9-0.4-1.4-1.4-1-2.4l0,0c0.4-0.9,1.4-1.4,2.4-1l0,0c0.9,0.4,1.4,1.4,1,2.4l0,0c-0.3,0.7-1,1.1-1.7,1.1l0,0
					C173.2,283.1,173,283,172.8,283z M236.6,281.9c-0.4-0.9,0.1-2,1-2.4l0,0c0.9-0.4,2,0.1,2.4,1l0,0c0.4,0.9-0.1,2-1,2.4l0,0
					c-0.2,0.1-0.4,0.1-0.7,0.1l0,0C237.6,283,236.9,282.6,236.6,281.9z M164,278.9c-0.9-0.5-1.2-1.6-0.8-2.4l0,0
					c0.5-0.9,1.6-1.2,2.4-0.8l0,0c0.9,0.5,1.2,1.6,0.8,2.4l0,0c-0.3,0.6-1,1-1.6,1l0,0C164.6,279.1,164.3,279,164,278.9z
					 M245.3,278.1c-0.5-0.9-0.1-2,0.7-2.4l0,0c0.9-0.5,2-0.1,2.4,0.7l0,0c0.5,0.9,0.1,2-0.7,2.4l0,0c-0.3,0.1-0.6,0.2-0.9,0.2l0,0
					C246.2,279.1,245.6,278.7,245.3,278.1z M155.7,273.9c-0.8-0.6-1-1.7-0.5-2.5l0,0c0.6-0.8,1.7-1,2.5-0.5l0,0
					c0.8,0.6,1,1.7,0.5,2.5l0,0c-0.3,0.5-0.9,0.8-1.5,0.8l0,0C156.4,274.2,156,274.1,155.7,273.9z M253.5,273.4
					c-0.6-0.8-0.3-2,0.5-2.5l0,0c0.8-0.6,2-0.3,2.5,0.5l0,0c0.6,0.8,0.3,1.9-0.5,2.5l0,0c-0.3,0.2-0.7,0.3-1,0.3l0,0
					C254.4,274.2,253.9,273.9,253.5,273.4z M148,268c-0.8-0.7-0.9-1.8-0.2-2.6l0,0c0.7-0.8,1.8-0.9,2.6-0.2l0,0
					c0.8,0.6,0.9,1.8,0.2,2.5l0,0c-0.4,0.4-0.9,0.6-1.4,0.6l0,0C148.8,268.5,148.3,268.3,148,268z M261.2,267.8
					c-0.7-0.8-0.6-1.9,0.2-2.5l0,0c0.8-0.7,1.9-0.6,2.5,0.2l0,0c0.7,0.8,0.6,1.9-0.2,2.5l0,0c-0.3,0.3-0.8,0.4-1.2,0.4l0,0
					C262,268.4,261.5,268.2,261.2,267.8z M141,261.4c-0.7-0.7-0.7-1.9,0.1-2.6l0,0c0.7-0.7,1.9-0.7,2.6,0.1l0,0
					c0.7,0.7,0.7,1.9-0.1,2.6l0,0c-0.3,0.3-0.8,0.5-1.2,0.5l0,0C141.8,261.9,141.3,261.8,141,261.4z M268.2,261.4
					c-0.7-0.7-0.8-1.8-0.1-2.6l0,0c0.7-0.7,1.8-0.8,2.6-0.1l0,0c0.7,0.7,0.8,1.8,0.1,2.6l0,0l0,0l0,0c-0.4,0.4-0.8,0.6-1.3,0.6l0,0
					C269,261.9,268.5,261.7,268.2,261.4z M134.7,254L134.7,254L134.7,254c-0.6-0.8-0.5-1.9,0.3-2.5l0,0c0.8-0.6,1.9-0.5,2.5,0.3l0,0
					c0.6,0.8,0.5,1.9-0.3,2.5l0,0c-0.3,0.3-0.7,0.4-1.1,0.4l0,0C135.6,254.7,135.1,254.5,134.7,254z M274.5,254.3
					c-0.8-0.6-1-1.7-0.3-2.5l0,0c0.6-0.8,1.7-1,2.5-0.3l0,0c0.8,0.6,0.9,1.7,0.3,2.5l0,0c-0.4,0.5-0.9,0.7-1.4,0.7l0,0
					C275.2,254.7,274.8,254.5,274.5,254.3z M129.3,246c-0.5-0.9-0.2-2,0.6-2.5l0,0c0.9-0.5,2-0.2,2.5,0.6l0,0c0.5,0.9,0.2,2-0.6,2.5
					l0,0c-0.3,0.2-0.6,0.3-0.9,0.3l0,0C130.2,246.9,129.6,246.6,129.3,246z M280,246.6c-0.9-0.5-1.1-1.6-0.6-2.5l0,0
					c0.5-0.9,1.6-1.1,2.5-0.6l0,0c0.9,0.5,1.1,1.6,0.6,2.5l0,0c-0.3,0.6-0.9,0.9-1.6,0.9l0,0C280.6,246.8,280.2,246.7,280,246.6z
					 M124.7,237.5c-0.4-0.9,0-2,0.9-2.4l0,0c0.9-0.4,2,0,2.4,0.9l0,0c0.4,0.9,0,2-0.9,2.4l0,0c-0.3,0.1-0.5,0.2-0.8,0.2l0,0
					C125.7,238.5,125,238.1,124.7,237.5z M284.6,238.3c-0.9-0.4-1.3-1.5-0.9-2.4l0,0c0.4-0.9,1.5-1.3,2.4-0.9l0,0
					c0.9,0.4,1.3,1.5,0.9,2.4l0,0c-0.3,0.7-1,1.1-1.6,1.1l0,0C285.1,238.5,284.8,238.4,284.6,238.3z M121.1,228.5L121.1,228.5
					L121.1,228.5c-0.3-0.9,0.2-2,1.1-2.3l0,0c0.9-0.3,2,0.2,2.3,1.1l0,0c0.3,0.9-0.2,2-1.1,2.3l0,0c-0.2,0.1-0.4,0.1-0.6,0.1l0,0
					C122.1,229.7,121.4,229.2,121.1,228.5z M288.3,229.5c-0.9-0.3-1.5-1.3-1.1-2.3l0,0c0.3-0.9,1.3-1.5,2.3-1.1l0,0
					c0.9,0.3,1.5,1.3,1.1,2.3l0,0c-0.3,0.8-1,1.2-1.7,1.2l0,0C288.7,229.6,288.5,229.6,288.3,229.5z M118.5,219.2
					c-0.2-1,0.4-1.9,1.4-2.2l0,0c1-0.2,1.9,0.4,2.2,1.4l0,0c0.2,1-0.4,1.9-1.4,2.2l0,0c-0.1,0-0.3,0-0.4,0l0,0
					C119.5,220.6,118.7,220,118.5,219.2z M291,220.5c-1-0.2-1.6-1.2-1.4-2.2l0,0c0.2-1,1.2-1.6,2.2-1.4l0,0c1,0.2,1.6,1.2,1.4,2.2
					l0,0l0,0l0,0c-0.2,0.8-0.9,1.4-1.8,1.4l0,0C291.2,220.5,291.1,220.5,291,220.5z M117,209.6c-0.1-1,0.6-1.9,1.6-2l0,0
					c1-0.1,1.9,0.6,2,1.6l0,0c0.1,1-0.6,1.9-1.6,2l0,0c-0.1,0-0.1,0-0.2,0l0,0C117.9,211.2,117.1,210.5,117,209.6z M292.7,211.1
					c-1-0.1-1.7-1-1.6-2l0,0c0.1-1,1-1.7,2-1.6l0,0c1,0.1,1.7,1,1.6,2l0,0l0,0l0,0c-0.1,0.9-0.9,1.6-1.8,1.6l0,0
					C292.8,211.1,292.8,211.1,292.7,211.1z M116.4,200L116.4,200L116.4,200c0-1,0.8-1.8,1.8-1.8l0,0c1,0,1.8,0.8,1.8,1.8l0,0
					c0,1-0.8,1.8-1.8,1.8l0,0C117.3,201.8,116.4,201,116.4,200z M291.6,199.9L291.6,199.9C291.6,199.8,291.6,199.8,291.6,199.9
					L291.6,199.9c0-0.1,0-0.1,0-0.2l0,0c0-1,0.8-1.8,1.8-1.8l0,0c1,0,1.8,0.8,1.8,1.8l0,0v0.1l0,0v0.1l0,0l0,0l0,0
					c0,1-0.8,1.8-1.8,1.8l0,0C292.4,201.7,291.6,200.9,291.6,199.9z M118.6,192.3c-1-0.1-1.7-1-1.6-2l0,0c0.1-1,1-1.7,2-1.6l0,0
					c1,0.1,1.7,1,1.6,2l0,0c-0.1,0.9-0.9,1.6-1.8,1.6l0,0C118.7,192.3,118.6,192.3,118.6,192.3z M291.1,190.4L291.1,190.4
					c-0.1-1,0.6-1.9,1.6-2l0,0c1-0.1,1.9,0.6,2,1.6l0,0c0.1,1-0.6,1.9-1.6,2l0,0c-0.1,0-0.1,0-0.2,0l0,0
					C292,192,291.2,191.3,291.1,190.4z M119.9,182.9c-1-0.2-1.6-1.2-1.4-2.2l0,0l0,0l0,0c0.2-1,1.2-1.6,2.2-1.4l0,0
					c1,0.2,1.6,1.2,1.4,2.2l0,0c-0.2,0.8-0.9,1.4-1.8,1.4l0,0C120.1,182.9,120,182.9,119.9,182.9z M289.6,181.3
					c-0.2-1,0.4-1.9,1.4-2.2l0,0c1-0.2,1.9,0.4,2.2,1.4l0,0c0.2,1-0.4,1.9-1.4,2.2l0,0c-0.1,0-0.3,0-0.4,0l0,0
					C290.5,182.7,289.8,182.1,289.6,181.3z M122.2,173.7c-0.9-0.3-1.5-1.3-1.1-2.3l0,0l0,0l0,0c0.3-0.9,1.3-1.5,2.3-1.1l0,0
					c0.9,0.3,1.5,1.3,1.1,2.3l0,0c-0.3,0.8-1,1.2-1.7,1.2l0,0C122.6,173.8,122.4,173.8,122.2,173.7z M287.1,172.3
					c-0.3-0.9,0.2-2,1.1-2.3l0,0c0.9-0.3,2,0.2,2.3,1.1l0,0l0,0l0,0c0.3,0.9-0.2,2-1.1,2.3l0,0c-0.2,0.1-0.4,0.1-0.6,0.1l0,0
					C288,173.5,287.3,173.1,287.1,172.3z M125.5,164.8c-0.9-0.4-1.3-1.5-0.9-2.4l0,0c0.4-0.9,1.5-1.3,2.4-0.9l0,0
					c0.9,0.4,1.3,1.5,0.9,2.4l0,0c-0.3,0.7-1,1.1-1.6,1.1l0,0C126,165,125.8,164.9,125.5,164.8z M283.6,163.7c-0.4-0.9,0-2,0.9-2.4
					l0,0c0.9-0.4,2,0,2.4,0.9l0,0c0.4,0.9,0,2-0.9,2.4l0,0c-0.2,0.1-0.5,0.2-0.8,0.2l0,0C284.6,164.7,283.9,164.4,283.6,163.7z
					 M129.8,156.4c-0.9-0.5-1.1-1.6-0.6-2.5l0,0l0,0l0,0c0.5-0.9,1.6-1.1,2.5-0.6l0,0c0.9,0.5,1.1,1.6,0.6,2.5l0,0
					c-0.3,0.6-0.9,0.9-1.5,0.9l0,0C130.4,156.6,130.1,156.5,129.8,156.4z M279.2,155.5c-0.5-0.9-0.2-2,0.6-2.5l0,0
					c0.9-0.5,2-0.2,2.5,0.6l0,0c0.5,0.9,0.2,2-0.6,2.5l0,0c-0.3,0.2-0.6,0.3-0.9,0.3l0,0C280.2,156.4,279.6,156.1,279.2,155.5z
					 M134.9,148.4c-0.8-0.6-0.9-1.7-0.3-2.5l0,0c0.6-0.8,1.7-1,2.5-0.3l0,0c0.8,0.6,1,1.7,0.3,2.5l0,0c-0.4,0.5-0.9,0.7-1.4,0.7l0,0
					C135.7,148.8,135.3,148.6,134.9,148.4z M274,147.8c-0.6-0.8-0.5-1.9,0.3-2.5l0,0c0.8-0.6,1.9-0.5,2.5,0.3l0,0
					c0.6,0.8,0.5,1.9-0.3,2.5l0,0c-0.3,0.2-0.7,0.4-1.1,0.4l0,0C274.9,148.6,274.4,148.3,274,147.8z M140.9,141
					c-0.7-0.7-0.8-1.8-0.1-2.6l0,0c0.7-0.7,1.8-0.8,2.6-0.1l0,0c0.7,0.7,0.8,1.8,0.1,2.6l0,0c-0.4,0.4-0.8,0.6-1.3,0.6l0,0
					C141.7,141.5,141.3,141.4,140.9,141z M268,140.8c-0.7-0.7-0.7-1.9,0.1-2.6l0,0c0.7-0.7,1.9-0.7,2.6,0.1l0,0l0,0l0,0
					c0.7,0.7,0.7,1.9-0.1,2.6l0,0c-0.3,0.3-0.8,0.5-1.2,0.5l0,0C268.8,141.3,268.3,141.2,268,140.8z M147.7,134.4
					c-0.7-0.8-0.6-1.9,0.2-2.5l0,0l0,0l0,0c0.8-0.7,1.9-0.6,2.5,0.2l0,0c0.7,0.8,0.6,1.9-0.2,2.5l0,0c-0.3,0.3-0.8,0.4-1.2,0.4l0,0
					C148.5,135,148,134.8,147.7,134.4z M261.2,134.4c-0.8-0.6-0.9-1.8-0.2-2.5l0,0c0.7-0.8,1.8-0.9,2.6-0.2l0,0l0,0l0,0
					c0.8,0.6,0.9,1.8,0.2,2.5l0,0c-0.4,0.4-0.9,0.6-1.4,0.6l0,0C262,134.8,261.6,134.7,261.2,134.4z M155.1,128.5
					c-0.6-0.8-0.3-2,0.5-2.5l0,0l0,0l0,0c0.8-0.6,1.9-0.3,2.5,0.5l0,0c0.6,0.8,0.3,2-0.5,2.5l0,0c-0.3,0.2-0.7,0.3-1,0.3l0,0
					C156,129.3,155.4,129,155.1,128.5z M253.8,128.8L253.8,128.8c-0.8-0.6-1-1.7-0.5-2.5l0,0c0.6-0.8,1.7-1,2.5-0.5l0,0
					c0.8,0.6,1,1.7,0.5,2.5l0,0c-0.3,0.5-0.9,0.8-1.5,0.8l0,0C254.5,129.1,254.2,129,253.8,128.8z M163.1,123.4
					c-0.5-0.9-0.1-2,0.7-2.4l0,0c0.9-0.5,2-0.1,2.4,0.7l0,0c0.5,0.9,0.1,2-0.7,2.4l0,0c-0.3,0.1-0.6,0.2-0.8,0.2l0,0
					C164,124.3,163.4,124,163.1,123.4z M245.9,124L245.9,124c-0.9-0.5-1.2-1.6-0.8-2.4l0,0c0.5-0.9,1.6-1.2,2.4-0.8l0,0l0,0l0,0
					c0.9,0.5,1.2,1.6,0.8,2.4l0,0c-0.3,0.6-1,1-1.6,1l0,0C246.4,124.2,246.1,124.2,245.9,124z M171.6,119.2c-0.4-0.9,0.1-2,1-2.4
					l0,0l0,0l0,0c0.9-0.4,2,0.1,2.4,1l0,0c0.4,0.9-0.1,2-1,2.4l0,0c-0.2,0.1-0.4,0.1-0.7,0.1l0,0
					C172.6,120.4,171.9,119.9,171.6,119.2z M237.4,120.1c-0.9-0.4-1.4-1.4-1-2.4l0,0c0.4-0.9,1.4-1.4,2.4-1l0,0
					c0.9,0.4,1.4,1.4,1,2.4l0,0c-0.3,0.7-1,1.1-1.7,1.1l0,0C237.9,120.3,237.7,120.2,237.4,120.1z M180.5,116c-0.3-1,0.3-2,1.3-2.2
					l0,0c1-0.3,2,0.3,2.2,1.3l0,0c0.3,1-0.3,2-1.3,2.2l0,0c-0.2,0-0.3,0.1-0.5,0.1l0,0C181.5,117.3,180.8,116.8,180.5,116z
					 M228.6,117.2L228.6,117.2c-1-0.3-1.5-1.3-1.3-2.2l0,0c0.3-1,1.3-1.5,2.2-1.3l0,0c1,0.3,1.5,1.3,1.3,2.2l0,0
					c-0.2,0.8-0.9,1.3-1.7,1.3l0,0C229,117.2,228.8,117.2,228.6,117.2z M189.7,113.7c-0.2-1,0.5-1.9,1.5-2.1l0,0
					c1-0.2,1.9,0.5,2.1,1.5l0,0c0.2,1-0.5,1.9-1.5,2.1l0,0c-0.1,0-0.2,0-0.3,0l0,0C190.7,115.3,189.9,114.6,189.7,113.7z
					 M219.6,115.2c-1-0.2-1.7-1.1-1.5-2.1l0,0c0.2-1,1.1-1.7,2.1-1.5l0,0c1,0.2,1.7,1.1,1.5,2.1l0,0c-0.1,0.9-0.9,1.5-1.8,1.5l0,0
					C219.8,115.2,219.7,115.2,219.6,115.2z M199.1,112.5c-0.1-1,0.7-1.9,1.7-1.9l0,0c1-0.1,1.9,0.7,1.9,1.7l0,0
					c0.1,1-0.7,1.9-1.7,1.9l0,0h-0.1l0,0C200,114.2,199.2,113.5,199.1,112.5z M210.3,114.2c-1-0.1-1.8-0.9-1.7-1.9l0,0
					c0.1-1,0.9-1.8,1.9-1.7l0,0c1,0.1,1.8,0.9,1.7,1.9l0,0C212.2,113.5,211.4,114.2,210.3,114.2L210.3,114.2
					C210.4,114.2,210.4,114.2,210.3,114.2z"/>
			</g>
		</g>
	</g>
	<g>
		<defs>
			<rect id="SVGID_19_" x="24.8" y="19.2" width="362.1" height="362.1"/>
		</defs>
		<clipPath id="SVGID_20_">
			<use xlink:href="#SVGID_19_"  style="overflow:visible;"/>
		</clipPath>
		<g id="XMLID_918_" class="st10">
			<g id="XMLID_943_">
				<path id="XMLID_964_" class="st11" d="M202.3,153.6c0,0-2.1,0.3-4.2-2.9c-2.1-3.3-16.3-2.6-17.6,7c0,0-1,2.6-7.7,7.2
					c-6.7,4.6-3.3,10.9-3.3,10.9s-4.1,3.9-3.6,6.7c0.5,2.8-7.3,7.7-2,23c0,0-4.4,9.5,3.1,13.9c0,0-3.7,5.5,2.8,8.5
					c0,0-2.1,9.8,9,14.7c0,0,2.8,8,10.8,6.5c0,0,2,4.2,7.2,1.8c0,0,2.8-1.5,5.5-0.7V153.6z"/>
				<g id="XMLID_944_">
					<path id="XMLID_963_" class="st12" d="M174.9,163.8c0,0,23.5-4.9,22.9-2.4c-0.6,2.6-8.4,1.1-0.9,6.2l0,0
						c0.9,0.4,1.1,1.5,0.6,2.3c-0.9,1.4-1.4,3.9,1.3,7.4l-0.8,2.2l-2.9-4.3c0,0-1.7,0.8-5.3-2.1c-0.5-0.4-1.3-0.1-1.4,0.5l-1,6
						c-0.2,1.3,0.1,2.5,0.8,3.6l0,0c1.4,2.1,4.3,2.7,6.5,1.4c0.7-0.4,1.1-0.7,1-0.7s-0.5-0.5-1-1c-0.3-0.4,0.2-0.9,0.5-0.6l2.8,2
						l4-0.4"/>
					<path id="XMLID_962_" class="st12" d="M178.2,176.9c0.1,1,0.3,2.1,0.9,2.9c0.6,0.8,1.9,1.2,2.7,0.6c1.1-0.9,0.5-3.1,1.7-3.9
						c0.5,1.8-0.3,3.8-1.7,5c-0.7,0.6-1.5,1-2.1,1.7c-0.6,0.7-0.8,1.8-0.2,2.4s1.5,0.5,2.4,0.5c0.8,0,1.8,0.2,2.1,0.9
						c-2.1,0.1-4.2,0.5-6.2,1.1c0.4,1.1-0.8,2.1-1.3,3.2c-0.2,0.5-0.3,1-0.4,1.6c-0.2,1.6-0.2,3.3,0.6,4.6c0.8,1.4,2.5,2.3,4,1.8
						c0.9-0.3,1.6-1.1,2.4-1.8c1.6-1.3,4.4-1.5,5.5,0.3c0.5,0.7,0.7,1.7,1.5,2.1c0.8,0.4,1.7-0.1,2.3-0.7c1-0.9,1.7-2.3,2-3.6"/>
					<path id="XMLID_961_" class="st12" d="M190.2,186.6c-0.5,1.1-1.1,2.1-1.8,3.1c-0.3,0.4-0.6,0.8-1,1.1c-0.3,0.2-0.7,0.3-1,0.4
						c-0.8,0.2-1.7,0.3-2.5,0.4"/>
					<path id="XMLID_960_" class="st12" d="M171.2,193.4c-1.2-0.3-2.6-0.7-3.6,0.1c-1,0.7-1.2,2.1-1.1,3.4c0.1,1.2,0.5,2.5,0.3,3.7
						c0,0.2-0.1,0.5-0.3,0.6c-0.4,0.5-1.2,0.4-1.8,0.1c-1-0.6-1.7-1.8-1.7-3"/>
					<path id="XMLID_959_" class="st12" d="M175.8,187.5c-0.2-0.2-0.3-0.5-0.5-0.7c-0.5-0.6-1-1.3-1.8-1.5c-0.7-0.2-1.4,0.1-2,0.6
						c-0.5,0.5-0.9,1.1-1.1,1.8c-0.1,0.3-0.3,0.6-0.5,0.8c-0.3,0.2-0.7,0.2-0.9,0c-0.1-0.1-0.1-0.3-0.2-0.4
						c-0.2-0.4-0.8-0.5-1.2-0.4c-0.4,0.2-0.7,0.6-1,1c-0.5,0.9-0.8,1.8-0.9,2.9c-0.4,0-0.7-0.4-0.9-0.7c-0.2-0.4-0.3-0.8-0.7-1
						c-0.4-0.2-0.9,0.1-0.8,0.5"/>
					<path id="XMLID_958_" class="st12" d="M176.6,183.2c0.2-0.4,0.1-0.8-0.1-1.2c-0.3-0.3-0.6-0.6-1-0.8c-0.7-0.4-1.5-0.9-2.3-1
						c-0.7-0.1-1.4,0.1-2.1,0.2c-0.4,0.1-0.9,0.2-1.3,0.5c-0.6,0.3-0.9,0.9-1.3,1.4c-0.3,0.4-0.6,0.9-0.8,1.3
						c-0.1,0.2-0.2,0.3-0.4,0.4c-0.2,0.1-0.4-0.1-0.4-0.3"/>
					<path id="XMLID_957_" class="st12" d="M190.5,216.7c1.2-0.3,2.5-0.7,3.3-1.7c1.1-1.5,0.5-3.7-0.8-5c-1.3-1.3-3.1-2-4.9-2.6
						c-1.7-0.6-3.5-1.2-5.2-1.8c-0.6-0.2-1.3-0.4-1.6-1c-0.4-0.5-0.4-1.3-0.7-1.9c-0.6-1.2-2.1-1.6-3.4-1.9
						c-0.8-0.2-1.7-0.3-2.5-0.2c-1.6,0.3-2.8,1.5-3.7,2.8c-0.5,0.7-0.9,1.4-1,2.2c0,0.8,0.5,1.7,1.2,1.8c0.6,0.1,1.1-0.2,1.6-0.6
						c0.7-0.5,1.2-1.2,1.9-1.7c0.7-0.5,1.6-0.7,2.4-0.4c0.9,0.4,1.2,1.5,1.3,2.5s0.1,2.1,0.7,2.9c0.6,0.8,1.5,1.2,2.5,1.2
						c1.9,0.1,4.9-1.9,5.7,0.7C188,214.2,187.4,217.4,190.5,216.7z"/>
					<path id="XMLID_956_" class="st12" d="M200.3,223.9c0.4-0.5,0.9-1.1,1.1-1.8c0.2-0.7,0.1-1.5-0.4-1.9s-1.2-0.4-1.9-0.5
						c-1.4-0.2-2.7-0.9-4.2-0.8c-1.1,0.1-2,0.7-2.9,1.3c-0.6,0.4-1.2,0.9-1.6,1.6c-0.6,1.2-0.2,2.8,0.7,3.8s2.2,1.6,3.5,2
						c0.5,0.2,1.1,0.5,1.1,1c0,0.3-0.4,0.6-0.7,0.6c-0.9,0.3-1.9-0.3-2.8-0.6c-1.3-0.4-2.8-0.4-4.1,0.2c-0.2,0.1-0.3,0.1-0.4,0.3
						c-0.2,0.3-0.1,0.7,0,1c0.8,1.7,2.2,3,3.9,3.6c2.7,1,5.8,0.1,8.5-0.8c0.4-0.1,0.7-0.2,1-0.5c0.6-0.6,0.5-1.5,0.3-2.3
						c-0.4-1.8-0.9-3.6-2-5.1c-0.6-0.9-1.5-1.5-2.4-2c-0.6-0.3-1.3-0.2-0.8-0.8C197.6,220.8,200.5,223.6,200.3,223.9z"/>
					<path id="XMLID_955_" class="st12" d="M197.5,200.4c0,1.5,0.1,2.9,0.1,4.4c0,0.3,0,0.7,0.2,1c0.3,0.8,1.4,0.9,2.1,0.4
						c0.7-0.5,0.9-1.5,1-2.3c0-0.9-0.1-1.8-0.2-2.6c-0.1-2.6,1-5.2,0.9-7.8c0-0.8-0.2-1.7-0.8-2.3c-0.7-0.7-1.9-0.7-2.6,0
						c-0.4,0.4-0.7,1.1-1.3,1.3c-0.4,0.1-0.8,0-1.2,0c-1,0.1-1.7,1.3-1.7,2.5c0,1.1,0.4,2.2,0.5,3.3c0.2,2.4-0.9,4.8-0.8,7.2
						c0.1,1.2,0.5,2.3,0.9,3.4c0.4,1.2,0.9,2.5,1.3,3.7c0.2,0.7,0.5,1.4,1.1,1.9c1.2,1,2.9,0.1,4.2-0.8c0.2-0.2,0.4-0.4,0.5-0.6
						c0.3-0.6,0.3-1.3,0.2-1.9c-0.2-0.9-0.3-1.7-0.5-2.7c0-0.2-0.1-0.4-0.2-0.5c-0.1-0.1-0.3-0.1-0.5-0.1c-0.7,0-1.4,0.2-1.9,0.7
						s-0.6,1.5-0.1,2"/>
					<path id="XMLID_954_" class="st12" d="M185.6,222.8c1-0.4,1.9-1.1,2.7-1.7c0.1-0.1,0.2-0.1,0.2-0.2c0.1-0.2,0-0.5-0.3-0.7
						c-0.7-0.6-2-0.7-2.3-1.6c-0.3-1,0.9-2.1,0.5-3c-0.9-0.8-2.4-0.6-3.2,0.3c-0.8,0.9-1,2.2-0.7,3.3c-1.3-0.1-2.8,0.3-3.3,1.5
						c-0.5,1.3,0.6,2.5,1.2,3.7c0.5,0.9,0.7,1.8,1.4,2.6c0.6,0.7,1.8,1.2,2.6,0.5c0.7-0.6,0.6-1.8,0.1-2.6c-0.4-0.6-1-1-1.4-1.6
						C184,223.2,184.8,223.2,185.6,222.8z"/>
					<path id="XMLID_953_" class="st12" d="M175.8,175.3c1-0.4,1.9-1.1,2.7-1.7c0.1-0.1,0.2-0.1,0.2-0.2c0.1-0.2,0-0.5-0.3-0.7
						c-0.7-0.6-2-0.7-2.3-1.6c-0.3-1,0.9-2.1,0.5-3c-0.9-0.8-2.4-0.6-3.2,0.3c-0.8,0.9-1,2.2-0.7,3.3c-1.3-0.1-2.8,0.3-3.3,1.5
						c-0.5,1.3,0.6,2.5,1.2,3.7c0.5,0.9,0.7,1.8,1.4,2.6c0.6,0.7,1.8,1.2,2.6,0.5c0.7-0.6,0.6-1.8,0.1-2.6c-0.4-0.6-1-1-1.4-1.6
						C174.2,175.7,175,175.7,175.8,175.3z"/>
					<path id="XMLID_952_" class="st12" d="M167.6,203c-0.4,0.2-0.9,0.3-1.3,0.3c-0.4,0-0.7,0-1.1,0c-0.4,0.1-0.7,0.3-0.8,0.6
						c-0.2,0.5,0.3,1,0.8,1.2c0.5,0.2,1,0.1,1.6,0.2c0.6,0.1,1.1,0.2,1.6,0.5c0.4,0.2,0.7,0.5,0.9,0.9c0.2,0.4,0.2,0.9,0,1.2
						c-0.3,0.5-0.9,0.6-1.5,0.7c-0.7,0.1-1.4,0.2-2.2,0.4c-0.2,0-0.4,0.1-0.6,0.2c-0.6,0.4-0.4,1.3,0.1,1.8c0.5,0.4,1.2,0.6,1.9,0.7
						"/>
					<path id="XMLID_951_" class="st12" d="M198.4,152.2c-0.4,0.2-0.9,0.3-1.3,0.3s-0.7,0-1.1,0c-0.4,0.1-0.7,0.3-0.8,0.6
						c-0.2,0.5,0.3,1,0.8,1.2c0.5,0.2,1,0.1,1.6,0.2c0.6,0.1,1.1,0.2,1.6,0.5c0.4,0.2,0.7,0.5,0.9,0.9c0.2,0.4,0.2,0.9,0,1.2
						c-0.3,0.5-0.9,0.6-1.5,0.7c-0.7,0.1-1.4,0.2-2.2,0.4c-0.2,0-0.4,0.1-0.6,0.2c-0.6,0.4-0.4,1.3,0.1,1.8c0.5,0.4,1.2,0.6,1.9,0.7
						"/>
					<path id="XMLID_950_" class="st12" d="M190.4,244.7c0.8,2.3,3.5,3.7,5.9,3.1c0.5-0.1,1-0.4,1.5-0.5c0.8-0.2,1.7-0.1,2.6-0.3
						c0.8-0.2,1.4-0.8,1.5-1.6c0-0.2,0-0.5-0.2-0.5c-0.1-0.1-0.3,0-0.5,0c-1.4,0.4-2.4,1.2-3.9,1c-1.3-0.1-2.5-1.1-2.9-2.3
						c-0.1-0.3-0.2-0.6,0-0.9c0.3-0.6,1.2-0.6,1.8-0.2s1,0.9,1.6,1.2c0.7,0.3,1.4,0.1,2-0.3c0.5-0.4,0.8-1.2,0.8-1.9
						c-0.1-1.2-0.9-2.2-2-2.7c-1-0.5-2.2-0.7-3.4-0.8c-1.5-0.2-4-0.3-4.9,1.3C189.6,240.4,189.9,243.4,190.4,244.7z"/>
					<path id="XMLID_949_" class="st12" d="M181.7,242.5c0.3,0,0.5,0,0.8-0.1c0.5-0.1,0.8-0.4,1.2-0.7c0.2,0.5-0.1,1.1-0.6,1.5
						c-0.4,0.4-1,0.6-1.4,0.9c-0.4,0.4-0.8,1-0.5,1.5c0,0.1,0.1,0.2,0.2,0.3c0.7,0.8,2,1.1,3,0.5c0.1-0.1,0.3-0.2,0.4-0.3
						c0.6-0.9-0.6-2.2,0-3.1c0.1-0.2,0.3-0.3,0.5-0.5c0.4-0.4,0.5-1,0.4-1.6c-0.1-0.5-0.5-1-0.9-1.4c-0.9-0.7-2.1-1-3.2-0.7
						c-0.9,0.2-3.5,1.1-3.5,2.2C177.9,242.8,180.7,242.5,181.7,242.5z"/>
					<path id="XMLID_948_" class="st12" d="M183.8,168.4c0.3,0,0.5,0,0.8-0.1c0.5-0.1,0.8-0.4,1.2-0.7c0.2,0.5-0.1,1.1-0.6,1.5
						c-0.4,0.4-1,0.6-1.4,0.9c-0.4,0.4-0.8,1-0.5,1.5c0,0.1,0.1,0.2,0.2,0.3c0.7,0.8,2,1.1,3,0.5c0.1-0.1,0.3-0.2,0.4-0.3
						c0.6-0.9-0.6-2.2,0-3.1c0.1-0.2,0.3-0.3,0.5-0.5c0.4-0.4,0.5-1,0.4-1.6c-0.1-0.5-0.5-1-0.9-1.4c-0.9-0.7-2.1-1-3.2-0.7
						c-0.9,0.2-3.5,1.1-3.5,2.2C180.1,168.8,182.8,168.4,183.8,168.4z"/>
					<path id="XMLID_947_" class="st12" d="M182.2,233c0.8,0.1,1.8,0.1,2.3-0.6c0.4-0.7-0.1-1.7-0.8-2.1c-0.7-0.4-1.6-0.3-2.4-0.3
						s-1.7,0-2.4-0.5c-0.9-0.7-1-1.9-1.6-2.9c-0.7-1.3-2.1-2.1-3.5-2.1c-0.6,0-1.3,0.2-1.6,0.8c-0.1,0.3-0.1,0.6-0.1,0.9
						c0.1,1.2,0.7,2.4,1.3,3.5c-1.3,0.3-2.3-0.1-3-1.3c-0.5,0.4-0.3,1.2,0.1,1.8c0.6,1,0.7,1.9,1.3,2.9c0.5,0.8,1,1.7,1.7,2.2
						c0.7,0.5,1.9,0.8,2.7,0.2c1-0.7,0.9-2.3,0.4-3.3c-0.3-0.7-0.9-1.6-0.5-2.3c0.9,0.7,1.1,2.1,2,2.7
						C179.1,233.1,181,232.9,182.2,233z"/>
					<path id="XMLID_946_" class="st12" d="M175.4,212.1c0.1-0.4,0.1-1-0.2-1.3c-0.1-0.2-0.3-0.3-0.5-0.3c-0.8-0.4-1.8-0.8-2.6-0.3
						c-0.6,0.4-0.8,1.3-1.4,1.7c-0.4,0.3-0.9,0.3-1.3,0.5c-1.3,0.5-1.9,2.2-1.7,3.6c0.2,1.4,0.9,2.7,1.7,3.9
						c0.4,0.6,0.8,1.2,1.1,1.8c0.2,0.3,0.4,0.6,0.7,0.7c0.6,0.2,1.2-0.4,1.3-1.1c0.1-0.6-0.2-1.3-0.4-1.9c-0.5-1.4-0.5-3,0-4.5
						c0.5-0.1,0.9,0.4,1.2,0.8c0.9,1.4,1.6,3.1,2.6,4.5c1.9-0.8,2.4-1.1,1.1-2.8C175.7,215.8,175.1,214.2,175.4,212.1z"/>
					<path id="XMLID_945_" class="st12" d="M192.7,151.1c0.1-0.4,0.1-1-0.2-1.3c-0.1-0.2-0.3,0.5-0.5,0.4c-0.8-0.4-1.8-0.8-2.6-0.3
						c-0.6,0.4-0.8,0.6-1.4,1c-0.4,0.3-0.9,0.3-1.3,0.5c-1.3,0.5-1.9,2.2-1.7,3.6c0.2,1.4,0.9,2.7,1.7,3.9c0.4,0.6,0.8,1.2,1.1,1.8
						c0.2,0.3,0.4,0.6,0.7,0.7c0.6,0.2,1.2-0.4,1.3-1.1c0.1-0.6-0.2-1.3-0.4-1.9c-0.5-1.4-0.5-3,0-4.5c0.5-0.1,0.9,0.4,1.2,0.8
						c0.9,1.4,1.6,3.1,2.6,4.5c1.9-0.8,2.4-1.1,1.1-2.8C193,154.8,192.4,153.2,192.7,151.1z"/>
				</g>
			</g>
			<g id="XMLID_919_">
				<path id="XMLID_940_" class="st11" d="M209.4,153.6c0,0,2.1,0.3,4.2-2.9c2.1-3.3,16.3-2.6,17.6,7c0,0,1,2.6,7.7,7.2
					c6.7,4.6,3.3,10.9,3.3,10.9s4.1,3.9,3.6,6.7c-0.5,2.8,7.3,7.7,2,23c0,0,4.4,9.5-3.1,13.9c0,0,3.7,5.5-2.8,8.5
					c0,0,2.1,9.8-9,14.7c0,0-2.8,8-10.8,6.5c0,0-2,4.2-7.2,1.8c0,0-2.8-1.5-5.5-0.7L209.4,153.6L209.4,153.6z"/>
				<g id="XMLID_920_">
					<path id="XMLID_939_" class="st12" d="M236.8,163.8c0,0-23.5-4.9-22.9-2.4c0.6,2.6,8.4,1.1,0.9,6.2l0,0
						c-0.9,0.4-1.1,1.5-0.6,2.3c0.9,1.4,1.4,3.9-1.3,7.4l0.8,2.2l2.9-4.3c0,0,1.7,0.8,5.3-2.1c0.5-0.4,1.3-0.1,1.4,0.5l1,6
						c0.2,1.3-0.1,2.5-0.8,3.6l0,0c-1.4,2.1-4.3,2.7-6.5,1.4c-0.7-0.4-1.1-0.7-1-0.7s0.5-0.5,1-1c0.3-0.4-0.2-0.9-0.5-0.6l-2.8,2
						l-4-0.4"/>
					<path id="XMLID_938_" class="st12" d="M233.5,176.9c-0.1,1-0.3,2.1-0.9,2.9c-0.6,0.8-1.9,1.2-2.7,0.6c-1.1-0.9-0.5-3.1-1.7-3.9
						c-0.5,1.8,0.3,3.8,1.7,5c0.7,0.6,1.5,1,2.1,1.7c0.6,0.7,0.8,1.8,0.2,2.4c-0.6,0.6-1.5,0.5-2.4,0.5c-0.8,0-1.8,0.2-2.1,0.9
						c2.1,0.1,4.2,0.5,6.2,1.1c-0.4,1.1,0.8,2.1,1.3,3.2c0.2,0.5,0.3,1,0.4,1.6c0.2,1.6,0.2,3.3-0.6,4.6c-0.8,1.4-2.5,2.3-4,1.8
						c-0.9-0.3-1.6-1.1-2.4-1.8c-1.6-1.3-4.4-1.5-5.5,0.3c-0.5,0.7-0.7,1.7-1.5,2.1c-0.8,0.4-1.7-0.1-2.3-0.7c-1-0.9-1.7-2.3-2-3.6"
						/>
					<path id="XMLID_937_" class="st12" d="M221.4,186.6c0.5,1.1,1.1,2.1,1.8,3.1c0.3,0.4,0.6,0.8,1,1.1c0.3,0.2,0.7,0.3,1,0.4
						c0.8,0.2,1.7,0.3,2.5,0.4"/>
					<path id="XMLID_936_" class="st12" d="M240.5,193.4c1.2-0.3,2.6-0.7,3.6,0.1c1,0.7,1.2,2.1,1.1,3.4c-0.1,1.2-0.5,2.5-0.3,3.7
						c0,0.2,0.1,0.5,0.3,0.6c0.4,0.5,1.2,0.4,1.8,0.1c1-0.6,1.7-1.8,1.7-3"/>
					<path id="XMLID_935_" class="st12" d="M235.9,187.5c0.2-0.2,0.3-0.5,0.5-0.7c0.5-0.6,1-1.3,1.8-1.5c0.7-0.2,1.4,0.1,2,0.6
						c0.5,0.5,0.9,1.1,1.1,1.8c0.1,0.3,0.3,0.6,0.5,0.8c0.3,0.2,0.7,0.2,0.9,0c0.1-0.1,0.1-0.3,0.2-0.4c0.2-0.4,0.8-0.5,1.2-0.4
						c0.4,0.2,0.7,0.6,1,1c0.5,0.9,0.8,1.8,0.9,2.9c0.4,0,0.7-0.4,0.9-0.7c0.2-0.4,0.3-0.8,0.7-1c0.4-0.2,0.9,0.1,0.8,0.5"/>
					<path id="XMLID_934_" class="st12" d="M235.1,183.2c-0.2-0.4-0.1-0.8,0.1-1.2c0.3-0.3,0.6-0.6,1-0.8c0.7-0.4,1.5-0.9,2.3-1
						c0.7-0.1,1.4,0.1,2.1,0.2c0.4,0.1,0.9,0.2,1.3,0.5c0.6,0.3,0.9,0.9,1.3,1.4c0.3,0.4,0.6,0.9,0.8,1.3c0.1,0.2,0.2,0.3,0.4,0.4
						c0.2,0.1,0.4-0.1,0.4-0.3"/>
					<path id="XMLID_933_" class="st12" d="M221.1,216.7c-1.2-0.3-2.5-0.7-3.3-1.7c-1.1-1.5-0.5-3.7,0.8-5c1.3-1.3,3.1-2,4.9-2.6
						c1.7-0.6,3.5-1.2,5.2-1.8c0.6-0.2,1.3-0.4,1.6-1c0.4-0.5,0.4-1.3,0.7-1.9c0.6-1.2,2.1-1.6,3.4-1.9c0.8-0.2,1.7-0.3,2.5-0.2
						c1.6,0.3,2.8,1.5,3.7,2.8c0.5,0.7,0.9,1.4,1,2.2c0,0.8-0.5,1.7-1.2,1.8c-0.6,0.1-1.1-0.2-1.6-0.6c-0.7-0.5-1.2-1.2-1.9-1.7
						c-0.7-0.5-1.6-0.7-2.4-0.4c-0.9,0.4-1.2,1.5-1.3,2.5c-0.1,1-0.1,2.1-0.7,2.9s-1.5,1.2-2.5,1.2c-1.9,0.1-4.9-1.9-5.7,0.7
						C223.6,214.2,224.2,217.4,221.1,216.7z"/>
					<path id="XMLID_932_" class="st12" d="M211.4,223.9c-0.4-0.5-0.9-1.1-1.1-1.8c-0.2-0.7-0.1-1.5,0.4-1.9s1.2-0.4,1.9-0.5
						c1.4-0.2,2.7-0.9,4.2-0.8c1.1,0.1,2,0.7,2.9,1.3c0.6,0.4,1.2,0.9,1.6,1.6c0.6,1.2,0.2,2.8-0.7,3.8c-0.9,1-2.2,1.6-3.5,2
						c-0.5,0.2-1.1,0.5-1.1,1c0,0.3,0.4,0.6,0.7,0.6c0.9,0.3,1.9-0.3,2.8-0.6c1.3-0.4,2.8-0.4,4.1,0.2c0.2,0.1,0.3,0.1,0.4,0.3
						c0.2,0.3,0.1,0.7,0,1c-0.8,1.7-2.2,3-3.9,3.6c-2.7,1-5.8,0.1-8.5-0.8c-0.4-0.1-0.7-0.2-1-0.5c-0.6-0.6-0.5-1.5-0.3-2.3
						c0.4-1.8,0.9-3.6,2-5.1c0.6-0.9,1.5-1.5,2.4-2c0.6-0.3,1.3-0.2,0.8-0.8C214,220.8,211.2,223.6,211.4,223.9z"/>
					<path id="XMLID_931_" class="st12" d="M214.1,200.4c0,1.5-0.1,2.9-0.1,4.4c0,0.3,0,0.7-0.2,1c-0.3,0.8-1.4,0.9-2.1,0.4
						s-0.9-1.5-1-2.3c0-0.9,0.1-1.8,0.2-2.6c0.1-2.6-1-5.2-0.9-7.8c0-0.8,0.2-1.7,0.8-2.3c0.7-0.7,1.9-0.7,2.6,0
						c0.4,0.4,0.7,1.1,1.3,1.3c0.4,0.1,0.8,0,1.2,0c1,0.1,1.7,1.3,1.7,2.5c0,1.1-0.4,2.2-0.5,3.3c-0.2,2.4,0.9,4.8,0.8,7.2
						c-0.1,1.2-0.5,2.3-0.9,3.4c-0.4,1.2-0.9,2.5-1.3,3.7c-0.2,0.7-0.5,1.4-1.1,1.9c-1.2,1-2.9,0.1-4.2-0.8
						c-0.2-0.2-0.4-0.4-0.5-0.6c-0.3-0.6-0.3-1.3-0.2-1.9c0.2-0.9,0.3-1.7,0.5-2.7c0-0.2,0.1-0.4,0.2-0.5s0.3-0.1,0.5-0.1
						c0.7,0,1.4,0.2,1.9,0.7s0.6,1.5,0.1,2"/>
					<path id="XMLID_930_" class="st12" d="M226,222.8c-1-0.4-1.9-1.1-2.7-1.7c-0.1-0.1-0.2-0.1-0.2-0.2c-0.1-0.2,0-0.5,0.3-0.7
						c0.7-0.6,2-0.7,2.3-1.6c0.3-1-0.9-2.1-0.5-3c0.9-0.8,2.4-0.6,3.2,0.3c0.8,0.9,1,2.2,0.7,3.3c1.3-0.1,2.8,0.3,3.3,1.5
						c0.5,1.3-0.6,2.5-1.2,3.7c-0.5,0.9-0.7,1.8-1.4,2.6c-0.6,0.7-1.8,1.2-2.6,0.5c-0.7-0.6-0.6-1.8-0.1-2.6c0.4-0.6,1-1,1.4-1.6
						C227.6,223.2,226.8,223.2,226,222.8z"/>
					<path id="XMLID_929_" class="st12" d="M235.9,175.3c-1-0.4-1.9-1.1-2.7-1.7c-0.1-0.1-0.2-0.1-0.2-0.2c-0.1-0.2,0-0.5,0.3-0.7
						c0.7-0.6,2-0.7,2.3-1.6c0.3-1-0.9-2.1-0.5-3c0.9-0.8,2.4-0.6,3.2,0.3c0.8,0.9,1,2.2,0.7,3.3c1.3-0.1,2.8,0.3,3.3,1.5
						c0.5,1.3-0.6,2.5-1.2,3.7c-0.5,0.9-0.7,1.8-1.4,2.6c-0.6,0.7-1.8,1.2-2.6,0.5c-0.7-0.6-0.6-1.8-0.1-2.6c0.4-0.6,1-1,1.4-1.6
						C237.5,175.7,236.7,175.7,235.9,175.3z"/>
					<path id="XMLID_928_" class="st12" d="M244.1,203c0.4,0.2,0.9,0.3,1.3,0.3s0.7,0,1.1,0c0.4,0.1,0.7,0.3,0.8,0.6
						c0.2,0.5-0.3,1-0.8,1.2c-0.5,0.2-1,0.1-1.6,0.2c-0.6,0.1-1.1,0.2-1.6,0.5c-0.4,0.2-0.7,0.5-0.9,0.9s-0.2,0.9,0,1.2
						c0.3,0.5,0.9,0.6,1.5,0.7c0.7,0.1,1.4,0.2,2.2,0.4c0.2,0,0.4,0.1,0.6,0.2c0.6,0.4,0.4,1.3-0.1,1.8c-0.5,0.4-1.2,0.6-1.9,0.7"/>
					<path id="XMLID_927_" class="st12" d="M213.3,152.2c0.4,0.2,0.9,0.3,1.3,0.3s0.7,0,1.1,0c0.4,0.1,0.7,0.3,0.8,0.6
						c0.2,0.5-0.3,1-0.8,1.2c-0.5,0.2-1,0.1-1.6,0.2c-0.6,0.1-1.1,0.2-1.6,0.5c-0.4,0.2-0.7,0.5-0.9,0.9s-0.2,0.9,0,1.2
						c0.3,0.5,0.9,0.6,1.5,0.7c0.7,0.1,1.4,0.2,2.2,0.4c0.2,0,0.4,0.1,0.6,0.2c0.6,0.4,0.4,1.3-0.1,1.8c-0.5,0.4-1.2,0.6-1.9,0.7"/>
					<path id="XMLID_926_" class="st12" d="M221.3,244.7c-0.8,2.3-3.5,3.7-5.9,3.1c-0.5-0.1-1-0.4-1.5-0.5c-0.8-0.2-1.7-0.1-2.6-0.3
						c-0.8-0.2-1.4-0.8-1.5-1.6c0-0.2,0-0.5,0.2-0.5c0.1-0.1,0.3,0,0.5,0c1.4,0.4,2.4,1.2,3.9,1c1.3-0.1,2.5-1.1,2.9-2.3
						c0.1-0.3,0.2-0.6,0-0.9c-0.3-0.6-1.2-0.6-1.8-0.2c-0.6,0.4-1,0.9-1.6,1.2c-0.7,0.3-1.4,0.1-2-0.3c-0.5-0.4-0.8-1.2-0.8-1.9
						c0.1-1.2,0.9-2.2,2-2.7c1-0.5,2.2-0.7,3.4-0.8c1.5-0.2,4-0.3,4.9,1.3C222.1,240.4,221.7,243.4,221.3,244.7z"/>
					<path id="XMLID_925_" class="st12" d="M230,242.5c-0.3,0-0.5,0-0.8-0.1c-0.5-0.1-0.8-0.4-1.2-0.7c-0.2,0.5,0.1,1.1,0.6,1.5
						c0.4,0.4,1,0.6,1.4,0.9s0.8,1,0.5,1.5c0,0.1-0.1,0.2-0.2,0.3c-0.7,0.8-2,1.1-3,0.5c-0.1-0.1-0.3-0.2-0.4-0.3
						c-0.6-0.9,0.6-2.2,0-3.1c-0.1-0.2-0.3-0.3-0.5-0.5c-0.4-0.4-0.5-1-0.4-1.6c0.1-0.5,0.5-1,0.9-1.4c0.9-0.7,2.1-1,3.2-0.7
						c0.9,0.2,3.5,1.1,3.5,2.2C233.8,242.8,231,242.5,230,242.5z"/>
					<path id="XMLID_924_" class="st12" d="M227.8,168.4c-0.3,0-0.5,0-0.8-0.1c-0.5-0.1-0.8-0.4-1.2-0.7c-0.2,0.5,0.1,1.1,0.6,1.5
						c0.4,0.4,1,0.6,1.4,0.9c0.4,0.4,0.8,1,0.5,1.5c0,0.1-0.1,0.2-0.2,0.3c-0.7,0.8-2,1.1-3,0.5c-0.1-0.1-0.3-0.2-0.4-0.3
						c-0.6-0.9,0.6-2.2,0-3.1c-0.1-0.2-0.3-0.3-0.5-0.5c-0.4-0.4-0.5-1-0.4-1.6c0.1-0.5,0.5-1,0.9-1.4c0.9-0.7,2.1-1,3.2-0.7
						c0.9,0.2,3.5,1.1,3.5,2.2C231.6,168.8,228.8,168.4,227.8,168.4z"/>
					<path id="XMLID_923_" class="st12" d="M229.5,233c-0.8,0.1-1.8,0.1-2.3-0.6c-0.4-0.7,0.1-1.7,0.8-2.1c0.7-0.4,1.6-0.3,2.4-0.3
						s1.7,0,2.4-0.5c0.9-0.7,1-1.9,1.6-2.9c0.7-1.3,2.1-2.1,3.5-2.1c0.6,0,1.3,0.2,1.6,0.8c0.1,0.3,0.1,0.6,0.1,0.9
						c-0.1,1.2-0.7,2.4-1.3,3.5c1.3,0.3,2.3-0.1,3-1.3c0.5,0.4,0.3,1.2-0.1,1.8c-0.6,1-0.7,1.9-1.3,2.9c-0.5,0.8-1,1.7-1.7,2.2
						s-1.9,0.8-2.7,0.2c-1-0.7-0.9-2.3-0.4-3.3c0.3-0.7,0.9-1.6,0.5-2.3c-0.9,0.7-1.1,2.1-2,2.7C232.6,233.1,230.7,232.9,229.5,233z
						"/>
					<path id="XMLID_922_" class="st12" d="M236.3,212.1c-0.1-0.4-0.1-1,0.2-1.3c0.1-0.2,0.3-0.3,0.5-0.3c0.8-0.4,1.8-0.8,2.6-0.3
						c0.6,0.4,0.8,1.3,1.4,1.7c0.4,0.3,0.9,0.3,1.3,0.5c1.3,0.5,1.9,2.2,1.7,3.6c-0.2,1.4-0.9,2.7-1.7,3.9c-0.4,0.6-0.8,1.2-1.1,1.8
						c-0.2,0.3-0.4,0.6-0.7,0.7c-0.6,0.2-1.2-0.4-1.3-1.1c-0.1-0.6,0.2-1.3,0.4-1.9c0.5-1.4,0.5-3,0-4.5c-0.5-0.1-0.9,0.4-1.2,0.8
						c-0.9,1.4-1.6,3.1-2.6,4.5c-1.9-0.8-2.4-1.1-1.1-2.8C236,215.8,236.6,214.2,236.3,212.1z"/>
					<path id="XMLID_921_" class="st12" d="M219,151.1c-0.1-0.4-0.1-1,0.2-1.3c0.1-0.2,0.3,0.5,0.5,0.4c0.8-0.4,1.8-0.8,2.6-0.3
						c0.6,0.4,0.8,0.6,1.4,1c0.4,0.3,0.9,0.3,1.3,0.5c1.3,0.5,1.9,2.2,1.7,3.6c-0.2,1.4-0.9,2.7-1.7,3.9c-0.4,0.6-0.8,1.2-1.1,1.8
						c-0.2,0.3-0.4,0.6-0.7,0.7c-0.6,0.2-1.2-0.4-1.3-1.1c-0.1-0.6,0.2-1.3,0.4-1.9c0.5-1.4,0.5-3,0-4.5c-0.5-0.1-0.9,0.4-1.2,0.8
						c-0.9,1.4-1.6,3.1-2.6,4.5c-1.9-0.8-2.4-1.1-1.1-2.8C218.7,154.8,219.3,153.2,219,151.1z"/>
				</g>
			</g>
		</g>
	</g>
	<g>
		<defs>
			<rect id="SVGID_21_" x="24.8" y="19.2" width="362.1" height="362.1"/>
		</defs>
		<clipPath id="SVGID_22_">
			<use xlink:href="#SVGID_21_"  style="overflow:visible;"/>
		</clipPath>
		<g id="XMLID_708_" class="st13">
			<g id="XMLID_915_">
				<line id="XMLID_917_" class="st14" x1="204" y1="100.4" x2="204" y2="0"/>
				<circle id="XMLID_916_" class="st8" cx="204" cy="100.4" r="2.5"/>
			</g>
			<g id="XMLID_912_">
				<line id="XMLID_914_" class="st14" x1="223.6" y1="101.9" x2="223.6" y2="57.4"/>
				<circle id="XMLID_913_" class="st8" cx="223.6" cy="101.9" r="2.5"/>
			</g>
			<g id="XMLID_909_">
				<polyline id="XMLID_911_" class="st15" points="214.5,89.5 214.5,46.4 222,40 222,5.4 				"/>
				<circle id="XMLID_910_" class="st8" cx="214.7" cy="89.5" r="1.9"/>
			</g>
			<g id="XMLID_906_">
				<polyline id="XMLID_908_" class="st15" points="214.5,89.5 214.5,46.4 222,40 222,5.4 				"/>
				<circle id="XMLID_907_" class="st8" cx="214.7" cy="89.5" r="1.9"/>
			</g>
			<g id="XMLID_900_">
				<g id="XMLID_1134_">
					<polyline id="XMLID_1137_" class="st16" points="237.7,106.2 237.7,84.6 315.5,6.7 					"/>
					<g id="XMLID_1135_">
						<circle id="XMLID_1136_" class="st17" cx="237.7" cy="106.1" r="2.2"/>
					</g>
				</g>
			</g>
			<g id="XMLID_894_">
				<g id="XMLID_1129_">
					<polyline id="XMLID_1132_" class="st16" points="237.7,106.2 237.7,84.6 315.5,6.7 					"/>
					<g id="XMLID_1130_">
						<circle id="XMLID_1131_" class="st17" cx="237.7" cy="106.1" r="2.2"/>
					</g>
				</g>
			</g>
			<g id="XMLID_888_">
				<g id="XMLID_1124_">
					<polyline id="XMLID_1127_" class="st16" points="237.7,106.2 237.7,84.6 315.5,6.7 					"/>
					<g id="XMLID_1125_">
						<circle id="XMLID_1126_" class="st17" cx="237.7" cy="106.1" r="2.2"/>
					</g>
				</g>
			</g>
			<g id="XMLID_882_">
				<g id="XMLID_1119_">
					<polyline id="XMLID_1122_" class="st16" points="230.9,90.5 230.9,73.7 269.5,35.2 					"/>
					<g id="XMLID_1120_">
						<circle id="XMLID_1121_" class="st17" cx="230.9" cy="90.4" r="2.2"/>
					</g>
				</g>
			</g>
			<g id="XMLID_876_">
				<g id="XMLID_1114_">
					<line id="XMLID_1117_" class="st16" x1="230.9" y1="59" x2="230.9" y2="6.7"/>
					<g id="XMLID_1115_">
						<circle id="XMLID_1116_" class="st17" cx="230.9" cy="58.9" r="1.3"/>
					</g>
				</g>
			</g>
			<g id="XMLID_870_">
				<g id="XMLID_1109_">
					<line id="XMLID_1112_" class="st16" x1="240.8" y1="44.6" x2="260.9" y2="24.5"/>
					<g id="XMLID_1110_">
						<circle id="XMLID_1111_" class="st17" cx="240.8" cy="44.6" r="1.3"/>
					</g>
				</g>
			</g>
			<g id="XMLID_864_">
				<g id="XMLID_1104_">
					<polyline id="XMLID_1107_" class="st16" points="253.2,113 274.9,91.3 274.9,72 338.6,8.4 					"/>
					<g id="XMLID_1105_">
						<circle id="XMLID_1106_" class="st17" cx="253.3" cy="112.9" r="2.2"/>
					</g>
				</g>
			</g>
			<g id="XMLID_858_">
				<g id="XMLID_1099_">
					<polyline id="XMLID_1102_" class="st16" points="264.5,73.4 264.5,87.6 243,109.1 					"/>
					<g id="XMLID_1100_">
						<circle id="XMLID_1101_" class="st17" cx="264.5" cy="73.5" r="2.2"/>
					</g>
				</g>
			</g>
			<g id="XMLID_852_">
				<g id="XMLID_942_">
					<line id="XMLID_1097_" class="st16" x1="246.1" y1="91.4" x2="256" y2="81.5"/>
					<g id="XMLID_965_">
						<circle id="XMLID_966_" class="st17" cx="246.2" cy="91.3" r="1.7"/>
					</g>
				</g>
			</g>
			<g id="XMLID_846_">
				<g id="XMLID_902_">
					<polyline id="XMLID_905_" class="st16" points="261,117.6 284.7,93.9 284.7,72 345.3,11.5 					"/>
					<g id="XMLID_903_">
						<circle id="XMLID_904_" class="st17" cx="261.1" cy="117.6" r="2.2"/>
					</g>
				</g>
			</g>
			<g id="XMLID_840_">
				<g id="XMLID_896_">
					<polyline id="XMLID_899_" class="st16" points="261,117.6 284.7,93.9 284.7,72 345.3,11.5 					"/>
					<g id="XMLID_897_">
						<circle id="XMLID_898_" class="st17" cx="261.1" cy="117.6" r="2.2"/>
					</g>
				</g>
			</g>
			<g id="XMLID_834_">
				<g id="XMLID_890_">
					<polyline id="XMLID_893_" class="st16" points="261,117.6 284.7,93.9 284.7,72 345.3,11.5 					"/>
					<g id="XMLID_891_">
						<circle id="XMLID_892_" class="st17" cx="261.1" cy="117.6" r="2.2"/>
					</g>
				</g>
			</g>
			<g id="XMLID_828_">
				<g id="XMLID_884_">
					<line id="XMLID_887_" class="st16" x1="296.6" y1="74.6" x2="367.5" y2="3.7"/>
					<g id="XMLID_885_">
						<circle id="XMLID_886_" class="st17" cx="296.7" cy="74.5" r="2.2"/>
					</g>
				</g>
			</g>
			<g id="XMLID_822_">
				<g id="XMLID_878_">
					<polyline id="XMLID_881_" class="st16" points="269.6,123 285.2,107.4 308.5,107.4 395.6,20.2 					"/>
					<g id="XMLID_879_">
						<circle id="XMLID_880_" class="st17" cx="269.7" cy="122.9" r="2.2"/>
					</g>
				</g>
			</g>
			<g id="XMLID_803_">
				<g id="XMLID_816_">
					<g id="XMLID_872_">
						<polyline id="XMLID_875_" class="st16" points="297.2,89.5 306.9,89.5 380.1,16.3 						"/>
						<g id="XMLID_873_">
							<circle id="XMLID_874_" class="st17" cx="297.3" cy="89.5" r="2.2"/>
						</g>
					</g>
				</g>
				<g id="XMLID_810_">
					<g id="XMLID_866_">
						<polyline id="XMLID_869_" class="st16" points="297.2,89.5 306.9,89.5 380.1,16.3 						"/>
						<g id="XMLID_867_">
							<circle id="XMLID_868_" class="st17" cx="297.3" cy="89.5" r="2.2"/>
						</g>
					</g>
				</g>
				<g id="XMLID_804_">
					<g id="XMLID_860_">
						<polyline id="XMLID_863_" class="st16" points="297.2,89.5 306.9,89.5 380.1,16.3 						"/>
						<g id="XMLID_861_">
							<circle id="XMLID_862_" class="st17" cx="297.3" cy="89.5" r="2.2"/>
						</g>
					</g>
				</g>
			</g>
			<g id="XMLID_797_">
				<g id="XMLID_854_">
					<polyline id="XMLID_857_" class="st16" points="276.4,130.4 289.9,117 308.3,117 					"/>
					<g id="XMLID_855_">
						<circle id="XMLID_856_" class="st17" cx="276.5" cy="130.4" r="2.2"/>
					</g>
				</g>
			</g>
			<g id="XMLID_791_">
				<g id="XMLID_848_">
					<polyline id="XMLID_851_" class="st16" points="276.4,130.4 289.9,117 308.3,117 					"/>
					<g id="XMLID_849_">
						<circle id="XMLID_850_" class="st17" cx="276.5" cy="130.4" r="2.2"/>
					</g>
				</g>
			</g>
			<g id="XMLID_785_">
				<g id="XMLID_842_">
					<polyline id="XMLID_845_" class="st16" points="276.4,130.4 289.9,117 308.3,117 					"/>
					<g id="XMLID_843_">
						<circle id="XMLID_844_" class="st17" cx="276.5" cy="130.4" r="2.2"/>
					</g>
				</g>
			</g>
			<g id="XMLID_782_">
				<path id="XMLID_621_" class="st18" d="M280.9,138.5"/>
			</g>
			<g id="XMLID_776_">
				<g id="XMLID_832_">
					<polyline id="XMLID_836_" class="st16" points="293.7,126.8 312.3,126.8 400.8,38.2 					"/>
					<g id="XMLID_833_">
						<circle id="XMLID_835_" class="st17" cx="293.8" cy="126.8" r="2.2"/>
					</g>
				</g>
			</g>
			<g id="XMLID_770_">
				<g id="XMLID_826_">
					<polyline id="XMLID_830_" class="st16" points="293.7,126.8 312.3,126.8 400.8,38.2 					"/>
					<g id="XMLID_827_">
						<circle id="XMLID_829_" class="st17" cx="293.8" cy="126.8" r="2.2"/>
					</g>
				</g>
			</g>
			<g id="XMLID_764_">
				<g id="XMLID_820_">
					<line id="XMLID_824_" class="st16" x1="329.7" y1="97.9" x2="399.1" y2="28.6"/>
					<g id="XMLID_821_">
						<circle id="XMLID_823_" class="st17" cx="329.8" cy="97.9" r="2.2"/>
					</g>
				</g>
			</g>
			<g id="XMLID_758_">
				<g id="XMLID_814_">
					<polyline id="XMLID_818_" class="st16" points="285.7,141.4 291.3,135.8 337.6,135.8 396.9,76.5 					"/>
					<g id="XMLID_815_">
						<circle id="XMLID_817_" class="st17" cx="285.8" cy="141.3" r="2.2"/>
					</g>
				</g>
			</g>
			<g id="XMLID_739_">
				<g id="XMLID_752_">
					<g id="XMLID_808_">
						<line id="XMLID_812_" class="st16" x1="334.7" y1="123" x2="397.3" y2="60.3"/>
						<g id="XMLID_809_">
							<circle id="XMLID_811_" class="st17" cx="334.7" cy="122.9" r="2.2"/>
						</g>
					</g>
				</g>
				<g id="XMLID_746_">
					<g id="XMLID_801_">
						<line id="XMLID_806_" class="st16" x1="334.7" y1="123" x2="397.3" y2="60.3"/>
						<g id="XMLID_802_">
							<circle id="XMLID_805_" class="st17" cx="334.7" cy="122.9" r="2.2"/>
						</g>
					</g>
				</g>
				<g id="XMLID_740_">
					<g id="XMLID_795_">
						<line id="XMLID_799_" class="st16" x1="334.7" y1="123" x2="397.3" y2="60.3"/>
						<g id="XMLID_796_">
							<circle id="XMLID_798_" class="st17" cx="334.7" cy="122.9" r="2.2"/>
						</g>
					</g>
				</g>
			</g>
			<g id="XMLID_733_">
				<g id="XMLID_789_">
					<polyline id="XMLID_793_" class="st16" points="353.6,135 368.1,120.5 388.3,120.5 					"/>
					<g id="XMLID_790_">
						<circle id="XMLID_792_" class="st17" cx="353.7" cy="135" r="2.2"/>
					</g>
				</g>
			</g>
			<g id="XMLID_727_">
				<g id="XMLID_783_">
					<line id="XMLID_787_" class="st16" x1="380" y1="110.8" x2="396" y2="94.8"/>
					<g id="XMLID_784_">
						<circle id="XMLID_786_" class="st17" cx="380.1" cy="110.8" r="2.2"/>
					</g>
				</g>
			</g>
			<g id="XMLID_721_">
				<g id="XMLID_777_">
					<line id="XMLID_780_" class="st16" x1="380" y1="110.8" x2="396" y2="94.8"/>
					<g id="XMLID_778_">
						<circle id="XMLID_779_" class="st17" cx="380.1" cy="110.8" r="2.2"/>
					</g>
				</g>
			</g>
			<g id="XMLID_715_">
				<g id="XMLID_771_">
					<polyline id="XMLID_774_" class="st16" points="293.1,151.1 298.1,146.2 360.5,146.2 374.3,132.3 409.7,132.3 					"/>
					<g id="XMLID_772_">
						<circle id="XMLID_773_" class="st17" cx="293.2" cy="151.1" r="2.2"/>
					</g>
				</g>
			</g>
			<g id="XMLID_709_">
				<g id="XMLID_765_">
					<polyline id="XMLID_768_" class="st16" points="293.1,151.1 298.1,146.2 360.5,146.2 374.3,132.3 409.7,132.3 					"/>
					<g id="XMLID_766_">
						<circle id="XMLID_767_" class="st17" cx="293.2" cy="151.1" r="2.2"/>
					</g>
				</g>
			</g>
		</g>
	</g>
	<g>
		<defs>
			<rect id="SVGID_23_" x="24.8" y="19.2" width="362.1" height="362.1"/>
		</defs>
		<clipPath id="SVGID_24_">
			<use xlink:href="#SVGID_23_"  style="overflow:visible;"/>
		</clipPath>
		<g id="XMLID_492_" class="st19">
			<g id="XMLID_705_">
				<line id="XMLID_707_" class="st14" x1="204.7" y1="298.6" x2="204.7" y2="399.1"/>
				<circle id="XMLID_706_" class="st8" cx="204.7" cy="298.6" r="2.5"/>
			</g>
			<g id="XMLID_702_">
				<line id="XMLID_704_" class="st14" x1="204.7" y1="298.6" x2="204.7" y2="399.1"/>
				<circle id="XMLID_703_" class="st8" cx="204.7" cy="298.6" r="2.5"/>
			</g>
			<g id="XMLID_699_">
				<line id="XMLID_701_" class="st14" x1="204.7" y1="298.6" x2="204.7" y2="399.1"/>
				<circle id="XMLID_700_" class="st8" cx="204.7" cy="298.6" r="2.5"/>
			</g>
			<g id="XMLID_696_">
				<line id="XMLID_698_" class="st14" x1="223.6" y1="297.2" x2="223.6" y2="341.6"/>
				<circle id="XMLID_697_" class="st8" cx="223.6" cy="297.2" r="2.5"/>
			</g>
			<g id="XMLID_693_">
				<polyline id="XMLID_695_" class="st15" points="214.5,309.5 214.5,352.6 222,359.1 222,393.6 				"/>
				<circle id="XMLID_694_" class="st8" cx="214.7" cy="309.5" r="1.9"/>
			</g>
			<g id="XMLID_690_">
				<polyline id="XMLID_692_" class="st15" points="214.5,309.5 214.5,352.6 222,359.1 222,393.6 				"/>
				<circle id="XMLID_691_" class="st8" cx="214.7" cy="309.5" r="1.9"/>
			</g>
			<g id="XMLID_684_">
				<g id="XMLID_759_">
					<polyline id="XMLID_762_" class="st16" points="237.7,292.8 237.7,314.4 315.5,392.3 					"/>
					<g id="XMLID_760_">
						<circle id="XMLID_761_" class="st17" cx="237.7" cy="293" r="2.2"/>
					</g>
				</g>
			</g>
			<g id="XMLID_678_">
				<g id="XMLID_753_">
					<polyline id="XMLID_756_" class="st16" points="237.7,292.8 237.7,314.4 315.5,392.3 					"/>
					<g id="XMLID_754_">
						<circle id="XMLID_755_" class="st17" cx="237.7" cy="293" r="2.2"/>
					</g>
				</g>
			</g>
			<g id="XMLID_672_">
				<g id="XMLID_747_">
					<polyline id="XMLID_750_" class="st16" points="237.7,292.8 237.7,314.4 315.5,392.3 					"/>
					<g id="XMLID_748_">
						<circle id="XMLID_749_" class="st17" cx="237.7" cy="293" r="2.2"/>
					</g>
				</g>
			</g>
			<g id="XMLID_666_">
				<g id="XMLID_741_">
					<polyline id="XMLID_744_" class="st16" points="230.9,308.5 230.9,325.3 269.5,363.8 					"/>
					<g id="XMLID_742_">
						<circle id="XMLID_743_" class="st17" cx="230.9" cy="308.6" r="2.2"/>
					</g>
				</g>
			</g>
			<g id="XMLID_660_">
				<g id="XMLID_734_">
					<line id="XMLID_737_" class="st16" x1="230.9" y1="340" x2="230.9" y2="392.3"/>
					<g id="XMLID_735_">
						<circle id="XMLID_736_" class="st17" cx="230.9" cy="340.1" r="1.3"/>
					</g>
				</g>
			</g>
			<g id="XMLID_654_">
				<g id="XMLID_728_">
					<line id="XMLID_731_" class="st16" x1="240.8" y1="354.4" x2="260.9" y2="374.5"/>
					<g id="XMLID_729_">
						<circle id="XMLID_730_" class="st17" cx="240.8" cy="354.5" r="1.3"/>
					</g>
				</g>
			</g>
			<g id="XMLID_648_">
				<g id="XMLID_722_">
					<polyline id="XMLID_725_" class="st16" points="253.2,286 274.9,307.7 274.9,327 338.6,390.7 					"/>
					<g id="XMLID_723_">
						<circle id="XMLID_724_" class="st17" cx="253.3" cy="286.1" r="2.2"/>
					</g>
				</g>
			</g>
			<g id="XMLID_642_">
				<g id="XMLID_716_">
					<polyline id="XMLID_719_" class="st16" points="264.5,325.6 264.5,311.4 243,289.9 					"/>
					<g id="XMLID_717_">
						<circle id="XMLID_718_" class="st17" cx="264.5" cy="325.5" r="2.2"/>
					</g>
				</g>
			</g>
			<g id="XMLID_636_">
				<g id="XMLID_710_">
					<line id="XMLID_713_" class="st16" x1="246.1" y1="307.6" x2="256" y2="317.6"/>
					<g id="XMLID_711_">
						<circle id="XMLID_712_" class="st17" cx="246.2" cy="307.7" r="1.7"/>
					</g>
				</g>
			</g>
			<g id="XMLID_630_">
				<g id="XMLID_685_">
					<polyline id="XMLID_688_" class="st16" points="261,281.4 284.7,305.1 284.7,327 345.3,387.5 					"/>
					<g id="XMLID_686_">
						<circle id="XMLID_687_" class="st17" cx="261.1" cy="281.5" r="2.2"/>
					</g>
				</g>
			</g>
			<g id="XMLID_624_">
				<g id="XMLID_679_">
					<polyline id="XMLID_682_" class="st16" points="261,281.4 284.7,305.1 284.7,327 345.3,387.5 					"/>
					<g id="XMLID_680_">
						<circle id="XMLID_681_" class="st17" cx="261.1" cy="281.5" r="2.2"/>
					</g>
				</g>
			</g>
			<g id="XMLID_618_">
				<g id="XMLID_673_">
					<polyline id="XMLID_676_" class="st16" points="261,281.4 284.7,305.1 284.7,327 345.3,387.5 					"/>
					<g id="XMLID_674_">
						<circle id="XMLID_675_" class="st17" cx="261.1" cy="281.5" r="2.2"/>
					</g>
				</g>
			</g>
			<g id="XMLID_612_">
				<g id="XMLID_667_">
					<line id="XMLID_670_" class="st16" x1="296.6" y1="324.5" x2="367.5" y2="395.3"/>
					<g id="XMLID_668_">
						<circle id="XMLID_669_" class="st17" cx="296.7" cy="324.5" r="2.2"/>
					</g>
				</g>
			</g>
			<g id="XMLID_606_">
				<g id="XMLID_661_">
					<polyline id="XMLID_664_" class="st16" points="269.6,276 285.2,291.6 308.5,291.6 395.6,378.8 					"/>
					<g id="XMLID_662_">
						<circle id="XMLID_663_" class="st17" cx="269.7" cy="276.1" r="2.2"/>
					</g>
				</g>
			</g>
			<g id="XMLID_587_">
				<g id="XMLID_600_">
					<g id="XMLID_655_">
						<polyline id="XMLID_658_" class="st16" points="297.2,309.5 306.9,309.5 380.1,382.7 						"/>
						<g id="XMLID_656_">
							<circle id="XMLID_657_" class="st17" cx="297.3" cy="309.5" r="2.2"/>
						</g>
					</g>
				</g>
				<g id="XMLID_594_">
					<g id="XMLID_649_">
						<polyline id="XMLID_652_" class="st16" points="297.2,309.5 306.9,309.5 380.1,382.7 						"/>
						<g id="XMLID_650_">
							<circle id="XMLID_651_" class="st17" cx="297.3" cy="309.5" r="2.2"/>
						</g>
					</g>
				</g>
				<g id="XMLID_588_">
					<g id="XMLID_643_">
						<polyline id="XMLID_646_" class="st16" points="297.2,309.5 306.9,309.5 380.1,382.7 						"/>
						<g id="XMLID_644_">
							<circle id="XMLID_645_" class="st17" cx="297.3" cy="309.5" r="2.2"/>
						</g>
					</g>
				</g>
			</g>
			<g id="XMLID_581_">
				<g id="XMLID_637_">
					<polyline id="XMLID_640_" class="st16" points="276.4,268.6 289.9,282 308.3,282 					"/>
					<g id="XMLID_638_">
						<circle id="XMLID_639_" class="st17" cx="276.5" cy="268.7" r="2.2"/>
					</g>
				</g>
			</g>
			<g id="XMLID_575_">
				<g id="XMLID_631_">
					<polyline id="XMLID_634_" class="st16" points="276.4,268.6 289.9,282 308.3,282 					"/>
					<g id="XMLID_632_">
						<circle id="XMLID_633_" class="st17" cx="276.5" cy="268.7" r="2.2"/>
					</g>
				</g>
			</g>
			<g id="XMLID_569_">
				<g id="XMLID_625_">
					<polyline id="XMLID_628_" class="st16" points="276.4,268.6 289.9,282 308.3,282 					"/>
					<g id="XMLID_626_">
						<circle id="XMLID_627_" class="st17" cx="276.5" cy="268.7" r="2.2"/>
					</g>
				</g>
			</g>
			<g id="XMLID_566_">
				<path id="XMLID_413_" class="st18" d="M280.9,260.5"/>
			</g>
			<g id="XMLID_560_">
				<g id="XMLID_615_">
					<polyline id="XMLID_619_" class="st16" points="293.7,272.2 312.3,272.2 400.8,360.8 					"/>
					<g id="XMLID_616_">
						<circle id="XMLID_617_" class="st17" cx="293.8" cy="272.2" r="2.2"/>
					</g>
				</g>
			</g>
			<g id="XMLID_554_">
				<g id="XMLID_609_">
					<polyline id="XMLID_613_" class="st16" points="293.7,272.2 312.3,272.2 400.8,360.8 					"/>
					<g id="XMLID_610_">
						<circle id="XMLID_611_" class="st17" cx="293.8" cy="272.2" r="2.2"/>
					</g>
				</g>
			</g>
			<g id="XMLID_548_">
				<g id="XMLID_603_">
					<line id="XMLID_607_" class="st16" x1="329.7" y1="301.1" x2="399.1" y2="370.5"/>
					<g id="XMLID_604_">
						<circle id="XMLID_605_" class="st17" cx="329.8" cy="301.2" r="2.2"/>
					</g>
				</g>
			</g>
			<g id="XMLID_542_">
				<g id="XMLID_597_">
					<polyline id="XMLID_601_" class="st16" points="285.7,257.6 291.3,263.2 337.6,263.2 396.9,322.5 					"/>
					<g id="XMLID_598_">
						<circle id="XMLID_599_" class="st17" cx="285.8" cy="257.7" r="2.2"/>
					</g>
				</g>
			</g>
			<g id="XMLID_523_">
				<g id="XMLID_536_">
					<g id="XMLID_591_">
						<line id="XMLID_595_" class="st16" x1="334.7" y1="276" x2="397.3" y2="338.7"/>
						<g id="XMLID_592_">
							<circle id="XMLID_593_" class="st17" cx="334.7" cy="276.1" r="2.2"/>
						</g>
					</g>
				</g>
				<g id="XMLID_530_">
					<g id="XMLID_584_">
						<line id="XMLID_589_" class="st16" x1="334.7" y1="276" x2="397.3" y2="338.7"/>
						<g id="XMLID_585_">
							<circle id="XMLID_586_" class="st17" cx="334.7" cy="276.1" r="2.2"/>
						</g>
					</g>
				</g>
				<g id="XMLID_524_">
					<g id="XMLID_578_">
						<line id="XMLID_582_" class="st16" x1="334.7" y1="276" x2="397.3" y2="338.7"/>
						<g id="XMLID_579_">
							<circle id="XMLID_580_" class="st17" cx="334.7" cy="276.1" r="2.2"/>
						</g>
					</g>
				</g>
			</g>
			<g id="XMLID_517_">
				<g id="XMLID_572_">
					<polyline id="XMLID_576_" class="st16" points="353.6,264 368.1,278.5 388.3,278.5 					"/>
					<g id="XMLID_573_">
						<circle id="XMLID_574_" class="st17" cx="353.7" cy="264.1" r="2.2"/>
					</g>
				</g>
			</g>
			<g id="XMLID_511_">
				<g id="XMLID_565_">
					<line id="XMLID_570_" class="st16" x1="380" y1="288.2" x2="396" y2="304.2"/>
					<g id="XMLID_567_">
						<circle id="XMLID_568_" class="st17" cx="380.1" cy="288.3" r="2.2"/>
					</g>
				</g>
			</g>
			<g id="XMLID_505_">
				<g id="XMLID_559_">
					<line id="XMLID_563_" class="st16" x1="380" y1="288.2" x2="396" y2="304.2"/>
					<g id="XMLID_561_">
						<circle id="XMLID_562_" class="st17" cx="380.1" cy="288.3" r="2.2"/>
					</g>
				</g>
			</g>
			<g id="XMLID_499_">
				<g id="XMLID_553_">
					<polyline id="XMLID_557_" class="st16" points="293.1,247.9 298.1,252.8 360.5,252.8 374.3,266.7 409.7,266.7 					"/>
					<g id="XMLID_555_">
						<circle id="XMLID_556_" class="st17" cx="293.2" cy="248" r="2.2"/>
					</g>
				</g>
			</g>
			<g id="XMLID_493_">
				<g id="XMLID_547_">
					<polyline id="XMLID_551_" class="st16" points="293.1,247.9 298.1,252.8 360.5,252.8 374.3,266.7 409.7,266.7 					"/>
					<g id="XMLID_549_">
						<circle id="XMLID_550_" class="st17" cx="293.2" cy="248" r="2.2"/>
					</g>
				</g>
			</g>
		</g>
	</g>
	<g>
		<defs>
			<rect id="SVGID_25_" x="24.8" y="19.2" width="362.1" height="362.1"/>
		</defs>
		<clipPath id="SVGID_26_">
			<use xlink:href="#SVGID_25_"  style="overflow:visible;"/>
		</clipPath>
		<g id="XMLID_283_" class="st20">
			<g id="XMLID_489_">
				<line id="XMLID_491_" class="st14" x1="186.1" y1="297.2" x2="186.1" y2="341.6"/>
				<circle id="XMLID_490_" class="st8" cx="186.1" cy="297.2" r="2.5"/>
			</g>
			<g id="XMLID_486_">
				<polyline id="XMLID_488_" class="st15" points="195.2,309.5 195.2,352.6 187.6,359.1 187.6,393.6 				"/>
				<circle id="XMLID_487_" class="st8" cx="195" cy="309.5" r="1.9"/>
			</g>
			<g id="XMLID_483_">
				<polyline id="XMLID_485_" class="st15" points="195.2,309.5 195.2,352.6 187.6,359.1 187.6,393.6 				"/>
				<circle id="XMLID_484_" class="st8" cx="195" cy="309.5" r="1.9"/>
			</g>
			<g id="XMLID_477_">
				<g id="XMLID_541_">
					<polyline id="XMLID_545_" class="st16" points="172,292.8 172,314.4 94.1,392.3 					"/>
					<g id="XMLID_543_">
						<circle id="XMLID_544_" class="st17" cx="172" cy="293" r="2.2"/>
					</g>
				</g>
			</g>
			<g id="XMLID_471_">
				<g id="XMLID_535_">
					<polyline id="XMLID_539_" class="st16" points="172,292.8 172,314.4 94.1,392.3 					"/>
					<g id="XMLID_537_">
						<circle id="XMLID_538_" class="st17" cx="172" cy="293" r="2.2"/>
					</g>
				</g>
			</g>
			<g id="XMLID_465_">
				<g id="XMLID_529_">
					<polyline id="XMLID_533_" class="st16" points="172,292.8 172,314.4 94.1,392.3 					"/>
					<g id="XMLID_531_">
						<circle id="XMLID_532_" class="st17" cx="172" cy="293" r="2.2"/>
					</g>
				</g>
			</g>
			<g id="XMLID_459_">
				<g id="XMLID_522_">
					<polyline id="XMLID_527_" class="st16" points="178.7,308.5 178.7,325.3 140.2,363.8 					"/>
					<g id="XMLID_525_">
						<circle id="XMLID_526_" class="st17" cx="178.7" cy="308.6" r="2.2"/>
					</g>
				</g>
			</g>
			<g id="XMLID_453_">
				<g id="XMLID_516_">
					<line id="XMLID_520_" class="st16" x1="178.7" y1="340" x2="178.7" y2="392.3"/>
					<g id="XMLID_518_">
						<circle id="XMLID_519_" class="st17" cx="178.7" cy="340.1" r="1.3"/>
					</g>
				</g>
			</g>
			<g id="XMLID_447_">
				<g id="XMLID_510_">
					<line id="XMLID_514_" class="st16" x1="168.9" y1="354.4" x2="148.8" y2="374.5"/>
					<g id="XMLID_512_">
						<circle id="XMLID_513_" class="st17" cx="168.9" cy="354.5" r="1.3"/>
					</g>
				</g>
			</g>
			<g id="XMLID_441_">
				<g id="XMLID_504_">
					<polyline id="XMLID_508_" class="st16" points="156.4,286 134.8,307.7 134.8,327 71.1,390.7 					"/>
					<g id="XMLID_506_">
						<circle id="XMLID_507_" class="st17" cx="156.4" cy="286.1" r="2.2"/>
					</g>
				</g>
			</g>
			<g id="XMLID_435_">
				<g id="XMLID_498_">
					<polyline id="XMLID_502_" class="st16" points="145.2,325.6 145.2,311.4 166.7,289.9 					"/>
					<g id="XMLID_500_">
						<circle id="XMLID_501_" class="st17" cx="145.2" cy="325.5" r="2.2"/>
					</g>
				</g>
			</g>
			<g id="XMLID_429_">
				<g id="XMLID_482_">
					<line id="XMLID_496_" class="st16" x1="163.6" y1="307.6" x2="153.6" y2="317.6"/>
					<g id="XMLID_494_">
						<circle id="XMLID_495_" class="st17" cx="163.5" cy="307.7" r="1.7"/>
					</g>
				</g>
			</g>
			<g id="XMLID_423_">
				<g id="XMLID_476_">
					<polyline id="XMLID_480_" class="st16" points="148.7,281.4 124.9,305.1 124.9,327 64.4,387.5 					"/>
					<g id="XMLID_478_">
						<circle id="XMLID_479_" class="st17" cx="148.6" cy="281.5" r="2.2"/>
					</g>
				</g>
			</g>
			<g id="XMLID_417_">
				<g id="XMLID_470_">
					<polyline id="XMLID_474_" class="st16" points="148.7,281.4 124.9,305.1 124.9,327 64.4,387.5 					"/>
					<g id="XMLID_472_">
						<circle id="XMLID_473_" class="st17" cx="148.6" cy="281.5" r="2.2"/>
					</g>
				</g>
			</g>
			<g id="XMLID_411_">
				<g id="XMLID_464_">
					<polyline id="XMLID_468_" class="st16" points="148.7,281.4 124.9,305.1 124.9,327 64.4,387.5 					"/>
					<g id="XMLID_466_">
						<circle id="XMLID_467_" class="st17" cx="148.6" cy="281.5" r="2.2"/>
					</g>
				</g>
			</g>
			<g id="XMLID_405_">
				<g id="XMLID_458_">
					<line id="XMLID_462_" class="st16" x1="113.1" y1="324.5" x2="42.2" y2="395.3"/>
					<g id="XMLID_460_">
						<circle id="XMLID_461_" class="st17" cx="113" cy="324.5" r="2.2"/>
					</g>
				</g>
			</g>
			<g id="XMLID_399_">
				<g id="XMLID_452_">
					<polyline id="XMLID_456_" class="st16" points="140.1,276 124.5,291.6 101.2,291.6 14.1,378.8 					"/>
					<g id="XMLID_454_">
						<circle id="XMLID_455_" class="st17" cx="140" cy="276.1" r="2.2"/>
					</g>
				</g>
			</g>
			<g id="XMLID_380_">
				<g id="XMLID_393_">
					<g id="XMLID_446_">
						<polyline id="XMLID_450_" class="st16" points="112.4,309.5 102.8,309.5 29.6,382.7 						"/>
						<g id="XMLID_448_">
							<circle id="XMLID_449_" class="st17" cx="112.3" cy="309.5" r="2.2"/>
						</g>
					</g>
				</g>
				<g id="XMLID_387_">
					<g id="XMLID_440_">
						<polyline id="XMLID_444_" class="st16" points="112.4,309.5 102.8,309.5 29.6,382.7 						"/>
						<g id="XMLID_442_">
							<circle id="XMLID_443_" class="st17" cx="112.3" cy="309.5" r="2.2"/>
						</g>
					</g>
				</g>
				<g id="XMLID_381_">
					<g id="XMLID_434_">
						<polyline id="XMLID_438_" class="st16" points="112.4,309.5 102.8,309.5 29.6,382.7 						"/>
						<g id="XMLID_436_">
							<circle id="XMLID_437_" class="st17" cx="112.3" cy="309.5" r="2.2"/>
						</g>
					</g>
				</g>
			</g>
			<g id="XMLID_374_">
				<g id="XMLID_428_">
					<polyline id="XMLID_432_" class="st16" points="133.2,268.6 119.8,282 101.4,282 					"/>
					<g id="XMLID_430_">
						<circle id="XMLID_431_" class="st17" cx="133.2" cy="268.7" r="2.2"/>
					</g>
				</g>
			</g>
			<g id="XMLID_368_">
				<g id="XMLID_422_">
					<polyline id="XMLID_426_" class="st16" points="133.2,268.6 119.8,282 101.4,282 					"/>
					<g id="XMLID_424_">
						<circle id="XMLID_425_" class="st17" cx="133.2" cy="268.7" r="2.2"/>
					</g>
				</g>
			</g>
			<g id="XMLID_362_">
				<g id="XMLID_416_">
					<polyline id="XMLID_420_" class="st16" points="133.2,268.6 119.8,282 101.4,282 					"/>
					<g id="XMLID_418_">
						<circle id="XMLID_419_" class="st17" cx="133.2" cy="268.7" r="2.2"/>
					</g>
				</g>
			</g>
			<g id="XMLID_359_">
				<path id="XMLID_174_" class="st18" d="M128.8,260.5"/>
			</g>
			<g id="XMLID_352_">
				<g id="XMLID_407_">
					<polyline id="XMLID_410_" class="st16" points="116,272.2 97.4,272.2 8.8,360.8 					"/>
					<g id="XMLID_408_">
						<circle id="XMLID_409_" class="st17" cx="115.9" cy="272.2" r="2.2"/>
					</g>
				</g>
			</g>
			<g id="XMLID_345_">
				<g id="XMLID_398_">
					<polyline id="XMLID_403_" class="st16" points="116,272.2 97.4,272.2 8.8,360.8 					"/>
					<g id="XMLID_401_">
						<circle id="XMLID_402_" class="st17" cx="115.9" cy="272.2" r="2.2"/>
					</g>
				</g>
			</g>
			<g id="XMLID_339_">
				<g id="XMLID_391_">
					<line id="XMLID_396_" class="st16" x1="80" y1="301.1" x2="10.6" y2="370.5"/>
					<g id="XMLID_392_">
						<circle id="XMLID_394_" class="st17" cx="79.9" cy="301.2" r="2.2"/>
					</g>
				</g>
			</g>
			<g id="XMLID_333_">
				<g id="XMLID_385_">
					<polyline id="XMLID_389_" class="st16" points="124,257.6 118.4,263.2 72.1,263.2 12.8,322.5 					"/>
					<g id="XMLID_386_">
						<circle id="XMLID_388_" class="st17" cx="123.9" cy="257.7" r="2.2"/>
					</g>
				</g>
			</g>
			<g id="XMLID_314_">
				<g id="XMLID_327_">
					<g id="XMLID_378_">
						<line id="XMLID_383_" class="st16" x1="75" y1="276" x2="12.4" y2="338.7"/>
						<g id="XMLID_379_">
							<circle id="XMLID_382_" class="st17" cx="75" cy="276.1" r="2.2"/>
						</g>
					</g>
				</g>
				<g id="XMLID_321_">
					<g id="XMLID_371_">
						<line id="XMLID_376_" class="st16" x1="75" y1="276" x2="12.4" y2="338.7"/>
						<g id="XMLID_373_">
							<circle id="XMLID_375_" class="st17" cx="75" cy="276.1" r="2.2"/>
						</g>
					</g>
				</g>
				<g id="XMLID_315_">
					<g id="XMLID_364_">
						<line id="XMLID_367_" class="st16" x1="75" y1="276" x2="12.4" y2="338.7"/>
						<g id="XMLID_365_">
							<circle id="XMLID_366_" class="st17" cx="75" cy="276.1" r="2.2"/>
						</g>
					</g>
				</g>
			</g>
			<g id="XMLID_308_">
				<g id="XMLID_357_">
					<polyline id="XMLID_361_" class="st16" points="56.1,264 41.6,278.5 21.3,278.5 					"/>
					<g id="XMLID_358_">
						<circle id="XMLID_360_" class="st17" cx="56" cy="264.1" r="2.2"/>
					</g>
				</g>
			</g>
			<g id="XMLID_302_">
				<g id="XMLID_349_">
					<line id="XMLID_355_" class="st16" x1="29.7" y1="288.2" x2="13.7" y2="304.2"/>
					<g id="XMLID_350_">
						<circle id="XMLID_353_" class="st17" cx="29.6" cy="288.3" r="2.2"/>
					</g>
				</g>
			</g>
			<g id="XMLID_296_">
				<g id="XMLID_343_">
					<line id="XMLID_347_" class="st16" x1="29.7" y1="288.2" x2="13.7" y2="304.2"/>
					<g id="XMLID_344_">
						<circle id="XMLID_346_" class="st17" cx="29.6" cy="288.3" r="2.2"/>
					</g>
				</g>
			</g>
			<g id="XMLID_290_">
				<g id="XMLID_337_">
					<polyline id="XMLID_341_" class="st16" points="116.6,247.9 111.6,252.8 49.2,252.8 35.3,266.7 0,266.7 					"/>
					<g id="XMLID_338_">
						<circle id="XMLID_340_" class="st17" cx="116.5" cy="248" r="2.2"/>
					</g>
				</g>
			</g>
			<g id="XMLID_284_">
				<g id="XMLID_331_">
					<polyline id="XMLID_335_" class="st16" points="116.6,247.9 111.6,252.8 49.2,252.8 35.3,266.7 0,266.7 					"/>
					<g id="XMLID_332_">
						<circle id="XMLID_334_" class="st17" cx="116.5" cy="248" r="2.2"/>
					</g>
				</g>
			</g>
		</g>
	</g>
	<g>
		<defs>
			<rect id="SVGID_27_" x="24.8" y="19.2" width="362.1" height="362.1"/>
		</defs>
		<clipPath id="SVGID_28_">
			<use xlink:href="#SVGID_27_"  style="overflow:visible;"/>
		</clipPath>
		<path id="XMLID_282_" class="st21" d="M295.2,160.9"/>
	</g>
	<g>
		<defs>
			<rect id="SVGID_29_" x="24.8" y="19.2" width="362.1" height="362.1"/>
		</defs>
		<clipPath id="SVGID_30_">
			<use xlink:href="#SVGID_29_"  style="overflow:visible;"/>
		</clipPath>
		<line id="XMLID_281_" class="st22" x1="301.6" y1="183.4" x2="356.1" y2="183.4"/>
	</g>
	<g>
		<defs>
			<rect id="SVGID_31_" x="24.8" y="19.2" width="362.1" height="362.1"/>
		</defs>
		<clipPath id="SVGID_32_">
			<use xlink:href="#SVGID_31_"  style="overflow:visible;"/>
		</clipPath>
		<line id="XMLID_280_" class="st23" x1="304.3" y1="204.9" x2="389.4" y2="204.9"/>
	</g>
	<g>
		<defs>
			<rect id="SVGID_33_" x="24.8" y="19.2" width="362.1" height="362.1"/>
		</defs>
		<clipPath id="SVGID_34_">
			<use xlink:href="#SVGID_33_"  style="overflow:visible;"/>
		</clipPath>
		<line id="XMLID_279_" class="st24" x1="299.7" y1="227.9" x2="425.5" y2="227.9"/>
	</g>
	<g>
		<defs>
			<rect id="SVGID_35_" x="24.8" y="19.2" width="362.1" height="362.1"/>
		</defs>
		<clipPath id="SVGID_36_">
			<use xlink:href="#SVGID_35_"  style="overflow:visible;"/>
		</clipPath>
		<line id="XMLID_278_" class="st25" x1="39" y1="160.9" x2="113.8" y2="160.9"/>
	</g>
	<g>
		<defs>
			<rect id="SVGID_37_" x="24.8" y="19.2" width="362.1" height="362.1"/>
		</defs>
		<clipPath id="SVGID_38_">
			<use xlink:href="#SVGID_37_"  style="overflow:visible;"/>
		</clipPath>
		<line id="XMLID_277_" class="st26" x1="22.1" y1="184" x2="106.7" y2="184"/>
	</g>
	<g>
		<defs>
			<rect id="SVGID_39_" x="24.8" y="19.2" width="362.1" height="362.1"/>
		</defs>
		<clipPath id="SVGID_40_">
			<use xlink:href="#SVGID_39_"  style="overflow:visible;"/>
		</clipPath>
		<line id="XMLID_276_" class="st27" x1="51.9" y1="210.1" x2="107" y2="210.1"/>
	</g>
	<g>
		<defs>
			<rect id="SVGID_41_" x="24.8" y="19.2" width="362.1" height="362.1"/>
		</defs>
		<clipPath id="SVGID_42_">
			<use xlink:href="#SVGID_41_"  style="overflow:visible;"/>
		</clipPath>
		<line id="XMLID_275_" class="st28" x1="301.6" y1="183.4" x2="356.1" y2="183.4"/>
	</g>
	<g>
		<defs>
			<rect id="SVGID_43_" x="24.8" y="19.2" width="362.1" height="362.1"/>
		</defs>
		<clipPath id="SVGID_44_">
			<use xlink:href="#SVGID_43_"  style="overflow:visible;"/>
		</clipPath>
		<line id="XMLID_274_" class="st29" x1="51.9" y1="210.1" x2="107" y2="210.1"/>
	</g>
	<g>
		<defs>
			<rect id="SVGID_45_" x="24.8" y="19.2" width="362.1" height="362.1"/>
		</defs>
		<clipPath id="SVGID_46_">
			<use xlink:href="#SVGID_45_"  style="overflow:visible;"/>
		</clipPath>
		<line id="XMLID_272_" class="st30" x1="301.6" y1="183.4" x2="356.1" y2="183.4"/>
	</g>
	<g>
		<defs>
			<rect id="SVGID_47_" x="24.8" y="19.2" width="362.1" height="362.1"/>
		</defs>
		<clipPath id="SVGID_48_">
			<use xlink:href="#SVGID_47_"  style="overflow:visible;"/>
		</clipPath>
		<line id="XMLID_271_" class="st31" x1="51.9" y1="210.1" x2="107" y2="210.1"/>
	</g>
	<g>
		<defs>
			<rect id="SVGID_49_" x="24.8" y="19.2" width="362.1" height="362.1"/>
		</defs>
		<clipPath id="SVGID_50_">
			<use xlink:href="#SVGID_49_"  style="overflow:visible;"/>
		</clipPath>
		<line id="XMLID_270_" class="st32" x1="0.8" y1="230.1" x2="110.3" y2="230.1"/>
	</g>
	<g>
		<defs>
			<rect id="SVGID_51_" x="24.8" y="19.2" width="362.1" height="362.1"/>
		</defs>
		<clipPath id="SVGID_52_">
			<use xlink:href="#SVGID_51_"  style="overflow:visible;"/>
		</clipPath>
		<line id="XMLID_269_" class="st33" x1="296.7" y1="163.4" x2="393.6" y2="163.4"/>
	</g>
	<g>
		<defs>
			<rect id="SVGID_53_" x="24.8" y="19.2" width="362.1" height="362.1"/>
		</defs>
		<clipPath id="SVGID_54_">
			<use xlink:href="#SVGID_53_"  style="overflow:visible;"/>
		</clipPath>
		<line id="XMLID_268_" class="st34" x1="304.3" y1="204.9" x2="389.4" y2="204.9"/>
	</g>
	<g>
		<defs>
			<rect id="SVGID_55_" x="24.8" y="19.2" width="362.1" height="362.1"/>
		</defs>
		<clipPath id="SVGID_56_">
			<use xlink:href="#SVGID_55_"  style="overflow:visible;"/>
		</clipPath>
		<line id="XMLID_267_" class="st35" x1="22.1" y1="184" x2="106.7" y2="184"/>
	</g>
	<g>
		<defs>
			<rect id="SVGID_57_" x="24.8" y="19.2" width="362.1" height="362.1"/>
		</defs>
		<clipPath id="SVGID_58_">
			<use xlink:href="#SVGID_57_"  style="overflow:visible;"/>
		</clipPath>
		<line id="XMLID_266_" class="st36" x1="0.8" y1="230.1" x2="110.3" y2="230.1"/>
	</g>
	<g>
		<defs>
			<rect id="SVGID_59_" x="24.8" y="19.2" width="362.1" height="362.1"/>
		</defs>
		<clipPath id="SVGID_60_">
			<use xlink:href="#SVGID_59_"  style="overflow:visible;"/>
		</clipPath>
		<line id="XMLID_265_" class="st37" x1="296.7" y1="163.4" x2="393.6" y2="163.4"/>
	</g>
	<g>
		<defs>
			<polyline id="SVGID_61_" points="24.8,381.3 24.8,19.2 386.9,19.2 			"/>
		</defs>
		<clipPath id="SVGID_62_">
			<use xlink:href="#SVGID_61_"  style="overflow:visible;"/>
		</clipPath>
		<g id="XMLID_27_" class="st38">
			<g id="XMLID_257_">
				<line id="XMLID_264_" class="st14" x1="186.1" y1="101.9" x2="186.1" y2="57.4"/>
				<circle id="XMLID_263_" class="st8" cx="186.1" cy="101.9" r="2.5"/>
				<path id="XMLID_262_" class="st8" d="M183.6,101.9c0,1.4,1.1,2.5,2.5,2.5s2.5-1.1,2.5-2.5"/>
				<path id="XMLID_261_" class="st8" d="M183.6,101.9c0,1.4,1.1,2.5,2.5,2.5s2.5-1.1,2.5-2.5"/>
				<path id="XMLID_260_" class="st8" d="M183.6,101.9c0,1.4,1.1,2.5,2.5,2.5s2.5-1.1,2.5-2.5"/>
				<path id="XMLID_259_" class="st8" d="M183.6,101.9c0,1.4,1.1,2.5,2.5,2.5s2.5-1.1,2.5-2.5"/>
				<path id="XMLID_258_" class="st8" d="M183.6,101.9c0,1.4,1.1,2.5,2.5,2.5s2.5-1.1,2.5-2.5"/>
			</g>
			<g id="XMLID_254_">
				<polyline id="XMLID_256_" class="st15" points="195.2,89.5 195.2,46.4 187.6,40 187.6,5.4 				"/>
				<circle id="XMLID_255_" class="st8" cx="195" cy="89.5" r="1.9"/>
			</g>
			<g id="XMLID_251_">
				<polyline id="XMLID_253_" class="st15" points="195.2,89.5 195.2,46.4 187.6,40 187.6,5.4 				"/>
				<circle id="XMLID_252_" class="st8" cx="195" cy="89.5" r="1.9"/>
			</g>
			<g id="XMLID_245_">
				<g id="XMLID_325_">
					<polyline id="XMLID_329_" class="st16" points="172,106.2 172,84.6 94.1,6.7 					"/>
					<g id="XMLID_326_">
						<circle id="XMLID_328_" class="st17" cx="172" cy="106.1" r="2.2"/>
					</g>
				</g>
			</g>
			<g id="XMLID_239_">
				<g id="XMLID_319_">
					<polyline id="XMLID_323_" class="st16" points="172,106.2 172,84.6 94.1,6.7 					"/>
					<g id="XMLID_320_">
						<circle id="XMLID_322_" class="st17" cx="172" cy="106.1" r="2.2"/>
					</g>
				</g>
			</g>
			<g id="XMLID_233_">
				<g id="XMLID_312_">
					<polyline id="XMLID_317_" class="st16" points="172,106.2 172,84.6 94.1,6.7 					"/>
					<g id="XMLID_313_">
						<circle id="XMLID_316_" class="st17" cx="172" cy="106.1" r="2.2"/>
					</g>
				</g>
			</g>
			<g id="XMLID_227_">
				<g id="XMLID_306_">
					<polyline id="XMLID_310_" class="st16" points="178.7,90.5 178.7,73.7 140.2,35.2 					"/>
					<g id="XMLID_307_">
						<circle id="XMLID_309_" class="st17" cx="178.7" cy="90.4" r="2.2"/>
					</g>
				</g>
			</g>
			<g id="XMLID_221_">
				<g id="XMLID_300_">
					<line id="XMLID_304_" class="st16" x1="178.7" y1="59" x2="178.7" y2="6.7"/>
					<g id="XMLID_301_">
						<circle id="XMLID_303_" class="st17" cx="178.7" cy="58.9" r="1.3"/>
					</g>
				</g>
			</g>
			<g id="XMLID_215_">
				<g id="XMLID_294_">
					<line id="XMLID_298_" class="st16" x1="168.9" y1="44.6" x2="148.8" y2="24.5"/>
					<g id="XMLID_295_">
						<circle id="XMLID_297_" class="st17" cx="168.9" cy="44.6" r="1.3"/>
					</g>
				</g>
			</g>
			<g id="XMLID_209_">
				<g id="XMLID_288_">
					<polyline id="XMLID_292_" class="st16" points="156.4,113 134.8,91.3 134.8,72 71.1,8.4 					"/>
					<g id="XMLID_289_">
						<circle id="XMLID_291_" class="st17" cx="156.4" cy="112.9" r="2.2"/>
					</g>
				</g>
			</g>
			<g id="XMLID_203_">
				<g id="XMLID_249_">
					<polyline id="XMLID_286_" class="st16" points="145.2,73.4 145.2,87.6 166.7,109.1 					"/>
					<g id="XMLID_250_">
						<circle id="XMLID_285_" class="st17" cx="145.2" cy="73.5" r="2.2"/>
					</g>
				</g>
			</g>
			<g id="XMLID_197_">
				<g id="XMLID_243_">
					<line id="XMLID_247_" class="st16" x1="163.6" y1="91.4" x2="153.6" y2="81.5"/>
					<g id="XMLID_244_">
						<circle id="XMLID_246_" class="st17" cx="163.5" cy="91.3" r="1.7"/>
					</g>
				</g>
			</g>
			<g id="XMLID_191_">
				<g id="XMLID_237_">
					<polyline id="XMLID_241_" class="st16" points="148.7,117.6 124.9,93.9 124.9,72 64.4,11.5 					"/>
					<g id="XMLID_238_">
						<circle id="XMLID_240_" class="st17" cx="148.6" cy="117.6" r="2.2"/>
					</g>
				</g>
			</g>
			<g id="XMLID_185_">
				<g id="XMLID_231_">
					<polyline id="XMLID_235_" class="st16" points="148.7,117.6 124.9,93.9 124.9,72 64.4,11.5 					"/>
					<g id="XMLID_232_">
						<circle id="XMLID_234_" class="st17" cx="148.6" cy="117.6" r="2.2"/>
					</g>
				</g>
			</g>
			<g id="XMLID_179_">
				<g id="XMLID_225_">
					<polyline id="XMLID_229_" class="st16" points="148.7,117.6 124.9,93.9 124.9,72 64.4,11.5 					"/>
					<g id="XMLID_226_">
						<circle id="XMLID_228_" class="st17" cx="148.6" cy="117.6" r="2.2"/>
					</g>
				</g>
			</g>
			<g id="XMLID_173_">
				<g id="XMLID_219_">
					<line id="XMLID_223_" class="st16" x1="113.1" y1="74.6" x2="42.2" y2="3.7"/>
					<g id="XMLID_220_">
						<circle id="XMLID_222_" class="st17" cx="113" cy="74.5" r="2.2"/>
					</g>
				</g>
			</g>
			<g id="XMLID_167_">
				<g id="XMLID_213_">
					<polyline id="XMLID_217_" class="st16" points="140.1,123 124.5,107.4 101.2,107.4 14.1,20.2 					"/>
					<g id="XMLID_214_">
						<circle id="XMLID_216_" class="st17" cx="140" cy="122.9" r="2.2"/>
					</g>
				</g>
			</g>
			<g id="XMLID_148_">
				<g id="XMLID_161_">
					<g id="XMLID_207_">
						<polyline id="XMLID_211_" class="st16" points="112.4,89.5 102.8,89.5 29.6,16.3 						"/>
						<g id="XMLID_208_">
							<circle id="XMLID_210_" class="st17" cx="112.3" cy="89.5" r="2.2"/>
						</g>
					</g>
				</g>
				<g id="XMLID_155_">
					<g id="XMLID_201_">
						<polyline id="XMLID_205_" class="st16" points="112.4,89.5 102.8,89.5 29.6,16.3 						"/>
						<g id="XMLID_202_">
							<circle id="XMLID_204_" class="st17" cx="112.3" cy="89.5" r="2.2"/>
						</g>
					</g>
				</g>
				<g id="XMLID_149_">
					<g id="XMLID_195_">
						<polyline id="XMLID_199_" class="st16" points="112.4,89.5 102.8,89.5 29.6,16.3 						"/>
						<g id="XMLID_196_">
							<circle id="XMLID_198_" class="st17" cx="112.3" cy="89.5" r="2.2"/>
						</g>
					</g>
				</g>
			</g>
			<g id="XMLID_142_">
				<g id="XMLID_189_">
					<polyline id="XMLID_193_" class="st16" points="133.2,130.4 119.8,117 101.4,117 					"/>
					<g id="XMLID_190_">
						<circle id="XMLID_192_" class="st17" cx="133.2" cy="130.4" r="2.2"/>
					</g>
				</g>
			</g>
			<g id="XMLID_136_">
				<g id="XMLID_183_">
					<polyline id="XMLID_187_" class="st16" points="133.2,130.4 119.8,117 101.4,117 					"/>
					<g id="XMLID_184_">
						<circle id="XMLID_186_" class="st17" cx="133.2" cy="130.4" r="2.2"/>
					</g>
				</g>
			</g>
			<g id="XMLID_130_">
				<g id="XMLID_177_">
					<polyline id="XMLID_181_" class="st16" points="133.2,130.4 119.8,117 101.4,117 					"/>
					<g id="XMLID_178_">
						<circle id="XMLID_180_" class="st17" cx="133.2" cy="130.4" r="2.2"/>
					</g>
				</g>
			</g>
			<g id="XMLID_127_">
				<path id="XMLID_84_" class="st18" d="M128.8,138.5"/>
			</g>
			<g id="XMLID_119_">
				<g id="XMLID_168_">
					<polyline id="XMLID_171_" class="st16" points="116,126.8 97.4,126.8 8.8,38.2 					"/>
					<g id="XMLID_169_">
						<circle id="XMLID_170_" class="st17" cx="115.9" cy="126.8" r="2.2"/>
					</g>
				</g>
			</g>
			<g id="XMLID_113_">
				<g id="XMLID_157_">
					<polyline id="XMLID_164_" class="st16" points="116,126.8 97.4,126.8 8.8,38.2 					"/>
					<g id="XMLID_158_">
						<circle id="XMLID_160_" class="st17" cx="115.9" cy="126.8" r="2.2"/>
					</g>
				</g>
			</g>
			<g id="XMLID_106_">
				<g id="XMLID_151_">
					<line id="XMLID_154_" class="st16" x1="80" y1="97.9" x2="10.6" y2="28.6"/>
					<g id="XMLID_152_">
						<circle id="XMLID_153_" class="st17" cx="79.9" cy="97.9" r="2.2"/>
					</g>
				</g>
			</g>
			<g id="XMLID_100_">
				<g id="XMLID_144_">
					<polyline id="XMLID_147_" class="st16" points="124,141.4 118.4,135.8 72.1,135.8 12.8,76.5 					"/>
					<g id="XMLID_145_">
						<circle id="XMLID_146_" class="st17" cx="123.9" cy="141.3" r="2.2"/>
					</g>
				</g>
			</g>
			<g id="XMLID_81_">
				<g id="XMLID_94_">
					<g id="XMLID_133_">
						<line id="XMLID_141_" class="st16" x1="75" y1="123" x2="12.4" y2="60.3"/>
						<g id="XMLID_134_">
							<circle id="XMLID_135_" class="st17" cx="75" cy="122.9" r="2.2"/>
						</g>
					</g>
				</g>
				<g id="XMLID_88_">
					<g id="XMLID_126_">
						<line id="XMLID_131_" class="st16" x1="75" y1="123" x2="12.4" y2="60.3"/>
						<g id="XMLID_128_">
							<circle id="XMLID_129_" class="st17" cx="75" cy="122.9" r="2.2"/>
						</g>
					</g>
				</g>
				<g id="XMLID_82_">
					<g id="XMLID_118_">
						<line id="XMLID_123_" class="st16" x1="75" y1="123" x2="12.4" y2="60.3"/>
						<g id="XMLID_120_">
							<circle id="XMLID_122_" class="st17" cx="75" cy="122.9" r="2.2"/>
						</g>
					</g>
				</g>
			</g>
			<g id="XMLID_75_">
				<g id="XMLID_112_">
					<polyline id="XMLID_116_" class="st16" points="56.1,135 41.6,120.5 21.3,120.5 					"/>
					<g id="XMLID_114_">
						<circle id="XMLID_115_" class="st17" cx="56" cy="135" r="2.2"/>
					</g>
				</g>
			</g>
			<g id="XMLID_69_">
				<g id="XMLID_105_">
					<line id="XMLID_109_" class="st16" x1="29.7" y1="110.8" x2="13.7" y2="94.8"/>
					<g id="XMLID_107_">
						<circle id="XMLID_108_" class="st17" cx="29.6" cy="110.8" r="2.2"/>
					</g>
				</g>
			</g>
			<g id="XMLID_63_">
				<g id="XMLID_99_">
					<line id="XMLID_103_" class="st16" x1="29.7" y1="110.8" x2="13.7" y2="94.8"/>
					<g id="XMLID_101_">
						<circle id="XMLID_102_" class="st17" cx="29.6" cy="110.8" r="2.2"/>
					</g>
				</g>
			</g>
			<g id="XMLID_57_">
				<g id="XMLID_93_">
					<polyline id="XMLID_97_" class="st16" points="116.6,151.1 111.6,146.2 49.2,146.2 35.3,132.3 0,132.3 					"/>
					<g id="XMLID_95_">
						<circle id="XMLID_96_" class="st17" cx="116.5" cy="151.1" r="2.2"/>
					</g>
				</g>
			</g>
			<g id="XMLID_28_">
				<g id="XMLID_87_">
					<polyline id="XMLID_91_" class="st16" points="116.6,151.1 111.6,146.2 49.2,146.2 35.3,132.3 0,132.3 					"/>
					<g id="XMLID_89_">
						<circle id="XMLID_90_" class="st17" cx="116.5" cy="151.1" r="2.2"/>
					</g>
				</g>
			</g>
		</g>
	</g>
</g>
</svg>
