<?xml version="1.0" encoding="utf-8"?>
<!-- Generator: Adobe Illustrator 22.0.1, SVG Export Plug-In . SVG Version: 6.00 Build 0)  -->
<svg version="1.1" id="图层_1" xmlns="http://www.w3.org/2000/svg" xmlns:xlink="http://www.w3.org/1999/xlink" x="0px" y="0px"
	 viewBox="0 0 259.5 180.9" style="enable-background:new 0 0 259.5 180.9;" xml:space="preserve">
<style type="text/css">
	.st0{enable-background:new    ;}
	.st1{fill:#8E8E8E;}
	.st2{fill:#C7C7C7;}
	.st3{fill:#CDCDCD;}
	.st4{fill:#939393;}
	.st5{fill:#B1B1B1;}
	.st6{fill:#ABABAB;}
	.st7{fill:#F4F4F4;}
	.st8{opacity:0.23;fill:#9B9B9B;}
	.st9{fill:#1A90C7;stroke:#1A90C7;stroke-width:2;stroke-miterlimit:10;}
	.st10{fill:#1A90C7;}
</style>
<g>
	<g>
		<g class="st0">
			<g>
				<polygon class="st1" points="117,98.5 116.9,70.1 258,106.4 258.1,134.8 				"/>
			</g>
			<g>
				<polygon class="st2" points="2,144.2 1.9,115.8 116.9,70.1 117,98.5 				"/>
			</g>
			<g>
				<polygon class="st3" points="143.1,180.5 143,152.1 258,106.4 258.1,134.8 				"/>
			</g>
			<g>
				<polygon class="st4" points="2,144.2 1.9,115.8 143,152.1 143.1,180.5 				"/>
			</g>
			<g>
				<polygon class="st5" points="258,106.4 143,152.1 1.9,115.8 116.9,70.1 				"/>
			</g>
			<g>
				<polygon class="st1" points="0.6,144.3 0.5,115.8 143.1,152.5 143.2,180.9 				"/>
			</g>
			<g>
				<polygon class="st2" points="143.2,180.9 143.1,152.5 259.4,106.3 259.5,134.7 				"/>
			</g>
			<g>
				<path class="st6" d="M143.1,152.5L0.5,115.8l116.3-46.2l142.6,36.7L143.1,152.5z M116.9,70.1l-115,45.7L143,152.1l115-45.7
					L116.9,70.1"/>
			</g>
		</g>
	</g>
</g>
<polygon class="st7" points="259,106.3 143,152.3 0,116.3 117,69.3 "/>
<ellipse class="st8" cx="129" cy="110.3" rx="32" ry="7"/>
<path class="st9" d="M139.3,36.5c-0.6-0.3-0.7-1-0.3-1.5c0.3-0.4,0.6-0.8,0.8-1.2c1.9-3.3,1.8-7.1-0.4-8.3c-0.5-0.3-1-0.4-1.6-0.4
	c-0.6,0-1.1,0.1-1.7,0.4c-0.1,0.1-0.3,0.1-0.4,0.1c-0.3,0-0.6-0.1-0.8-0.4c-1.3-1.8-3.4-3-5.8-3c-2.4,0-4.5,1.2-5.8,3
	c-0.2,0.3-0.5,0.4-0.8,0.4c-0.1,0-0.3,0-0.4-0.1c-0.5-0.4-1.1-0.5-1.6-0.5c-0.6,0-1.1,0.1-1.6,0.4c-2.1,1.2-2.3,5-0.4,8.3
	c0.3,0.4,0.5,0.9,0.8,1.2c0.4,0.5,0.3,1.2-0.3,1.5c-7,3.7-11.8,11.1-11.8,19.6c0,4.3,1.4,8.3,3.7,11.6c1.1,1.5,2.9,2.4,4.8,2.4h27
	c1.9,0,3.7-0.9,4.8-2.4c2.3-3.3,3.7-7.3,3.7-11.6C151.2,47.5,146.4,40.1,139.3,36.5z M145.9,66.4c-0.7,1-1.9,1.6-3.2,1.6h-27
	c-1.3,0-2.5-0.6-3.2-1.6c-2.1-3-3.3-6.6-3.3-10.4c0-7.5,4.1-14.3,10.8-17.8c0.8-0.4,1.3-1.1,1.5-2c0.2-0.9,0-1.8-0.6-2.5
	c-0.2-0.3-0.5-0.7-0.7-1c-0.7-1.3-1-2.7-1-3.8c0-0.9,0.3-1.5,0.7-1.7c0.2-0.2,0.4-0.2,0.6-0.2c0.3,0,0.6,0.1,1,0.2
	c0.4,0.2,0.8,0.2,1.2,0.2c1,0,1.9-0.5,2.5-1.3c0.8-1.3,2.4-2.1,4-2.1c1.6,0,3.2,0.8,4.1,2.2c0.6,0.8,1.5,1.3,2.5,1.3
	c0.4,0,0.8-0.1,1.2-0.2c0.4-0.1,0.7-0.2,1-0.2c0.2,0,0.4,0,0.6,0.1c0.9,0.5,1.2,2.9-0.3,5.6c-0.2,0.4-0.4,0.7-0.7,1
	c-0.6,0.7-0.8,1.6-0.6,2.5c0.2,0.9,0.7,1.6,1.5,2c6.6,3.4,10.7,10.2,10.7,17.7C149.2,59.8,148,63.4,145.9,66.4z M129.2,43
	c0,5.5-4.5,10-10,10c5.5,0,10,4.5,10,10c0-5.5,4.5-10,10-10C133.7,53,129.2,48.5,129.2,43z M129.2,56.4c-0.9-1.3-2-2.5-3.4-3.4
	c1.3-0.9,2.5-2,3.4-3.4c0.9,1.3,2,2.5,3.4,3.4C131.2,53.9,130.1,55,129.2,56.4z"/>
<g>
	<g>
		<path class="st10" d="M170.8,17.4c-1.4-1.4-3.3-2.2-5.3-2.2c-16.1,0-31.1-13.2-31.3-13.3c-1.4-1.2-3.1-1.9-5-1.9
			c-1.8,0-3.6,0.7-5,1.9c0,0-3.9,3.4-9.7,6.8c-5.2,3-13.3,6.6-21.6,6.6c-4.1,0-7.5,3.3-7.5,7.4v21.9c0,19.9,11.8,36.5,39.5,55.7
			c1.3,0.9,2.7,1.3,4.3,1.3c1.5,0,3-0.5,4.3-1.3C161.2,81.1,173,64.4,173,44.5V22.7C173,20.7,172.2,18.8,170.8,17.4z M129.2,93.9
			C97.5,71.8,93.2,56.6,93.2,44.5V22.9c4.4,0,9-0.8,13.7-2.4c3.8-1.3,7.7-3,11.6-5.3c5.9-3.4,10-6.9,10.8-7.5
			c0.8,0.7,4.8,4.1,10.8,7.5c3.9,2.2,7.8,4,11.6,5.3c4.7,1.6,9.3,2.4,13.7,2.4l0,21.7C165.3,56.6,161,71.8,129.2,93.9z"/>
	</g>
</g>
</svg>
