<?xml version="1.0" encoding="utf-8"?>
<!-- Generator: Adobe Illustrator 22.0.1, SVG Export Plug-In . SVG Version: 6.00 Build 0)  -->
<svg version="1.1" id="图层_1" xmlns="http://www.w3.org/2000/svg" xmlns:xlink="http://www.w3.org/1999/xlink" x="0px" y="0px"
	 viewBox="0 0 259.5 174.1" style="enable-background:new 0 0 259.5 174.1;" xml:space="preserve">
<style type="text/css">
	.st0{enable-background:new    ;}
	.st1{fill:#8E8E8E;}
	.st2{fill:#C7C7C7;}
	.st3{fill:#CDCDCD;}
	.st4{fill:#939393;}
	.st5{fill:#B1B1B1;}
	.st6{fill:#ABABAB;}
	.st7{fill:#F4F4F4;}
	.st8{opacity:0.23;fill:#9B9B9B;}
	.st9{fill:#1A90C7;stroke:#1A90C7;stroke-width:3;stroke-miterlimit:10;}
</style>
<g>
	<g>
		<g class="st0">
			<g>
				<polygon class="st1" points="117,91.7 116.9,63.3 258,99.6 258.1,128 				"/>
			</g>
			<g>
				<polygon class="st2" points="2,137.4 1.9,109 116.9,63.3 117,91.7 				"/>
			</g>
			<g>
				<polygon class="st3" points="143.1,173.7 143,145.3 258,99.6 258.1,128 				"/>
			</g>
			<g>
				<polygon class="st4" points="2,137.4 1.9,109 143,145.3 143.1,173.7 				"/>
			</g>
			<g>
				<polygon class="st5" points="258,99.6 143,145.3 1.9,109 116.9,63.3 				"/>
			</g>
			<g>
				<polygon class="st1" points="0.6,137.5 0.5,109 143.1,145.7 143.2,174.1 				"/>
			</g>
			<g>
				<polygon class="st2" points="143.2,174.1 143.1,145.7 259.4,99.5 259.5,128 				"/>
			</g>
			<g>
				<path class="st6" d="M143.1,145.7L0.5,109l116.3-46.2l142.6,36.7L143.1,145.7z M116.9,63.3L1.9,109L143,145.3l115-45.7
					L116.9,63.3"/>
			</g>
		</g>
	</g>
</g>
<polygon class="st7" points="259,99.5 143,145.5 0,109.5 117,62.5 "/>
<ellipse class="st8" cx="129" cy="103.5" rx="32" ry="7"/>
<path class="st9" d="M174.4,1.7c-1.4-0.7-3.3,0.6-3.3,0.6S88.7,45.8,85.8,47.4c-2.9,1.6-2.8,5-0.3,5.8l27.2,8.9
	c0.3,0.2,0.6,0.2,0.9,0.2c1.2,0,2.1-0.9,2.1-2.1v0c0-1-0.7-1.9-1.7-2.1l-24.5-8L166,8.7c0,0-40.9,48.3-42.6,50.3
	c-1.7,2-2.6,4-2.6,6.6c0,2.6,0,19.9,0,19.9c0,1.1,0.9,2,2,2c1.1,0,2-0.9,2-2.1v0l0-0.1c0-1.4,0-18.1,0-19.4
	c-0.1-1.4,0.5-2.9,1.1-3.6c0.6-0.7,44.9-53,44.9-53l-12.4,64.1c-0.1,0.6-0.5,0.9-1.1,0.7c-0.7-0.2-23.8-7.5-26.1-8.2
	c-0.3-0.1-0.6-0.2-0.9-0.2c-1.2,0-2.1,0.9-2.1,2.1c0,0.9,0.6,1.7,1.5,2l0,0c0,0,24.3,7.7,26.7,8.4c2.7,0.8,5.4-0.9,6-4
	c0.5-2.5,13.1-67.7,13.3-68.9C175.8,4.3,176.4,2.7,174.4,1.7z"/>
</svg>
