<?xml version="1.0" encoding="utf-8"?>
<!-- Generator: Adobe Illustrator 22.0.1, SVG Export Plug-In . SVG Version: 6.00 Build 0)  -->
<svg version="1.1" id="图层_1" xmlns="http://www.w3.org/2000/svg" xmlns:xlink="http://www.w3.org/1999/xlink" x="0px" y="0px"
	 viewBox="0 0 259.5 174.7" style="enable-background:new 0 0 259.5 174.7;" xml:space="preserve">
<style type="text/css">
	.st0{enable-background:new    ;}
	.st1{fill:#8E8E8E;}
	.st2{fill:#C7C7C7;}
	.st3{fill:#CDCDCD;}
	.st4{fill:#939393;}
	.st5{fill:#B1B1B1;}
	.st6{fill:#ABABAB;}
	.st7{fill:#F4F4F4;}
	.st8{opacity:0.23;fill:#9B9B9B;}
	.st9{fill:#1A90C7;stroke:#1A90C7;stroke-width:3;stroke-miterlimit:10;}
	.st10{fill:#1A90C7;stroke:#1A90C7;stroke-width:0.75;stroke-miterlimit:10;}
</style>
<g>
	<g>
		<g class="st0">
			<g>
				<polygon class="st1" points="117,92.3 116.9,63.9 258,100.2 258.1,128.6 				"/>
			</g>
			<g>
				<polygon class="st2" points="2,138 1.9,109.6 116.9,63.9 117,92.3 				"/>
			</g>
			<g>
				<polygon class="st3" points="143.1,174.3 143,145.9 258,100.2 258.1,128.6 				"/>
			</g>
			<g>
				<polygon class="st4" points="2,138 1.9,109.6 143,145.9 143.1,174.3 				"/>
			</g>
			<g>
				<polygon class="st5" points="258,100.2 143,145.9 1.9,109.6 116.9,63.9 				"/>
			</g>
			<g>
				<polygon class="st1" points="0.6,138.1 0.5,109.7 143.1,146.3 143.2,174.7 				"/>
			</g>
			<g>
				<polygon class="st2" points="143.2,174.7 143.1,146.3 259.4,100.1 259.5,128.6 				"/>
			</g>
			<g>
				<path class="st6" d="M143.1,146.3L0.5,109.7l116.3-46.2l142.6,36.7L143.1,146.3z M116.9,63.9l-115,45.7L143,145.9l115-45.7
					L116.9,63.9"/>
			</g>
		</g>
	</g>
</g>
<polygon class="st7" points="259,100.1 143,146.1 0,110.1 117,63.1 "/>
<ellipse class="st8" cx="129" cy="104.1" rx="32" ry="7"/>
<g>
	<g>
		<g>
			<path class="st9" d="M166,23.5h-63.4c-7.2,0-13,5.9-13,13v37.3c0,7.2,5.9,13,13,13H166c7.2,0,13-5.9,13-13V36.5
				C179.1,29.3,173.2,23.5,166,23.5z M175.4,73.8c0,5.1-4.2,9.3-9.3,9.3h-63.4c-5.1,0-9.3-4.2-9.3-9.3V36.5c0-5.1,4.2-9.3,9.3-9.3
				H166c5.1,0,9.3,4.2,9.3,9.3V73.8z"/>
		</g>
	</g>
	<g>
		<g>
			<path class="st10" d="M162.3,49.6c-3.1,0-5.6,2.5-5.6,5.6s2.5,5.6,5.6,5.6c3.1,0,5.6-2.5,5.6-5.6S165.4,49.6,162.3,49.6z
				 M162.3,57c-1,0-1.9-0.8-1.9-1.9s0.8-1.9,1.9-1.9c1,0,1.9,0.8,1.9,1.9S163.3,57,162.3,57z"/>
		</g>
	</g>
	<g>
		<g>
			<path class="st9" d="M177.2,42.1h-14.9c-7.2,0-13,5.9-13,13c0,7.2,5.9,13,13,13h14.9c1,0,1.9-0.8,1.9-1.9V44
				C179.1,43,178.2,42.1,177.2,42.1z M175.4,64.5h-13c-5.1,0-9.3-4.2-9.3-9.3s4.2-9.3,9.3-9.3l0,0h13V64.5z"/>
		</g>
	</g>
	<g>
		<g>
			<path class="st9" d="M165.8,24.5l-7.9-15.8c-1.6-3.2-4.3-5.5-7.7-6.6c-3.4-1.1-7-0.7-10.1,1l-38.3,20.6c-0.9,0.5-1.2,1.6-0.8,2.5
				c0.5,0.9,1.6,1.2,2.5,0.8l38.3-20.6c2.2-1.2,4.8-1.5,7.2-0.7c2.4,0.8,4.4,2.4,5.5,4.7l7.9,15.8c0.3,0.7,1,1,1.7,1
				c0.3,0,0.6-0.1,0.8-0.2C165.9,26.5,166.3,25.4,165.8,24.5z"/>
		</g>
	</g>
	<g>
		<g>
			<path class="st9" d="M158.4,9.5c-0.5-0.9-1.6-1.2-2.5-0.8l-27.7,14.9c-0.9,0.5-1.2,1.6-0.8,2.5c0.3,0.6,1,1,1.6,1
				c0.3,0,0.6-0.1,0.9-0.2l27.7-14.9C158.5,11.6,158.8,10.5,158.4,9.5z"/>
		</g>
	</g>
	<g>
		<g>
			<path class="st9" d="M123.2,12.3h-13c-11.3,0-20.5,9.2-20.5,20.5v3.7c0,1,0.8,1.9,1.9,1.9s1.9-0.8,1.9-1.9v-3.7
				c0-9.3,7.5-16.8,16.8-16.8h13c1,0,1.9-0.8,1.9-1.9S124.2,12.3,123.2,12.3z"/>
		</g>
	</g>
	<g>
		<g>
			<path class="st9" d="M158.6,12.3c-1,0-1.9,0.8-1.9,1.9s0.8,1.9,1.9,1.9c9.3,0,16.8,7.5,16.8,16.8v3.7c0,1,0.8,1.9,1.9,1.9
				s1.9-0.8,1.9-1.9v-3.7C179.1,21.5,169.9,12.3,158.6,12.3z"/>
		</g>
	</g>
</g>
</svg>
