<?xml version="1.0" encoding="utf-8"?>
<!-- Generator: Adobe Illustrator 22.0.1, SVG Export Plug-In . SVG Version: 6.00 Build 0)  -->
<svg version="1.1" id="图层_1" xmlns="http://www.w3.org/2000/svg" xmlns:xlink="http://www.w3.org/1999/xlink" x="0px" y="0px"
	 viewBox="0 0 259.5 180.6" style="enable-background:new 0 0 259.5 180.6;" xml:space="preserve">
<style type="text/css">
	.st0{enable-background:new    ;}
	.st1{fill:#8E8E8E;}
	.st2{fill:#C7C7C7;}
	.st3{fill:#CDCDCD;}
	.st4{fill:#939393;}
	.st5{fill:#B1B1B1;}
	.st6{fill:#ABABAB;}
	.st7{fill:#F4F4F4;}
	.st8{fill:#1A90C7;}
	.st9{opacity:0.23;fill:#9B9B9B;}
</style>
<g>
	<g>
		<g class="st0">
			<g>
				<polygon class="st1" points="117,98.2 116.9,69.8 258,106.1 258.1,134.5 				"/>
			</g>
			<g>
				<polygon class="st2" points="2,143.9 1.9,115.5 116.9,69.8 117,98.2 				"/>
			</g>
			<g>
				<polygon class="st3" points="143.1,180.2 143,151.8 258,106.1 258.1,134.5 				"/>
			</g>
			<g>
				<polygon class="st4" points="2,143.9 1.9,115.5 143,151.8 143.1,180.2 				"/>
			</g>
			<g>
				<polygon class="st5" points="258,106.1 143,151.8 1.9,115.5 116.9,69.8 				"/>
			</g>
			<g>
				<polygon class="st1" points="0.6,144 0.5,115.5 143.1,152.2 143.2,180.6 				"/>
			</g>
			<g>
				<polygon class="st2" points="143.2,180.6 143.1,152.2 259.4,106 259.5,134.5 				"/>
			</g>
			<g>
				<path class="st6" d="M143.1,152.2L0.5,115.5l116.3-46.2L259.4,106L143.1,152.2z M116.9,69.8l-115,45.7L143,151.8l115-45.7
					L116.9,69.8"/>
			</g>
		</g>
	</g>
</g>
<polygon class="st7" points="259,106 143,152 0,116 117,69 "/>
<path class="st8" d="M172,17.4c-1.4-1.4-3.3-2.2-5.3-2.2c-16.1,0-31.1-13.2-31.3-13.3c-1.4-1.2-3.1-1.9-5-1.9c-1.8,0-3.6,0.7-5,1.9
	c0,0-3.9,3.4-9.7,6.8c-5.2,3-13.3,6.6-21.6,6.6c-4.1,0-7.5,3.3-7.5,7.4v21.9c0,19.9,11.8,36.5,39.5,55.7c1.3,0.9,2.7,1.3,4.3,1.3
	c1.5,0,3-0.5,4.3-1.3c27.7-19.2,39.5-35.9,39.5-55.7V22.7C174.2,20.7,173.4,18.8,172,17.4z M166.5,44.5c0,12-4.3,27.3-36.1,49.4
	C98.7,71.8,94.4,56.6,94.4,44.5V22.9c4.4,0,9-0.8,13.7-2.4c3.8-1.3,7.7-3,11.6-5.3c5.9-3.4,10-6.9,10.8-7.5
	c0.8,0.7,4.8,4.1,10.8,7.5c3.9,2.2,7.8,4,11.6,5.3c4.7,1.6,9.3,2.4,13.7,2.4L166.5,44.5z M149.2,54.8l-2.7-1.6
	c0.1-0.9,0.2-1.7,0.2-2.5c0-0.8-0.1-1.6-0.2-2.5l2.7-1.6c1.6-1,2.2-3.1,1.3-4.7l-2.7-4.7c-0.6-1.1-1.8-1.7-3-1.7
	c-0.6,0-1.2,0.2-1.7,0.5l-2.7,1.6c-1.4-1.1-2.8-2-4.3-2.6v-1.8c0-1.9-1.5-3.5-3.4-3.5h-5.3c-1.9,0-3.4,1.6-3.4,3.5v1.8
	c-1.5,0.6-3,1.5-4.3,2.6l-2.7-1.6c-0.5-0.3-1.1-0.5-1.7-0.5c-1.2,0-2.4,0.7-3,1.7l-2.7,4.7c-0.9,1.7-0.4,3.8,1.3,4.7l2.7,1.6
	c-0.1,0.9-0.2,1.7-0.2,2.5c0,0.8,0.1,1.6,0.2,2.5l-2.7,1.6c-1.6,1-2.2,3.1-1.3,4.7l2.7,4.7c0.6,1.1,1.8,1.7,3,1.7
	c0.6,0,1.2-0.2,1.7-0.5l2.7-1.6c1.4,1.1,2.8,2,4.3,2.6v1.8c0,1.9,1.5,3.5,3.4,3.5h5.3c1.9,0,3.4-1.6,3.4-3.5v-1.8
	c1.5-0.6,3-1.5,4.3-2.6l2.7,1.6c0.5,0.3,1.1,0.5,1.7,0.5c1.2,0,2.4-0.7,3-1.7l2.7-4.7C151.4,57.9,150.9,55.7,149.2,54.8z
	 M127.5,63.1c-2.6-0.5-5.1-2-6.9-4l-0.4-0.5l-4.3,2.5c-0.1,0.1-0.2,0.1-0.3,0.1c-0.2,0-0.4-0.1-0.5-0.3l-1.3-2.3
	c-0.2-0.3-0.1-0.6,0.2-0.8l4.3-2.5l-0.2-0.6c-0.4-1.3-0.7-2.7-0.7-4c0-1.3,0.2-2.7,0.7-4l0.2-0.6l-4.3-2.5c-0.3-0.2-0.4-0.5-0.2-0.8
	l1.3-2.3c0.1-0.2,0.3-0.3,0.5-0.3c0.1,0,0.2,0,0.3,0.1l4.3,2.5l0.4-0.5c1.8-2.1,4.3-3.5,6.9-4l0.6-0.1v-3.6c0-0.3,0.3-0.6,0.6-0.6
	h2.7c0.3,0,0.6,0.3,0.6,0.6v3.6l0.6,0.1c2.6,0.5,5.1,2,6.9,4l0.4,0.5l4.3-2.5c0.1-0.1,0.2-0.1,0.3-0.1c0.2,0,0.4,0.1,0.5,0.3
	l1.3,2.3c0.2,0.3,0.1,0.6-0.2,0.8l-4.3,2.5l0.2,0.6c0.4,1.3,0.7,2.7,0.7,4c0,1.3-0.2,2.7-0.7,4l-0.2,0.6l4.3,2.5
	c0.3,0.2,0.4,0.5,0.2,0.8l-1.3,2.3c-0.1,0.2-0.3,0.3-0.5,0.3c-0.1,0-0.2,0-0.3-0.1l-4.3-2.5l-0.4,0.5c-1.8,2.1-4.3,3.5-6.9,4
	l-0.6,0.1v3.6c0,0.3-0.3,0.6-0.6,0.6h-2.7c-0.3,0-0.6-0.3-0.6-0.6v-3.6L127.5,63.1z M137.4,50.7c0-4.1-3.3-7.5-7.4-7.5
	c-4.1,0-7.4,3.4-7.4,7.5s3.3,7.5,7.4,7.5C134.1,58.2,137.4,54.8,137.4,50.7z M130,47.4c1.8,0,3.2,1.5,3.2,3.3c0,1.8-1.5,3.3-3.2,3.3
	s-3.2-1.5-3.2-3.3S128.2,47.4,130,47.4z"/>
<ellipse class="st9" cx="129" cy="110" rx="32" ry="7"/>
</svg>
