<?xml version="1.0" encoding="utf-8"?>
<!-- Generator: Adobe Illustrator 19.0.0, SVG Export Plug-In . SVG Version: 6.00 Build 0)  -->
<svg version="1.1" id="图层_1" xmlns="http://www.w3.org/2000/svg" xmlns:xlink="http://www.w3.org/1999/xlink" x="0px" y="0px"
	 viewBox="-909 108 100 126" style="enable-background:new -909 108 100 126;" xml:space="preserve">
<style type="text/css">
	.st0{opacity:0.1;enable-background:new    ;}
	.st1{fill:url(#SVGID_1_);}
	.st2{fill:none;enable-background:new    ;}
	.st3{clip-path:url(#SVGID_3_);fill:#FFFFFF;}
</style>
<ellipse class="st0" cx="-859" cy="228" rx="33" ry="6"/>
<linearGradient id="SVGID_1_" gradientUnits="userSpaceOnUse" x1="-859" y1="136" x2="-859" y2="236" gradientTransform="matrix(1 0 0 -1 0 344)">
	<stop  offset="0" style="stop-color:#0F80B6"/>
	<stop  offset="1" style="stop-color:#26A0D9"/>
</linearGradient>
<circle class="st1" cx="-859" cy="158" r="50"/>
<path class="st2" d="z"/>
<g>
	<defs>
		<rect id="SVGID_2_" x="-889" y="128.5" width="60" height="60"/>
	</defs>
	<clipPath id="SVGID_3_">
		<use xlink:href="#SVGID_2_"  style="overflow:visible;"/>
	</clipPath>
	<path class="st3" d="M-868.7,142.3c-0.1-0.1-0.1-0.2-0.1-0.3c0-0.1,0-0.2,0.1-0.3c0.1-0.2,0.4-0.3,0.6-0.2l6.5,2.6v-15
		c0-0.3,0.2-0.5,0.5-0.5l5.2,0c0.3,0,0.5,0.2,0.5,0.5v15l6.5-2.6c0.2-0.1,0.5,0,0.6,0.2c0.1,0.2,0.1,0.4,0,0.6l-9.8,12.8
		c-0.1,0.1-0.3,0.2-0.4,0.2c-0.2,0-0.3-0.1-0.4-0.2L-868.7,142.3z M-858.6,161.9c-0.1-0.1-0.3-0.2-0.4-0.2c-0.2,0-0.3,0.1-0.4,0.2
		l-9.8,12.8c-0.1,0.2-0.1,0.4,0,0.6c0.1,0.2,0.4,0.3,0.6,0.2l6.5-2.6v15c0,0.3,0.2,0.5,0.5,0.5l5.2,0c0.3,0,0.5-0.2,0.5-0.5v-15
		l6.5,2.6c0.2,0.1,0.5,0,0.6-0.2c0.1-0.1,0.1-0.2,0.1-0.3c0-0.1,0-0.2-0.1-0.3L-858.6,161.9z M-829,156.4c0-0.3-0.2-0.5-0.5-0.5h-15
		l2.6-6.5c0.1-0.2,0-0.5-0.2-0.6c-0.1-0.1-0.2-0.1-0.3-0.1c-0.1,0-0.2,0-0.3,0.1l-12.8,9.8c-0.1,0.1-0.2,0.3-0.2,0.4
		c0,0.2,0.1,0.3,0.2,0.4l12.8,9.8c0.2,0.1,0.4,0.1,0.6,0c0.2-0.1,0.3-0.4,0.2-0.6l-2.6-6.5h15c0.3,0,0.5-0.2,0.5-0.5L-829,156.4z
		 M-862.2,158.5c0-0.2-0.1-0.3-0.2-0.4l-12.8-9.8c-0.2-0.1-0.4-0.1-0.6,0c-0.2,0.1-0.3,0.4-0.2,0.6l2.6,6.5h-15
		c-0.3,0-0.5,0.2-0.5,0.5l0,5.2c0,0.3,0.2,0.5,0.5,0.5h15l-2.6,6.5c-0.1,0.2,0,0.5,0.2,0.6c0.1,0.1,0.2,0.1,0.3,0.1
		c0.1,0,0.2,0,0.3-0.1l12.8-9.8C-862.3,158.8-862.2,158.7-862.2,158.5"/>
</g>
</svg>
