<?xml version="1.0" encoding="utf-8"?>
<!-- Generator: Adobe Illustrator 19.0.0, SVG Export Plug-In . SVG Version: 6.00 Build 0)  -->
<svg version="1.1" id="图层_1" xmlns="http://www.w3.org/2000/svg" xmlns:xlink="http://www.w3.org/1999/xlink" x="0px" y="0px"
	 viewBox="-909 108 100 126" style="enable-background:new -909 108 100 126;" xml:space="preserve">
<style type="text/css">
	.st0{opacity:0.1;enable-background:new    ;}
	.st1{fill:url(#SVGID_1_);}
	.st2{fill:none;enable-background:new    ;}
	.st3{clip-path:url(#SVGID_3_);fill:#FFFFFF;}
</style>
<ellipse class="st0" cx="-859" cy="228" rx="33" ry="6"/>
<linearGradient id="SVGID_1_" gradientUnits="userSpaceOnUse" x1="-859" y1="136" x2="-859" y2="236" gradientTransform="matrix(1 0 0 -1 0 344)">
	<stop  offset="0" style="stop-color:#0F80B6"/>
	<stop  offset="1" style="stop-color:#26A0D9"/>
</linearGradient>
<circle class="st1" cx="-859" cy="158" r="50"/>
<path class="st2" d="z"/>
<g>
	<defs>
		<rect id="SVGID_2_" x="-886" y="135.8" width="54" height="44.4"/>
	</defs>
	<clipPath id="SVGID_3_">
		<use xlink:href="#SVGID_2_"  style="overflow:visible;"/>
	</clipPath>
	<path class="st3" d="M-871.7,157.3h25.4c0.1,0,0.2-0.1,0.3-0.2c0.1-0.1,0.1-0.2,0-0.4l-4.6-7.5c-0.1-0.1-0.2-0.2-0.3-0.2h-16.3
		c-0.1,0-0.2,0.1-0.3,0.2l-4.6,7.5c-0.1,0.1-0.1,0.2,0,0.4C-872,157.3-871.8,157.3-871.7,157.3"/>
	<path class="st3" d="M-878.5,168.5h39.1c0.1,0,0.2-0.1,0.3-0.2c0.1-0.1,0.1-0.2,0-0.4l-4.6-7.5c-0.1-0.1-0.2-0.2-0.3-0.2h-30
		c-0.1,0-0.2,0.1-0.3,0.2l-4.6,7.5c-0.1,0.1-0.1,0.2,0,0.4C-878.8,168.5-878.7,168.5-878.5,168.5"/>
	<path class="st3" d="M-864.9,146.1h11.8c0.1,0,0.2-0.1,0.3-0.2c0.1-0.1,0.1-0.2,0-0.4l-5.9-9.6c-0.1-0.1-0.2-0.2-0.3-0.2
		c-0.1,0-0.2,0.1-0.3,0.2l-5.9,9.6c-0.1,0.1-0.1,0.2,0,0.4C-865.1,146.1-865,146.1-864.9,146.1"/>
	<path class="st3" d="M-832.1,179.7l-4.8-7.9c-0.1-0.1-0.2-0.2-0.3-0.2h-43.6c-0.1,0-0.2,0.1-0.3,0.2l-4.8,7.9
		c-0.1,0.1-0.1,0.2,0,0.4c0.1,0.1,0.2,0.2,0.3,0.2h53.3c0.1,0,0.2-0.1,0.3-0.2C-832,179.9-832,179.8-832.1,179.7"/>
</g>
</svg>
