<?xml version="1.0" encoding="utf-8"?>
<!-- Generator: Adobe Illustrator 19.0.0, SVG Export Plug-In . SVG Version: 6.00 Build 0)  -->
<svg version="1.1" id="图层_1" xmlns="http://www.w3.org/2000/svg" xmlns:xlink="http://www.w3.org/1999/xlink" x="0px" y="0px"
	 viewBox="-909 108 100 126" style="enable-background:new -909 108 100 126;" xml:space="preserve">
<style type="text/css">
	.st0{opacity:0.1;enable-background:new    ;}
	.st1{fill:url(#SVGID_1_);}
	.st2{fill:none;enable-background:new    ;}
	.st3{clip-path:url(#SVGID_3_);fill:#FFFFFF;}
</style>
<ellipse class="st0" cx="-859" cy="228" rx="33" ry="6"/>
<linearGradient id="SVGID_1_" gradientUnits="userSpaceOnUse" x1="-859" y1="136" x2="-859" y2="236" gradientTransform="matrix(1 0 0 -1 0 344)">
	<stop  offset="0" style="stop-color:#0F80B6"/>
	<stop  offset="1" style="stop-color:#26A0D9"/>
</linearGradient>
<circle class="st1" cx="-859" cy="158" r="50"/>
<path class="st2" d="z"/>
<g>
	<defs>
		<rect id="SVGID_2_" x="-889" y="135.1" width="60" height="45.7"/>
	</defs>
	<clipPath id="SVGID_3_">
		<use xlink:href="#SVGID_2_"  style="overflow:visible;"/>
	</clipPath>
	<path class="st3" d="M-860.7,176.4c-1.1,0.6-2.3,1-3.6,1c-2.8,0-5.1-1.6-6.3-3.9l-4.1-1.2c0.9,4.9,5.2,8.7,10.4,8.7
		c3,0,5.7-1.2,7.6-3.3L-860.7,176.4z"/>
	<path class="st3" d="M-878.5,148.6c0,0.2,0.1,0.4,0.1,0.6v17.6c0,0.2,0,0.4-0.1,0.6l31.9,9.5v-37.8L-878.5,148.6z"/>
	<path class="st3" d="M-832.5,151v14c2.1-1.6,3.5-4.1,3.5-7S-830.4,152.6-832.5,151"/>
	<path class="st3" d="M-885.5,145.7c-1.9,0-3.5,1.6-3.5,3.5v17.6c0,1.9,1.6,3.5,3.5,3.5s3.5-1.6,3.5-3.5v-17.6
		C-882,147.3-883.5,145.7-885.5,145.7"/>
	<path class="st3" d="M-839.5,135.1c-1.9,0-3.5,1.6-3.5,3.5v38.7c0,1.9,1.6,3.5,3.5,3.5s3.5-1.6,3.5-3.5v-38.7
		C-836,136.7-837.6,135.1-839.5,135.1"/>
</g>
</svg>
