<?xml version="1.0" encoding="utf-8"?>
<!-- Generator: Adobe Illustrator 19.0.0, SVG Export Plug-In . SVG Version: 6.00 Build 0)  -->
<svg version="1.1" id="图层_1" xmlns="http://www.w3.org/2000/svg" xmlns:xlink="http://www.w3.org/1999/xlink" x="0px" y="0px"
	 viewBox="-909 108 100 126" style="enable-background:new -909 108 100 126;" xml:space="preserve">
<style type="text/css">
	.st0{opacity:0.1;enable-background:new    ;}
	.st1{fill:url(#SVGID_1_);}
	.st2{fill:none;enable-background:new    ;}
	.st3{clip-path:url(#SVGID_3_);fill:#FFFFFF;}
</style>
<ellipse class="st0" cx="-859" cy="228" rx="33" ry="6"/>
<linearGradient id="SVGID_1_" gradientUnits="userSpaceOnUse" x1="-859" y1="136" x2="-859" y2="236" gradientTransform="matrix(1 0 0 -1 0 344)">
	<stop  offset="0" style="stop-color:#0F80B6"/>
	<stop  offset="1" style="stop-color:#26A0D9"/>
</linearGradient>
<circle class="st1" cx="-859" cy="158" r="50"/>
<path class="st2" d="z"/>
<g>
	<defs>
		<rect id="SVGID_2_" x="-881" y="130.5" width="44" height="55"/>
	</defs>
	<clipPath id="SVGID_3_">
		<use xlink:href="#SVGID_2_"  style="overflow:visible;"/>
	</clipPath>
	<path class="st3" d="M-870,169.5v-1.9c0-2.3,1.4-4.4,3.5-5.6c-1.8-0.8-3.5-1.8-5-3.1c-2.5,2.2-4,5.3-4,8.7v1.9
		c-3.2,1.1-5.5,4.2-5.5,7.7c0,4.5,3.7,8.3,8.3,8.3s8.3-3.7,8.3-8.3C-864.5,173.7-866.8,170.6-870,169.5"/>
	<path class="st3" d="M-848,146.5v1c0,2.7-1.5,5.1-3.7,6.5c1.8,0.8,3.5,1.8,5,3c2.6-2.4,4.2-5.8,4.2-9.5v-1c3.2-1.1,5.5-4.2,5.5-7.7
		c0-4.5-3.7-8.3-8.2-8.3c-4.5,0-8.3,3.7-8.3,8.3C-853.5,142.3-851.2,145.4-848,146.5"/>
	<path class="st3" d="M-842.7,169.5c-1.1-8-8-14.2-16.3-14.2c-5.3,0-9.8-3.8-10.8-8.8c3.1-1.2,5.3-4.2,5.3-7.7
		c0-4.5-3.7-8.3-8.3-8.3c-4.5,0-8.2,3.7-8.2,8.3c0,3.6,2.4,6.7,5.7,7.8c1.1,8,8,14.2,16.3,14.2c5.3,0,9.8,3.8,10.8,8.8
		c-3.1,1.2-5.3,4.2-5.3,7.7c0,4.5,3.7,8.2,8.2,8.2c4.5,0,8.3-3.7,8.3-8.2C-837,173.6-839.4,170.5-842.7,169.5"/>
</g>
</svg>
