<?xml version="1.0" encoding="utf-8"?>
<!-- Generator: Adobe Illustrator 21.0.0, SVG Export Plug-In . SVG Version: 6.00 Build 0)  -->
<svg version="1.1" id="图层_1" xmlns="http://www.w3.org/2000/svg" xmlns:xlink="http://www.w3.org/1999/xlink" x="0px" y="0px"
	 viewBox="0 0 100 100" style="enable-background:new 0 0 100 100;" xml:space="preserve">
<style type="text/css">
	.st0{fill:#1A90C7;}
	.st1{fill:#FFFFFF;}
</style>
<circle class="st0" cx="50" cy="50" r="50"/>
<path class="st1" d="M49.6,50.8c-1.9-0.6-3.4-1.1-4.8-1.7v5.6c0,0,2.3,2.4,6.7,2.4c4,0,6.3-2.4,6.3-2.4l0-6
	c-1.8,0.7-3.4,1.6-4.6,2.1C52.2,51.3,50.8,51.2,49.6,50.8L49.6,50.8 M49.6,50.8"/>
<path class="st1" d="M61.8,44c-2.4-1-6.8-2.7-8.9-3.6c-1.2-0.6-1.8-0.3-3.1,0.2c-2.1,0.8-5.9,2.3-8.4,3.2c-1.9,0.7-1.8,1.2,0,2
	c2.6,1.2,7.6,3.1,8.6,3.5c1.1,0.4,1.9,0.4,3-0.1c1.1-0.5,2.5-1.1,7.4-3.2v3l-0.9,1l1.5,1.5l1.7-1.5l-0.9-1v-3.6
	C62.4,45.2,63.8,44.9,61.8,44L61.8,44 M61.8,44"/>
<path class="st1" d="M69.2,32.2H32.3c-3.1,0-5.7,2.6-5.7,5.8v21.5c0,3.2,2.5,5.8,5.7,5.8H46v4h10.7v-4h12.6c3.1,0,5.7-2.6,5.7-5.8
	V38C74.9,34.8,72.3,32.2,69.2,32.2L69.2,32.2 M50.7,33.4c0.5,0,0.9,0.4,0.9,0.9c0,0.5-0.4,0.9-0.9,0.9c-0.5,0-0.9-0.4-0.9-0.9
	C49.8,33.8,50.2,33.4,50.7,33.4L50.7,33.4 M68.6,64.1h-4.1c-0.4,0-0.7-0.3-0.7-0.7c0-0.4,0.3-0.7,0.7-0.7h4.1c0.4,0,0.7,0.3,0.7,0.7
	C69.3,63.8,68.9,64.1,68.6,64.1L68.6,64.1 M70.9,59.5c0,1-0.8,1.9-1.7,1.9H32.3c-1,0-1.7-0.8-1.7-1.9l0-21.5c0-1,0.8-1.9,1.7-1.9
	h36.9c1,0,1.7,0.8,1.7,1.9V59.5L70.9,59.5 M60.9,70.6H40.6c-1,0-1.9,0.8-1.9,1.9c0,1,0.8,1.9,1.9,1.9h20.3c1,0,1.9-0.8,1.9-1.9
	C62.8,71.5,62,70.6,60.9,70.6L60.9,70.6 M61.9,38.5"/>
</svg>
