<?xml version="1.0" encoding="utf-8"?>
<!-- Generator: Adobe Illustrator 21.0.0, SVG Export Plug-In . SVG Version: 6.00 Build 0)  -->
<svg version="1.1" id="图层_1" xmlns="http://www.w3.org/2000/svg" xmlns:xlink="http://www.w3.org/1999/xlink" x="0px" y="0px"
	 viewBox="0 0 100 100" style="enable-background:new 0 0 100 100;" xml:space="preserve">
<style type="text/css">
	.st0{fill:#1A90C7;}
	.st1{fill:#FFFFFF;}
</style>
<circle class="st0" cx="50" cy="50" r="50"/>
<g>
	<polygon class="st1" points="43.7,64.5 49.1,64.5 38.9,77.8 35.4,75.3 	"/>
	<path class="st1" d="M26,58.4h48v0.3c0,0.8-0.4,1.5-1.1,2c-0.7,0.6-1.6,0.8-2.5,0.8H29.6c-1,0-1.8-0.3-2.5-0.8
		c-0.7-0.6-1.1-1.2-1.1-2L26,58.4z"/>
	<polygon class="st1" points="56.2,64.5 64.6,74.9 61.1,77.4 50.7,64.5 	"/>
	<g>
		<g>
			<path class="st1" d="M72.9,31.5c-0.7-0.6-1.6-0.8-2.5-0.8H29.6c-1,0-1.8,0.3-2.5,0.8s-1.1,1.2-1.1,2v22.5h48V33.6
				C74,32.8,73.6,32.1,72.9,31.5z M31.1,34.8h28.5v2.4H31.1V34.8z M31.1,41.1h33.7v2.4H31.1V41.1z M67.7,49.8H31.1v-2.4h36.6V49.8z"
				/>
		</g>
	</g>
</g>
</svg>
