<?xml version="1.0" encoding="utf-8"?>
<!-- Generator: Adobe Illustrator 21.0.0, SVG Export Plug-In . SVG Version: 6.00 Build 0)  -->
<svg version="1.1" id="图层_1" xmlns="http://www.w3.org/2000/svg" xmlns:xlink="http://www.w3.org/1999/xlink" x="0px" y="0px"
	 viewBox="0 0 100 100" style="enable-background:new 0 0 100 100;" xml:space="preserve">
<style type="text/css">
	.st0{fill:#1A90C7;}
	.st1{fill:#FFFFFF;}
</style>
<circle class="st0" cx="50.1" cy="50" r="50"/>
<path class="st1" d="M27,40.1l22.3,12.1c0.2,0.1,0.5,0.2,0.7,0.2c0.2,0,0.5-0.1,0.7-0.2l22.5-12.1c0.5-0.3,0.8-0.8,0.8-1.3
	c0-0.6-0.3-1.1-0.8-1.3L50.9,26.2c-0.4-0.2-0.9-0.2-1.4,0L27.1,37.5c-0.5,0.3-0.8,0.8-0.8,1.3C26.2,39.4,26.5,39.9,27,40.1z"/>
<path class="st1" d="M72.9,48.5l-4.5-2.3L65.6,48l3.7,1.9L49.8,60.6L30.4,49.9l4-2l-2.9-1.7l-4.7,2.4c-0.5,0.3-0.8,0.8-0.8,1.3
	c0,0.6,0.3,1.1,0.8,1.3L49,63.3c0.2,0.1,0.5,0.2,0.7,0.2c0.2,0,0.5-0.1,0.7-0.2L73,51.2c0.5-0.3,0.8-0.8,0.8-1.3
	C73.8,49.3,73.4,48.8,72.9,48.5z"/>
<path class="st1" d="M72.9,59l-4.2-2.1l-0.6,1.7l1.2,1.7L49.8,71.1L30.4,60.4l1.4-1.7L31.2,57l-4.4,2c-0.5,0.3-0.8,0.8-0.8,1.3
	c0,0.6,0.3,1.1,0.8,1.3L49,73.8c0.2,0.1,0.5,0.2,0.7,0.2c0.2,0,0.5-0.1,0.7-0.2L73,61.7c0.5-0.3,0.8-0.8,0.8-1.3
	C73.8,59.8,73.4,59.3,72.9,59z"/>
</svg>
