<?xml version="1.0" encoding="utf-8"?>
<!-- Generator: Adobe Illustrator 21.0.0, SVG Export Plug-In . SVG Version: 6.00 Build 0)  -->
<svg version="1.1" id="图层_1" xmlns="http://www.w3.org/2000/svg" xmlns:xlink="http://www.w3.org/1999/xlink" x="0px" y="0px"
	 viewBox="0 0 100 100" style="enable-background:new 0 0 100 100;" xml:space="preserve">
<style type="text/css">
	.st0{fill:#1A90C7;}
	.st1{fill:#FFFFFF;}
</style>
<circle class="st0" cx="50" cy="50" r="50"/>
<g>
	<g>
		<path class="st1" d="M74.9,64.3H37.5v-3h37.4c0.3,0,0.5-0.2,0.5-0.5V32.5c0-0.3-0.2-0.5-0.5-0.5H31.8c-0.3,0-0.5,0.2-0.5,0.5v1.2
			h-3v-1.2c0-1.9,1.6-3.5,3.5-3.5h43.1c1.9,0,3.5,1.6,3.5,3.5v28.3C78.4,62.7,76.8,64.3,74.9,64.3z"/>
	</g>
	<rect x="56.5" y="36.8" class="st1" width="7.6" height="2.8"/>
	<rect x="56.5" y="42" class="st1" width="10.5" height="2.8"/>
	<rect x="56.5" y="52.4" class="st1" width="16.9" height="2.8"/>
	<rect x="56.5" y="47.2" class="st1" width="14.9" height="2.8"/>
	<circle class="st1" cx="29.8" cy="41.3" r="5.7"/>
	<polygon class="st1" points="34.7,73.6 34.7,63.4 34.7,62.4 34.7,61.1 35,61.1 35.6,50.8 45.4,45.7 44.6,44.1 44.8,44.5 55.4,38.4 
		54.9,37.6 44.4,43.6 44.1,43.2 35.1,47.8 31.9,47.8 29.7,50.4 27.6,47.8 23,48.7 22.7,59 24.6,59 24.7,61.1 25,61.1 25,62.4 
		25,63.4 25,73.6 24.7,73.6 22.4,74.1 22.4,76.2 24.3,76.2 26.6,75.8 26.6,76.2 29.1,76.2 29.1,73.8 29.1,73.6 29.1,63.4 30.6,63.4 
		30.6,73.6 30.6,73.8 30.6,76.2 33.1,76.2 33.1,75.8 35.4,76.2 37.4,76.2 37.4,74.1 35.1,73.6 	"/>
</g>
</svg>
