<?xml version="1.0" encoding="utf-8"?>
<!-- Generator: Adobe Illustrator 19.0.0, SVG Export Plug-In . SVG Version: 6.00 Build 0)  -->
<svg version="1.1" id="图层_1" xmlns="http://www.w3.org/2000/svg" xmlns:xlink="http://www.w3.org/1999/xlink" x="0px" y="0px"
	 viewBox="-909 108 100 126" style="enable-background:new -909 108 100 126;" xml:space="preserve">
<style type="text/css">
	.st0{opacity:0.1;enable-background:new    ;}
	.st1{fill:url(#SVGID_1_);}
	.st2{fill:none;enable-background:new    ;}
	.st3{fill:#FFFFFF;}
	.st4{clip-path:url(#SVGID_3_);fill:#FFFFFF;}
</style>
<ellipse class="st0" cx="-859" cy="228" rx="33" ry="6"/>
<linearGradient id="SVGID_1_" gradientUnits="userSpaceOnUse" x1="-859" y1="136" x2="-859" y2="236" gradientTransform="matrix(1 0 0 -1 0 344)">
	<stop  offset="0" style="stop-color:#0F80B6"/>
	<stop  offset="1" style="stop-color:#26A0D9"/>
</linearGradient>
<circle class="st1" cx="-859" cy="158" r="50"/>
<path class="st2" d="z"/>
<g>
	<rect x="-861.7" y="155.3" class="st3" width="5.5" height="5.5"/>
	<g>
		<defs>
			<rect id="SVGID_2_" x="-880.8" y="135" width="43.5" height="46"/>
		</defs>
		<clipPath id="SVGID_3_">
			<use xlink:href="#SVGID_2_"  style="overflow:visible;"/>
		</clipPath>
		<path class="st4" d="M-860.5,152.3v-15.4c-1.4-1.2-3.3-1.9-5.3-1.9c-4.5,0-8.3,3.7-8.3,8.3c0,0.3,0,0.5,0,0.7
			c-1.6,0.4-3.2,1.3-4.3,2.6c-1.6,1.7-2.4,3.9-2.4,6.2c0,1.9,0.6,3.7,1.6,5.2c-1.1,1.5-1.6,3.3-1.6,5.2c0,4.2,2.9,7.8,6.8,8.8
			c0,0.2,0,0.5,0,0.7c0,4.5,3.7,8.3,8.3,8.3c2,0,3.8-0.7,5.3-1.9v-13.3h0v-2.1h-1.2v2.1h-3v-2.1h-2.1v-3h2.1v-1.2h-2.1v-3h2.1v-1.2
			h-2.1v-3h2.1v-2.1h3v2.1L-860.5,152.3L-860.5,152.3z"/>
		<path class="st4" d="M-837.2,152.8c0-2.3-0.9-4.5-2.4-6.2c-1.2-1.3-2.7-2.2-4.3-2.6c0-0.2,0-0.5,0-0.7c0-4.5-3.7-8.3-8.3-8.3
			c-2,0-3.8,0.7-5.3,1.9v15.4h1.2v-2.1h3v2.1h2.1v3h-2.1v1.2h2.1v3h-2.1v1.2h2.1v3h-2.1v2.1h-3v-2.1h-1.2v15.4
			c1.4,1.2,3.3,1.9,5.3,1.9c4.5,0,8.3-3.7,8.3-8.3c0-0.3,0-0.5,0-0.7c3.9-1,6.8-4.6,6.8-8.8c0-1.9-0.6-3.7-1.6-5.2
			C-837.9,156.5-837.2,154.7-837.2,152.8"/>
	</g>
</g>
</svg>
