<?xml version="1.0" encoding="utf-8"?>
<!-- Generator: Adobe Illustrator 19.0.0, SVG Export Plug-In . SVG Version: 6.00 Build 0)  -->
<svg version="1.1" id="图层_1" xmlns="http://www.w3.org/2000/svg" xmlns:xlink="http://www.w3.org/1999/xlink" x="0px" y="0px"
	 viewBox="-909 108 100 126" style="enable-background:new -909 108 100 126;" xml:space="preserve">
<style type="text/css">
	.st0{opacity:0.1;enable-background:new    ;}
	.st1{fill:url(#SVGID_1_);}
	.st2{fill:none;enable-background:new    ;}
	.st3{clip-path:url(#SVGID_3_);fill:#FFFFFF;}
</style>
<ellipse class="st0" cx="-859" cy="228" rx="33" ry="6"/>
<linearGradient id="SVGID_1_" gradientUnits="userSpaceOnUse" x1="-859" y1="136" x2="-859" y2="236" gradientTransform="matrix(1 0 0 -1 0 344)">
	<stop  offset="0" style="stop-color:#0F80B6"/>
	<stop  offset="1" style="stop-color:#26A0D9"/>
</linearGradient>
<circle class="st1" cx="-859" cy="158" r="50"/>
<path class="st2" d="z"/>
<g>
	<defs>
		<rect id="SVGID_2_" x="-877.4" y="135" width="36.8" height="46"/>
	</defs>
	<clipPath id="SVGID_3_">
		<use xlink:href="#SVGID_2_"  style="overflow:visible;"/>
	</clipPath>
	<path class="st3" d="M-859,160.1c-8.6,0-15.9-2.5-17.9-6c-0.3,0.6-0.6,1.2-0.6,1.9v5.6c0,4.3,8.2,7.8,18.4,7.8
		c10.2,0,18.4-3.5,18.4-7.8V156c0-0.6-0.2-1.3-0.6-1.9C-843.1,157.5-850.4,160.1-859,160.1"/>
	<path class="st3" d="M-859,171.6c-8.6,0-15.9-2.5-17.9-6c-0.3,0.6-0.6,1.2-0.6,1.9v5.6c0,4.3,8.2,7.8,18.4,7.8
		c10.2,0,18.4-3.5,18.4-7.8v-5.6c0-0.6-0.2-1.3-0.6-1.9C-843.1,169.1-850.4,171.6-859,171.6"/>
	<path class="st3" d="M-841.1,142.9c-0.4,3.2-8.2,5.7-17.9,5.7c-9.7,0-17.5-2.5-17.9-5.7c-0.3,0.6-0.5,1.2-0.5,1.8v5.6
		c0,4.3,8.2,7.8,18.4,7.8c10.2,0,18.4-3.5,18.4-7.8v-5.6C-840.6,144.1-840.8,143.5-841.1,142.9"/>
	<path class="st3" d="M-859,146.9c9.9,0,17.9-2.7,17.9-5.9c0-3.3-8-5.9-17.9-5.9c-9.9,0-17.9,2.7-17.9,5.9
		C-876.9,144.2-868.9,146.9-859,146.9"/>
</g>
</svg>
