<?xml version="1.0" encoding="utf-8"?>
<!-- Generator: Adobe Illustrator 19.0.0, SVG Export Plug-In . SVG Version: 6.00 Build 0)  -->
<svg version="1.1" id="图层_1" xmlns="http://www.w3.org/2000/svg" xmlns:xlink="http://www.w3.org/1999/xlink" x="0px" y="0px"
	 viewBox="-909 108 100 126" style="enable-background:new -909 108 100 126;" xml:space="preserve">
<style type="text/css">
	.st0{opacity:0.1;enable-background:new    ;}
	.st1{fill:url(#SVGID_1_);}
	.st2{fill:url(#SVGID_2_);enable-background:new    ;}
	.st3{clip-path:url(#SVGID_4_);fill:#FFFFFF;}
</style>
<ellipse class="st0" cx="-859" cy="228" rx="33" ry="6"/>
<linearGradient id="SVGID_1_" gradientUnits="userSpaceOnUse" x1="-859" y1="204" x2="-859" y2="104" gradientTransform="matrix(1 0 0 1 0 4)">
	<stop  offset="0" style="stop-color:#0F80B6"/>
	<stop  offset="1" style="stop-color:#26A0D9"/>
</linearGradient>
<circle class="st1" cx="-859" cy="158" r="50"/>
<linearGradient id="SVGID_2_" gradientUnits="userSpaceOnUse" x1="-909" y1="104" x2="-909" y2="104" gradientTransform="matrix(1 0 0 1 0 4)">
	<stop  offset="0" style="stop-color:#0F80B6"/>
	<stop  offset="1" style="stop-color:#26A0D9"/>
</linearGradient>
<path class="st2" d="M-909,108"/>
<g>
	<defs>
		<rect id="SVGID_3_" x="-880.4" y="135" width="42.8" height="46"/>
	</defs>
	<clipPath id="SVGID_4_">
		<use xlink:href="#SVGID_3_"  style="overflow:visible;"/>
	</clipPath>
	<path class="st3" d="M-837.8,169.3c-0.6-1.8-2.3-3.1-4.3-3.2c-1.9,0-3.5,1.2-4.2,2.9h-2.1v-9.1h2.4c1.2,0,2.3-0.3,3.3-1
		c2.2-1.4,3.5-3.8,3.5-6.5c0-3.3-2.2-6.3-5.3-7.3c-0.5-4.9-4.9-8.4-9.8-8c-0.7,0.1-1.4,0.2-2.1,0.5c-4.2-3.9-10.7-3.6-14.6,0.6
		c-1.5,1.7-2.4,3.7-2.7,5.9c-4.3,1.7-6.4,6.7-4.7,10.9c0.5,1.2,1.2,2.2,2.2,3.1c1.1,1,2.6,1.6,4.1,1.6h2.3v9.3h-2.1
		c-0.9-2.3-3.4-3.4-5.8-2.6c-2.3,0.9-3.4,3.4-2.6,5.8c0.9,2.3,3.4,3.4,5.8,2.6c1.3-0.5,2.3-1.6,2.7-2.9h3.5c0.8,0,1.5-0.6,1.5-1.5
		v-10.7h6.2v12.4c-2.4,0.8-3.6,3.3-2.8,5.7c0.8,2.4,3.3,3.6,5.7,2.8s3.6-3.3,2.8-5.7c-0.4-1.3-1.5-2.4-2.8-2.8v-12.3h6.3v10.7
		c0,0.8,0.6,1.5,1.5,1.5h3.5c0.7,2.3,3.3,3.6,5.6,2.9C-838.4,174.2-837.1,171.7-837.8,169.3"/>
</g>
</svg>
