<?xml version="1.0" encoding="utf-8"?>
<!-- Generator: Adobe Illustrator 19.0.0, SVG Export Plug-In . SVG Version: 6.00 Build 0)  -->
<svg version="1.1" id="图层_1" xmlns="http://www.w3.org/2000/svg" xmlns:xlink="http://www.w3.org/1999/xlink" x="0px" y="0px"
	 viewBox="-909 108 100 126" style="enable-background:new -909 108 100 126;" xml:space="preserve">
<style type="text/css">
	.st0{opacity:0.1;enable-background:new    ;}
	.st1{fill:url(#SVGID_1_);}
	.st2{fill:none;enable-background:new    ;}
	.st3{clip-path:url(#SVGID_3_);fill:#FFFFFF;}
</style>
<ellipse class="st0" cx="-859" cy="228" rx="33" ry="6"/>
<linearGradient id="SVGID_1_" gradientUnits="userSpaceOnUse" x1="-859" y1="136" x2="-859" y2="236" gradientTransform="matrix(1 0 0 -1 0 344)">
	<stop  offset="0" style="stop-color:#0F80B6"/>
	<stop  offset="1" style="stop-color:#26A0D9"/>
</linearGradient>
<circle class="st1" cx="-859" cy="158" r="50"/>
<path class="st2" d="z"/>
<g>
	<defs>
		<rect id="SVGID_2_" x="-885.5" y="135" width="53" height="46"/>
	</defs>
	<clipPath id="SVGID_3_">
		<use xlink:href="#SVGID_2_"  style="overflow:visible;"/>
	</clipPath>
	<path class="st3" d="M-859,144.8c-2.1,0-3.8,1.7-3.8,3.8c0,2.1,1.7,3.8,3.8,3.8s3.8-1.7,3.8-3.8
		C-855.2,146.5-856.9,144.8-859,144.8"/>
	<path class="st3" d="M-838.7,171.6v-2.7c1.6-0.7,2.7-2.2,2.7-4c0-2.4-2-4.4-4.4-4.4c-0.5,0-1,0.1-1.4,0.2l-6.5-3.7
		c1.8-2.3,2.9-5.3,2.9-8.4c0-7.5-6.1-13.6-13.6-13.6c-7.5,0-13.6,6.1-13.6,13.6c0,3.2,1.1,6.1,2.9,8.4l-6.5,3.7
		c-0.5-0.2-0.9-0.2-1.4-0.2c-2.4,0-4.4,2-4.4,4.4c0,1.8,1.1,3.4,2.7,4v2.7c-3.5,0.8-6.1,3.9-6.1,7.7v1.7h15.7v-1.7
		c0-3.7-2.6-6.9-6.1-7.7v-2.7c1.6-0.7,2.7-2.2,2.7-4c0-0.6-0.1-1.2-0.3-1.7l6.5-3.7c1.8,1.4,4,2.3,6.4,2.6v9.5
		c-3.5,0.8-6.1,3.9-6.1,7.7v1.7h15.7v-1.7c0-3.7-2.6-6.9-6.1-7.7v-9.5c2.4-0.3,4.5-1.2,6.4-2.6l6.5,3.7c-0.2,0.5-0.3,1.1-0.3,1.7
		c0,1.8,1.1,3.4,2.7,4v2.7c-3.5,0.8-6.1,3.9-6.1,7.7v1.7h15.7v-1.7C-832.5,175.5-835.2,172.4-838.7,171.6 M-859,155.9
		c-4,0-7.2-3.3-7.2-7.2c0-4,3.3-7.2,7.2-7.2c4,0,7.2,3.3,7.2,7.2C-851.8,152.6-855,155.9-859,155.9"/>
</g>
</svg>
