<svg id="尖端创新技术" xmlns="http://www.w3.org/2000/svg" width="725" height="426" viewBox="0 0 725 426">
  <metadata><?xpacket begin="﻿" id="W5M0MpCehiHzreSzNTczkc9d"?>
<x:xmpmeta xmlns:x="adobe:ns:meta/" x:xmptk="Adobe XMP Core 5.6-c142 79.160924, 2017/07/13-01:06:39        ">
   <rdf:RDF xmlns:rdf="http://www.w3.org/1999/02/22-rdf-syntax-ns#">
      <rdf:Description rdf:about=""/>
   </rdf:RDF>
</x:xmpmeta>
                                                                                                    
                                                                                                    
                                                                                                    
                                                                                                    
                                                                                                    
                                                                                                    
                                                                                                    
                                                                                                    
                                                                                                    
                                                                                                    
                                                                                                    
                                                                                                    
                                                                                                    
                                                                                                    
                                                                                                    
                                                                                                    
                                                                                                    
                                                                                                    
                                                                                                    
                                                                                                    
                           
<?xpacket end="w"?></metadata>
<defs>
    <style>
      .cls-1, .cls-10, .cls-11 {
        fill: #f3f5f7;
      }

      .cls-1, .cls-11, .cls-4, .cls-8 {
        stroke: #c8c9cc;
      }

      .cls-1, .cls-11, .cls-8 {
        stroke-width: 1px;
      }

      .cls-1, .cls-10, .cls-11, .cls-12, .cls-13, .cls-2, .cls-3, .cls-4, .cls-6, .cls-7, .cls-8, .cls-9 {
        fill-rule: evenodd;
      }

      .cls-2 {
        fill: #344f5b;
      }

      .cls-3, .cls-5, .cls-6 {
        fill: #c8c9cc;
      }

      .cls-3 {
        opacity: 0.4;
      }

      .cls-13, .cls-4, .cls-7 {
        fill: none;
      }

      .cls-10, .cls-13, .cls-4, .cls-7 {
        stroke-width: 3px;
      }

      .cls-10, .cls-13, .cls-7 {
        stroke: #344e5a;
      }

      .cls-8 {
        fill: #ebecf0;
      }

      .cls-9 {
        fill: #344e5a;
      }

      .cls-11 {
        opacity: 0.6;
      }

      .cls-12 {
        fill: #38515d;
      }

      .cls-13 {
        stroke-dasharray: 9 9;
      }
    </style>
  </defs>
  <path id="多边形_3_拷贝_10" data-name="多边形 3 拷贝 10" class="cls-1" d="M581.027,282.936l-36.846-21.331V218.942l36.846-21.331,36.845,21.331v42.663Z"/>
  <path id="MOORE" class="cls-2" d="M678.433,208.448l2.6-7.951H681.1q-0.084,1.917-.094,2.361c-0.006.3-.01,0.558-0.01,0.784v4.806h2V198.3h-2.913l-2.533,7.763H677.5l-2.388-7.763H672.2v10.152h1.912v-4.722q0-.813-0.132-3.243h0.062l2.43,7.965h1.96Zm15.384-8.965a4.581,4.581,0,0,0-3.558-1.347,4.641,4.641,0,0,0-3.571,1.337,5.473,5.473,0,0,0-1.246,3.871,5.55,5.55,0,0,0,1.242,3.888,5.36,5.36,0,0,0,7.122,0A6.684,6.684,0,0,0,693.817,199.483Zm-5.483,1.309a2.255,2.255,0,0,1,1.925-.864q2.547,0,2.547,3.43t-2.561,3.423a2.239,2.239,0,0,1-1.918-.861A5.415,5.415,0,0,1,688.334,200.792Zm17.153-1.309a4.577,4.577,0,0,0-3.557-1.347,4.645,4.645,0,0,0-3.572,1.337,5.477,5.477,0,0,0-1.246,3.871,5.545,5.545,0,0,0,1.243,3.888,5.36,5.36,0,0,0,7.122,0A6.686,6.686,0,0,0,705.487,199.483ZM700,200.792a2.255,2.255,0,0,1,1.926-.864q2.546,0,2.546,3.43t-2.56,3.423A2.24,2.24,0,0,1,700,205.92,5.415,5.415,0,0,1,700,200.792Zm11.367-.733h0.649a2.973,2.973,0,0,1,1.528.306,1.114,1.114,0,0,1,.494,1.028,1.217,1.217,0,0,1-.483,1.069,2.628,2.628,0,0,1-1.5.34h-0.69v-2.743Zm1.139,4.493,2.408,3.9h2.374q-0.69-1-2.967-4.424a3.249,3.249,0,0,0,1.387-1.093,3.018,3.018,0,0,0-.5-3.882,5.012,5.012,0,0,0-3.044-.753h-2.939v10.152h2.139v-3.9h1.139Zm12.184,2.118h-3.672v-2.618h3.416v-1.764h-3.416v-2.229h3.672V198.3h-5.811v10.152h5.811V206.67Z"/>
  <path id="矩形_15_拷贝_4" data-name="矩形 15 拷贝 4" class="cls-3" d="M581,159h1V321h-1V159Zm71.4,40.067,0.5,0.866-140.3,81-0.5-.866Zm0.5,81-0.5.866-140.3-81,0.5-.866Z"/>
  <path id="多边形_3_拷贝_5" data-name="多边形 3 拷贝 5" class="cls-4" d="M580.839,322.115L510.682,281.23V199.461l70.157-40.885L651,199.461V281.23Z"/>
  <path id="多边形_3_拷贝_7" data-name="多边形 3 拷贝 7" class="cls-4" d="M510.682,281.23V199.461l70.157-40.885L651,199.461V281.23"/>
  <path id="多边形_3_拷贝_11" data-name="多边形 3 拷贝 11" class="cls-1" d="M390.027,248.936l-36.846-21.331V184.942l36.846-21.331,36.845,21.331v42.663Z"/>
  <path id="矩形_15_拷贝_2" data-name="矩形 15 拷贝 2" class="cls-3" d="M389,125h1V287h-1V125Zm71.4,40.067,0.5,0.866-140.3,81-0.5-.866Zm0.5,81-0.5.866-140.3-81,0.5-.866Z"/>
  <path id="GEEKS" class="cls-2" d="M485.071,170.384h1.912V172.5a6.847,6.847,0,0,1-1.36.139,2.321,2.321,0,0,1-1.956-.871,4.063,4.063,0,0,1-.673-2.524,3.649,3.649,0,0,1,.835-2.521,2.829,2.829,0,0,1,2.222-.937,5.054,5.054,0,0,1,2.3.555l0.711-1.722a7.467,7.467,0,0,0-3-.625,5.29,5.29,0,0,0-3.875,1.375,5.132,5.132,0,0,0-1.4,3.833A5.64,5.64,0,0,0,482,173.081a4.425,4.425,0,0,0,3.488,1.351,11.826,11.826,0,0,0,1.757-.129,11.275,11.275,0,0,0,1.832-.447v-5.264h-4v1.792Zm12.642,2.131h-3.672V169.9h3.417v-1.764h-3.417v-2.229h3.672v-1.764H491.9v10.152h5.811v-1.778Zm8.642,0h-3.672V169.9H506.1v-1.764h-3.416v-2.229h3.672v-1.764h-5.811v10.152h5.811v-1.778Zm7.4-3.881,3.52-4.493H514.9l-2.733,3.451-0.842,1.195v-4.646h-2.139v10.152h2.139v-3.625l0.9-.652,2.643,4.277h2.43Zm10.514,1.163a5.4,5.4,0,0,0-1.939-1.365,12.821,12.821,0,0,1-1.356-.711,1.459,1.459,0,0,1-.418-0.41,0.927,0.927,0,0,1-.131-0.5,0.938,0.938,0,0,1,.325-0.743,1.366,1.366,0,0,1,.931-0.285,4.271,4.271,0,0,1,1.039.132,10.066,10.066,0,0,1,1.335.465l0.691-1.673a10.239,10.239,0,0,0-1.5-.528,5.885,5.885,0,0,0-1.5-.188,3.754,3.754,0,0,0-2.508.771,2.632,2.632,0,0,0-.908,2.118,2.691,2.691,0,0,0,.276,1.25,3.138,3.138,0,0,0,.739.937,6.131,6.131,0,0,0,1.387.84,12.409,12.409,0,0,1,1.308.688,1.84,1.84,0,0,1,.486.448,0.889,0.889,0,0,1,.166.531,0.929,0.929,0,0,1-.376.805,1.829,1.829,0,0,1-1.08.271,5.081,5.081,0,0,1-1.294-.187,11.667,11.667,0,0,1-1.729-.646v2a6.4,6.4,0,0,0,2.857.611,4.249,4.249,0,0,0,2.736-.792,2.629,2.629,0,0,0,.984-2.166A2.673,2.673,0,0,0,524.268,169.8Z"/>
  <path id="多边形_3_拷贝_6" data-name="多边形 3 拷贝 6" class="cls-4" d="M389.889,287.992l-70.158-40.885V165.338l70.158-40.885,70.158,40.885v81.769Z"/>
  <path id="多边形_3_拷贝_9" data-name="多边形 3 拷贝 9" class="cls-1" d="M311.027,386.936l-36.846-21.331V322.942l36.846-21.331,36.845,21.331v42.663Z"/>
  <path id="ENGINEER" class="cls-2" d="M408.19,310.5h-3.672v-2.618h3.416v-1.764h-3.416v-2.229h3.672v-1.764h-5.811v10.152h5.811V310.5Zm11.781-8.375h-1.925v4.805q0,0.82.1,2.8H418.1l-4.382-7.6h-2.7v10.152h1.912V307.5q0-.869-0.131-2.9h0.062l4.389,7.68h2.719V302.125Zm6.55,6.243h1.912v2.118a6.922,6.922,0,0,1-1.36.139,2.322,2.322,0,0,1-1.956-.872,4.063,4.063,0,0,1-.673-2.524,3.651,3.651,0,0,1,.835-2.521,2.832,2.832,0,0,1,2.222-.937,5.043,5.043,0,0,1,2.3.556l0.711-1.722a7.45,7.45,0,0,0-3-.625,5.289,5.289,0,0,0-3.875,1.374,5.133,5.133,0,0,0-1.4,3.833,5.644,5.644,0,0,0,1.2,3.879,4.43,4.43,0,0,0,3.488,1.35,11.962,11.962,0,0,0,1.757-.128,11.284,11.284,0,0,0,1.832-.448v-5.264h-4v1.792Zm8.97,3.909V302.125h-2.139v10.152h2.139Zm12.425-10.152h-1.925v4.805q0,0.82.1,2.8h-0.048l-4.382-7.6h-2.7v10.152h1.912V307.5q0-.869-0.131-2.9h0.062l4.389,7.68h2.719V302.125Zm8.531,8.375h-3.672v-2.618h3.416v-1.764h-3.416v-2.229h3.672v-1.764h-5.811v10.152h5.811V310.5Zm8.641,0h-3.671v-2.618h3.416v-1.764h-3.416v-2.229h3.671v-1.764h-5.81v10.152h5.81V310.5Zm4.971-6.611h0.648a2.975,2.975,0,0,1,1.529.306,1.112,1.112,0,0,1,.494,1.027,1.22,1.22,0,0,1-.484,1.07,2.625,2.625,0,0,1-1.5.34h-0.69v-2.743Zm1.138,4.493,2.409,3.895h2.374q-0.69-1-2.968-4.423a3.241,3.241,0,0,0,1.388-1.094,3.017,3.017,0,0,0-.5-3.881,5.012,5.012,0,0,0-3.044-.754h-2.94v10.152h2.14v-3.895H471.2Z"/>
  <path id="矩形_15_拷贝_3" data-name="矩形 15 拷贝 3" class="cls-3" d="M310,263h1V425h-1V263Zm71.4,40.067,0.5,0.866-140.3,81-0.5-.866Zm0.5,81-0.5.866-140.3-81,0.5-.866Z"/>
  <path id="多边形_3_拷贝_4" data-name="多边形 3 拷贝 4" class="cls-4" d="M311.189,425.976l-70.158-40.884v-81.77l70.158-40.885,70.158,40.885v81.77Z"/>
  <rect id="矩形_13" data-name="矩形 13" class="cls-5" x="274.531" y="1.031" width="1" height="161.5"/>
  <path id="矩形_13_拷贝" data-name="矩形 13 拷贝" class="cls-6" d="M344.28,40.953l0.5,0.88L205.77,122.586l-0.505-.879Z"/>
  <path id="矩形_13_拷贝_2" data-name="矩形 13 拷贝 2" class="cls-6" d="M344.784,121.707l-0.5.879L205.265,41.833l0.505-.88Z"/>
  <path id="多边形_3" data-name="多边形 3" class="cls-7" d="M275.029,163.532l-70.158-40.885V40.877L275.029-.008l70.157,40.885v81.77Z"/>
  <path id="多边形_3_拷贝" data-name="多边形 3 拷贝" class="cls-8" d="M275.027,124.936l-36.846-21.331V60.942l36.846-21.331,36.845,21.331v42.663Z"/>
  <path id="矩形_14" data-name="矩形 14" class="cls-9" d="M208.052,39.819L239.527,58.1l-1.514,2.639L206.538,42.458Z"/>
  <path id="矩形_14_拷贝" data-name="矩形 14 拷贝" class="cls-9" d="M274,37.6L237.172,60.277l1.528,2.687,36.824-22.679Z"/>
  <path id="矩形_14_拷贝_2" data-name="矩形 14 拷贝 2" class="cls-9" d="M313.755,58.4L275.823,37.651l-1.549,2.676,37.933,20.747Z"/>
  <path id="RRAY_STUDIO" data-name="RRAY  STUDIO" class="cls-2" d="M367.4,41.1h0.639a2.935,2.935,0,0,1,1.5.3,1.1,1.1,0,0,1,.486,1.012,1.2,1.2,0,0,1-.476,1.053,2.585,2.585,0,0,1-1.474.335H367.4V41.1Zm1.121,4.423,2.372,3.835h2.337q-0.68-.984-2.922-4.354a3.2,3.2,0,0,0,1.366-1.077,2.972,2.972,0,0,0-.489-3.821,4.934,4.934,0,0,0-3-.742h-2.894v9.994H367.4V45.522h1.121Zm8.522-4.423h0.639a2.935,2.935,0,0,1,1.5.3,1.1,1.1,0,0,1,.485,1.012,1.2,1.2,0,0,1-.475,1.053,2.589,2.589,0,0,1-1.475.335h-0.679V41.1Zm1.121,4.423,2.371,3.835h2.337q-0.68-.984-2.921-4.354a3.189,3.189,0,0,0,1.365-1.077,2.969,2.969,0,0,0-.489-3.821,4.928,4.928,0,0,0-3-.742h-2.894v9.994h2.106V45.522h1.121Zm14.765,3.835-3.519-10.035h-2.575l-3.506,10.035h2.27l0.72-2.379h3.621l0.72,2.379h2.269Zm-6.08-4.156q1.059-3.452,1.284-4.327,0.054,0.246.18,0.67t1.124,3.657h-2.588Zm9.415-5.838h-2.283l3.3,6.173v3.821h2.092v-3.89l3.295-6.1h-2.269l-2.072,4.115ZM370.639,72.93a5.317,5.317,0,0,0-1.909-1.343,12.677,12.677,0,0,1-1.335-.7,1.42,1.42,0,0,1-.411-0.4,0.909,0.909,0,0,1-.129-0.489,0.927,0.927,0,0,1,.319-0.731,1.349,1.349,0,0,1,.917-0.28,4.22,4.22,0,0,1,1.023.13,9.937,9.937,0,0,1,1.315.458l0.679-1.647a10.123,10.123,0,0,0-1.471-.52,5.8,5.8,0,0,0-1.478-.185,3.694,3.694,0,0,0-2.469.759,2.589,2.589,0,0,0-.894,2.085,2.649,2.649,0,0,0,.272,1.231,3.088,3.088,0,0,0,.727.923,6.084,6.084,0,0,0,1.366.827,12.407,12.407,0,0,1,1.287.677,1.829,1.829,0,0,1,.479.441,0.877,0.877,0,0,1,.163.523,0.913,0.913,0,0,1-.37.793,1.8,1.8,0,0,1-1.063.267,5,5,0,0,1-1.274-.185,11.5,11.5,0,0,1-1.7-.636v1.969a6.292,6.292,0,0,0,2.812.6,4.186,4.186,0,0,0,2.694-.779,2.589,2.589,0,0,0,.969-2.133A2.634,2.634,0,0,0,370.639,72.93Zm7.118-3.8h2.7V67.362h-7.5v1.764h2.7v8.23h2.106v-8.23Zm10.787-1.764v6.1a2.589,2.589,0,0,1-.465,1.706,1.874,1.874,0,0,1-1.5.543,1.912,1.912,0,0,1-1.528-.54,2.574,2.574,0,0,1-.462-1.7V67.362h-2.1V73.8a3.517,3.517,0,0,0,1.06,2.7,4.2,4.2,0,0,0,2.976.988,5.06,5.06,0,0,0,2.2-.444,3.214,3.214,0,0,0,1.424-1.278,3.749,3.749,0,0,0,.492-1.941V67.362h-2.1Zm12.572,1.292a5.232,5.232,0,0,0-3.777-1.292H394.22v9.994h2.813a5.671,5.671,0,0,0,4.032-1.313,4.937,4.937,0,0,0,1.4-3.78A4.768,4.768,0,0,0,401.116,68.654Zm-3.886,6.952h-0.9V69.1h1.121q2.826,0,2.827,3.22,0,3.288-3.044,3.288h0Zm9.748,1.75V67.362h-2.106v9.994h2.106Zm11.3-8.825a4.508,4.508,0,0,0-3.5-1.326,4.572,4.572,0,0,0-3.516,1.316,5.394,5.394,0,0,0-1.226,3.811,5.467,5.467,0,0,0,1.223,3.828,5.276,5.276,0,0,0,7.011,0,5.441,5.441,0,0,0,1.223-3.815A5.461,5.461,0,0,0,418.28,68.531Zm-5.4,1.288a2.218,2.218,0,0,1,1.895-.851q2.508,0,2.507,3.377t-2.52,3.37a2.205,2.205,0,0,1-1.889-.848A5.331,5.331,0,0,1,412.882,69.82Z"/>
  <path id="多边形_3_拷贝_3" data-name="多边形 3 拷贝 3" class="cls-10" d="M193.168,299.976L123.01,259.092v-81.77l70.158-40.885,70.158,40.885v81.77Z"/>
  <path id="矩形_15_拷贝_5" data-name="矩形 15 拷贝 5" class="cls-3" d="M193,138h1V300h-1V138Zm71.4,40.067,0.5,0.866-140.3,81-0.5-.866Zm0.5,81-0.5.866-140.3-81,0.5-.866Z"/>
  <path id="多边形_3_拷贝_2" data-name="多边形 3 拷贝 2" class="cls-11" d="M193.027,260.936l-36.846-21.331V196.942l36.846-21.331,36.845,21.331v42.663Z"/>
  <path id="NEW_TECHNOLOGY_CONCEPT" data-name="NEW TECHNOLOGY CONCEPT" class="cls-12" d="M78.463,180.208H76.538v4.805q0,0.819.1,2.8H76.593l-4.382-7.6h-2.7V190.36h1.912v-4.778q0-.867-0.131-2.9h0.062l4.389,7.68h2.719V180.208Zm8.53,8.374H83.322v-2.618h3.416V184.2H83.322v-2.228h3.672v-1.764H81.183V190.36h5.811v-1.778Zm15.225-8.374h-2.1l-1.283,5.541q-0.124.5-.276,1.309t-0.221,1.35c-0.051-.375-0.124-0.823-0.221-1.347s-0.177-.912-0.242-1.166l-1.47-5.687H94.38L92.91,185.9q-0.131.457-.279,1.288t-0.19,1.225q-0.152-1.125-.49-2.659l-1.291-5.541h-2.1l2.574,10.152h2.429l1.359-5.319q0.09-.354.255-1.184t0.207-1.205q0.028,0.306.21,1.2t0.259,1.177l1.366,5.333h2.436ZM5.845,210.441h2.74v-1.792H0.966v1.792h2.74v8.36H5.845v-8.36Zm10.56,6.583H12.734v-2.618H16.15v-1.764H12.734v-2.229h3.671v-1.764H10.595V218.8h5.811v-1.777Zm8.242-6.527a11.218,11.218,0,0,1,1.139.472l0.69-1.75a6.753,6.753,0,0,0-2.954-.715,4.841,4.841,0,0,0-2.515.635,4.158,4.158,0,0,0-1.646,1.826,6.333,6.333,0,0,0-.573,2.774,5.715,5.715,0,0,0,1.166,3.858,4.22,4.22,0,0,0,3.368,1.343,7.1,7.1,0,0,0,2.774-.521v-1.805a7.978,7.978,0,0,1-2.574.535q-2.533,0-2.533-3.4a4.268,4.268,0,0,1,.663-2.545,2.177,2.177,0,0,1,1.87-.913A3.361,3.361,0,0,1,24.647,210.5Zm12.509-1.848H35.023v3.979h-4v-3.979H28.888V218.8h2.139V214.42h4V218.8h2.133V208.649Zm12.354,0H47.584v4.806q0,0.819.1,2.8H47.639l-4.382-7.6h-2.7V218.8H42.47v-4.777q0-.869-0.131-2.9H42.4l4.389,7.68h2.719V208.649Zm10.646,1.188A4.579,4.579,0,0,0,56.6,208.49a4.643,4.643,0,0,0-3.571,1.336A5.479,5.479,0,0,0,51.78,213.7a5.552,5.552,0,0,0,1.242,3.888,4.589,4.589,0,0,0,3.561,1.354,4.589,4.589,0,0,0,3.561-1.354A6.686,6.686,0,0,0,60.155,209.837Zm-5.483,1.309a2.254,2.254,0,0,1,1.925-.865q2.547,0,2.547,3.43t-2.56,3.424a2.24,2.24,0,0,1-1.919-.861A5.417,5.417,0,0,1,54.672,211.146ZM70.131,218.8v-1.777H66.039v-8.375H63.9V218.8h6.232Zm10.336-8.964a4.578,4.578,0,0,0-3.558-1.347,4.643,4.643,0,0,0-3.571,1.336,5.479,5.479,0,0,0-1.246,3.872,5.552,5.552,0,0,0,1.242,3.888,5.36,5.36,0,0,0,7.122,0A6.686,6.686,0,0,0,80.467,209.837Zm-5.483,1.309a2.254,2.254,0,0,1,1.925-.865q2.547,0,2.547,3.43t-2.56,3.424a2.24,2.24,0,0,1-1.918-.861A5.417,5.417,0,0,1,74.984,211.146Zm13.058,3.746h1.912v2.118a6.925,6.925,0,0,1-1.36.139,2.322,2.322,0,0,1-1.957-.872,4.066,4.066,0,0,1-.673-2.524,3.648,3.648,0,0,1,.835-2.52,2.83,2.83,0,0,1,2.222-.938,5.044,5.044,0,0,1,2.3.556l0.711-1.722a7.453,7.453,0,0,0-3-.625,5.286,5.286,0,0,0-3.875,1.375,5.131,5.131,0,0,0-1.4,3.832,5.643,5.643,0,0,0,1.2,3.879,4.431,4.431,0,0,0,3.489,1.35,11.952,11.952,0,0,0,1.756-.128,11.26,11.26,0,0,0,1.832-.448V213.1h-4v1.792Zm7.88-6.243H93.6l3.347,6.271V218.8h2.126V214.85l3.347-6.2h-2.305l-2.105,4.181ZM40.355,238.938a11.462,11.462,0,0,1,1.139.472l0.69-1.749a6.754,6.754,0,0,0-2.954-.716,4.842,4.842,0,0,0-2.516.636,4.152,4.152,0,0,0-1.646,1.826,6.328,6.328,0,0,0-.573,2.774,5.712,5.712,0,0,0,1.166,3.857,4.217,4.217,0,0,0,3.368,1.344,7.114,7.114,0,0,0,2.774-.521v-1.8a7.974,7.974,0,0,1-2.574.534q-2.533,0-2.533-3.4a4.268,4.268,0,0,1,.663-2.545,2.175,2.175,0,0,1,1.87-.913A3.385,3.385,0,0,1,40.355,238.938Zm12.167-.66a4.578,4.578,0,0,0-3.558-1.347,4.643,4.643,0,0,0-3.571,1.337,5.476,5.476,0,0,0-1.246,3.871,5.553,5.553,0,0,0,1.242,3.889,4.592,4.592,0,0,0,3.561,1.354,4.592,4.592,0,0,0,3.561-1.354A6.688,6.688,0,0,0,52.522,238.278Zm-5.483,1.309a2.256,2.256,0,0,1,1.925-.864q2.547,0,2.547,3.43t-2.56,3.423a2.24,2.24,0,0,1-1.919-.861A5.417,5.417,0,0,1,47.039,239.587Zm18.178-2.5H63.292v4.8q0,0.819.1,2.8H63.347l-4.382-7.6h-2.7v10.152h1.912v-4.777q0-.869-0.131-2.9h0.062l4.389,7.68h2.719V237.091Zm8.13,1.847a11.452,11.452,0,0,1,1.139.472l0.69-1.749a6.754,6.754,0,0,0-2.954-.716,4.841,4.841,0,0,0-2.515.636,4.151,4.151,0,0,0-1.646,1.826,6.33,6.33,0,0,0-.573,2.774,5.712,5.712,0,0,0,1.166,3.857,4.218,4.218,0,0,0,3.368,1.344,7.114,7.114,0,0,0,2.774-.521v-1.8a7.973,7.973,0,0,1-2.574.534q-2.533,0-2.533-3.4a4.268,4.268,0,0,1,.663-2.545,2.174,2.174,0,0,1,1.87-.913A3.384,3.384,0,0,1,73.348,238.938ZM83.4,245.465H79.728v-2.618h3.416v-1.763H79.728v-2.229H83.4v-1.764H77.589v10.152H83.4v-1.778Zm4.97-6.61h0.973a1.915,1.915,0,0,1,1.287.361,1.413,1.413,0,0,1,.411,1.118,1.376,1.376,0,0,1-.49,1.142,2.331,2.331,0,0,1-1.477.392h-0.7v-3.013Zm3.875-.969a4.269,4.269,0,0,0-2.792-.795H86.23v10.152H88.37v-3.611h0.918a4.334,4.334,0,0,0,2.9-.868,3.111,3.111,0,0,0,1.018-2.507A2.908,2.908,0,0,0,92.245,237.886Zm7.529,1h2.74v-1.792H94.895v1.792h2.74v8.36h2.139v-8.36Z"/>
  <path id="矩形_14_拷贝_3" data-name="矩形 14 拷贝 3" class="cls-13" d="M117.455,91.5L238.933,21.417l1.6,2.637L119.052,94.135Z"/>
  <path id="矩形_14_拷贝_4" data-name="矩形 14 拷贝 4" class="cls-13" d="M118.711,91.44l70.515,42.286-1.233,2.8L117.478,94.241Z"/>
  <path id="矩形_14_拷贝_5" data-name="矩形 14 拷贝 5" class="cls-13" d="M263.054,177.356L563.486,350.518,562,353.22,261.569,180.057Z"/>
  <path id="矩形_14_拷贝_6" data-name="矩形 14 拷贝 6" class="cls-13" d="M389.054,124.356l121.432,70.162L509,197.22,387.569,127.057Z"/>
  <path id="矩形_14_拷贝_5-2" data-name="矩形 14 拷贝 5" class="cls-13" d="M391.166,126.742L284.336,192.15l-1.927-2.377,106.829-65.407Z"/>
  <path id="矩形_14_拷贝_8" data-name="矩形 14 拷贝 8" class="cls-13" d="M582.166,160.742L513.337,202.15l-1.928-2.377,68.829-41.407Z"/>
  <path id="矩形_14_拷贝_7" data-name="矩形 14 拷贝 7" class="cls-13" d="M353.166,238.742L246.337,304.15l-1.928-2.377,106.829-65.407Z"/>
</svg>
