<svg id="高性能架构" xmlns="http://www.w3.org/2000/svg" width="658" height="522" viewBox="0 0 658 522">
  <metadata><?xpacket begin="﻿" id="W5M0MpCehiHzreSzNTczkc9d"?>
<x:xmpmeta xmlns:x="adobe:ns:meta/" x:xmptk="Adobe XMP Core 5.6-c142 79.160924, 2017/07/13-01:06:39        ">
   <rdf:RDF xmlns:rdf="http://www.w3.org/1999/02/22-rdf-syntax-ns#">
      <rdf:Description rdf:about=""/>
   </rdf:RDF>
</x:xmpmeta>
                                                                                                    
                                                                                                    
                                                                                                    
                                                                                                    
                                                                                                    
                                                                                                    
                                                                                                    
                                                                                                    
                                                                                                    
                                                                                                    
                                                                                                    
                                                                                                    
                                                                                                    
                                                                                                    
                                                                                                    
                                                                                                    
                                                                                                    
                                                                                                    
                                                                                                    
                                                                                                    
                           
<?xpacket end="w"?></metadata>
<defs>
    <style>
      .cls-1, .cls-10, .cls-3, .cls-6, .cls-8, .cls-9 {
        fill: none;
      }

      .cls-1, .cls-10, .cls-3 {
        stroke: #c8c9cc;
      }

      .cls-1, .cls-10 {
        stroke-width: 1px;
      }

      .cls-1, .cls-10, .cls-11, .cls-2, .cls-3, .cls-5, .cls-6, .cls-7, .cls-9 {
        fill-rule: evenodd;
      }

      .cls-2, .cls-4, .cls-5 {
        fill: #c8c9cc;
      }

      .cls-2 {
        opacity: 0.4;
      }

      .cls-3, .cls-6, .cls-8, .cls-9 {
        stroke-width: 3px;
      }

      .cls-6, .cls-8, .cls-9 {
        stroke: #344e5a;
      }

      .cls-7 {
        fill: #344e5a;
      }

      .cls-8, .cls-9 {
        stroke-dasharray: 6 12;
      }

      .cls-10 {
        opacity: 0.6;
      }

      .cls-11, .cls-12, .cls-13 {
        fill: #27a1da;
      }

      .cls-12 {
        opacity: 0.1;
      }
    </style>
  </defs>
  <g id="组_18" data-name="组 18">
    <path id="多边形_3_拷贝_10" data-name="多边形 3 拷贝 10" class="cls-1" d="M492.027,293.936l-36.846-21.331V229.942l36.846-21.331,36.845,21.331v42.663Z"/>
    <path id="矩形_15_拷贝_4" data-name="矩形 15 拷贝 4" class="cls-2" d="M492,170h1V332h-1V170Zm71.4,40.067,0.5,0.866-140.3,81-0.5-.866Zm0.5,81-0.5.866-140.3-81,0.5-.866Z"/>
    <path id="多边形_3_拷贝_5" data-name="多边形 3 拷贝 5" class="cls-3" d="M491.839,333.115l-70.158-40.884v-81.77l70.158-40.885L562,210.461v81.77Z"/>
    <path id="多边形_3_拷贝_7" data-name="多边形 3 拷贝 7" class="cls-3" d="M421.681,292.231v-81.77l70.158-40.885L562,210.461v81.77"/>
  </g>
  <g id="组_16" data-name="组 16">
    <path id="多边形_3_拷贝_11" data-name="多边形 3 拷贝 11" class="cls-1" d="M420.027,294.936l-36.846-21.331V230.942l36.846-21.331,36.845,21.331v42.663Z"/>
    <path id="矩形_15_拷贝_2" data-name="矩形 15 拷贝 2" class="cls-2" d="M419,171h1V333h-1V171Zm71.4,40.067,0.5,0.866-140.3,81-0.5-.866Zm0.5,81-0.5.866-140.3-81,0.5-.866Z"/>
    <path id="多边形_3_拷贝_6" data-name="多边形 3 拷贝 6" class="cls-3" d="M419.889,333.992l-70.158-40.885V211.338l70.158-40.885,70.158,40.885v81.769Z"/>
  </g>
  <g id="组_17" data-name="组 17">
    <path id="多边形_3_拷贝_9" data-name="多边形 3 拷贝 9" class="cls-1" d="M282.027,293.936l-36.846-21.331V229.942l36.846-21.331,36.845,21.331v42.663Z"/>
    <path id="矩形_15_拷贝_3" data-name="矩形 15 拷贝 3" class="cls-2" d="M281,170h1V332h-1V170Zm71.4,40.067,0.5,0.866-140.3,81-0.5-.866Zm0.5,81-0.5.866-140.3-81,0.5-.866Z"/>
    <path id="多边形_3_拷贝_4" data-name="多边形 3 拷贝 4" class="cls-3" d="M282.189,332.977l-70.158-40.885v-81.77l70.158-40.885,70.158,40.885v81.77Z"/>
  </g>
  <g id="组_17_拷贝" data-name="组 17 拷贝">
    <path id="多边形_3_拷贝_9-2" data-name="多边形 3 拷贝 9" class="cls-1" d="M350.027,375.936l-36.846-21.331V311.942l36.846-21.331,36.845,21.331v42.663Z"/>
    <path id="矩形_15_拷贝_3-2" data-name="矩形 15 拷贝 3" class="cls-2" d="M349,252h1V414h-1V252Zm71.4,40.067,0.5,0.866-140.3,81-0.5-.866Zm0.5,81-0.5.866-140.3-81,0.5-.866Z"/>
    <path id="多边形_3_拷贝_4-2" data-name="多边形 3 拷贝 4" class="cls-3" d="M350.189,414.977l-70.158-40.885v-81.77l70.158-40.885,70.158,40.885v81.77Z"/>
  </g>
  <path id="多边形_3_拷贝_9-3" data-name="多边形 3 拷贝 9" class="cls-1" d="M455.027,395.936l-36.846-21.331V331.942l36.846-21.331,36.845,21.331v42.663Z"/>
  <path id="矩形_15_拷贝_3-3" data-name="矩形 15 拷贝 3" class="cls-2" d="M454,272h1V434h-1V272Zm71.4,40.067,0.5,0.866-140.3,81-0.5-.866Zm0.5,81-0.5.866-140.3-81,0.5-.866Z"/>
  <path id="多边形_3_拷贝_4-3" data-name="多边形 3 拷贝 4" class="cls-3" d="M455.189,434.976l-70.158-40.884v-81.77l70.158-40.885,70.158,40.885v81.77Z"/>
  <rect id="矩形_13" data-name="矩形 13" class="cls-4" x="350.531" y="89.031" width="1" height="161.5"/>
  <path id="矩形_13_拷贝" data-name="矩形 13 拷贝" class="cls-5" d="M420.28,128.953l0.5,0.879L281.77,210.586l-0.5-.879Z"/>
  <path id="矩形_13_拷贝_2" data-name="矩形 13 拷贝 2" class="cls-5" d="M420.784,209.707l-0.5.879L281.265,129.832l0.5-.879Z"/>
  <path id="多边形_3" data-name="多边形 3" class="cls-6" d="M351.028,251.532l-70.157-40.885v-81.77l70.157-40.885,70.158,40.885v81.77Z"/>
  <path id="多边形_3_拷贝" data-name="多边形 3 拷贝" class="cls-1" d="M351.027,212.936l-36.846-21.331V148.942l36.846-21.331,36.845,21.331v42.663Z"/>
  <path id="矩形_14" data-name="矩形 14" class="cls-7" d="M284.052,127.819L315.527,146.1l-1.514,2.639-31.475-18.284Z"/>
  <path id="矩形_14_拷贝" data-name="矩形 14 拷贝" class="cls-7" d="M350,125.6l-36.823,22.68,1.529,2.687,36.823-22.68Z"/>
  <path id="矩形_14_拷贝_2" data-name="矩形 14 拷贝 2" class="cls-7" d="M389.755,146.4l-37.932-20.747-1.549,2.676,37.933,20.747Z"/>
  <path id="矩形_14_拷贝_9" data-name="矩形 14 拷贝 9" class="cls-7" d="M384,146.382L418.477,128l1.53,2.629-34.482,18.387Z"/>
  <rect id="矩形_15" data-name="矩形 15" class="cls-8" x="350" width="2" height="88"/>
  <rect id="矩形_15_拷贝" data-name="矩形 15 拷贝" class="cls-8" x="148" y="84" width="2" height="88"/>
  <rect id="矩形_15_拷贝_6" data-name="矩形 15 拷贝 6" class="cls-8" x="491" y="82" width="2" height="88"/>
  <rect id="矩形_15_拷贝_7" data-name="矩形 15 拷贝 7" class="cls-8" x="419" y="86" width="2" height="88"/>
  <rect id="矩形_15_拷贝_8" data-name="矩形 15 拷贝 8" class="cls-8" x="454" y="184" width="2" height="88"/>
  <rect id="矩形_15_拷贝_9" data-name="矩形 15 拷贝 9" class="cls-8" x="350" y="205" width="2" height="88"/>
  <rect id="矩形_15_拷贝_10" data-name="矩形 15 拷贝 10" class="cls-8" x="281" y="82" width="2" height="88"/>
  <rect id="矩形_15_拷贝_11" data-name="矩形 15 拷贝 11" class="cls-8" x="455" y="434" width="2" height="88"/>
  <rect id="矩形_15_拷贝_13" data-name="矩形 15 拷贝 13" class="cls-8" x="349" y="414" width="2" height="88"/>
  <rect id="矩形_15_拷贝_14" data-name="矩形 15 拷贝 14" class="cls-8" x="145" y="331" width="2" height="88"/>
  <path id="矩形_15_拷贝_15" data-name="矩形 15 拷贝 15" class="cls-9" d="M279.605,375.866l-1-1.732-76.21,44,1,1.732Z"/>
  <path id="矩形_15_拷贝_16" data-name="矩形 15 拷贝 16" class="cls-9" d="M638.011,166.75l-1-1.741-76.025,44.24,1,1.742Z"/>
  <path id="矩形_15_拷贝_17" data-name="矩形 15 拷贝 17" class="cls-9" d="M560.4,292.866l1-1.732,76.21,44-1,1.732Z"/>
  <path id="矩形_15_拷贝_20" data-name="矩形 15 拷贝 20" class="cls-9" d="M525.4,395.866l1-1.732,76.21,44-1,1.732Z"/>
  <path id="矩形_15_拷贝_18" data-name="矩形 15 拷贝 18" class="cls-9" d="M77.011,294.751l-1-1.742-76.025,44.24,1,1.742Z"/>
  <path id="矩形_15_拷贝_19" data-name="矩形 15 拷贝 19" class="cls-9" d="M-0.011,166.72l1-1.742,76.025,44.27-1,1.743Z"/>
  <path id="多边形_3_拷贝_3" data-name="多边形 3 拷贝 3" class="cls-6" d="M147.168,331.977L77.01,291.092v-81.77l70.158-40.885,70.158,40.885v81.77Z"/>
  <path id="矩形_15_拷贝_5" data-name="矩形 15 拷贝 5" class="cls-2" d="M147,170h1V332h-1V170Zm71.4,40.067,0.5,0.866-140.3,81-0.5-.866Zm0.5,81-0.5.866-140.3-81,0.5-.866Z"/>
  <path id="多边形_3_拷贝_2" data-name="多边形 3 拷贝 2" class="cls-10" d="M147.027,292.936l-36.846-21.331V228.942l36.846-21.331,36.845,21.331v42.663Z"/>
  <path id="矩形_15_拷贝_21" data-name="矩形 15 拷贝 21" class="cls-11" d="M147.829,250.7l-1.01-1.735,133.352-77.7,1.01,1.736Z"/>
  <path id="矩形_15_拷贝_22" data-name="矩形 15 拷贝 22" class="cls-11" d="M351.829,212.7l-1.01-1.735,69.352-39.7,1.01,1.736Z"/>
  <path id="矩形_15_拷贝_24" data-name="矩形 15 拷贝 24" class="cls-11" d="M418.971,173.751l1-1.742,37.061,20.208-1,1.743Z"/>
  <path id="矩形_15_拷贝_25" data-name="矩形 15 拷贝 25" class="cls-11" d="M439.971,184.751l1-1.742,49.061,28.208-1,1.743Z"/>
  <path id="矩形_15_拷贝_26" data-name="矩形 15 拷贝 26" class="cls-11" d="M487.945,212.692l2.008-.008,0.1,80.592-2.008.008Z"/>
  <path id="矩形_15_拷贝_27" data-name="矩形 15 拷贝 27" class="cls-11" d="M488.367,290.925l1.01,1.735-69.744,40.384-1.01-1.736Z"/>
  <path id="矩形_15_拷贝_28" data-name="矩形 15 拷贝 28" class="cls-11" d="M420.421,331.217l-1,1.743-69.846-40.209,1-1.742Z"/>
  <path id="矩形_15_拷贝_29" data-name="矩形 15 拷贝 29" class="cls-11" d="M280.985,330.247l1,1.744,70.03-40.238-1-1.744Z"/>
  <path id="矩形_15_拷贝_31" data-name="矩形 15 拷贝 31" class="cls-11" d="M352.015,413.247l-1,1.744-70.03-40.238,1-1.744Z"/>
  <path id="矩形_15_拷贝_32" data-name="矩形 15 拷贝 32" class="cls-11" d="M348.984,412.247l1,1.744,211.03-121.238-1-1.744Z"/>
  <path id="矩形_15_拷贝_33" data-name="矩形 15 拷贝 33" class="cls-11" d="M637.015,335.247l-1,1.744-77.031-44.238,1-1.744Z"/>
  <path id="矩形_15_拷贝_30" data-name="矩形 15 拷贝 30" class="cls-11" d="M280.411,374.381l2.01,0.005,0.168-42.767-2.01-.006Z"/>
  <path id="矩形_15_拷贝_23" data-name="矩形 15 拷贝 23" class="cls-11" d="M349.989,211.986l1.005-1.716-68.983-39.256-1.005,1.716Z"/>
  <circle id="椭圆_3_拷贝_3" data-name="椭圆 3 拷贝 3" class="cls-12" cx="148" cy="251" r="20"/>
  <circle id="椭圆_3" data-name="椭圆 3" class="cls-13" cx="148" cy="251" r="11"/>
  <circle id="椭圆_3_拷贝_2" data-name="椭圆 3 拷贝 2" class="cls-12" cx="638" cy="338" r="20"/>
  <circle id="椭圆_3_拷贝" data-name="椭圆 3 拷贝" class="cls-13" cx="638" cy="338" r="11"/>
</svg>
