<?xml version="1.0" encoding="utf-8"?>
<!-- Generator: Adobe Illustrator 19.0.0, SVG Export Plug-In . SVG Version: 6.00 Build 0)  -->
<svg version="1.1" id="图层_1" xmlns="http://www.w3.org/2000/svg" xmlns:xlink="http://www.w3.org/1999/xlink" x="0px" y="0px"
	 viewBox="0 0 104 104" style="enable-background:new 0 0 104 104;" xml:space="preserve">
<style type="text/css">
	.st0{fill:url(#XMLID_42_);}
	.st1{fill:#FFFFFF;}
	.st2{fill:none;stroke:#FFFFFF;stroke-width:0.9895;}
	.st3{clip-path:url(#XMLID_81_);fill:#0B79A3;}
	.st4{fill:url(#XMLID_82_);}
</style>
<g id="椭圆_4">
	
		<linearGradient id="XMLID_42_" gradientUnits="userSpaceOnUse" x1="52" y1="108.5" x2="52" y2="211.5" gradientTransform="matrix(1 0 0 -1 0 212)">
		<stop  offset="0" style="stop-color:#0B79A3"/>
		<stop  offset="1" style="stop-color:#0C7BA4"/>
	</linearGradient>
	<path id="XMLID_94_" class="st0" d="M52,103.5C23.6,103.5,0.5,80.4,0.5,52S23.6,0.5,52,0.5s51.5,23.1,51.5,51.5
		S80.4,103.5,52,103.5z"/>
	<path id="XMLID_91_" class="st1" d="M52,1c28.1,0,51,22.9,51,51s-22.9,51-51,51S1,80.1,1,52S23.9,1,52,1 M52,0C23.3,0,0,23.3,0,52
		s23.3,52,52,52s52-23.3,52-52S80.7,0,52,0L52,0z"/>
</g>
<circle id="椭圆_4_拷贝" class="st2" cx="52" cy="52" r="47"/>
<g id="XMLID_114_">
	<g id="XMLID_139_">
		<g id="XMLID_135_">
			<defs>
				<path id="XMLID_145_" d="M66.3,61H42.6L33,67.2V61h-5.3c-1,0-1.8-0.8-1.8-1.7V33.7c0-0.9,0.8-1.7,1.8-1.7h38.5
					c1,0,1.8,0.8,1.8,1.7"/>
			</defs>
			<clipPath id="XMLID_81_">
				<use xlink:href="#XMLID_145_"  style="overflow:visible;"/>
			</clipPath>
			<rect id="XMLID_140_" x="26" y="32" class="st3" width="42" height="0"/>
			<polygon id="XMLID_141_" class="st3" points="67,44 45,44 45,60 26,60 26,32 67,32 			"/>
		</g>
		<g id="XMLID_118_">
			<path id="XMLID_103_" class="st1" d="M66.3,33c0.4,0,0.8,0.3,0.8,0.7V44h2V33.7c0-1.5-1.2-2.7-2.8-2.7l0,0H27.8
				c-1.5,0-2.8,1.2-2.8,2.7v25.6c0,1.5,1.2,2.7,2.8,2.7H32v7l10.9-7H45v-2h-2.1h-0.6l-0.5,0.3l-7.8,5V62v-2h-2h-4.3
				c-0.4,0-0.8-0.3-0.8-0.7V33.7c0-0.4,0.3-0.7,0.8-0.7H66.3"/>
		</g>
	</g>
	<path id="XMLID_138_" class="st1" d="M62,43H32c-0.5,0-1-0.5-1-1l0,0c0-0.5,0.4-1,1-1h30c0.5,0,1,0.5,1,1l0,0
		C63,42.5,62.5,43,62,43z"/>
	<path id="XMLID_137_" class="st1" d="M44,53H32c-0.5,0-1-0.5-1-1l0,0c0-0.5,0.4-1,1-1h12c0.5,0,1,0.5,1,1l0,0
		C45,52.5,44.5,53,44,53z"/>
	<g id="XMLID_119_">
		<g id="XMLID_127_">
			<linearGradient id="XMLID_82_" gradientUnits="userSpaceOnUse" x1="63" y1="47" x2="63" y2="72">
				<stop  offset="0" style="stop-color:#0B79A3"/>
				<stop  offset="1" style="stop-color:#0C7BA4"/>
			</linearGradient>
			<path id="XMLID_99_" class="st4" d="M66.3,67H49c-0.6,0-1-0.4-1-1V48c0-0.6,0.4-1,1-1h28c0.6,0,1,0.4,1,1v18c0,0.6-0.4,1-1,1h-4
				v5L66.3,67z"/>
			<path id="XMLID_96_" class="st1" d="M77,48v18h-3h-2v2v2l-4.8-3.6L66.7,66H66H49V48H77 M77,46H49c-1.1,0-2,0.9-2,2v18
				c0,1.1,0.9,2,2,2h17l8,6v-6h3c1.1,0,2-0.9,2-2V48C79,46.9,78.1,46,77,46L77,46z"/>
		</g>
		<path id="XMLID_125_" class="st1" d="M72,55H54c-0.5,0-1-0.5-1-1l0,0c0-0.5,0.5-1,1-1h18c0.6,0,1,0.5,1,1l0,0
			C73,54.5,72.6,55,72,55z"/>
		<path id="XMLID_120_" class="st1" d="M72,61H54c-0.5,0-1-0.5-1-1l0,0c0-0.5,0.5-1,1-1h18c0.6,0,1,0.5,1,1l0,0
			C73,60.5,72.6,61,72,61z"/>
	</g>
</g>
</svg>
