<?xml version="1.0" encoding="utf-8"?>
<!-- Generator: Adobe Illustrator 19.0.0, SVG Export Plug-In . SVG Version: 6.00 Build 0)  -->
<svg version="1.1" id="图层_1" xmlns="http://www.w3.org/2000/svg" xmlns:xlink="http://www.w3.org/1999/xlink" x="0px" y="0px"
	 viewBox="0 0 104 104" style="enable-background:new 0 0 104 104;" xml:space="preserve">
<style type="text/css">
	.st0{fill:url(#XMLID_2_);}
	.st1{fill:#FFFFFF;}
	.st2{fill:none;stroke:#FFFFFF;stroke-width:0.9895;}
</style>
<g id="椭圆_4">
	
		<linearGradient id="XMLID_2_" gradientUnits="userSpaceOnUse" x1="52" y1="108.5" x2="52" y2="211.5" gradientTransform="matrix(1 0 0 -1 0 212)">
		<stop  offset="0" style="stop-color:#0B79A3"/>
		<stop  offset="1" style="stop-color:#0C7BA4"/>
	</linearGradient>
	<path id="XMLID_94_" class="st0" d="M52,103.5C23.6,103.5,0.5,80.4,0.5,52S23.6,0.5,52,0.5s51.5,23.1,51.5,51.5
		S80.4,103.5,52,103.5z"/>
	<path id="XMLID_91_" class="st1" d="M52,1c28.1,0,51,22.9,51,51s-22.9,51-51,51S1,80.1,1,52S23.9,1,52,1 M52,0C23.3,0,0,23.3,0,52
		s23.3,52,52,52s52-23.3,52-52S80.7,0,52,0L52,0z"/>
</g>
<circle id="椭圆_4_拷贝" class="st2" cx="52" cy="52" r="47"/>
<path id="XMLID_15_" class="st1" d="M70.6,62.1L70.6,62.1c-2.6,0-4.8,1.1-6.4,2.9l-13.3-7.7c0.7-1.6,1.1-3.4,1.1-5.3
	c0-1.8-0.4-3.6-1-5.1l13.4-7.7c1.5,1.7,3.7,2.7,6.2,2.7c4.7,0,8.4-3.7,8.4-8.4c0-4.7-3.7-8.4-8.4-8.4c-4.7,0-8.4,3.7-8.4,8.4
	c0,1,0.2,1.9,0.5,2.8l-13.3,7.7c-2.5-3.3-6.4-5.4-10.8-5.4C31.1,38.5,25,44.6,25,52s6.1,13.5,13.5,13.5c4.3,0,8.2-2.1,10.7-5.3
	l13.4,7.7c-0.3,0.8-0.4,1.7-0.4,2.6c0,4.7,3.7,8.4,8.4,8.4c4.7,0,8.4-3.7,8.4-8.4C79,65.8,75.3,62.1,70.6,62.1z M70.6,28.4
	c2.7,0,5.1,2.4,5.1,5.1c0,2.7-2.4,5.1-5.1,5.1c-2.7,0-5.1-2.4-5.1-5.1C65.5,30.7,67.9,28.4,70.6,28.4z M38.5,62.1
	c-5.7,0-10.1-4.4-10.1-10.1c0-5.7,4.4-10.1,10.1-10.1c5.7,0,10.1,4.4,10.1,10.1C48.6,57.7,44.2,62.1,38.5,62.1z M70.6,75.6
	c-2.7,0-5.1-2.4-5.1-5.1c0-2.7,2.4-5.1,5.1-5.1c2.7,0,5.1,2.4,5.1,5.1C75.6,73.3,73.3,75.6,70.6,75.6z"/>
</svg>
