<?xml version="1.0" encoding="utf-8"?>
<!-- Generator: Adobe Illustrator 19.0.0, SVG Export Plug-In . SVG Version: 6.00 Build 0)  -->
<svg version="1.1" id="图层_1" xmlns="http://www.w3.org/2000/svg" xmlns:xlink="http://www.w3.org/1999/xlink" x="0px" y="0px"
	 viewBox="0 0 104 104" style="enable-background:new 0 0 104 104;" xml:space="preserve">
<style type="text/css">
	.st0{fill:url(#XMLID_13_);}
	.st1{fill:#FFFFFF;}
	.st2{fill:none;stroke:#FFFFFF;stroke-width:0.9895;}
</style>
<g id="椭圆_4">
	
		<linearGradient id="XMLID_13_" gradientUnits="userSpaceOnUse" x1="52" y1="108.5" x2="52" y2="211.5" gradientTransform="matrix(1 0 0 -1 0 212)">
		<stop  offset="0" style="stop-color:#0B79A3"/>
		<stop  offset="1" style="stop-color:#0C7BA4"/>
	</linearGradient>
	<path id="XMLID_94_" class="st0" d="M52,103.5C23.6,103.5,0.5,80.4,0.5,52S23.6,0.5,52,0.5s51.5,23.1,51.5,51.5
		S80.4,103.5,52,103.5z"/>
	<path id="XMLID_91_" class="st1" d="M52,1c28.1,0,51,22.9,51,51s-22.9,51-51,51S1,80.1,1,52S23.9,1,52,1 M52,0C23.3,0,0,23.3,0,52
		s23.3,52,52,52s52-23.3,52-52S80.7,0,52,0L52,0z"/>
</g>
<circle id="椭圆_4_拷贝" class="st2" cx="52" cy="52" r="47"/>
<g id="XMLID_11_">
	<g>
		<g>
			<path class="st1" d="M76.6,52.6c-0.2-1.2-0.6-2.1-1.2-2.8c0,0,0,0,0,0c-0.1-0.1-0.3-0.3-0.4-0.4c-0.2-0.2-0.5-0.3-0.7-0.5
				c-1.8-0.9-2.6-2.8-2.9-5c0,0,0-0.1,0-0.1c0-0.2,0-0.5,0-0.7c0-0.1,0-0.2,0-0.3c0-0.3,0-0.7,0-1c0-0.2,0-0.5,0-0.7
				c0-0.2,0-0.3,0-0.5c0-0.3,0-0.6,0.1-1c0.1-1,0.2-2.1,0.4-3c0.2-1.8,0.5-3.5,0.5-4.9c0-2.6-1.6-4.3-3.6-5
				c-0.7-0.3-1.5-0.4-2.3-0.4s-1.6,0.1-2.3,0.4c-2,0.7-3.6,2.4-3.6,5c0,1.4,0.2,3,0.5,4.9c0.1,1.1,0.3,2.1,0.4,3.2
				c0,0.3,0,0.6,0,0.8c0,0.2,0,0.4,0,0.5c0,0.2,0,0.4,0,0.6c0,0.4,0,0.7,0,1.1c0,0.1,0,0.2,0,0.4c0,0.2,0,0.5,0,0.7c0,0,0,0.1,0,0.1
				c-0.2,2.2-1,4.1-2.8,4.9c0,0-0.1,0-0.1,0.1c-0.4-0.5-0.7-0.9-1.2-1.2c-3.2-3.2-7.6-5.2-12.5-5.2s-9.3,2-12.5,5.2
				c-3.4,3.1-5.4,7.6-5.4,12.5s2,9.3,5.2,12.5c3.2,3.2,7.6,5.2,12.5,5.2s9.3-2,12.5-5.2c0.3-0.3,0.6-0.6,0.8-0.9
				c0.2,0.8,0.5,1.5,0.7,2.2c0.6,1.5,1.2,2.7,1.8,3.4c0.3,0.3,0.7,0.5,1.1,0.5h4.8H71c0.5,0,0.9-0.2,1.2-0.6c0.4-0.4,0.7-1,1-1.7
				c1.5-3,2.8-8.6,3.4-13.9c0.2-1.8,0.3-3.5,0.3-5.1c0-0.1,0-0.1,0-0.2c0,0,0-0.1,0-0.1C77,54.8,76.9,53.6,76.6,52.6z M59.4,61.5
				c0,0.1,0,0.2,0,0.2c-0.1,0.9-0.3,1.8-0.6,2.7c0,0,0,0.1,0,0.1c-0.3,0.9-0.6,1.7-1.1,2.5c0,0.1-0.1,0.1-0.1,0.2
				c-0.7,1.2-1.5,2.3-2.4,3.3c-2.7,2.7-6.4,4.3-10.4,4.3s-7.8-1.7-10.4-4.3s-4.3-6.4-4.3-10.4s1.7-7.9,4.3-10.5
				c2.7-2.7,6.4-4.3,10.4-4.3s7.8,1.7,10.4,4.3c1,1,1.8,2.1,2.5,3.4c0,0,0,0.1,0.1,0.1c0.2,0.4,0.4,0.7,0.6,1.1c0,0,0,0.1,0,0.1
				c0,0,0,0.1,0,0.1c0.1,0.4,0.3,0.7,0.4,1.1c0,0.1,0,0.2,0.1,0.3c0.1,0.4,0.2,0.8,0.3,1.2c0,0,0,0.1,0,0.1c0.1,0.4,0.1,0.8,0.2,1.2
				c0,0.1,0,0.2,0,0.3c0,0.5,0.1,0.9,0.1,1.4S59.5,61.1,59.4,61.5z M65.1,29.2c0.4-0.1,0.8-0.2,1.3-0.2s0.9,0.1,1.3,0.2
				c0.9,0.3,1.6,1.1,1.6,2.3c0,1.3-0.2,2.8-0.4,4.5c-0.1,0.6-0.1,1.1-0.2,1.7H64c0-0.6-0.1-1.1-0.2-1.7c-0.2-1.7-0.4-3.2-0.4-4.5
				C63.4,30.3,64.2,29.6,65.1,29.2z M68.4,43.3h-4c0-0.9,0-1.8,0-2.7h4.1C68.4,41.5,68.3,42.5,68.4,43.3z M63.9,46.3h4.9
				c0.3,1.1,0.7,2,1.3,2.9h-7.6C63.2,48.3,63.6,47.3,63.9,46.3z M73.3,52.1c0.1,0.3,0.2,0.6,0.3,1c0.1,0.5,0.2,1.1,0.2,1.7H61.6
				c-0.3-0.9-0.6-1.8-1.1-2.7H73.3z M73.7,61.4c-0.5,4.9-1.8,10.2-3.1,12.9c-0.1,0.2-0.2,0.4-0.3,0.6h-3.8h-4
				c-0.3-0.5-0.6-1.2-0.9-2c-0.5-1.2-0.9-2.7-1.3-4.3c1-1.8,1.7-3.9,2-6.1c0,0,0-0.1,0-0.1c0-0.3,0.1-0.6,0.1-1c0-0.1,0-0.1,0-0.2
				c0-0.4,0-0.7,0-1.1c0-0.4,0-0.8,0-1.2c0-0.1,0-0.2,0-0.2c0-0.3,0-0.6-0.1-0.9H74C73.9,58.9,73.8,60.1,73.7,61.4z"/>
		</g>
	</g>
	<g>
		<g>
			<path id="XMLID_3_" class="st1" d="M40.4,53.1c-0.4-0.4-0.9-0.6-1.5-0.6s-1.2,0.2-1.5,0.6c-0.4,0.4-0.6,0.9-0.6,1.5
				c0,0.6,0.2,1.2,0.6,1.5c0.4,0.4,0.9,0.6,1.5,0.6s1.2-0.2,1.5-0.6c0.4-0.4,0.6-0.9,0.6-1.5C41,54.1,40.8,53.5,40.4,53.1z"/>
		</g>
	</g>
	<g>
		<g>
			<path id="XMLID_2_" class="st1" d="M47.7,56.7c-0.4-0.4-0.9-0.6-1.5-0.6c-0.6,0-1.2,0.2-1.5,0.6c-0.4,0.4-0.6,0.9-0.6,1.5
				c0,0.6,0.2,1.2,0.6,1.5s0.9,0.6,1.5,0.6c0.6,0,1.2-0.2,1.5-0.6c0.4-0.4,0.6-0.9,0.6-1.5C48.3,57.6,48.1,57.1,47.7,56.7z"/>
		</g>
	</g>
	<g>
		<g>
			<path id="XMLID_1_" class="st1" d="M40.5,60.5c-0.4-0.4-0.9-0.6-1.5-0.6c-0.6,0-1.2,0.2-1.5,0.6s-0.6,0.9-0.6,1.5
				c0,0.6,0.2,1.2,0.6,1.5c0.4,0.4,0.9,0.6,1.5,0.6c0.6,0,1.2-0.2,1.5-0.6c0.4-0.4,0.6-0.9,0.6-1.5C41.2,61.4,41,60.8,40.5,60.5z"/>
		</g>
	</g>
</g>
</svg>
