<?xml version="1.0" encoding="utf-8"?>
<!-- Generator: Adobe Illustrator 19.0.0, SVG Export Plug-In . SVG Version: 6.00 Build 0)  -->
<svg version="1.1" id="图层_1" xmlns="http://www.w3.org/2000/svg" xmlns:xlink="http://www.w3.org/1999/xlink" x="0px" y="0px"
	 viewBox="0 0 104 104" style="enable-background:new 0 0 104 104;" xml:space="preserve">
<style type="text/css">
	.st0{fill:url(#XMLID_11_);}
	.st1{fill:#FFFFFF;}
	.st2{fill:none;stroke:#FFFFFF;stroke-width:0.9895;}
</style>
<g id="椭圆_4">
	
		<linearGradient id="XMLID_11_" gradientUnits="userSpaceOnUse" x1="52" y1="108.5" x2="52" y2="211.5" gradientTransform="matrix(1 0 0 -1 0 212)">
		<stop  offset="0" style="stop-color:#0B79A3"/>
		<stop  offset="1" style="stop-color:#0C7BA4"/>
	</linearGradient>
	<path id="XMLID_94_" class="st0" d="M52,103.5C23.6,103.5,0.5,80.4,0.5,52S23.6,0.5,52,0.5s51.5,23.1,51.5,51.5
		S80.4,103.5,52,103.5z"/>
	<path id="XMLID_91_" class="st1" d="M52,1c28.1,0,51,22.9,51,51s-22.9,51-51,51S1,80.1,1,52S23.9,1,52,1 M52,0C23.3,0,0,23.3,0,52
		s23.3,52,52,52s52-23.3,52-52S80.7,0,52,0L52,0z"/>
</g>
<circle id="椭圆_4_拷贝" class="st2" cx="52" cy="52" r="47"/>
<g id="XMLID_3_">
	<g id="XMLID_2_">
		<path id="XMLID_8_" class="st1" d="M76.8,48.9c-0.4-3.3-1.5-6.5-3.2-9.4c-0.8-1.4-1.8-2.7-2.8-3.9l2.2,0.4
			c0.9,0.2,1.7-0.4,1.9-1.3v-0.1c0.2-0.9-0.4-1.7-1.3-1.9l-7.3-1.4c-0.9-0.2-1.7,0.4-1.9,1.3v0.1c-0.2,0.9,0.4,1.7,1.3,1.9l0.1,0
			c0,0,0,0.1,0.1,0.1c2.1,1.7,3.8,3.7,5.3,6.1c1.5,2.6,2.5,5.4,2.8,8.3c0.4,2.8,0.2,5.7-0.6,8.5c-0.7,2.8-2,5.4-3.8,7.7
			c-1.8,2.4-4.1,4.3-6.7,5.9c0,0,0,0,0,0c-2.3,1.3-4.7,2.2-7.3,2.7c-2.5,0.4-5,0.4-7.5-0.1c-0.8-0.1-1.5,0.4-1.6,1.1
			c-0.1,0.8,0.4,1.5,1.1,1.6c1.5,0.3,2.9,0.4,4.4,0.4c1.4,0,2.7-0.1,4.1-0.3c2.9-0.5,5.7-1.5,8.2-3c2.9-1.7,5.5-3.9,7.5-6.6
			c2-2.6,3.4-5.5,4.2-8.6C77,55.3,77.2,52.1,76.8,48.9z"/>
		<path id="XMLID_9_" class="st1" d="M53.4,27c-4.9-0.2-9.6,0.9-13.8,3.3c-2.9,1.7-5.5,3.9-7.5,6.6c-2,2.6-3.4,5.5-4.2,8.6
			c-0.8,3.1-1.1,6.3-0.7,9.5c0.4,3.3,1.5,6.5,3.2,9.4c0.5,0.9,1.1,1.8,1.7,2.7l-2.3-0.4c-0.9-0.2-1.8,0.4-1.9,1.3V68
			c-0.2,0.9,0.4,1.7,1.3,1.9l7.3,1.4c0.9,0.2,1.7-0.4,1.9-1.3V70c0.2-0.9-0.4-1.7-1.3-1.9L36.6,68c-1.6-1.5-2.8-3.1-3.8-4.8
			c0,0,0,0,0-0.1c-1.5-2.6-2.5-5.4-2.8-8.3c-0.4-2.8-0.2-5.7,0.6-8.5c0.7-2.8,2-5.4,3.8-7.7c1.8-2.4,4.1-4.3,6.7-5.9
			c3.7-2.1,7.9-3.1,12.2-2.9c0.8,0,1.4-0.6,1.5-1.3C54.7,27.7,54.1,27.1,53.4,27z"/>
		<path id="XMLID_1_" class="st1" d="M44.2,55.2"/>
	</g>
	<g id="XMLID_4_">
		<path id="XMLID_5_" class="st1" d="M60.3,63.3h-3.5L53.1,57c-0.8-1.3-1.4-2.1-2.1-2.6s-1.4-0.7-2.2-0.7h-2.1v9.6h-2.9V40.7h6.9
			c2.2,0,3.9,0.5,5.2,1.6s1.9,2.6,1.9,4.5c0,3.1-1.7,5.2-5,6.1v0.1c0.6,0.3,1.2,0.6,1.6,1.1s1,1.3,1.8,2.5L60.3,63.3z M46.6,43.2v8
			h3.5c1.3,0,2.4-0.4,3.3-1.2s1.3-1.8,1.3-3.1c0-1.2-0.4-2.1-1.1-2.8s-1.9-1-3.3-1H46.6z"/>
	</g>
</g>
</svg>
