<?xml version="1.0" encoding="utf-8"?>
<!-- Generator: Adobe Illustrator 19.0.0, SVG Export Plug-In . SVG Version: 6.00 Build 0)  -->
<svg version="1.1" id="图层_1" xmlns="http://www.w3.org/2000/svg" xmlns:xlink="http://www.w3.org/1999/xlink" x="0px" y="0px"
	 viewBox="0 0 104 104" style="enable-background:new 0 0 104 104;" xml:space="preserve">
<style type="text/css">
	.st0{fill:url(#XMLID_2_);}
	.st1{fill:#FFFFFF;}
	.st2{fill:none;stroke:#FFFFFF;stroke-width:0.9895;}
</style>
<g id="椭圆_4">
	
		<linearGradient id="XMLID_2_" gradientUnits="userSpaceOnUse" x1="52" y1="108.5" x2="52" y2="211.5" gradientTransform="matrix(1 0 0 -1 0 212)">
		<stop  offset="0" style="stop-color:#0B79A3"/>
		<stop  offset="1" style="stop-color:#0C7BA4"/>
	</linearGradient>
	<path id="XMLID_94_" class="st0" d="M52,103.5C23.6,103.5,0.5,80.4,0.5,52S23.6,0.5,52,0.5s51.5,23.1,51.5,51.5
		S80.4,103.5,52,103.5z"/>
	<path id="XMLID_91_" class="st1" d="M52,1c28.1,0,51,22.9,51,51s-22.9,51-51,51S1,80.1,1,52S23.9,1,52,1 M52,0C23.3,0,0,23.3,0,52
		s23.3,52,52,52s52-23.3,52-52S80.7,0,52,0L52,0z"/>
</g>
<circle id="椭圆_4_拷贝" class="st2" cx="52" cy="52" r="47"/>
<g>
	<g>
		<path class="st1" d="M52.7,40.3H35.6c-0.9,0-1.7-0.7-1.7-1.7c0-0.9,0.8-1.7,1.7-1.7h17.1c0.9,0,1.7,0.7,1.7,1.7
			C54.4,39.6,53.7,40.3,52.7,40.3L52.7,40.3z M39,57h-3.4c-0.9,0-1.7,0.7-1.7,1.7c0,0.9,0.8,1.7,1.7,1.7H39c0.9,0,1.7-0.7,1.7-1.7
			C40.7,57.7,39.9,57,39,57L39,57z M46,72c0,0.9-0.8,1.7-1.7,1.7H28.5c-0.8,0-1.5-0.7-1.5-1.5V28.5c0-0.8,0.7-1.5,1.7-1.5h32.7
			l10.2,10v5.1c0,0.9-0.8,1.7-1.7,1.7c-0.9,0-1.7-0.7-1.7-1.7v-1.8H57.9v-10H30.4v40h13.8C45.2,70.3,46,71.1,46,72L46,72z M61.3,37
			h6.9l-6.9-6.7V37z M39,50.3h-3.4c-0.9,0-1.7,0.7-1.7,1.7c0,0.9,0.8,1.7,1.7,1.7H39c0.9,0,1.7-0.7,1.7-1.7
			C40.7,51.1,39.9,50.3,39,50.3L39,50.3z M43.3,45.3c0-0.9-0.8-1.7-1.7-1.7h-6c-0.9,0-1.7,0.7-1.7,1.7c0,0.9,0.8,1.7,1.7,1.7h6
			C42.5,47,43.3,46.3,43.3,45.3L43.3,45.3z M76.3,76.5c-0.8,0.7-2.1,0.6-2.9-0.2L66,68c-2.2,1.5-4.9,2.3-7.8,2.3
			c-7.8,0-14-6.1-14-13.7c0-7.5,6.3-13.7,14-13.7c7.8,0,14,6.1,14,13.7c0,3.3-1.3,6.3-3.3,8.7l7.5,8.4
			C77.2,74.5,77.2,75.8,76.3,76.5L76.3,76.5z M58.2,66.6c5.6,0,10.2-4.5,10.2-9.9c0-5.5-4.6-9.9-10.2-9.9c-5.6,0-10.2,4.5-10.2,9.9
			C48,62.1,52.6,66.6,58.2,66.6L58.2,66.6z M58.2,66.6"/>
	</g>
</g>
</svg>
