<svg xmlns="http://www.w3.org/2000/svg" width="710" height="108" viewBox="0 0 710 108">
  <metadata><?xpacket begin="﻿" id="W5M0MpCehiHzreSzNTczkc9d"?>
<x:xmpmeta xmlns:x="adobe:ns:meta/" x:xmptk="Adobe XMP Core 5.6-c142 79.160924, 2017/07/13-01:06:39        ">
   <rdf:RDF xmlns:rdf="http://www.w3.org/1999/02/22-rdf-syntax-ns#">
      <rdf:Description rdf:about=""/>
   </rdf:RDF>
</x:xmpmeta>
                                                                                                    
                                                                                                    
                                                                                                    
                                                                                                    
                                                                                                    
                                                                                                    
                                                                                                    
                                                                                                    
                                                                                                    
                                                                                                    
                                                                                                    
                                                                                                    
                                                                                                    
                                                                                                    
                                                                                                    
                                                                                                    
                                                                                                    
                                                                                                    
                                                                                                    
                                                                                                    
                           
<?xpacket end="w"?></metadata>
<defs>
    <style>
      .cls-1 {
        fill: #27a2db;
        fill-rule: evenodd;
      }
    </style>
  </defs>
  <path id="_." data-name="." class="cls-1" d="M25.9,23.228H19.063l-18.9,14.6,4.3,5.566Q14.814,35,16.084,33.873t2.295-2.148q-0.391,5.665-.391,12.012V94.615H25.9V23.228Zm72.433,8.3Q92.3,22.106,80.68,22.105q-11.915,0-17.725,9.033T57.145,58.824q0,18.067,6.006,27.417T80.68,95.592q12.012,0,17.847-9.131t5.835-27.637Q104.362,40.953,98.331,31.529ZM69.01,36.192a12.257,12.257,0,0,1,11.67-7.056A12.265,12.265,0,0,1,92.423,36.29q3.637,7.154,3.638,22.534T92.423,81.407a12.255,12.255,0,0,1-11.743,7.2,12.247,12.247,0,0,1-11.67-7.1q-3.662-7.1-3.662-22.681T69.01,36.192Zm52.535,46.8q-0.635,4.493-2.222,11.963t-2.9,12.549h6.1q2.587-5.566,4.98-12.036t3.662-11.353l-0.732-1.123h-8.887Zm66.476-51.465q-6.031-9.423-17.652-9.424-11.915,0-17.724,9.033t-5.811,27.686q0,18.067,6.006,27.417t17.529,9.351q12.012,0,17.847-9.131t5.835-27.637Q194.051,40.953,188.021,31.529ZM158.7,36.192a13.2,13.2,0,0,1,23.414.1q3.636,7.154,3.637,22.534t-3.637,22.583a13.157,13.157,0,0,1-23.414.1q-3.661-7.1-3.662-22.681T158.7,36.192Zm90.5-4.663q-6.03-9.423-17.651-9.424-11.914,0-17.724,9.033t-5.811,27.686q0,18.067,6.006,27.417t17.529,9.351q12.012,0,17.847-9.131t5.835-27.637Q255.229,40.953,249.2,31.529Zm-29.321,4.663a13.2,13.2,0,0,1,23.413.1q3.638,7.154,3.638,22.534T243.29,81.407a13.156,13.156,0,0,1-23.413.1q-3.661-7.1-3.662-22.681T219.877,36.192Zm90.5-4.663q-6.03-9.423-17.651-9.424-11.915,0-17.725,9.033t-5.81,27.686q0,18.067,6.006,27.417t17.529,9.351q12.012,0,17.847-9.131t5.834-27.637Q316.406,40.953,310.376,31.529Zm-29.321,4.663a13.2,13.2,0,0,1,23.413.1q3.637,7.154,3.638,22.534t-3.638,22.583a13.156,13.156,0,0,1-23.413.1q-3.662-7.1-3.662-22.681T281.055,36.192Zm52.535,46.8q-0.635,4.493-2.222,11.963t-2.9,12.549h6.1q2.587-5.566,4.98-12.036t3.662-11.353l-0.732-1.123H333.59Zm66.476-51.465q-6.031-9.423-17.652-9.424-11.914,0-17.724,9.033t-5.811,27.686q0,18.067,6.006,27.417t17.529,9.351q12.012,0,17.847-9.131T406.1,58.824Q406.1,40.953,400.066,31.529Zm-29.322,4.663a13.2,13.2,0,0,1,23.413.1q3.637,7.154,3.638,22.534t-3.638,22.583a13.156,13.156,0,0,1-23.413.1q-3.662-7.1-3.662-22.681T370.744,36.192Zm90.5-4.663q-6.03-9.423-17.651-9.424-11.914,0-17.725,9.033t-5.81,27.686q0,18.067,6.006,27.417t17.529,9.351q12.012,0,17.847-9.131t5.835-27.637Q467.274,40.953,461.243,31.529Zm-29.321,4.663a13.2,13.2,0,0,1,23.413.1q3.637,7.154,3.638,22.534t-3.638,22.583a13.156,13.156,0,0,1-23.413.1q-3.662-7.1-3.662-22.681T431.922,36.192Zm90.5-4.663q-6.032-9.423-17.651-9.424-11.914,0-17.725,9.033t-5.81,27.686q0,18.067,6,27.417t17.53,9.351q12.012,0,17.846-9.131t5.835-27.637Q528.451,40.953,522.421,31.529ZM493.1,36.192a13.2,13.2,0,0,1,23.413.1q3.637,7.154,3.638,22.534t-3.638,22.583a13.156,13.156,0,0,1-23.413.1q-3.663-7.1-3.662-22.681T493.1,36.192Zm119.011-4.663q-6.031-9.423-17.652-9.424-11.914,0-17.724,9.033t-5.811,27.686q0,18.067,6.006,27.417t17.529,9.351q12.012,0,17.847-9.131t5.835-27.637Q618.141,40.953,612.111,31.529Zm-29.322,4.663a13.2,13.2,0,0,1,23.413.1q3.637,7.154,3.638,22.534T606.2,81.407a13.156,13.156,0,0,1-23.413.1q-3.662-7.1-3.662-22.681T582.789,36.192Zm90.5-4.663q-6.03-9.423-17.651-9.424-11.914,0-17.725,9.033T632.1,58.824q0,18.067,6.006,27.417t17.529,9.351q12.012,0,17.847-9.131t5.835-27.637Q679.319,40.953,673.288,31.529Zm-29.321,4.663a13.2,13.2,0,0,1,23.413.1q3.637,7.154,3.638,22.534T667.38,81.407a13.156,13.156,0,0,1-23.413.1q-3.662-7.1-3.662-22.681T643.967,36.192ZM701.053,0.807h-2.715V9.166H690.33v2.7h8.008v8.32h2.715v-8.32H709.1v-2.7h-8.047V0.807ZM546.377,90.2a3.869,3.869,0,0,0,2.893,1.186,4,4,0,0,0,2.972-1.186,4.046,4.046,0,0,0,0-5.692,4.219,4.219,0,0,0-5.849-.016A4.085,4.085,0,0,0,546.377,90.2Z"/>
</svg>
