<?xml version="1.0" encoding="utf-8"?>
<!-- Generator: Adobe Illustrator 22.0.1, SVG Export Plug-In . SVG Version: 6.00 Build 0)  -->
<svg version="1.1" id="图层_1" xmlns="http://www.w3.org/2000/svg" xmlns:xlink="http://www.w3.org/1999/xlink" x="0px" y="0px"
	 viewBox="0 0 130 130" style="enable-background:new 0 0 130 130;" xml:space="preserve">
<style type="text/css">
	.st0{fill:#1A90C7;}
	.st1{fill:#FFFFFF;}
</style>
<g>
	<circle class="st0" cx="65" cy="65" r="65"/>
</g>
<path class="st1" d="M100.8,59.1c2.3,20.5-13.9,38-34,38c-17.3,0-31.6-12.9-33.9-29.5c-0.2-1.3,0.8-2.5,2.1-2.5c1.1,0,2,0.8,2.1,1.9
	c2,14.5,14.5,25.8,29.7,25.8c17.7,0,31.8-15.3,29.8-33.3C95,46,84,35,70.4,33.4c-10.6-1.2-20.3,3.1-26.5,10.4h10
	c1.2,0,2.1,1,2.1,2.1c0,1.2-1,2.1-2.1,2.1H41.1c-0.1,0-0.1,0-0.2,0c0,0,0,0,0,0h-1.2c-1.7,0-2.7-1.8-1.8-3.2
	c6.7-10.6,19-17.2,32.8-15.7C86.3,30.9,99,43.5,100.8,59.1L100.8,59.1z M67.1,52.3c1.2,0,2.1,1,2.1,2.1v7.2l9.7,5.8
	c1,0.6,1.3,1.9,0.7,2.9c0,0,0,0,0,0c-0.6,1-1.9,1.3-2.9,0.7c0,0,0,0,0,0L66.4,65c-0.9-0.4-1.4-1.3-1.4-2.3v-8.2
	C64.9,53.3,65.9,52.3,67.1,52.3L67.1,52.3z"/>
</svg>
