<?xml version="1.0" encoding="utf-8"?>
<!-- Generator: Adobe Illustrator 22.0.1, SVG Export Plug-In . SVG Version: 6.00 Build 0)  -->
<svg version="1.1" id="图层_1" xmlns="http://www.w3.org/2000/svg" xmlns:xlink="http://www.w3.org/1999/xlink" x="0px" y="0px"
	 viewBox="0 0 130 130" style="enable-background:new 0 0 130 130;" xml:space="preserve">
<style type="text/css">
	.st0{fill:#1A90C7;}
	.st1{display:none;fill:#FFFFFF;}
	.st2{fill:#FFFFFF;}
</style>
<g>
	<circle class="st0" cx="65" cy="65" r="65"/>
</g>
<path class="st1" d="M109.7,58.1c2.9,26-17.5,48-43,48c-21.9,0-40-16.3-42.8-37.3c-0.2-1.6,1-3.1,2.7-3.1c1.4,0,2.5,1,2.7,2.4
	c2.5,18.4,18.4,32.6,37.5,32.6c22.3,0,40.2-19.3,37.6-42c-1.9-17.2-15.8-31.1-33.1-33.1C57.9,24,45.6,29.5,37.8,38.8h12.7
	c1.5,0,2.7,1.2,2.7,2.7c0,1.5-1.2,2.7-2.7,2.7H34.2c-0.1,0-0.2,0-0.3-0.1c0,0,0,0,0,0.1h-1.5c-2.1,0-3.5-2.3-2.3-4.1
	c8.5-13.3,24.1-21.8,41.5-19.9C91.4,22.4,107.5,38.3,109.7,58.1L109.7,58.1z M67.1,49.5c1.5,0,2.7,1.2,2.7,2.7v9.2l12.2,7.4
	c1.3,0.8,1.7,2.4,0.9,3.7c0,0,0,0,0,0c-0.8,1.3-2.4,1.7-3.7,0.9c0,0,0,0,0,0l-13-7.9c-1.1-0.5-1.8-1.7-1.8-2.9V52.2
	C64.4,50.7,65.6,49.5,67.1,49.5L67.1,49.5z"/>
<g>
	<path class="st2" d="M78.2,74.6l-2.6,1.5v11.5h-5.1V73.9l8.3-8.3c1-1,1-2.6,0-3.6c-1-1-2.6-1-3.6,0l-7.3,7.3L60.7,62
		c-1-1-2.6-1-3.6,0c-1,1-1,2.6,0,3.6l8.3,8.3v13.7h-5.1V76.1l-2.6-1.5C50,70.2,46,61.4,47.8,52.7c1.7-8.8,9.4-15.6,18.3-16.3
		c11.3-1,21.3,7.3,22.3,18.6C89.1,63,85.1,70.6,78.2,74.6 M67.9,31.2c-14.2,0-25.7,11.5-25.7,25.7c0,9.2,4.9,17.6,12.8,22.2v11.1
		c0,1.4,1.1,2.6,2.6,2.6h20.5c1.4,0,2.6-1.1,2.6-2.6V79.1c7.9-4.6,12.8-13.1,12.8-22.2C93.6,42.7,82.1,31.2,67.9,31.2"/>
	<path class="st2" d="M60.2,95.4h15.4v2.6H60.2V95.4z"/>
	<path class="st2" d="M62.8,100.5h10.3v2.6H62.8V100.5z"/>
	<path class="st2" d="M67.9,20.9c0.7,0,1.3,0.6,1.3,1.3v5.1c0,0.7-0.6,1.3-1.3,1.3s-1.3-0.6-1.3-1.3l0,0v-5.1
		C66.6,21.5,67.2,20.9,67.9,20.9L67.9,20.9z M97,32.9c0.5,0.5,0.5,1.3,0,1.8l-3.6,3.6c-0.5,0.5-1.3,0.5-1.8,0
		c-0.5-0.5-0.5-1.3,0-1.8c0,0,0,0,0,0l3.6-3.6C95.7,32.4,96.5,32.4,97,32.9z M109,62c0,0.7-0.6,1.3-1.3,1.3h-5.1
		c-0.7,0-1.3-0.6-1.3-1.3c0-0.7,0.6-1.3,1.3-1.3h5.1C108.4,60.7,109,61.3,109,62z M97,91c-0.5,0.5-1.3,0.5-1.8,0l-3.6-3.6
		c-0.5-0.5-0.5-1.3,0-1.8c0.5-0.5,1.3-0.5,1.8,0c0,0,0,0,0,0l3.6,3.6C97.5,89.7,97.5,90.5,97,91z M38.9,91c-0.5-0.5-0.5-1.3,0-1.8
		l3.6-3.6c0.5-0.5,1.3-0.5,1.8,0c0.5,0.5,0.5,1.3,0,1.8c0,0,0,0,0,0L40.7,91C40.2,91.5,39.4,91.5,38.9,91z M26.9,62
		c0-0.7,0.6-1.3,1.3-1.3h5.1c0.7,0,1.3,0.6,1.3,1.3c0,0.7-0.6,1.3-1.3,1.3c0,0,0,0,0,0h-5.1C27.4,63.3,26.9,62.7,26.9,62z
		 M38.9,32.9c0.5-0.5,1.3-0.5,1.8,0l3.6,3.6c0.5,0.5,0.5,1.3,0,1.8c-0.5,0.5-1.3,0.5-1.8,0c0,0,0,0,0,0l-3.6-3.6
		C38.4,34.3,38.4,33.4,38.9,32.9z"/>
</g>
</svg>
