<?xml version="1.0" encoding="utf-8"?>
<!-- Generator: Adobe Illustrator 19.0.0, SVG Export Plug-In . SVG Version: 6.00 Build 0)  -->
<svg version="1.1" id="图层_1" xmlns="http://www.w3.org/2000/svg" xmlns:xlink="http://www.w3.org/1999/xlink" x="0px" y="0px"
	 viewBox="0 0 260 290" style="enable-background:new 0 0 260 290;" xml:space="preserve">
<style type="text/css">
	.st0{fill:none;stroke:#49BEED;stroke-miterlimit:10;}
	.st1{fill:#49BEED;}
	.st2{fill:#526A89;}
	.st3{fill:none;stroke:#526A89;stroke-miterlimit:10;}
	.st4{fill:#6FC5EE;stroke:#0199CC;stroke-miterlimit:10;}
	.st5{fill:#DEDEDF;}
	.st6{fill:#BDBDBE;}
	.st7{fill:#FCFCFD;}
	.st8{fill:none;}
	.st9{fill:#0BA8D8;}
	.st10{fill:#0CBCFF;}
	.st11{enable-background:new    ;}
	.st12{fill:#FFFFFF;}
</style>
<g id="XMLID_4_">
	<polyline id="XMLID_69_" class="st0" points="84,175 58,210.5 13,210.5 	"/>
	<line id="XMLID_73_" class="st0" x1="13" y1="218.5" x2="51" y2="218.5"/>
	<line id="XMLID_74_" class="st0" x1="13" y1="226.5" x2="39" y2="226.5"/>
	<g id="XMLID_2_">
		<path id="XMLID_109_" class="st1" d="M49,172v24H15v-24H49 M51,170H13v28h38V170L51,170z"/>
	</g>
	<polygon id="XMLID_3_" class="st1" points="48,178 21,195 16,195 16,190 43,173 48,173 	"/>
	<g id="XMLID_47_">
		<g id="XMLID_5_">
			<g id="XMLID_131_">
				<path id="XMLID_132_" class="st2" d="M50,35v31H6V35H50 M51,34H5v33h46V34L51,34z"/>
			</g>
		</g>
		<rect id="XMLID_6_" x="5" y="40" class="st2" width="46" height="1"/>
		<rect id="XMLID_7_" x="5" y="59" class="st2" width="46" height="1"/>
		<polygon id="XMLID_46_" class="st3" points="28,45.4 29.6,48.8 33.3,49.3 30.7,51.9 31.3,55.6 28,53.8 24.7,55.6 25.3,51.9 
			22.7,49.3 26.4,48.8 		"/>
	</g>
	<g id="XMLID_52_">
		<g id="XMLID_56_">
			<g id="XMLID_126_">
				<path id="XMLID_127_" class="st2" d="M259,50v38h-52V50H259 M260,49h-54v40h54V49L260,49z"/>
			</g>
		</g>
		<polygon id="XMLID_50_" class="st3" points="232.9,83.8 210,69 233.1,54 256,68.8 		"/>
		<circle id="XMLID_51_" class="st3" cx="233" cy="69" r="9"/>
		<path id="XMLID_54_" class="st3" d="M225,67c0,0,1.1,6,17,6"/>
	</g>
	<g id="XMLID_62_">
		<circle id="XMLID_55_" class="st3" cx="130" cy="19.5" r="8.5"/>
		<g id="XMLID_61_">
			<path id="XMLID_105_" class="st2" d="M130,35c11.4,0,20.8,7.1,21.5,16h-42.9C109.2,42.1,118.6,35,130,35 M130,34
				c-12.4,0-22.5,8.1-22.5,18h45C152.5,42.1,142.4,34,130,34L130,34z"/>
		</g>
		<rect id="XMLID_60_" x="129.5" y="43" class="st2" width="1" height="9"/>
		<polygon id="XMLID_63_" class="st2" points="130.1,44 129.4,43.3 137.8,35.3 138.5,36 		"/>
		<polygon id="XMLID_64_" class="st2" points="130.5,43.3 129.8,44 121.5,36 122.2,35.3 		"/>
	</g>
	<g id="XMLID_67_">
		<circle id="XMLID_101_" class="st0" cx="235.5" cy="196.3" r="4.3"/>
		<g id="XMLID_92_">
			<g id="XMLID_121_">
				<path id="XMLID_122_" class="st1" d="M235.5,204.7c5.3,0,9.8,3.1,10.4,7.2h-20.8C225.7,207.9,230.1,204.7,235.5,204.7
					 M235.5,203.7c-6.3,0-11.5,4.1-11.5,9.2h22.9C246.9,207.8,241.8,203.7,235.5,203.7L235.5,203.7z"/>
			</g>
		</g>
		<rect id="XMLID_84_" x="235.2" y="208.3" class="st1" width="0.5" height="4.6"/>
		<polygon id="XMLID_77_" class="st1" points="235.5,208.8 235.2,208.5 239.4,204.4 239.8,204.7 		"/>
		<polygon id="XMLID_72_" class="st1" points="235.7,208.5 235.4,208.8 231.1,204.7 231.5,204.4 		"/>
	</g>
	<g id="XMLID_65_">
		<circle id="XMLID_94_" class="st2" cx="24" cy="149.9" r="3.9"/>
		<g id="XMLID_83_">
			<path id="XMLID_115_" class="st2" d="M13.6,165c0-4.6,4.7-8.3,10.4-8.3s10.4,3.7,10.4,8.3H13.6z"/>
		</g>
	</g>
	<g id="XMLID_114_">
		<g id="XMLID_103_">
			<rect id="XMLID_93_" x="112" y="247" class="st2" width="36" height="1"/>
			<rect id="XMLID_100_" x="129.5" y="238" class="st2" width="1" height="40"/>
			<rect id="XMLID_98_" x="112" y="267" class="st2" width="36" height="1"/>
			<path id="XMLID_99_" class="st3" d="M130,238c0,0-11,0.1-11,20s11,20,11,20"/>
			<path id="XMLID_113_" class="st3" d="M129.5,278c0,0,11-0.1,11-20s-11-20-11-20"/>
		</g>
		<g id="XMLID_66_">
			<path id="XMLID_102_" class="st1" d="M130,237c11.6,0,21,9.4,21,21s-9.4,21-21,21s-21-9.4-21-21S118.4,237,130,237 M130,236
				c-12.2,0-22,9.8-22,22s9.8,22,22,22s22-9.8,22-22S142.2,236,130,236L130,236z"/>
		</g>
	</g>
	<polyline id="XMLID_53_" class="st3" points="0,76.5 59,76.5 86,115.5 	"/>
	<line id="XMLID_58_" class="st3" x1="11" y1="84.5" x2="58" y2="84.5"/>
	<line id="XMLID_59_" class="st3" x1="27" y1="92.5" x2="58" y2="92.5"/>
	<polyline id="XMLID_81_" class="st3" points="247,218.5 188,218.5 161,179.5 	"/>
	<line id="XMLID_80_" class="st3" x1="247" y1="236.5" x2="225" y2="236.5"/>
	<line id="XMLID_79_" class="st3" x1="247" y1="227.5" x2="212" y2="227.5"/>
	<polyline id="XMLID_78_" class="st3" points="260,93.5 201,93.5 174,132.5 	"/>
	<line id="XMLID_76_" class="st3" x1="249" y1="101.5" x2="202" y2="101.5"/>
	<line id="XMLID_75_" class="st3" x1="233" y1="109.5" x2="202" y2="109.5"/>
	<ellipse id="XMLID_1_" class="st4" cx="130" cy="145" rx="61.5" ry="62"/>
	<g id="XMLID_8_">
		<g id="XMLID_30_">
			<rect id="XMLID_44_" x="101" y="139.5" class="st5" width="10" height="30"/>
			<rect id="XMLID_45_" x="125" y="139.5" class="st5" width="10" height="30"/>
			<rect id="XMLID_43_" x="149" y="139.5" class="st5" width="10" height="30"/>
			<path id="XMLID_40_" class="st6" d="M122,136.4v2.2c0,1.5,1.3,2.8,2.9,2.8h10.2c1.6,0,2.9-1.2,2.9-2.8v-2.2H122z"/>
			<path id="XMLID_39_" class="st6" d="M98,136.4v2.2c0,1.5,1.3,2.8,2.9,2.8h10.2c1.6,0,2.9-1.2,2.9-2.8v-2.2H98z"/>
			<path id="XMLID_41_" class="st6" d="M146,136.4v2.2c0,1.5,1.3,2.8,2.9,2.8h10.2c1.6,0,2.9-1.2,2.9-2.8v-2.2H146z"/>
			<polygon id="XMLID_38_" class="st5" points="171.9,132.1 130,110.5 88.1,132.1 88,132.1 88,132.1 88,132.1 88,132.1 88,136.3 
				172,136.3 172,132.1 			"/>
			<polygon id="XMLID_37_" class="st7" points="103.4,130.5 130,116.8 156.6,130.5 			"/>
			<rect id="XMLID_36_" x="93" y="171.5" class="st5" width="74" height="4"/>
			<rect id="XMLID_35_" x="90" y="174.5" class="st6" width="80" height="4"/>
			<rect id="XMLID_34_" x="98" y="169.5" class="st6" width="16" height="2"/>
			<rect id="XMLID_32_" x="122" y="169.5" class="st6" width="16" height="2"/>
			<rect id="XMLID_33_" x="146" y="169.5" class="st6" width="16" height="2"/>
			<path id="XMLID_31_" class="st5" d="M134,124.5c0,2.2-1.8,4-4,4c-2.2,0-4-1.8-4-4c0-2.2,1.8-4,4-4
				C132.2,120.5,134,122.3,134,124.5"/>
			<rect id="XMLID_10_" x="88" y="110.5" class="st8" width="84" height="68.9"/>
		</g>
		<g id="XMLID_9_">
			<path id="XMLID_29_" class="st9" d="M130,143.2c-6.6,0-12,5.4-12,12c0,6.6,5.4,12,12,12c6.6,0,12-5.4,12-12
				C142,148.6,136.6,143.2,130,143.2"/>
			<path id="XMLID_28_" class="st10" d="M139,155.1c0,4.9-4,8.9-8.9,8.9c-4.9,0-8.9-4-8.9-8.9c0-4.9,4-8.9,8.9-8.9
				C135,146.2,139,150.2,139,155.1"/>
			
				<rect id="XMLID_27_" x="126" y="133.3" transform="matrix(0.9921 -0.1253 0.1253 0.9921 -15.9816 16.8955)" class="st10" width="0.8" height="4.3"/>
			
				<rect id="XMLID_26_" x="119.4" y="135.8" transform="matrix(0.889 -0.4579 0.4579 0.889 -49.8734 70.1849)" class="st10" width="0.8" height="4.3"/>
			
				<rect id="XMLID_25_" x="114.1" y="140.3" transform="matrix(0.679 -0.7341 0.7341 0.679 -67.8386 129.8096)" class="st10" width="0.8" height="4.3"/>
			
				<rect id="XMLID_24_" x="110.7" y="146.4" transform="matrix(0.3884 -0.9215 0.9215 0.3884 -68.937 193.2224)" class="st10" width="0.8" height="4.3"/>
			
				<rect id="XMLID_23_" x="109.6" y="153.2" transform="matrix(4.917660e-002 -0.9988 0.9988 4.917660e-002 -50.6899 257.5809)" class="st10" width="0.8" height="4.3"/>
			
				<rect id="XMLID_22_" x="110.8" y="160.1" transform="matrix(-0.2967 -0.955 0.955 -0.2967 -10.7516 316.6082)" class="st10" width="0.8" height="4.3"/>
			
				<rect id="XMLID_21_" x="114.4" y="166.1" transform="matrix(-0.6047 -0.7964 0.7964 -0.6047 50.1265 361.4081)" class="st10" width="0.8" height="4.3"/>
			
				<rect id="XMLID_20_" x="148.5" y="159.8" transform="matrix(-0.3873 0.9219 -0.9219 -0.3873 355.8712 87.3567)" class="st10" width="0.8" height="4.3"/>
			
				<rect id="XMLID_19_" x="149.7" y="152.9" transform="matrix(-4.842161e-002 0.9988 -0.9988 -4.842161e-002 312.1975 12.6827)" class="st10" width="0.8" height="4.3"/>
			
				<rect id="XMLID_18_" x="148.4" y="146" transform="matrix(0.2963 0.9551 -0.9551 0.2963 246.2546 -37.8111)" class="st10" width="0.8" height="4.3"/>
			
				<rect id="XMLID_17_" x="144.9" y="140" transform="matrix(0.6049 0.7963 -0.7963 0.6049 170.6205 -59.4781)" class="st10" width="0.8" height="4.3"/>
			
				<rect id="XMLID_16_" x="139.5" y="135.6" transform="matrix(0.841 0.5411 -0.5411 0.841 96.7858 -53.7714)" class="st10" width="0.8" height="4.3"/>
			
				<rect id="XMLID_15_" x="132.9" y="133.3" transform="matrix(0.9751 0.2216 -0.2216 0.9751 33.337 -26.1772)" class="st10" width="0.8" height="4.3"/>
			
				<rect id="XMLID_14_" x="133.2" y="172.7" transform="matrix(-0.9921 0.1258 -0.1258 -0.9921 288.1264 331.5592)" class="st10" width="0.8" height="4.3"/>
			
				<rect id="XMLID_13_" x="139.7" y="170.3" transform="matrix(-0.8891 0.4577 -0.4577 -0.8891 343.6237 261.6139)" class="st10" width="0.8" height="4.3"/>
			
				<rect id="XMLID_12_" x="145" y="165.7" transform="matrix(-0.6785 0.7346 -0.7346 -0.6785 367.4259 175.0156)" class="st10" width="0.8" height="4.3"/>
			
				<rect id="XMLID_11_" x="119.7" y="170.5" transform="matrix(-0.8408 -0.5414 0.5414 -0.8408 127.5571 382.7463)" class="st10" width="0.8" height="4.3"/>
			
				<rect id="XMLID_42_" x="126.2" y="172.8" transform="matrix(-0.9753 -0.2211 0.2211 -0.9753 211.4414 373.5483)" class="st10" width="0.8" height="4.3"/>
		</g>
		<g id="XMLID_140_" class="st11">
			<path id="XMLID_141_" class="st12" d="M132.8,160.5c0-0.4-0.2-1-0.8-2.4c-0.8-1.9-1.4-2.5-2.5-2.5h-2.6v3.3c0,0.7,0,1.1,0.1,1.6
				h-1.3c0.1-0.5,0.1-0.9,0.1-1.6v-7.5c0-0.6,0-1.1-0.1-1.6c0.5,0,0.9,0,1.5,0h3.1c2,0,3.2,1,3.2,2.7c0,0.9-0.3,1.6-0.8,2.1
				c-0.4,0.4-0.8,0.5-1.5,0.7c0.6,0.2,0.9,0.5,1.4,1.5c0.3,0.7,0.7,1.4,1.1,2.4c0.2,0.5,0.4,1,0.6,1.3H132.8z M130.2,154.7
				c0.6,0,1.2-0.2,1.6-0.6c0.4-0.3,0.5-0.8,0.5-1.4c0-1.2-0.7-1.8-2-1.8h-3.4v3.9H130.2z"/>
		</g>
	</g>
</g>
</svg>
