<?xml version="1.0" encoding="utf-8"?>
<!-- Generator: Adobe Illustrator 19.0.0, SVG Export Plug-In . SVG Version: 6.00 Build 0)  -->
<svg version="1.1" id="图层_1" xmlns="http://www.w3.org/2000/svg" xmlns:xlink="http://www.w3.org/1999/xlink" x="0px" y="0px"
	 viewBox="0 0 260 290" style="enable-background:new 0 0 260 290;" xml:space="preserve">
<style type="text/css">
	.st0{fill:none;stroke:#49BEED;stroke-miterlimit:10;}
	.st1{fill:none;stroke:#526A89;stroke-miterlimit:10;}
	.st2{fill:#6FC5EE;stroke:#0199CC;stroke-miterlimit:10;}
	.st3{fill:#DEDEDF;}
	.st4{fill:#BDBDBE;}
	.st5{fill:#FCFCFD;}
	.st6{fill:none;}
	.st7{fill:#0BA8D8;}
	.st8{fill:#0CBCFF;}
	.st9{enable-background:new    ;}
	.st10{fill:#FFFFFF;}
	.st11{fill:#C1CAD5;}
	.st12{fill:#7895B5;}
	.st13{fill:#526A89;}
	.st14{fill:none;stroke:#526A89;stroke-width:0.4646;stroke-miterlimit:10;}
	.st15{fill:#49BEED;}
</style>
<polyline id="XMLID_69_" class="st0" points="81,175 55,210.5 0,210.5 "/>
<line id="XMLID_73_" class="st0" x1="0" y1="218.5" x2="48" y2="218.5"/>
<line id="XMLID_74_" class="st0" x1="0" y1="226.5" x2="36" y2="226.5"/>
<polyline id="XMLID_78_" class="st1" points="260,93.5 201,93.5 174,132.5 "/>
<line id="XMLID_76_" class="st1" x1="249" y1="101.5" x2="202" y2="101.5"/>
<line id="XMLID_75_" class="st1" x1="233" y1="109.5" x2="202" y2="109.5"/>
<ellipse id="XMLID_1_" class="st2" cx="130" cy="145" rx="61.5" ry="62"/>
<g id="XMLID_8_">
	<g id="XMLID_30_">
		<rect id="XMLID_44_" x="101" y="139.5" class="st3" width="10" height="30"/>
		<rect id="XMLID_45_" x="125" y="139.5" class="st3" width="10" height="30"/>
		<rect id="XMLID_43_" x="149" y="139.5" class="st3" width="10" height="30"/>
		<path id="XMLID_40_" class="st4" d="M122,136.4v2.2c0,1.5,1.3,2.8,2.9,2.8h10.2c1.6,0,2.9-1.2,2.9-2.8v-2.2H122z"/>
		<path id="XMLID_39_" class="st4" d="M98,136.4v2.2c0,1.5,1.3,2.8,2.9,2.8h10.2c1.6,0,2.9-1.2,2.9-2.8v-2.2H98z"/>
		<path id="XMLID_41_" class="st4" d="M146,136.4v2.2c0,1.5,1.3,2.8,2.9,2.8h10.2c1.6,0,2.9-1.2,2.9-2.8v-2.2H146z"/>
		<polygon id="XMLID_38_" class="st3" points="171.9,132.1 130,110.5 88.1,132.1 88,132.1 88,132.1 88,132.1 88,132.1 88,136.3 
			172,136.3 172,132.1 		"/>
		<polygon id="XMLID_37_" class="st5" points="103.4,130.5 130,116.8 156.6,130.5 		"/>
		<rect id="XMLID_36_" x="93" y="171.5" class="st3" width="74" height="4"/>
		<rect id="XMLID_35_" x="90" y="174.5" class="st4" width="80" height="4"/>
		<rect id="XMLID_34_" x="98" y="169.5" class="st4" width="16" height="2"/>
		<rect id="XMLID_32_" x="122" y="169.5" class="st4" width="16" height="2"/>
		<rect id="XMLID_33_" x="146" y="169.5" class="st4" width="16" height="2"/>
		<path id="XMLID_31_" class="st3" d="M134,124.5c0,2.2-1.8,4-4,4s-4-1.8-4-4s1.8-4,4-4S134,122.3,134,124.5"/>
		<rect id="XMLID_10_" x="88" y="110.5" class="st6" width="84" height="68.9"/>
	</g>
	<g id="XMLID_9_">
		<path id="XMLID_29_" class="st7" d="M130,143.2c-6.6,0-12,5.4-12,12s5.4,12,12,12c6.6,0,12-5.4,12-12
			C142,148.6,136.6,143.2,130,143.2"/>
		<path id="XMLID_28_" class="st8" d="M139,155.1c0,4.9-4,8.9-8.9,8.9c-4.9,0-8.9-4-8.9-8.9s4-8.9,8.9-8.9
			C135,146.2,139,150.2,139,155.1"/>
		
			<rect id="XMLID_27_" x="126" y="133.3" transform="matrix(-0.9921 0.1253 -0.1253 -0.9921 268.758 253.9704)" class="st8" width="0.8" height="4.3"/>
		
			<rect id="XMLID_26_" x="119.4" y="135.8" transform="matrix(-0.889 0.4579 -0.4579 -0.889 289.4701 205.7634)" class="st8" width="0.8" height="4.3"/>
		
			<rect id="XMLID_25_" x="114.1" y="140.3" transform="matrix(-0.679 0.7341 -0.7341 -0.679 296.8097 155.1828)" class="st8" width="0.8" height="4.3"/>
		
			<rect id="XMLID_24_" x="110.7" y="146.4" transform="matrix(-0.3884 0.9215 -0.9215 -0.3884 291.1341 103.8526)" class="st8" width="0.8" height="4.3"/>
		
			<rect id="XMLID_23_" x="109.5" y="153.2" transform="matrix(-4.917612e-002 0.9988 -0.9988 -4.917612e-002 270.4513 53.242)" class="st8" width="0.8" height="4.3"/>
		
			<rect id="XMLID_22_" x="110.8" y="160.1" transform="matrix(0.2967 0.955 -0.955 0.2967 233.1768 7.9307)" class="st8" width="0.8" height="4.3"/>
		
			<rect id="XMLID_21_" x="114.3" y="166.1" transform="matrix(0.6047 0.7964 -0.7964 0.6047 179.331 -24.8508)" class="st8" width="0.8" height="4.3"/>
		
			<rect id="XMLID_20_" x="148.5" y="159.8" transform="matrix(0.3873 -0.9219 0.9219 0.3873 -58.0386 236.4739)" class="st8" width="0.8" height="4.3"/>
		
			<rect id="XMLID_19_" x="149.7" y="152.9" transform="matrix(4.842292e-002 -0.9988 0.9988 4.842292e-002 -12.114 297.4741)" class="st8" width="0.8" height="4.3"/>
		
			<rect id="XMLID_18_" x="148.4" y="146.1" transform="matrix(-0.2963 -0.9551 0.9551 -0.2963 51.3993 334.2795)" class="st8" width="0.8" height="4.3"/>
		
			<rect id="XMLID_17_" x="144.9" y="140.1" transform="matrix(-0.6049 -0.7963 0.7963 -0.6049 119.979 343.9514)" class="st8" width="0.8" height="4.3"/>
		
			<rect id="XMLID_16_" x="139.5" y="135.6" transform="matrix(-0.841 -0.5411 0.5411 -0.841 183.0132 329.342)" class="st8" width="0.8" height="4.3"/>
		
			<rect id="XMLID_15_" x="132.9" y="133.3" transform="matrix(-0.9751 -0.2216 0.2216 -0.9751 233.2753 297.052)" class="st8" width="0.8" height="4.3"/>
		
			<rect id="XMLID_14_" x="133.2" y="172.7" transform="matrix(0.9921 -0.1258 0.1258 0.9921 -20.94 18.1937)" class="st8" width="0.8" height="4.3"/>
		
			<rect id="XMLID_13_" x="139.7" y="170.3" transform="matrix(0.8891 -0.4577 0.4577 0.8891 -63.3739 83.2577)" class="st8" width="0.8" height="4.3"/>
		
			<rect id="XMLID_12_" x="145.1" y="165.8" transform="matrix(0.6785 -0.7346 0.7346 0.6785 -76.6005 160.8546)" class="st8" width="0.8" height="4.3"/>
		
			<rect id="XMLID_11_" x="119.6" y="170.4" transform="matrix(0.8408 0.5414 -0.5414 0.8408 112.5361 -37.5172)" class="st8" width="0.8" height="4.3"/>
		
			<rect id="XMLID_42_" x="126.2" y="172.8" transform="matrix(0.9753 0.2211 -0.2211 0.9753 41.8089 -23.6721)" class="st8" width="0.8" height="4.3"/>
	</g>
	<g id="XMLID_140_" class="st9">
		<path id="XMLID_141_" class="st10" d="M132.8,160.5c0-0.4-0.2-1-0.8-2.4c-0.8-1.9-1.4-2.5-2.5-2.5h-2.6v3.3c0,0.7,0,1.1,0.1,1.6
			h-1.3c0.1-0.5,0.1-0.9,0.1-1.6v-7.5c0-0.6,0-1.1-0.1-1.6c0.5,0,0.9,0,1.5,0h3.1c2,0,3.2,1,3.2,2.7c0,0.9-0.3,1.6-0.8,2.1
			c-0.4,0.4-0.8,0.5-1.5,0.7c0.6,0.2,0.9,0.5,1.4,1.5c0.3,0.7,0.7,1.4,1.1,2.4c0.2,0.5,0.4,1,0.6,1.3H132.8z M130.2,154.7
			c0.6,0,1.2-0.2,1.6-0.6c0.4-0.3,0.5-0.8,0.5-1.4c0-1.2-0.7-1.8-2-1.8h-3.4v3.9L130.2,154.7L130.2,154.7z"/>
	</g>
</g>
<g>
	<rect x="129.5" y="62" class="st11" width="1" height="10"/>
	
		<rect x="122.7" y="62.3" transform="matrix(0.9962 -8.715574e-002 8.715574e-002 0.9962 -5.3965 10.9938)" class="st11" width="1" height="10"/>
	<rect x="116" y="63.2" transform="matrix(0.9848 -0.1736 0.1736 0.9848 -10.071 21.2582)" class="st11" width="1" height="10"/>
	<rect x="109.3" y="64.7" transform="matrix(0.9659 -0.2588 0.2588 0.9659 -14.287 30.795)" class="st11" width="1" height="10"/>
	<rect x="102.8" y="66.7" transform="matrix(0.9397 -0.342 0.342 0.9397 -18.2931 39.6626)" class="st11" width="1" height="10"/>
	<rect x="96.5" y="69.3" transform="matrix(0.9063 -0.4226 0.4226 0.9063 -22.3124 47.9712)" class="st11" width="1" height="10"/>
	<rect x="90.5" y="72.5" transform="matrix(0.866 -0.5 0.5 0.866 -26.5333 55.8763)" class="st11" width="1" height="10"/>
	<rect x="84.8" y="76.1" transform="matrix(0.8192 -0.5736 0.5736 0.8192 -31.1013 63.5716)" class="st11" width="1" height="10"/>
	<rect x="79.4" y="80.2" transform="matrix(0.766 -0.6428 0.6428 0.766 -36.1124 71.279)" class="st11" width="1" height="10"/>
	<rect x="74.3" y="84.8" transform="matrix(0.7071 -0.7071 0.7071 0.7071 -41.6087 79.2391)" class="st11" width="1" height="10"/>
	<rect x="69.7" y="89.9" transform="matrix(0.6428 -0.766 0.766 0.6428 -47.5753 87.6996)" class="st11" width="1" height="10"/>
	<rect x="65.6" y="95.3" transform="matrix(0.5736 -0.8192 0.8192 0.5736 -53.9398 96.9046)" class="st11" width="1" height="10"/>
	<rect x="62" y="101" transform="matrix(0.5 -0.866 0.866 0.5 -60.5737 107.0833)" class="st11" width="1" height="10"/>
	<rect x="58.8" y="107" transform="matrix(0.4226 -0.9063 0.9063 0.4226 -67.2955 118.4387)" class="st11" width="1" height="10"/>
	<rect x="56.2" y="113.3" transform="matrix(0.342 -0.9397 0.9397 0.342 -73.8766 131.1381)" class="st11" width="1" height="10"/>
	
		<rect x="54.2" y="119.8" transform="matrix(0.2588 -0.9659 0.9659 0.2588 -80.0479 145.3037)" class="st11" width="1" height="10"/>
	
		<rect x="52.7" y="126.5" transform="matrix(0.1736 -0.9848 0.9848 0.1736 -85.5088 161.0054)" class="st11" width="1" height="10"/>
	
		<rect x="51.8" y="133.2" transform="matrix(8.715574e-002 -0.9962 0.9962 8.715574e-002 -89.9371 178.2546)" class="st11" width="1" height="10"/>
	<rect x="47" y="144.5" class="st11" width="10" height="1"/>
	<rect x="79.4" y="199.8" transform="matrix(-0.766 -0.6428 0.6428 -0.766 9.4291 412.9348)" class="st11" width="1" height="10"/>
	
		<rect x="84.8" y="203.9" transform="matrix(-0.8192 -0.5736 0.5736 -0.8192 35.2862 428.9134)" class="st11" width="1" height="10"/>
	<rect x="90.5" y="207.5" transform="matrix(-0.866 -0.5 0.5 -0.866 63.5333 442.1237)" class="st11" width="1" height="10"/>
	
		<rect x="96.5" y="210.7" transform="matrix(-0.9063 -0.4226 0.4226 -0.9063 93.8247 452.1844)" class="st11" width="1" height="10"/>
	
		<rect x="102.8" y="213.3" transform="matrix(-0.9397 -0.342 0.342 -0.9397 125.7521 458.7655)" class="st11" width="1" height="10"/>
	
		<rect x="109.3" y="215.3" transform="matrix(-0.9659 -0.2588 0.2588 -0.9659 158.8537 461.5979)" class="st11" width="1" height="10"/>
	
		<rect x="116" y="216.8" transform="matrix(-0.9848 -0.1736 0.1736 -0.9848 192.6239 460.4824)" class="st11" width="1" height="10"/>
	
		<rect x="122.7" y="217.7" transform="matrix(-0.9962 -8.715574e-002 8.715574e-002 -0.9962 226.525 455.2967)" class="st11" width="1" height="10"/>
	<rect x="129.5" y="218" class="st11" width="1" height="10"/>
	
		<rect x="136.3" y="217.7" transform="matrix(-0.9962 8.715574e-002 -8.715574e-002 -0.9962 292.4856 432.6362)" class="st11" width="1" height="10"/>
	
		<rect x="143" y="216.8" transform="matrix(-0.9848 0.1736 -0.1736 -0.9848 323.4261 415.3339)" class="st11" width="1" height="10"/>
	
		<rect x="149.7" y="215.3" transform="matrix(-0.9659 0.2588 -0.2588 -0.9659 352.287 394.305)" class="st11" width="1" height="10"/>
	
		<rect x="156.2" y="213.3" transform="matrix(-0.9397 0.342 -0.342 -0.9397 378.568 369.8403)" class="st11" width="1" height="10"/>
	
		<rect x="162.5" y="210.7" transform="matrix(-0.9063 0.4226 -0.4226 -0.9063 401.8153 342.3037)" class="st11" width="1" height="10"/>
	<rect x="168.5" y="207.5" transform="matrix(-0.866 0.5 -0.5 -0.866 421.6333 312.1237)" class="st11" width="1" height="10"/>
	
		<rect x="174.2" y="203.9" transform="matrix(-0.8192 0.5736 -0.5736 -0.8192 437.6933 279.7835)" class="st11" width="1" height="10"/>
	
		<rect x="179.6" y="199.8" transform="matrix(-0.766 0.6428 -0.6428 -0.766 449.7424 245.8101)" class="st11" width="1" height="10"/>
	
		<rect x="184.7" y="195.2" transform="matrix(-0.7071 0.7071 -0.7071 -0.7071 457.6087 210.7609)" class="st11" width="1" height="10"/>
	
		<rect x="189.3" y="190.1" transform="matrix(-0.6428 0.766 -0.766 -0.6428 461.2053 175.2113)" class="st11" width="1" height="10"/>
	
		<rect x="193.4" y="184.7" transform="matrix(-0.5736 0.8192 -0.8192 -0.5736 460.5319 139.7402)" class="st11" width="1" height="10"/>
	<rect x="197" y="179" transform="matrix(-0.5 0.866 -0.866 -0.5 455.6736 104.9167)" class="st11" width="1" height="10"/>
	
		<rect x="200.2" y="173" transform="matrix(-0.4226 0.9063 -0.9063 -0.4226 446.7985 71.2864)" class="st11" width="1" height="10"/>
	<rect x="202.8" y="166.7" transform="matrix(-0.342 0.9397 -0.9397 -0.342 434.1515 39.359)" class="st11" width="1" height="10"/>
	
		<rect x="204.8" y="160.2" transform="matrix(-0.2588 0.9659 -0.9659 -0.2588 418.0479 9.5963)" class="st11" width="1" height="10"/>
	
		<rect x="206.3" y="153.5" transform="matrix(-0.1736 0.9848 -0.9848 -0.1736 398.864 -17.5975)" class="st11" width="1" height="10"/>
	
		<rect x="207.2" y="146.8" transform="matrix(-8.715574e-002 0.9962 -0.9962 -8.715574e-002 377.0262 -41.8846)" class="st11" width="1" height="10"/>
	<rect x="203" y="144.5" class="st11" width="10" height="1"/>
	<rect x="179.6" y="80.2" transform="matrix(0.766 0.6428 -0.6428 0.766 96.9409 -95.8457)" class="st11" width="1" height="10"/>
	<rect x="174.2" y="76.1" transform="matrix(0.8192 0.5736 -0.5736 0.8192 78.1218 -85.5583)" class="st11" width="1" height="10"/>
	<rect x="168.5" y="72.5" transform="matrix(0.866 0.5 -0.5 0.866 61.3667 -74.1237)" class="st11" width="1" height="10"/>
	<rect x="162.5" y="69.3" transform="matrix(0.9063 0.4226 -0.4226 0.9063 46.6724 -61.9096)" class="st11" width="1" height="10"/>
	<rect x="156.2" y="66.7" transform="matrix(0.9397 0.342 -0.342 0.9397 33.973 -49.2626)" class="st11" width="1" height="10"/>
	<rect x="149.7" y="64.7" transform="matrix(0.9659 0.2588 -0.2588 0.9659 23.1463 -36.498)" class="st11" width="1" height="10"/>
	<rect x="143" y="63.2" transform="matrix(0.9848 0.1736 -0.1736 0.9848 14.021 -23.8904)" class="st11" width="1" height="10"/>
	
		<rect x="136.3" y="62.3" transform="matrix(0.9962 8.715574e-002 -8.715574e-002 0.9962 6.3859 -11.6667)" class="st11" width="1" height="10"/>
</g>
<g>
	<rect x="214.6" y="68.8" class="st12" width="0.5" height="17.2"/>
	<rect x="206.2" y="64.2" class="st13" width="0.5" height="17.2"/>
	<rect x="223.4" y="63.7" class="st13" width="0.5" height="17.2"/>
	<polygon class="st12" points="215.1,68.9 214.6,68.9 199.7,60.5 200.2,60.5 	"/>
	<polygon class="st13" points="223.9,63.7 223.4,63.7 208.6,55.4 209,55.4 	"/>
	<polygon class="st12" points="215.1,68.9 214.6,68.9 229,60.5 229.5,60.5 	"/>
	<polygon class="st13" points="206.7,64.2 206.2,64.2 220.6,55.9 221.1,55.9 	"/>
	<polygon class="st14" points="200.1,60.6 214.8,52.1 229.5,60.6 229.5,77.5 214.8,86 200.1,77.5 	"/>
</g>
<g>
	<g>
		<g>
			<path class="st15" d="M38,176v25H2v-25H38 M40,174H0v29h40V174L40,174z"/>
		</g>
	</g>
	<polygon class="st15" points="40,203 38.4,203 0,174.4 1.6,174.4 	"/>
	<polygon class="st15" points="40,174.4 38.4,174.4 0,203 1.6,203 	"/>
</g>
<g>
	<path class="st1" d="M117,22c0,0-1.1,4,1,4h22c2.8,0,5,2.2,5,5v0c0,2.8-2.2,5-5,5h-37L82,17l21-16l10,10h35l28.3,20.3
		c2.1,1.6,2.3,4.6,0.5,6.4v0c-1.5,1.5-3.7,1.7-5.4,0.5L145,21h-18"/>
	<path class="st1" d="M134,39c0,0,2.4,3,5,3s3-2,3-2v-2c0,0,3.6,4,6,4s3-1.8,3-2"/>
	<path class="st1" d="M147,33c0,0,10.3,9,13,9s3-3,3-3"/>
</g>
<g>
	<path class="st0" d="M143,269c0,0,1.1-4-1-4h-22c-2.8,0-5-2.2-5-5l0,0c0-2.8,2.2-5,5-5h37l21,19l-21,16l-10-10h-35l-28.3-20.3
		c-2.1-1.6-2.3-4.6-0.5-6.4h0c1.5-1.5,3.7-1.7,5.4-0.5L115,270h18"/>
	<path class="st0" d="M126,252c0,0-2.4-3-5-3s-3,2-3,2v2c0,0-3.6-4-6-4s-3,1.8-3,2"/>
	<path class="st0" d="M113,258c0,0-10.3-9-13-9s-3,3-3,3"/>
</g>
<polygon class="st15" points="59.4,49.2 66.7,45 74,49.2 74,57.6 66.7,61.8 59.4,57.6 "/>
<polygon class="st15" points="17,74.9 35.5,64.2 54.1,74.9 54.1,96.3 35.5,107 17,96.3 "/>
<polygon class="st15" points="200,207.4 209,202.2 218,207.4 218,217.8 209,223 200,217.8 "/>
<polygon class="st15" points="239.2,75.7 245.6,72 252,75.7 252,83.1 245.6,86.8 239.2,83.1 "/>
</svg>
